<svg xmlns="http://www.w3.org/2000/svg" width="152" height="32" viewBox="0 0 152 32" fill="none"><path d="M73.8617 21.7737V13.9893C73.8617 13.6319 73.3845 12.6279 73.1159 12.3551C72.2606 11.4854 70.5934 11.5061 69.705 12.3138C69.3807 12.6093 68.7031 13.7744 68.7031 14.1876V21.625C68.7031 21.6353 68.5646 21.7737 68.5543 21.7737H66.1248V14.6835C66.1248 14.0699 65.8232 13.0142 65.4306 12.5018C64.6187 11.442 62.7119 11.473 61.7967 12.3882C61.3256 12.8592 60.7699 14.2331 60.7699 14.8818V21.7737H58.2908V9.47731H60.7699L60.8195 10.5681C62.7759 8.53731 66.3417 8.90918 67.761 11.3594C69.5294 8.84307 73.244 8.47533 75.3306 10.8326C75.9318 11.5102 76.5371 12.9997 76.5371 13.8901V21.625C76.5371 21.6353 76.3987 21.7737 76.3883 21.7737H73.8596H73.8617Z" fill="#31308D"></path><path d="M56.3383 15.5863C56.3383 19.0818 53.5038 21.9163 50.0082 21.9163C46.5127 21.9163 43.6782 19.0818 43.6782 15.5863C43.6782 12.0907 46.5127 9.25624 50.0082 9.25624C53.5038 9.25624 56.3383 12.0907 56.3383 15.5863ZM53.8819 15.5863C53.8819 13.448 52.1485 11.7168 50.0124 11.7168C47.8762 11.7168 46.1429 13.4501 46.1429 15.5863C46.1429 17.7224 47.8762 19.4557 50.0124 19.4557C52.1485 19.4557 53.8819 17.7224 53.8819 15.5863Z" fill="#32318D"></path><path d="M81.3981 9.47731V10.6673C83.4351 8.71704 86.8914 8.81001 88.885 10.7664C89.6474 11.5143 90.3229 13.01 90.3229 14.0885V21.625C90.3229 21.6353 90.1845 21.7737 90.1742 21.7737H87.7942C87.7839 21.7737 87.6455 21.6353 87.6455 21.625V14.0885C87.6455 13.9191 87.222 13.0307 87.0939 12.8551C86.0444 11.4193 83.7223 11.3718 82.4848 12.5969C82.1522 12.9253 81.3981 14.2579 81.3981 14.6835V21.7737H78.8198V9.47731H81.3981Z" fill="#32318E"></path><path d="M107.578 10.6673V13.3447C106.243 12.7146 104.981 11.7849 103.46 11.661C102.659 11.5949 101.276 11.6321 100.694 12.2642C99.7766 13.26 100.898 13.7166 101.725 13.9914C103.423 14.5554 105.896 14.5801 107.181 16.0015C108.466 17.4229 108.181 19.8731 106.619 20.9639C104.119 22.7096 100.182 21.8522 97.8594 20.1375V17.113C98.0329 17.0696 98.0577 17.1853 98.1569 17.2617C99.8551 18.5612 100.931 19.7264 103.367 19.5962C104.503 19.5363 106.427 18.5385 104.993 17.4683C103.181 16.1151 98.2168 16.6977 97.8718 13.4831C97.6673 11.5618 98.6445 10.3429 100.384 9.67356C102.793 8.74802 105.417 9.47109 107.578 10.6693V10.6673Z" fill="#31318D"></path><path d="M113.131 9.47731H110.552V21.7737H113.131V9.47731Z" fill="#33328E"></path><path d="M111.852 8.0291C112.752 8.0291 113.482 7.29931 113.482 6.39908C113.482 5.49884 112.752 4.76906 111.852 4.76906C110.952 4.76906 110.222 5.49884 110.222 6.39908C110.222 7.29931 110.952 8.0291 111.852 8.0291Z" fill="#33328E"></path><path d="M95.3802 9.47731H92.9011V21.7737H95.3802V9.47731Z" fill="#2F2E8C"></path><path d="M94.1366 8.027C95.0346 8.027 95.7625 7.29906 95.7625 6.40111C95.7625 5.50316 95.0346 4.77522 94.1366 4.77522C93.2387 4.77522 92.5107 5.50316 92.5107 6.40111C92.5107 7.29906 93.2387 8.027 94.1366 8.027Z" fill="#33328E"></path><path d="M128.005 16.6172H118.188C118.595 19.4165 122.091 20.2966 124.231 18.743C124.535 18.522 125.175 17.6522 125.396 17.6315C125.894 17.584 127.022 18.1232 127.609 18.1067C126.334 21.9741 120.909 23.0649 117.843 20.5817C112.711 16.423 116.517 7.96711 123.167 9.40706C125.367 9.8843 128.005 12.3304 128.005 14.6835V16.6172ZM118.188 14.4355H125.328C124.479 10.7355 119.021 10.7375 118.188 14.4355Z" fill="#32318D"></path><path d="M141.393 21.7737H138.814V14.2868C138.814 13.7125 137.998 12.5617 137.501 12.2291C135.344 10.7974 132.468 12.5741 132.468 15.0801V21.7737H129.89V9.47729H132.468V10.6673C134.073 9.21492 136.342 8.85338 138.356 9.68802C140.035 10.3842 141.393 12.1176 141.393 13.9893V21.7737Z" fill="#31318D"></path><path d="M146.45 9.47728H149.623V11.7581H146.45V17.0634C146.45 17.9579 148.09 19.3938 148.979 19.3938H151.012V21.8729H148.185C147.853 21.8729 146.442 21.1973 146.122 20.9618C145.279 20.3461 143.872 18.5137 143.872 17.46V6.20485H146.301C146.312 6.20485 146.45 6.34327 146.45 6.3536V9.47728Z" fill="#31308D"></path><path d="M24.0189 23.6207C24.0932 23.7343 24.9981 24.6619 25.0746 24.6949C25.5786 24.9243 26.3864 24.4512 26.7996 25.1515C27.6528 26.5894 25.6799 27.6637 24.8742 26.482C24.4506 25.8622 24.8638 25.4531 24.7295 25.1474C24.6965 25.073 23.6573 24.038 23.583 24.0029C23.209 23.8293 23.0417 24.0958 22.7359 24.1454C21.9777 24.2652 21.3435 23.8975 20.8435 23.3727C20.2816 23.7591 17.7529 24.4346 17.4347 24.7941C17.2364 25.0193 17.4038 25.5254 17.2591 25.9076C16.786 27.1679 14.78 27.3621 14.1189 26.1287C13.3235 24.6433 14.5528 23.0732 16.1911 23.5607C16.7303 23.7219 16.8232 24.0958 17.2695 24.2218L20.5109 22.912C20.6741 21.9534 20.9055 20.8399 22.0542 20.687C23.4218 20.5073 24.399 21.4948 24.116 22.8459C24.0416 23.2054 23.7833 23.2571 24.0168 23.6165L24.0189 23.6207Z" fill="#1B7BD2"></path><path d="M10.388 30.9816C11.7595 30.9816 12.8713 29.8698 12.8713 28.4983C12.8713 27.1269 11.7595 26.0151 10.388 26.0151C9.01657 26.0151 7.90479 27.1269 7.90479 28.4983C7.90479 29.8698 9.01657 30.9816 10.388 30.9816Z" fill="#197AD1"></path><path d="M6.27877 4.66985C6.79732 5.2793 6.33042 5.77306 6.47504 6.10154C6.50809 6.17591 7.54932 7.21508 7.62163 7.24813C7.91499 7.38242 8.32611 7.11591 8.66286 7.09525C11.0697 6.94651 10.9767 10.2995 9.24752 10.5619C9.00787 10.597 8.57196 10.4999 8.40668 10.6135C8.31991 10.6734 7.67121 12.2931 7.56998 12.5534C7.45842 12.8385 6.99978 13.8922 7.01838 14.0905C7.03697 14.2888 7.25183 14.3054 7.35512 14.4603C8.21455 15.7432 7.57411 17.3526 5.98128 17.4187C5.77056 17.427 5.50405 17.2514 5.33878 17.3567C5.26853 17.4001 4.50621 18.6541 4.46902 18.776C4.33473 19.2181 4.75618 19.3318 4.96071 19.7222C6.03499 21.7861 4.53513 23.7756 2.23988 23.4347C-0.414844 23.0401 -0.247503 18.4723 2.89065 18.5405C3.14476 18.5467 3.66331 18.7512 3.84717 18.6562C3.91741 18.619 4.65702 17.4414 4.69627 17.3154C4.86155 16.8051 4.59091 16.8175 4.41944 16.4911C4.34713 16.3527 4.36779 16.1172 4.29548 16.0201C4.20871 15.9003 2.54357 15.8672 2.32665 15.9188C2.25434 15.9374 1.99816 16.7845 1.21724 16.8217C-0.326009 16.894 -0.449964 14.4975 1.12221 14.4272C1.97131 14.3901 2.25021 15.3135 2.32665 15.3321C2.46506 15.3652 4.07029 15.3528 4.18185 15.3135C4.25623 15.2867 4.74792 14.3136 4.74172 14.1938C4.73759 14.0967 4.04344 12.8819 3.97939 12.8385C3.75007 12.6877 2.70471 12.9026 2.23575 12.822C-0.371459 12.3778 -0.398316 7.73569 3.10757 7.9836C4.91939 8.11169 5.8346 10.0888 4.97724 11.6444C4.82023 11.9295 4.36159 12.227 4.45869 12.5762C4.47935 12.6526 5.26647 13.857 5.33671 13.8922C5.45034 13.9479 6.35521 13.8426 6.43165 13.793C6.59693 13.6856 7.58444 10.8945 7.7993 10.4896C7.82616 10.2231 7.08242 9.65701 7.02664 9.01657C6.98739 8.57446 7.35099 7.93402 7.30761 7.76048C7.28075 7.65719 6.24365 6.63248 6.10317 6.57257C5.63007 6.37011 5.19209 6.87626 4.54752 6.24616C3.47737 5.19873 5.16317 3.35592 6.27464 4.66778L6.27877 4.66985Z" fill="#1A7AD2"></path><path d="M15.6127 18.931C17.4394 18.931 18.9203 17.4501 18.9203 15.6234C18.9203 13.7967 17.4394 12.3159 15.6127 12.3159C13.786 12.3159 12.3052 13.7967 12.3052 15.6234C12.3052 17.4501 13.786 18.931 15.6127 18.931Z" fill="#1879D1"></path><path d="M16.3172 0.184742C16.6684 0.465709 16.8069 1.0483 16.7366 1.48835C16.6416 2.07094 16.0135 2.16597 15.8937 2.52957C15.7945 2.82707 15.7822 4.01911 15.9929 4.22777C16.028 4.26289 16.7986 4.74839 16.8461 4.76904C17.1436 4.90126 18.598 3.97573 18.6021 3.69889C18.6125 3.08531 18.3005 2.87872 18.5774 2.04201C19.4533 -0.604444 23.6616 -0.081763 23.3724 3.17001C23.2257 4.82276 21.4573 5.69458 19.9595 5.12025C19.6392 4.99836 19.0505 4.40544 18.8232 4.45916C18.7261 4.48188 17.4266 5.24008 17.3832 5.31238C17.1023 5.76896 17.7159 6.70895 16.7345 7.44029C15.2657 8.5373 13.2886 7.05603 14.0426 5.24421C14.3567 4.49221 15.1293 4.50254 15.3008 4.12241C15.4041 3.89102 15.4 2.57296 15.2595 2.38083C14.9289 1.92839 14.2864 1.94905 14.4785 0.924346C14.6252 0.151687 15.747 -0.265631 16.3131 0.186808L16.3172 0.184742Z" fill="#1A7AD2"></path><path d="M10.39 5.35373C11.7592 5.35373 12.8691 4.24379 12.8691 2.87461C12.8691 1.50543 11.7592 0.395493 10.39 0.395493C9.02083 0.395493 7.91089 1.50543 7.91089 2.87461C7.91089 4.24379 9.02083 5.35373 10.39 5.35373Z" fill="#197AD1"></path><path d="M29.564 12.5803C29.3884 12.7828 29.752 14.0017 29.8863 14.2351C30.0515 14.5223 30.9771 14.5843 31.1775 15.2247C31.7725 17.1295 28.5352 17.4683 28.9463 15.2846C29.0041 14.983 29.4359 14.6772 29.4214 14.5057C29.4152 14.4334 29.0496 13.4025 28.9876 13.2476C28.9297 13.103 28.8781 12.8799 28.7211 12.8158C28.5434 12.7414 27.5125 12.6299 27.3576 12.7001C27.2026 12.7704 26.5064 13.9355 26.4796 14.1132C26.4196 14.483 26.7832 14.6421 26.8907 15.0491C27.3348 16.7266 25.7131 18.0323 24.2483 17.0964C22.92 16.2494 23.3683 14.1814 24.8723 13.8839C25.2297 13.8137 25.7069 13.9955 25.868 13.8922C25.9465 13.8426 26.7151 12.5844 26.7419 12.4749C26.8618 11.9874 26.2895 11.6258 26.1511 11.1279C25.649 9.33472 26.7812 7.68404 28.6818 7.79973C30.7416 7.92575 31.6898 10.3222 30.4296 11.9027C30.161 12.2394 29.7355 12.3861 29.5681 12.5782L29.564 12.5803Z" fill="#1A7AD2"></path><path d="M28.5101 23.4162C29.877 23.4162 30.9851 22.3081 30.9851 20.9412C30.9851 19.5743 29.877 18.4662 28.5101 18.4662C27.1432 18.4662 26.0352 19.5743 26.0352 20.9412C26.0352 22.3081 27.1432 23.4162 28.5101 23.4162Z" fill="#197AD1"></path><path d="M20.8683 30.9713C22.2352 30.9713 23.3433 29.8632 23.3433 28.4963C23.3433 27.1294 22.2352 26.0213 20.8683 26.0213C19.5014 26.0213 18.3933 27.1294 18.3933 28.4963C18.3933 29.8632 19.5014 30.9713 20.8683 30.9713Z" fill="#197AD1"></path><path d="M9.96842 21.0114C11.0923 21.97 10.5696 24.0091 9.05734 24.1537C7.54508 24.2983 6.41708 22.6146 7.42113 21.3275C7.98513 20.6044 9.2722 20.4185 9.96842 21.0114Z" fill="#1A7AD2"></path><path d="M15.6209 31.2233C16.2655 31.2233 16.7881 30.7007 16.7881 30.056C16.7881 29.4114 16.2655 28.8888 15.6209 28.8888C14.9762 28.8888 14.4536 29.4114 14.4536 30.056C14.4536 30.7007 14.9762 31.2233 15.6209 31.2233Z" fill="#1B7BD2"></path><path d="M5.40484 24.6846C5.92546 24.6825 6.39649 24.9883 6.50598 25.5131C6.72704 26.5729 5.91306 27.1307 4.91315 26.9076C4.00207 26.703 3.85952 24.6929 5.40484 24.6846Z" fill="#1A7AD2"></path></svg>