<svg xmlns="http://www.w3.org/2000/svg" width="100%" height="100%" viewBox="0 0 210 210" fill="currentColor" class="snowflake black-light"><path d="M190.176 0L105.002 85.1804L19.8213 0H0V19.8213L85.1804 105.002L0 190.176V209.997H19.8213L105.002 124.823L190.176 209.997H209.997V190.176L124.823 105.002L209.997 19.8213V0H190.176Z"/> <path d="M123.357 0L105 18.3628L86.6372 0H48.3554L105 56.6384L161.638 0H123.357Z"/> <path d="M48.3554 209.995H86.6372L105 191.639L123.357 209.995H161.638L105 153.357L48.3554 209.995Z"/> <path d="M191.643 105L210 86.6372V48.3554L153.362 105L210 161.638V123.357L191.643 105Z"/> <path d="M0 86.6372L18.3628 105L0 123.357V161.638L56.6384 105L0 48.3554V86.6372Z"/></svg>