<svg width="2081" height="265" viewBox="0 0 2081 265" xmlns="http://www.w3.org/2000/svg" xmlns:xlink="http://www.w3.org/1999/xlink" fill="none" overflow="hidden"><style>
.MsftOfcThm_Background1_Fill_v2 {
 fill:#333333; 
}
</style>
<defs><clipPath id="clip0_297_10987"><rect x="0" y="0" width="1450.88" height="197.192" fill="#333333" transform="translate(0.800293 33.9912)"/></clipPath></defs><g clip-path="url(#clip0_297_10987)"><path d="M1451.67 70.6977 1414.98 33.9736 1369.86 79.1328 1324.75 33.9736 1288.07 70.6977 1333.18 115.848 1288.07 161.007 1324.75 197.731 1369.86 152.572 1414.98 197.731 1451.67 161.007 1406.55 115.848 1451.67 70.6977Z" class="MsftOfcThm_Background1_Fill_v2" stroke="none" stroke-width="1" stroke-linecap="butt" stroke-linejoin="miter" stroke-miterlimit="4" fill="#333333" fill-opacity="1"/><path d="M687.962 33.9736C672.087 33.9736 657.69 37.4212 645.189 44.2112 632.715 50.9925 622.811 60.5739 615.756 72.7015 608.693 84.8378 605.118 98.8205 605.118 114.264 605.118 129.708 608.702 143.7 615.756 155.827 622.811 167.964 632.715 177.545 645.189 184.317 657.681 191.108 672.07 194.555 687.953 194.555 703.837 194.555 718.226 191.108 730.726 184.317 743.2 177.545 753.105 167.955 760.159 155.827 767.222 143.691 770.798 129.708 770.798 114.264 770.798 98.8205 767.214 84.8378 760.159 72.7015 753.105 60.5739 743.2 50.9925 730.726 44.2112 718.226 37.4212 703.828 33.9736 687.953 33.9736L687.962 33.9736ZM687.962 166.389C678.39 166.389 669.701 164.14 662.139 159.721 654.569 155.293 648.555 149.055 644.28 141.171 640.023 133.313 637.855 124.257 637.855 114.264 637.855 104.272 640.014 95.2154 644.28 87.3579 648.555 79.4828 654.56 73.2352 662.139 68.8077 669.71 64.3802 678.399 62.1401 687.962 62.1401 697.525 62.1401 706.215 64.3889 713.785 68.8077 721.364 73.244 727.369 79.4828 731.644 87.3579 735.901 95.2154 738.069 104.263 738.069 114.264 738.069 124.266 735.91 133.313 731.644 141.171 727.369 149.055 721.364 155.293 713.785 159.721 706.215 164.149 697.525 166.389 687.962 166.389Z" class="MsftOfcThm_Background1_Fill_v2" stroke="none" stroke-width="1" stroke-linecap="butt" stroke-linejoin="miter" stroke-miterlimit="4" fill="#333333" fill-opacity="1"/><path d="M795.36 231.16 825.257 231.16 825.257 177.469 827.801 180.094C837.102 189.684 849.488 194.549 864.629 194.549 876.421 194.549 887.034 191.811 896.186 186.421 905.313 181.039 912.463 173.558 917.42 164.204 922.394 154.815 924.911 144.28 924.911 132.888 924.911 121.495 922.394 110.96 917.42 101.571 912.463 92.2173 905.321 84.7447 896.186 79.3547 887.043 73.9646 876.43 71.2258 864.629 71.2258 848.641 71.2258 835.747 76.5896 826.306 87.1685L823.718 90.0647 823.718 74.0696 795.36 74.0696 795.36 231.142 795.36 231.16ZM859.804 167.695C849.366 167.695 840.764 164.379 834.226 157.834 827.687 151.298 824.374 142.898 824.374 132.888 824.374 122.878 827.687 114.486 834.226 107.941 840.764 101.396 849.366 98.0798 859.804 98.0798 870.241 98.0798 878.589 101.396 885.058 107.95 891.518 114.495 894.796 122.886 894.796 132.888 894.796 142.889 891.518 151.28 885.058 157.825 878.598 164.37 870.092 167.695 859.804 167.695Z" class="MsftOfcThm_Background1_Fill_v2" stroke="none" stroke-width="1" stroke-linecap="butt" stroke-linejoin="miter" stroke-miterlimit="4" fill="#333333" fill-opacity="1"/><path d="M1179.38 191.722 1209.27 191.722 1209.27 116.69C1209.27 107.8 1207.2 99.7853 1203.13 92.8902 1199.05 86.0039 1193.32 80.6226 1186.09 76.9038 1178.81 73.1588 1170.38 71.26 1161.04 71.26 1154.08 71.26 1147.36 72.3713 1141.04 74.5763 1134.8 76.7551 1129.37 80.2813 1124.88 85.0414L1122.32 87.7627 1122.32 74.1125 1093.96 74.1125 1093.96 191.731 1123.86 191.731 1123.86 124.154C1123.86 116.419 1126.66 110.207 1132.18 105.683 1137.61 101.247 1144.74 98.989 1153.38 98.989 1162.01 98.989 1168.07 101.15 1172.57 105.429 1177.09 109.725 1179.38 115.877 1179.38 123.717L1179.38 191.731 1179.38 191.722Z" class="MsftOfcThm_Background1_Fill_v2" stroke="none" stroke-width="1" stroke-linecap="butt" stroke-linejoin="miter" stroke-miterlimit="4" fill="#333333" fill-opacity="1"/><path d="M1053.45 144.691 1052.99 145.408C1047.01 154.841 1031.33 168.867 1012.68 168.867 1012.39 168.867 1012.11 168.867 1011.71 168.85L1011.48 168.85 1011.19 168.85C1006.09 169.007 1000.99 167.992 996.253 166.015L1067.41 105.709 1067.83 105.35 1067.59 104.852C1057.69 83.5014 1036.26 71.26 1008.81 71.26 972.781 71.26 944.563 98.1928 944.563 132.572 944.563 173.277 978.472 194.575 1011.98 194.575 1037.04 194.575 1061.94 181.31 1072.51 162.313L1072.79 161.806 1053.44 144.699 1053.45 144.691ZM973.769 132.344C973.358 123.367 976.724 114.31 982.992 107.494 989.443 100.485 998.552 96.399 1008.64 95.979 1009.11 95.9615 1009.57 95.9527 1010.04 95.9527 1017.54 95.9527 1024.86 98.464 1029.11 102.542L976.872 147.071C975.045 142.914 974.032 138.093 973.761 132.362L973.769 132.344Z" class="MsftOfcThm_Background1_Fill_v2" stroke="none" stroke-width="1" stroke-linecap="butt" stroke-linejoin="miter" stroke-miterlimit="4" fill="#333333" fill-opacity="1"/><path d="M163.997 151.218C163.997 154.001 161.733 156.267 158.962 156.267 156.191 156.267 153.927 154.001 153.927 151.218 153.927 148.436 156.191 146.17 158.962 146.17 161.733 146.17 163.997 148.436 163.997 151.218ZM158.962 176.086C156.191 176.086 153.927 178.352 153.927 181.135 153.927 183.918 156.191 186.184 158.962 186.184 161.733 186.184 163.997 183.926 163.997 181.135 163.997 178.344 161.733 176.086 158.962 176.086ZM158.962 161.132C156.191 161.132 153.927 163.399 153.927 166.181 153.927 168.964 156.191 171.221 158.962 171.221 161.733 171.221 163.997 168.955 163.997 166.181 163.997 163.407 161.733 161.132 158.962 161.132ZM146.024 138.697C143.245 138.697 140.981 140.963 140.981 143.746 140.981 146.528 143.245 148.795 146.024 148.795 148.804 148.795 151.06 146.528 151.06 143.746 151.06 140.963 148.796 138.697 146.024 138.697ZM171.908 108.781C169.137 108.781 166.865 111.047 166.865 113.829 166.865 116.612 169.129 118.869 171.908 118.869 174.688 118.869 176.952 116.612 176.952 113.829 176.952 111.047 174.688 108.781 171.908 108.781ZM146.024 93.8267C143.245 93.8267 140.981 96.093 140.981 98.8755 140.981 101.658 143.245 103.916 146.024 103.916 148.804 103.916 151.06 101.649 151.06 98.8755 151.06 96.1017 148.796 93.8267 146.024 93.8267ZM146.024 123.743C143.245 123.743 140.981 126.009 140.981 128.792 140.981 131.575 143.245 133.841 146.024 133.841 148.804 133.841 151.06 131.575 151.06 128.792 151.06 126.009 148.796 123.743 146.024 123.743ZM171.908 153.66C169.137 153.66 166.865 155.926 166.865 158.709 166.865 161.491 169.129 163.749 171.908 163.749 174.688 163.749 176.952 161.491 176.952 158.709 176.952 155.926 174.688 153.66 171.908 153.66ZM171.908 138.706C169.137 138.706 166.865 140.972 166.865 143.755 166.865 146.537 169.129 148.803 171.908 148.803 174.688 148.803 176.952 146.537 176.952 143.755 176.952 140.972 174.688 138.706 171.908 138.706ZM171.908 123.752C169.137 123.752 166.865 126.018 166.865 128.801 166.865 131.583 169.129 133.85 171.908 133.85 174.688 133.85 176.952 131.583 176.952 128.801 176.952 126.018 174.688 123.752 171.908 123.752ZM158.971 116.271C156.2 116.271 153.936 118.537 153.936 121.319 153.936 124.102 156.2 126.359 158.971 126.359 161.742 126.359 164.006 124.093 164.006 121.319 164.006 118.546 161.742 116.271 158.971 116.271ZM158.971 131.225C156.2 131.225 153.936 133.491 153.936 136.265 153.936 139.038 156.2 141.313 158.971 141.313 161.742 141.313 164.006 139.047 164.006 136.265 164.006 133.482 161.742 131.225 158.971 131.225ZM171.908 168.622C169.137 168.622 166.865 170.88 166.865 173.671 166.865 176.462 169.129 178.72 171.908 178.72 174.688 178.72 176.952 176.454 176.952 173.671 176.952 170.889 174.688 168.622 171.908 168.622ZM171.908 185.493C170.186 185.493 168.779 186.901 168.779 188.625 168.779 190.349 170.186 191.758 171.908 191.758 173.631 191.758 175.038 190.358 175.038 188.625 175.038 186.893 173.639 185.493 171.908 185.493ZM107.185 86.3454C104.406 86.3454 102.141 88.6116 102.141 91.3942 102.141 94.1767 104.406 96.4342 107.185 96.4342 109.965 96.4342 112.229 94.1679 112.229 91.3942 112.229 88.6204 109.965 86.3454 107.185 86.3454ZM120.123 48.9563C117.343 48.9563 115.079 51.2138 115.079 54.0051 115.079 56.7964 117.343 59.0539 120.123 59.0539 122.903 59.0539 125.158 56.7876 125.158 54.0051 125.158 51.2226 122.894 48.9563 120.123 48.9563ZM120.123 63.9189C117.343 63.9189 115.079 66.1764 115.079 68.959 115.079 71.7415 117.343 74.0078 120.123 74.0078 122.903 74.0078 125.158 71.7415 125.158 68.959 125.158 66.1764 122.894 63.9189 120.123 63.9189ZM120.123 93.8267C117.343 93.8267 115.079 96.093 115.079 98.8755 115.079 101.658 117.343 103.916 120.123 103.916 122.903 103.916 125.158 101.649 125.158 98.8755 125.158 96.1017 122.894 93.8267 120.123 93.8267ZM120.123 78.8641C117.343 78.8641 115.079 81.1303 115.079 83.9129 115.079 86.6954 117.343 88.9617 120.123 88.9617 122.903 88.9617 125.158 86.6954 125.158 83.9129 125.158 81.1303 122.894 78.8641 120.123 78.8641ZM120.123 108.781C117.343 108.781 115.079 111.047 115.079 113.829 115.079 116.612 117.343 118.869 120.123 118.869 122.903 118.869 125.158 116.612 125.158 113.829 125.158 111.047 122.894 108.781 120.123 108.781ZM146.007 153.651C143.227 153.651 140.963 155.917 140.963 158.7 140.963 161.482 143.227 163.74 146.007 163.74 148.787 163.74 151.042 161.482 151.042 158.7 151.042 155.917 148.778 153.651 146.007 153.651ZM107.185 56.4289C104.406 56.4289 102.141 58.6951 102.141 61.4689 102.141 64.2427 104.406 66.5177 107.185 66.5177 109.965 66.5177 112.229 64.2514 112.229 61.4689 112.229 58.6864 109.965 56.4289 107.185 56.4289ZM107.185 71.3827C104.406 71.3827 102.141 73.649 102.141 76.4315 102.141 79.2141 104.406 81.4803 107.185 81.4803 109.965 81.4803 112.229 79.2141 112.229 76.4315 112.229 73.649 109.965 71.3827 107.185 71.3827ZM133.069 71.3827C130.29 71.3827 128.025 73.649 128.025 76.4315 128.025 79.2141 130.29 81.4803 133.069 81.4803 135.849 81.4803 138.113 79.2141 138.113 76.4315 138.113 73.649 135.849 71.3827 133.069 71.3827ZM133.069 133.132C131.347 133.132 129.94 134.541 129.94 136.256 129.94 137.971 131.347 139.388 133.069 139.388 134.791 139.388 136.199 137.988 136.199 136.256 136.199 134.523 134.8 133.132 133.069 133.132ZM133.069 86.3454C130.29 86.3454 128.025 88.6116 128.025 91.3942 128.025 94.1767 130.29 96.4342 133.069 96.4342 135.849 96.4342 138.113 94.1679 138.113 91.3942 138.113 88.6204 135.849 86.3454 133.069 86.3454ZM133.069 56.4289C130.29 56.4289 128.025 58.6951 128.025 61.4689 128.025 64.2427 130.29 66.5177 133.069 66.5177 135.849 66.5177 138.113 64.2514 138.113 61.4689 138.113 58.6864 135.849 56.4289 133.069 56.4289ZM133.069 101.299C130.29 101.299 128.025 103.566 128.025 106.348 128.025 109.131 130.29 111.388 133.069 111.388 135.849 111.388 138.113 109.122 138.113 106.348 138.113 103.574 135.849 101.299 133.069 101.299ZM133.069 116.262C130.29 116.262 128.025 118.528 128.025 121.311 128.025 124.093 130.29 126.351 133.069 126.351 135.849 126.351 138.113 124.084 138.113 121.311 138.113 118.537 135.849 116.262 133.069 116.262ZM146.016 108.781C143.236 108.781 140.972 111.047 140.972 113.829 140.972 116.612 143.236 118.869 146.016 118.869 148.796 118.869 151.051 116.612 151.051 113.829 151.051 111.047 148.787 108.781 146.016 108.781ZM223.668 33.9937C220.896 33.9937 218.632 36.2599 218.632 39.0424 218.632 41.825 220.896 44.0912 223.668 44.0912 226.439 44.0912 228.712 41.825 228.712 39.0424 228.712 36.2599 226.447 33.9937 223.668 33.9937ZM236.527 43.3912C234.804 43.3912 233.397 44.8 233.397 46.5238 233.397 48.2475 234.804 49.6563 236.527 49.6563 238.249 49.6563 239.656 48.2475 239.656 46.5238 239.656 44.8 238.249 43.3912 236.527 43.3912ZM269.727 168.614C266.947 168.614 264.683 170.871 264.683 173.662 264.683 176.454 266.947 178.711 269.727 178.711 272.507 178.711 274.762 176.445 274.762 173.662 274.762 170.88 272.498 168.614 269.727 168.614ZM269.727 185.484C267.996 185.484 266.598 186.893 266.598 188.616 266.598 190.34 268.005 191.749 269.727 191.749 271.449 191.749 272.857 190.349 272.857 188.616 272.857 186.884 271.449 185.484 269.727 185.484ZM223.668 48.9475C220.896 48.9475 218.632 51.2051 218.632 53.9963 218.632 56.7876 220.896 59.0451 223.668 59.0451 226.439 59.0451 228.712 56.7789 228.712 53.9963 228.712 51.2138 226.447 48.9475 223.668 48.9475ZM184.846 163.049C183.115 163.049 181.717 164.449 181.717 166.181 181.717 167.914 183.115 169.314 184.846 169.314 186.577 169.314 187.976 167.914 187.976 166.181 187.976 164.449 186.568 163.049 184.846 163.049ZM223.668 63.9102C220.896 63.9102 218.632 66.1764 218.632 68.959 218.632 71.7415 220.896 74.0078 223.668 74.0078 226.439 74.0078 228.712 71.7415 228.712 68.959 228.712 66.1764 226.447 63.9102 223.668 63.9102ZM269.727 153.651C266.947 153.651 264.683 155.917 264.683 158.7 264.683 161.482 266.947 163.74 269.727 163.74 272.507 163.74 274.762 161.482 274.762 158.7 274.762 155.917 272.498 153.651 269.727 153.651ZM269.727 108.781C266.947 108.781 264.683 111.047 264.683 113.829 264.683 116.612 266.947 118.869 269.727 118.869 272.507 118.869 274.762 116.612 274.762 113.829 274.762 111.047 272.498 108.781 269.727 108.781ZM210.721 56.4289C207.95 56.4289 205.677 58.6951 205.677 61.4689 205.677 64.2427 207.941 66.5177 210.721 66.5177 213.501 66.5177 215.765 64.2514 215.765 61.4689 215.765 58.6864 213.501 56.4289 210.721 56.4289ZM269.727 78.8641C266.947 78.8641 264.683 81.1303 264.683 83.9129 264.683 86.6954 266.947 88.9617 269.727 88.9617 272.507 88.9617 274.762 86.6954 274.762 83.9129 274.762 81.1303 272.498 78.8641 269.727 78.8641ZM269.727 93.8267C266.947 93.8267 264.683 96.093 264.683 98.8755 264.683 101.658 266.947 103.916 269.727 103.916 272.507 103.916 274.762 101.649 274.762 98.8755 274.762 96.1017 272.498 93.8267 269.727 93.8267ZM269.727 123.743C266.947 123.743 264.683 126.009 264.683 128.792 264.683 131.575 266.947 133.841 269.727 133.841 272.507 133.841 274.762 131.575 274.762 128.792 274.762 126.009 272.498 123.743 269.727 123.743ZM269.727 138.697C266.947 138.697 264.683 140.963 264.683 143.746 264.683 146.528 266.947 148.795 269.727 148.795 272.507 148.795 274.762 146.528 274.762 143.746 274.762 140.963 272.498 138.697 269.727 138.697ZM210.73 41.475C207.959 41.475 205.686 43.7412 205.686 46.5238 205.686 49.3063 207.95 51.5638 210.73 51.5638 213.51 51.5638 215.774 49.3063 215.774 46.5238 215.774 43.7412 213.51 41.475 210.73 41.475ZM197.784 125.659C196.062 125.659 194.654 127.059 194.654 128.792 194.654 130.525 196.062 131.925 197.784 131.925 199.506 131.925 200.913 130.525 200.913 128.792 200.913 127.059 199.514 125.659 197.784 125.659ZM184.846 71.3915C182.066 71.3915 179.802 73.6578 179.802 76.4403 179.802 79.2228 182.066 81.4891 184.846 81.4891 187.626 81.4891 189.881 79.2228 189.881 76.4403 189.881 73.6578 187.617 71.3915 184.846 71.3915ZM184.846 101.299C182.066 101.299 179.802 103.566 179.802 106.348 179.802 109.131 182.066 111.388 184.846 111.388 187.626 111.388 189.881 109.122 189.881 106.348 189.881 103.574 187.617 101.299 184.846 101.299ZM184.846 86.3454C182.066 86.3454 179.802 88.6116 179.802 91.3942 179.802 94.1767 182.066 96.4342 184.846 96.4342 187.626 96.4342 189.881 94.1679 189.881 91.3942 189.881 88.6204 187.617 86.3454 184.846 86.3454ZM184.846 116.262C182.066 116.262 179.802 118.528 179.802 121.311 179.802 124.093 182.066 126.351 184.846 126.351 187.626 126.351 189.881 124.084 189.881 121.311 189.881 118.537 187.617 116.262 184.846 116.262ZM184.846 146.178C182.066 146.178 179.802 148.445 179.802 151.227 179.802 154.01 182.066 156.276 184.846 156.276 187.626 156.276 189.881 154.01 189.881 151.227 189.881 148.445 187.617 146.178 184.846 146.178ZM184.846 131.225C182.066 131.225 179.802 133.491 179.802 136.265 179.802 139.038 182.066 141.313 184.846 141.313 187.626 141.313 189.881 139.047 189.881 136.265 189.881 133.482 187.617 131.225 184.846 131.225ZM197.784 108.789C195.013 108.789 192.74 111.056 192.74 113.838 192.74 116.621 195.004 118.878 197.784 118.878 200.563 118.878 202.828 116.621 202.828 113.838 202.828 111.056 200.563 108.789 197.784 108.789ZM210.73 71.4002C207.959 71.4002 205.686 73.6665 205.686 76.449 205.686 79.2316 207.95 81.4978 210.73 81.4978 213.51 81.4978 215.774 79.2316 215.774 76.449 215.774 73.6665 213.51 71.4002 210.73 71.4002ZM210.73 86.3541C207.959 86.3541 205.686 88.6204 205.686 91.4029 205.686 94.1854 207.95 96.4517 210.73 96.4517 213.51 96.4517 215.774 94.1854 215.774 91.4029 215.774 88.6204 213.51 86.3541 210.73 86.3541ZM197.784 48.965C195.013 48.965 192.74 51.2226 192.74 54.0138 192.74 56.8051 195.004 59.0626 197.784 59.0626 200.563 59.0626 202.828 56.7964 202.828 54.0138 202.828 51.2313 200.563 48.965 197.784 48.965ZM197.784 34.0112C195.013 34.0112 192.74 36.2774 192.74 39.0599 192.74 41.8425 195.004 44.1087 197.784 44.1087 200.563 44.1087 202.828 41.8425 202.828 39.0599 202.828 36.2774 200.563 34.0112 197.784 34.0112ZM197.784 93.8442C195.013 93.8442 192.74 96.1105 192.74 98.893 192.74 101.676 195.004 103.933 197.784 103.933 200.563 103.933 202.828 101.667 202.828 98.893 202.828 96.1192 200.563 93.8442 197.784 93.8442ZM197.784 63.9364C195.013 63.9364 192.74 66.1939 192.74 68.9765 192.74 71.759 195.004 74.0253 197.784 74.0253 200.563 74.0253 202.828 71.759 202.828 68.9765 202.828 66.1939 200.563 63.9364 197.784 63.9364ZM107.194 116.288C104.414 116.288 102.15 118.554 102.15 121.337 102.15 124.119 104.414 126.377 107.194 126.377 109.974 126.377 112.238 124.111 112.238 121.337 112.238 118.563 109.974 116.288 107.194 116.288ZM16.8669 33.9937C14.0871 33.9937 11.8317 36.2599 11.8317 39.0424 11.8317 41.825 14.0958 44.0912 16.8669 44.0912 19.638 44.0912 21.9108 41.825 21.9108 39.0424 21.9108 36.2599 19.6468 33.9937 16.8669 33.9937ZM3.92931 43.3912C2.20721 43.3912 0.799805 44.8 0.799805 46.5238 0.799805 48.2475 2.20721 49.6563 3.92931 49.6563 5.65141 49.6563 7.05881 48.2475 7.05881 46.5238 7.05881 44.8 5.65141 43.3912 3.92931 43.3912ZM16.8669 48.9563C14.0871 48.9563 11.8317 51.2138 11.8317 54.0051 11.8317 56.7964 14.0958 59.0539 16.8669 59.0539 19.638 59.0539 21.9108 56.7876 21.9108 54.0051 21.9108 51.2226 19.6468 48.9563 16.8669 48.9563ZM16.8669 63.9189C14.0871 63.9189 11.8317 66.1764 11.8317 68.959 11.8317 71.7415 14.0958 74.0078 16.8669 74.0078 19.638 74.0078 21.9108 71.7415 21.9108 68.959 21.9108 66.1764 19.6468 63.9189 16.8669 63.9189ZM68.3638 87.0454C70.0859 87.0454 71.4933 85.6454 71.4933 83.9129 71.4933 82.1803 70.0859 80.7803 68.3638 80.7803 66.6417 80.7803 65.2343 82.1803 65.2343 83.9129 65.2343 85.6454 66.633 87.0454 68.3638 87.0454ZM68.3638 101.999C70.0859 101.999 71.4933 100.599 71.4933 98.8667 71.4933 97.1342 70.0859 95.7342 68.3638 95.7342 66.6417 95.7342 65.2343 97.1342 65.2343 98.8667 65.2343 100.599 66.633 101.999 68.3638 101.999ZM55.4262 64.6102C57.1483 64.6102 58.547 63.2014 58.547 61.4777 58.547 59.7539 57.1483 58.3451 55.4262 58.3451 53.7041 58.3451 52.2967 59.7451 52.2967 61.4777 52.2967 63.2102 53.6954 64.6102 55.4262 64.6102ZM29.8133 71.3915C27.0422 71.3915 24.7693 73.6578 24.7693 76.4403 24.7693 79.2228 27.0334 81.4803 29.8133 81.4803 32.5931 81.4803 34.8572 79.2141 34.8572 76.4403 34.8572 73.6665 32.5931 71.3915 29.8133 71.3915ZM29.8133 86.3454C27.0422 86.3454 24.7693 88.6116 24.7693 91.3942 24.7693 94.1767 27.0334 96.443 29.8133 96.443 32.5931 96.443 34.8572 94.1767 34.8572 91.3942 34.8572 88.6116 32.5931 86.3454 29.8133 86.3454ZM29.8133 41.475C27.0422 41.475 24.7693 43.7412 24.7693 46.5238 24.7693 49.3063 27.0334 51.5638 29.8133 51.5638 32.5931 51.5638 34.8572 49.3063 34.8572 46.5238 34.8572 43.7412 32.5931 41.475 29.8133 41.475ZM42.4799 108.781C39.7 108.781 37.436 111.047 37.436 113.829 37.436 116.612 39.7 118.869 42.4799 118.869 45.2597 118.869 47.5151 116.612 47.5151 113.829 47.5151 111.047 45.251 108.781 42.4799 108.781ZM42.4799 125.659C40.749 125.659 39.3504 127.059 39.3504 128.792 39.3504 130.525 40.749 131.925 42.4799 131.925 44.2107 131.925 45.6094 130.525 45.6094 128.792 45.6094 127.059 44.202 125.659 42.4799 125.659ZM81.3014 109.481C83.0236 109.481 84.431 108.072 84.431 106.348 84.431 104.624 83.0236 103.216 81.3014 103.216 79.5793 103.216 78.172 104.616 78.172 106.348 78.172 108.081 79.5706 109.481 81.3014 109.481ZM29.8133 56.4289C27.0422 56.4289 24.7693 58.6951 24.7693 61.4777 24.7693 64.2602 27.0334 66.5264 29.8133 66.5264 32.5931 66.5264 34.8572 64.2602 34.8572 61.4777 34.8572 58.6951 32.5931 56.4289 29.8133 56.4289ZM42.4799 93.8267C39.7 93.8267 37.436 96.093 37.436 98.8755 37.436 101.658 39.7 103.916 42.4799 103.916 45.2597 103.916 47.5151 101.649 47.5151 98.8755 47.5151 96.1017 45.251 93.8267 42.4799 93.8267ZM360.317 49.6475C362.048 49.6475 363.446 48.2388 363.446 46.515 363.446 44.7913 362.039 43.3825 360.317 43.3825 358.595 43.3825 357.187 44.7913 357.187 46.515 357.187 48.2388 358.595 49.6475 360.317 49.6475ZM347.379 42.1662C349.101 42.1662 350.509 40.7662 350.509 39.0424 350.509 37.3187 349.101 35.9099 347.379 35.9099 345.657 35.9099 344.25 37.3099 344.25 39.0424 344.25 40.775 345.657 42.1662 347.379 42.1662ZM94.2478 87.0454C95.9699 87.0454 97.3686 85.6454 97.3686 83.9129 97.3686 82.1803 95.9699 80.7803 94.2478 80.7803 92.5257 80.7803 91.1183 82.1803 91.1183 83.9129 91.1183 85.6454 92.517 87.0454 94.2478 87.0454ZM171.9 87.0454C173.622 87.0454 175.029 85.6454 175.029 83.9129 175.029 82.1803 173.622 80.7803 171.9 80.7803 170.178 80.7803 168.77 82.1803 168.77 83.9129 168.77 85.6454 170.169 87.0454 171.9 87.0454ZM521.285 64.6102C523.007 64.6102 524.415 63.2014 524.415 61.4777 524.415 59.7539 523.007 58.3451 521.285 58.3451 519.563 58.3451 518.156 59.7451 518.156 61.4777 518.156 63.2102 519.554 64.6102 521.285 64.6102ZM521.285 81.4803C524.065 81.4803 526.32 79.2141 526.32 76.4403 526.32 73.6665 524.056 71.3915 521.285 71.3915 518.514 71.3915 516.241 73.6578 516.241 76.4403 516.241 79.2228 518.514 81.4803 521.285 81.4803ZM482.463 42.1662C484.186 42.1662 485.593 40.7662 485.593 39.0424 485.593 37.3187 484.186 35.9099 482.463 35.9099 480.741 35.9099 479.334 37.3099 479.334 39.0424 479.334 40.775 480.733 42.1662 482.463 42.1662ZM184.846 64.6014C186.568 64.6014 187.976 63.1927 187.976 61.4689 187.976 59.7451 186.568 58.3364 184.846 58.3364 183.124 58.3364 181.717 59.7364 181.717 61.4689 181.717 63.2014 183.115 64.6014 184.846 64.6014ZM120.132 42.1662C121.854 42.1662 123.261 40.7662 123.261 39.0424 123.261 37.3187 121.854 35.9099 120.132 35.9099 118.41 35.9099 117.002 37.3099 117.002 39.0424 117.002 40.775 118.41 42.1662 120.132 42.1662ZM133.069 49.6475C134.8 49.6475 136.199 48.2388 136.199 46.5238 136.199 44.8088 134.8 43.3912 133.069 43.3912 131.339 43.3912 129.94 44.7913 129.94 46.5238 129.94 48.2563 131.347 49.6475 133.069 49.6475ZM107.185 49.6475C108.916 49.6475 110.315 48.2388 110.315 46.5238 110.315 44.8088 108.916 43.3912 107.185 43.3912 105.455 43.3912 104.056 44.7913 104.056 46.5238 104.056 48.2563 105.463 49.6475 107.185 49.6475ZM146.007 87.0454C147.738 87.0454 149.136 85.6454 149.136 83.9129 149.136 82.1803 147.738 80.7803 146.007 80.7803 144.276 80.7803 142.877 82.1803 142.877 83.9129 142.877 85.6454 144.285 87.0454 146.007 87.0454ZM171.891 101.999C173.622 101.999 175.02 100.599 175.02 98.8667 175.02 97.1342 173.622 95.7342 171.891 95.7342 170.16 95.7342 168.761 97.1342 168.761 98.8667 168.761 100.599 170.169 101.999 171.891 101.999ZM158.953 109.481C160.675 109.481 162.083 108.072 162.083 106.348 162.083 104.624 160.675 103.216 158.953 103.216 157.231 103.216 155.824 104.616 155.824 106.348 155.824 108.081 157.231 109.481 158.953 109.481ZM42.4799 78.8641C39.7 78.8641 37.436 81.1303 37.436 83.9129 37.436 86.6954 39.7 88.9617 42.4799 88.9617 45.2597 88.9617 47.5151 86.6954 47.5151 83.9129 47.5151 81.1303 45.251 78.8641 42.4799 78.8641ZM81.3102 131.216C78.5391 131.216 76.2663 133.482 76.2663 136.256 76.2663 139.03 78.5304 141.305 81.3102 141.305 84.09 141.305 86.3454 139.038 86.3454 136.256 86.3454 133.473 84.0813 131.216 81.3102 131.216ZM81.3102 116.262C78.5391 116.262 76.2663 118.528 76.2663 121.311 76.2663 124.093 78.5304 126.351 81.3102 126.351 84.09 126.351 86.3454 124.084 86.3454 121.311 86.3454 118.537 84.0813 116.262 81.3102 116.262ZM81.3102 146.178C78.5391 146.178 76.2663 148.445 76.2663 151.227 76.2663 154.01 78.5304 156.276 81.3102 156.276 84.09 156.276 86.3454 154.01 86.3454 151.227 86.3454 148.445 84.0813 146.178 81.3102 146.178ZM68.3638 108.781C65.584 108.781 63.3199 111.047 63.3199 113.829 63.3199 116.612 65.584 118.869 68.3638 118.869 71.1437 118.869 73.4078 116.612 73.4078 113.829 73.4078 111.047 71.1437 108.781 68.3638 108.781ZM94.2478 153.651C91.468 153.651 89.2039 155.917 89.2039 158.7 89.2039 161.482 91.468 163.74 94.2478 163.74 97.0276 163.74 99.2917 161.482 99.2917 158.7 99.2917 155.917 97.0276 153.651 94.2478 153.651ZM68.3638 123.743C65.584 123.743 63.3199 126.009 63.3199 128.792 63.3199 131.575 65.584 133.841 68.3638 133.841 71.1437 133.841 73.4078 131.575 73.4078 128.792 73.4078 126.009 71.1437 123.743 68.3638 123.743ZM81.3102 176.095C78.5391 176.095 76.2663 178.361 76.2663 181.144 76.2663 183.926 78.5304 186.193 81.3102 186.193 84.09 186.193 86.3454 183.935 86.3454 181.144 86.3454 178.352 84.0813 176.095 81.3102 176.095ZM81.3102 161.141C78.5391 161.141 76.2663 163.407 76.2663 166.19 76.2663 168.972 78.5304 171.23 81.3102 171.23 84.09 171.23 86.3454 168.964 86.3454 166.19 86.3454 163.416 84.0813 161.141 81.3102 161.141ZM94.2565 138.706C91.4767 138.706 89.2126 140.972 89.2126 143.755 89.2126 146.537 91.4767 148.803 94.2565 148.803 97.0364 148.803 99.3005 146.537 99.3005 143.755 99.3005 140.972 97.0364 138.706 94.2565 138.706ZM94.2565 93.8354C91.4767 93.8354 89.2126 96.1017 89.2126 98.8842 89.2126 101.667 91.4767 103.924 94.2565 103.924 97.0364 103.924 99.3005 101.658 99.3005 98.8842 99.3005 96.1105 97.0364 93.8354 94.2565 93.8354ZM269.736 63.9277C266.956 63.9277 264.692 66.1852 264.692 68.9677 264.692 71.7502 266.956 74.0165 269.736 74.0165 272.516 74.0165 274.771 71.7502 274.771 68.9677 274.771 66.1852 272.507 63.9277 269.736 63.9277ZM107.194 133.132C105.463 133.132 104.065 134.541 104.065 136.256 104.065 137.971 105.463 139.388 107.194 139.388 108.925 139.388 110.324 137.988 110.324 136.256 110.324 134.523 108.916 133.132 107.194 133.132ZM94.2478 108.781C91.468 108.781 89.2039 111.047 89.2039 113.829 89.2039 116.612 91.468 118.869 94.2478 118.869 97.0276 118.869 99.2917 116.612 99.2917 113.829 99.2917 111.047 97.0276 108.781 94.2478 108.781ZM94.2478 123.743C91.468 123.743 89.2039 126.009 89.2039 128.792 89.2039 131.575 91.468 133.841 94.2478 133.841 97.0276 133.841 99.2917 131.575 99.2917 128.792 99.2917 126.009 97.0276 123.743 94.2478 123.743ZM42.4799 33.9937C39.7 33.9937 37.436 36.2599 37.436 39.0424 37.436 41.825 39.7 44.0912 42.4799 44.0912 45.2597 44.0912 47.5151 41.825 47.5151 39.0424 47.5151 36.2599 45.251 33.9937 42.4799 33.9937ZM55.4175 116.262C52.6464 116.262 50.3823 118.528 50.3823 121.311 50.3823 124.093 52.6464 126.351 55.4175 126.351 58.1886 126.351 60.4527 124.084 60.4527 121.311 60.4527 118.537 58.1886 116.262 55.4175 116.262ZM55.4175 131.216C52.6464 131.216 50.3823 133.482 50.3823 136.256 50.3823 139.03 52.6464 141.305 55.4175 141.305 58.1886 141.305 60.4527 139.038 60.4527 136.256 60.4527 133.473 58.1886 131.216 55.4175 131.216ZM55.4175 163.049C53.6866 163.049 52.288 164.449 52.288 166.181 52.288 167.914 53.6866 169.314 55.4175 169.314 57.1483 169.314 58.5383 167.914 58.5383 166.181 58.5383 164.449 57.1396 163.049 55.4175 163.049ZM55.4175 146.178C52.6464 146.178 50.3823 148.445 50.3823 151.227 50.3823 154.01 52.6464 156.276 55.4175 156.276 58.1886 156.276 60.4527 154.01 60.4527 151.227 60.4527 148.445 58.1886 146.178 55.4175 146.178ZM42.4799 63.9189C39.7 63.9189 37.436 66.1764 37.436 68.959 37.436 71.7415 39.7 74.0078 42.4799 74.0078 45.2597 74.0078 47.5151 71.7415 47.5151 68.959 47.5151 66.1764 45.251 63.9189 42.4799 63.9189ZM68.3638 138.706C65.584 138.706 63.3199 140.972 63.3199 143.755 63.3199 146.537 65.584 148.803 68.3638 148.803 71.1437 148.803 73.4078 146.537 73.4078 143.755 73.4078 140.972 71.1437 138.706 68.3638 138.706ZM42.4799 48.9475C39.7 48.9475 37.436 51.2051 37.436 53.9963 37.436 56.7876 39.7 59.0451 42.4799 59.0451 45.2597 59.0451 47.5151 56.7789 47.5151 53.9963 47.5151 51.2138 45.251 48.9475 42.4799 48.9475ZM107.194 101.299C104.414 101.299 102.15 103.566 102.15 106.348 102.15 109.131 104.414 111.388 107.194 111.388 109.974 111.388 112.238 109.122 112.238 106.348 112.238 103.574 109.974 101.299 107.194 101.299ZM68.3638 168.614C65.584 168.614 63.3199 170.871 63.3199 173.662 63.3199 176.454 65.584 178.711 68.3638 178.711 71.1437 178.711 73.4078 176.445 73.4078 173.662 73.4078 170.88 71.1437 168.614 68.3638 168.614ZM68.3638 153.651C65.584 153.651 63.3199 155.917 63.3199 158.7 63.3199 161.482 65.584 163.74 68.3638 163.74 71.1437 163.74 73.4078 161.482 73.4078 158.7 73.4078 155.917 71.1437 153.651 68.3638 153.651ZM68.3638 185.484C66.633 185.484 65.2343 186.893 65.2343 188.616 65.2343 190.34 66.633 191.749 68.3638 191.749 70.0947 191.749 71.4933 190.349 71.4933 188.616 71.4933 186.884 70.0859 185.484 68.3638 185.484ZM55.4175 71.3827C52.6464 71.3827 50.3823 73.649 50.3823 76.4315 50.3823 79.2141 52.6464 81.4803 55.4175 81.4803 58.1886 81.4803 60.4527 79.2141 60.4527 76.4315 60.4527 73.649 58.1886 71.3827 55.4175 71.3827ZM55.4175 86.3366C52.6464 86.3366 50.3823 88.6029 50.3823 91.3854 50.3823 94.1679 52.6464 96.4255 55.4175 96.4255 58.1886 96.4255 60.4527 94.1592 60.4527 91.3854 60.4527 88.6116 58.1886 86.3366 55.4175 86.3366ZM55.4175 101.291C52.6464 101.291 50.3823 103.557 50.3823 106.339 50.3823 109.122 52.6464 111.379 55.4175 111.379 58.1886 111.379 60.4527 109.113 60.4527 106.339 60.4527 103.566 58.1886 101.291 55.4175 101.291ZM197.775 78.8553C195.004 78.8553 192.731 81.1216 192.731 83.9041 192.731 86.6866 194.995 88.9529 197.775 88.9529 200.555 88.9529 202.819 86.6866 202.819 83.9041 202.819 81.1216 200.555 78.8553 197.775 78.8553ZM443.624 146.161C440.853 146.161 438.581 148.427 438.581 151.21 438.581 153.992 440.845 156.259 443.624 156.259 446.404 156.259 448.668 153.992 448.668 151.21 448.668 148.427 446.404 146.161 443.624 146.161ZM443.624 131.207C440.853 131.207 438.581 133.473 438.581 136.247 438.581 139.021 440.845 141.296 443.624 141.296 446.404 141.296 448.668 139.03 448.668 136.247 448.668 133.465 446.404 131.207 443.624 131.207ZM456.571 108.772C453.8 108.772 451.527 111.038 451.527 113.821 451.527 116.603 453.791 118.861 456.571 118.861 459.351 118.861 461.606 116.603 461.606 113.821 461.606 111.038 459.342 108.772 456.571 108.772ZM443.624 176.077C440.853 176.077 438.581 178.344 438.581 181.126 438.581 183.909 440.845 186.175 443.624 186.175 446.404 186.175 448.668 183.918 448.668 181.126 448.668 178.335 446.404 176.077 443.624 176.077ZM430.696 33.9937C427.924 33.9937 425.652 36.2599 425.652 39.0424 425.652 41.825 427.916 44.0912 430.696 44.0912 433.475 44.0912 435.739 41.825 435.739 39.0424 435.739 36.2599 433.475 33.9937 430.696 33.9937ZM443.633 161.132C440.862 161.132 438.589 163.399 438.589 166.181 438.589 168.964 440.853 171.221 443.633 171.221 446.413 171.221 448.677 168.955 448.677 166.181 448.677 163.407 446.413 161.132 443.633 161.132ZM443.633 101.299C440.862 101.299 438.589 103.566 438.589 106.348 438.589 109.131 440.853 111.388 443.633 111.388 446.413 111.388 448.677 109.122 448.677 106.348 448.677 103.574 446.413 101.299 443.633 101.299ZM443.633 41.4662C440.862 41.4662 438.589 43.7325 438.589 46.515 438.589 49.2975 440.853 51.5551 443.633 51.5551 446.413 51.5551 448.677 49.2975 448.677 46.515 448.677 43.7325 446.413 41.4662 443.633 41.4662ZM456.58 140.605C454.849 140.605 453.45 142.005 453.45 143.737 453.45 145.47 454.849 146.87 456.58 146.87 458.31 146.87 459.709 145.47 459.709 143.737 459.709 142.005 458.302 140.605 456.58 140.605ZM443.633 86.3366C440.862 86.3366 438.589 88.6029 438.589 91.3854 438.589 94.1679 440.853 96.4255 443.633 96.4255 446.413 96.4255 448.677 94.1592 448.677 91.3854 448.677 88.6116 446.413 86.3366 443.633 86.3366ZM430.696 48.9475C427.924 48.9475 425.652 51.2051 425.652 53.9963 425.652 56.7876 427.916 59.0451 430.696 59.0451 433.475 59.0451 435.739 56.7789 435.739 53.9963 435.739 51.2138 433.475 48.9475 430.696 48.9475ZM456.58 123.734C453.808 123.734 451.536 126.001 451.536 128.783 451.536 131.566 453.8 133.832 456.58 133.832 459.359 133.832 461.615 131.566 461.615 128.783 461.615 126.001 459.351 123.734 456.58 123.734ZM443.633 56.4289C440.862 56.4289 438.589 58.6951 438.589 61.4689 438.589 64.2427 440.853 66.5177 443.633 66.5177 446.413 66.5177 448.677 64.2514 448.677 61.4689 448.677 58.6864 446.413 56.4289 443.633 56.4289ZM443.633 71.3827C440.862 71.3827 438.589 73.649 438.589 76.4315 438.589 79.2141 440.853 81.4803 443.633 81.4803 446.413 81.4803 448.677 79.2141 448.677 76.4315 448.677 73.649 446.413 71.3827 443.633 71.3827ZM443.633 116.253C440.862 116.253 438.589 118.519 438.589 121.302 438.589 124.084 440.853 126.342 443.633 126.342 446.413 126.342 448.677 124.076 448.677 121.302 448.677 118.528 446.413 116.253 443.633 116.253ZM417.749 41.4662C414.978 41.4662 412.705 43.7325 412.705 46.515 412.705 49.2975 414.969 51.5551 417.749 51.5551 420.529 51.5551 422.793 49.2975 422.793 46.515 422.793 43.7325 420.529 41.4662 417.749 41.4662ZM430.696 63.9102C427.924 63.9102 425.652 66.1677 425.652 68.9502 425.652 71.7327 427.916 73.999 430.696 73.999 433.475 73.999 435.739 71.7327 435.739 68.9502 435.739 66.1677 433.475 63.9102 430.696 63.9102ZM430.696 185.484C428.973 185.484 427.566 186.893 427.566 188.616 427.566 190.34 428.973 191.749 430.696 191.749 432.418 191.749 433.825 190.349 433.825 188.616 433.825 186.884 432.426 185.484 430.696 185.484ZM417.749 56.4289C414.978 56.4289 412.705 58.6951 412.705 61.4689 412.705 64.2427 414.969 66.5177 417.749 66.5177 420.529 66.5177 422.793 64.2514 422.793 61.4689 422.793 58.6864 420.529 56.4289 417.749 56.4289ZM417.749 101.299C414.978 101.299 412.705 103.566 412.705 106.348 412.705 109.131 414.969 111.388 417.749 111.388 420.529 111.388 422.793 109.122 422.793 106.348 422.793 103.574 420.529 101.299 417.749 101.299ZM417.749 71.3915C414.978 71.3915 412.705 73.6578 412.705 76.4403 412.705 79.2228 414.969 81.4891 417.749 81.4891 420.529 81.4891 422.793 79.2228 422.793 76.4403 422.793 73.6578 420.529 71.3915 417.749 71.3915ZM417.749 86.3454C414.978 86.3454 412.705 88.6116 412.705 91.3942 412.705 94.1767 414.969 96.4342 417.749 96.4342 420.529 96.4342 422.793 94.1679 422.793 91.3942 422.793 88.6204 420.529 86.3454 417.749 86.3454ZM430.696 168.614C427.924 168.614 425.652 170.871 425.652 173.662 425.652 176.454 427.916 178.711 430.696 178.711 433.475 178.711 435.739 176.445 435.739 173.662 435.739 170.88 433.475 168.614 430.696 168.614ZM430.696 108.781C427.924 108.781 425.652 111.047 425.652 113.829 425.652 116.612 427.916 118.869 430.696 118.869 433.475 118.869 435.739 116.612 435.739 113.829 435.739 111.047 433.475 108.781 430.696 108.781ZM430.696 93.8267C427.924 93.8267 425.652 96.093 425.652 98.8755 425.652 101.658 427.916 103.916 430.696 103.916 433.475 103.916 435.739 101.649 435.739 98.8755 435.739 96.1017 433.475 93.8267 430.696 93.8267ZM430.696 78.8641C427.924 78.8641 425.652 81.1303 425.652 83.9129 425.652 86.6954 427.916 88.9617 430.696 88.9617 433.475 88.9617 435.739 86.6954 435.739 83.9129 435.739 81.1303 433.475 78.8641 430.696 78.8641ZM430.696 123.734C427.924 123.734 425.652 126.001 425.652 128.783 425.652 131.566 427.916 133.832 430.696 133.832 433.475 133.832 435.739 131.566 435.739 128.783 435.739 126.001 433.475 123.734 430.696 123.734ZM430.696 153.651C427.924 153.651 425.652 155.917 425.652 158.7 425.652 161.482 427.916 163.74 430.696 163.74 433.475 163.74 435.739 161.482 435.739 158.7 435.739 155.917 433.475 153.651 430.696 153.651ZM430.696 138.697C427.924 138.697 425.652 140.963 425.652 143.746 425.652 146.528 427.916 148.795 430.696 148.795 433.475 148.795 435.739 146.528 435.739 143.746 435.739 140.963 433.475 138.697 430.696 138.697ZM417.749 116.262C414.978 116.262 412.705 118.528 412.705 121.311 412.705 124.093 414.969 126.351 417.749 126.351 420.529 126.351 422.793 124.084 422.793 121.311 422.793 118.537 420.529 116.262 417.749 116.262ZM495.401 41.475C492.621 41.475 490.366 43.7412 490.366 46.5238 490.366 49.3063 492.63 51.5638 495.401 51.5638 498.172 51.5638 500.445 49.3063 500.445 46.5238 500.445 43.7412 498.181 41.475 495.401 41.475ZM495.401 56.4376C492.621 56.4376 490.366 58.7039 490.366 61.4777 490.366 64.2514 492.63 66.5264 495.401 66.5264 498.172 66.5264 500.445 64.2602 500.445 61.4777 500.445 58.6951 498.181 56.4376 495.401 56.4376ZM508.347 125.659C506.617 125.659 505.218 127.059 505.218 128.783 505.218 130.507 506.617 131.916 508.347 131.916 510.078 131.916 511.477 130.516 511.477 128.783 511.477 127.051 510.07 125.659 508.347 125.659ZM456.58 63.9189C453.808 63.9189 451.536 66.1764 451.536 68.959 451.536 71.7415 453.8 74.0078 456.58 74.0078 459.359 74.0078 461.615 71.7415 461.615 68.959 461.615 66.1764 459.351 63.9189 456.58 63.9189ZM508.347 108.789C505.576 108.789 503.304 111.056 503.304 113.838 503.304 116.621 505.576 118.878 508.347 118.878 511.118 118.878 513.391 116.621 513.391 113.838 513.391 111.056 511.127 108.789 508.347 108.789ZM495.401 86.3541C492.621 86.3541 490.366 88.6204 490.366 91.4029 490.366 94.1854 492.63 96.443 495.401 96.443 498.172 96.443 500.445 94.1767 500.445 91.4029 500.445 88.6291 498.181 86.3541 495.401 86.3541ZM495.401 71.4002C492.621 71.4002 490.366 73.6665 490.366 76.449 490.366 79.2316 492.63 81.4978 495.401 81.4978 498.172 81.4978 500.445 79.2316 500.445 76.449 500.445 73.6665 498.181 71.4002 495.401 71.4002ZM508.347 48.965C505.576 48.965 503.304 51.2226 503.304 54.0138 503.304 56.8051 505.576 59.0626 508.347 59.0626 511.118 59.0626 513.391 56.7964 513.391 54.0138 513.391 51.2313 511.127 48.965 508.347 48.965ZM495.401 116.271C492.621 116.271 490.366 118.537 490.366 121.319 490.366 124.102 492.63 126.359 495.401 126.359 498.172 126.359 500.445 124.093 500.445 121.319 500.445 118.546 498.181 116.271 495.401 116.271ZM508.347 93.8354C505.576 93.8354 503.304 96.1017 503.304 98.8842 503.304 101.667 505.576 103.924 508.347 103.924 511.118 103.924 513.391 101.658 513.391 98.8842 513.391 96.1105 511.127 93.8354 508.347 93.8354ZM269.727 48.9475C266.947 48.9475 264.683 51.2051 264.683 53.9963 264.683 56.7876 266.947 59.0451 269.727 59.0451 272.507 59.0451 274.762 56.7789 274.762 53.9963 274.762 51.2138 272.498 48.9475 269.727 48.9475ZM521.285 101.299C518.514 101.299 516.241 103.566 516.241 106.348 516.241 109.131 518.514 111.388 521.285 111.388 524.056 111.388 526.32 109.122 526.32 106.348 526.32 103.574 524.056 101.299 521.285 101.299ZM508.339 78.8641C505.568 78.8641 503.295 81.1303 503.295 83.9129 503.295 86.6954 505.568 88.9617 508.339 88.9617 511.11 88.9617 513.383 86.6954 513.383 83.9129 513.383 81.1303 511.118 78.8641 508.339 78.8641ZM508.339 63.9102C505.568 63.9102 503.295 66.1677 503.295 68.9502 503.295 71.7327 505.568 73.999 508.339 73.999 511.11 73.999 513.383 71.7327 513.383 68.9502 513.383 66.1677 511.118 63.9102 508.339 63.9102ZM495.392 101.299C492.612 101.299 490.357 103.566 490.357 106.348 490.357 109.131 492.621 111.388 495.392 111.388 498.163 111.388 500.436 109.122 500.436 106.348 500.436 103.574 498.172 101.299 495.392 101.299ZM469.5 56.4289C466.729 56.4289 464.456 58.6951 464.456 61.4689 464.456 64.2427 466.729 66.5177 469.5 66.5177 472.271 66.5177 474.544 64.2514 474.544 61.4689 474.544 58.6864 472.279 56.4289 469.5 56.4289ZM469.5 79.5641C471.222 79.5641 472.629 78.1641 472.629 76.4403 472.629 74.7165 471.222 73.3078 469.5 73.3078 467.778 73.3078 466.37 74.7078 466.37 76.4403 466.37 78.1728 467.769 79.5641 469.5 79.5641ZM469.5 116.262C466.729 116.262 464.456 118.528 464.456 121.311 464.456 124.093 466.729 126.351 469.5 126.351 472.271 126.351 474.544 124.084 474.544 121.311 474.544 118.537 472.279 116.262 469.5 116.262ZM469.5 109.481C471.222 109.481 472.629 108.072 472.629 106.348 472.629 104.624 471.222 103.216 469.5 103.216 467.778 103.216 466.37 104.616 466.37 106.348 466.37 108.081 467.769 109.481 469.5 109.481ZM456.571 48.9563C453.8 48.9563 451.527 51.2138 451.527 54.0051 451.527 56.7964 453.791 59.0539 456.571 59.0539 459.351 59.0539 461.606 56.7876 461.606 54.0051 461.606 51.2226 459.342 48.9563 456.571 48.9563ZM456.571 34.0024C453.8 34.0024 451.527 36.2687 451.527 39.0512 451.527 41.8337 453.791 44.1 456.571 44.1 459.351 44.1 461.606 41.8337 461.606 39.0512 461.606 36.2687 459.342 34.0024 456.571 34.0024ZM469.5 131.225C466.729 131.225 464.456 133.491 464.456 136.265 464.456 139.038 466.729 141.313 469.5 141.313 472.271 141.313 474.544 139.056 474.544 136.265 474.544 133.473 472.279 131.225 469.5 131.225ZM482.455 140.622C480.724 140.622 479.325 142.031 479.325 143.755 479.325 145.478 480.724 146.878 482.455 146.878 484.186 146.878 485.584 145.478 485.584 143.755 485.584 142.031 484.177 140.622 482.455 140.622ZM482.455 108.789C479.684 108.789 477.411 111.056 477.411 113.838 477.411 116.621 479.684 118.878 482.455 118.878 485.226 118.878 487.499 116.621 487.499 113.838 487.499 111.056 485.243 108.789 482.455 108.789ZM482.455 63.9189C479.684 63.9189 477.411 66.1764 477.411 68.959 477.411 71.7415 479.684 74.0078 482.455 74.0078 485.226 74.0078 487.499 71.7415 487.499 68.959 487.499 66.1764 485.243 63.9189 482.455 63.9189ZM482.455 48.9563C479.684 48.9563 477.411 51.2138 477.411 54.0051 477.411 56.7964 479.684 59.0539 482.455 59.0539 485.226 59.0539 487.499 56.7876 487.499 54.0051 487.499 51.2226 485.243 48.9563 482.455 48.9563ZM482.455 123.743C479.684 123.743 477.411 126.009 477.411 128.792 477.411 131.575 479.684 133.841 482.455 133.841 485.226 133.841 487.499 131.575 487.499 128.792 487.499 126.009 485.243 123.743 482.455 123.743ZM469.5 41.475C466.729 41.475 464.456 43.7412 464.456 46.5238 464.456 49.3063 466.729 51.5638 469.5 51.5638 472.271 51.5638 474.544 49.3063 474.544 46.5238 474.544 43.7412 472.279 41.475 469.5 41.475ZM495.392 133.141C493.67 133.141 492.263 134.55 492.263 136.265 492.263 137.98 493.67 139.397 495.392 139.397 497.114 139.397 498.522 137.997 498.522 136.265 498.522 134.532 497.123 133.141 495.392 133.141ZM521.276 86.3541C518.505 86.3541 516.232 88.6204 516.232 91.4029 516.232 94.1854 518.505 96.443 521.276 96.443 524.047 96.443 526.311 94.1767 526.311 91.4029 526.311 88.6291 524.047 86.3541 521.276 86.3541ZM295.602 138.706C292.831 138.706 290.559 140.972 290.559 143.755 290.559 146.537 292.823 148.803 295.602 148.803 298.382 148.803 300.646 146.537 300.646 143.755 300.646 140.972 298.382 138.706 295.602 138.706ZM321.486 140.622C319.764 140.622 318.357 142.022 318.357 143.755 318.357 145.487 319.764 146.887 321.486 146.887 323.208 146.887 324.616 145.487 324.616 143.755 324.616 142.022 323.217 140.622 321.486 140.622ZM295.602 78.8728C292.831 78.8728 290.559 81.1391 290.559 83.9216 290.559 86.7041 292.823 88.9704 295.602 88.9704 298.382 88.9704 300.646 86.7041 300.646 83.9216 300.646 81.1391 298.382 78.8728 295.602 78.8728ZM295.602 93.8354C292.831 93.8354 290.559 96.1017 290.559 98.8842 290.559 101.667 292.823 103.924 295.602 103.924 298.382 103.924 300.646 101.658 300.646 98.8842 300.646 96.1105 298.382 93.8354 295.602 93.8354ZM295.602 123.752C292.831 123.752 290.559 126.018 290.559 128.801 290.559 131.583 292.823 133.85 295.602 133.85 298.382 133.85 300.646 131.583 300.646 128.801 300.646 126.018 298.382 123.752 295.602 123.752ZM295.602 108.789C292.831 108.789 290.559 111.056 290.559 113.838 290.559 116.621 292.823 118.878 295.602 118.878 298.382 118.878 300.646 116.621 300.646 113.838 300.646 111.056 298.382 108.789 295.602 108.789ZM295.602 34.0024C292.831 34.0024 290.559 36.2687 290.559 39.0512 290.559 41.8337 292.823 44.1 295.602 44.1 298.382 44.1 300.646 41.8337 300.646 39.0512 300.646 36.2687 298.382 34.0024 295.602 34.0024ZM295.602 63.9189C292.831 63.9189 290.559 66.1764 290.559 68.959 290.559 71.7415 292.823 74.0078 295.602 74.0078 298.382 74.0078 300.646 71.7415 300.646 68.959 300.646 66.1764 298.382 63.9189 295.602 63.9189ZM308.549 56.4376C305.769 56.4376 303.505 58.7039 303.505 61.4777 303.505 64.2514 305.769 66.5264 308.549 66.5264 311.329 66.5264 313.584 64.2602 313.584 61.4777 313.584 58.6951 311.32 56.4376 308.549 56.4376ZM308.549 131.225C305.769 131.225 303.505 133.491 303.505 136.265 303.505 139.038 305.769 141.313 308.549 141.313 311.329 141.313 313.584 139.056 313.584 136.265 313.584 133.473 311.32 131.225 308.549 131.225ZM308.549 41.4837C305.769 41.4837 303.505 43.75 303.505 46.5325 303.505 49.315 305.769 51.5726 308.549 51.5726 311.329 51.5726 313.584 49.315 313.584 46.5325 313.584 43.75 311.32 41.4837 308.549 41.4837ZM308.549 79.5728C310.28 79.5728 311.678 78.1728 311.678 76.4403 311.678 74.7078 310.28 73.3078 308.549 73.3078 306.818 73.3078 305.419 74.7078 305.419 76.4403 305.419 78.1728 306.827 79.5728 308.549 79.5728ZM417.749 131.225C414.978 131.225 412.705 133.491 412.705 136.265 412.705 139.038 414.969 141.313 417.749 141.313 420.529 141.313 422.793 139.047 422.793 136.265 422.793 133.482 420.529 131.225 417.749 131.225ZM308.549 109.489C310.28 109.489 311.678 108.081 311.678 106.357 311.678 104.633 310.28 103.224 308.549 103.224 306.818 103.224 305.419 104.624 305.419 106.357 305.419 108.089 306.827 109.489 308.549 109.489ZM295.611 48.965C292.84 48.965 290.567 51.2226 290.567 54.0138 290.567 56.8051 292.831 59.0626 295.611 59.0626 298.391 59.0626 300.655 56.7964 300.655 54.0138 300.655 51.2313 298.391 48.965 295.611 48.965ZM282.674 131.233C279.894 131.233 277.63 133.5 277.63 136.273 277.63 139.047 279.894 141.322 282.674 141.322 285.453 141.322 287.709 139.056 287.709 136.273 287.709 133.491 285.445 131.233 282.674 131.233ZM282.674 101.317C279.894 101.317 277.63 103.583 277.63 106.366 277.63 109.148 279.894 111.406 282.674 111.406 285.453 111.406 287.709 109.139 287.709 106.366 287.709 103.592 285.445 101.317 282.674 101.317ZM282.674 116.279C279.894 116.279 277.63 118.546 277.63 121.328 277.63 124.111 279.894 126.368 282.674 126.368 285.453 126.368 287.709 124.102 287.709 121.328 287.709 118.554 285.445 116.279 282.674 116.279ZM295.611 153.668C292.84 153.668 290.567 155.935 290.567 158.717 290.567 161.5 292.831 163.757 295.611 163.757 298.391 163.757 300.655 161.5 300.655 158.717 300.655 155.935 298.391 153.668 295.611 153.668ZM282.674 161.15C279.894 161.15 277.63 163.416 277.63 166.199 277.63 168.981 279.894 171.239 282.674 171.239 285.453 171.239 287.709 168.972 287.709 166.199 287.709 163.425 285.445 161.15 282.674 161.15ZM269.727 33.9937C266.947 33.9937 264.683 36.2599 264.683 39.0424 264.683 41.825 266.947 44.0912 269.727 44.0912 272.507 44.0912 274.762 41.825 274.762 39.0424 274.762 36.2599 272.498 33.9937 269.727 33.9937ZM282.665 176.086C279.885 176.086 277.621 178.352 277.621 181.135 277.621 183.918 279.885 186.184 282.665 186.184 285.445 186.184 287.7 183.926 287.7 181.135 287.7 178.344 285.436 176.086 282.665 176.086ZM282.665 146.17C279.885 146.17 277.621 148.436 277.621 151.218 277.621 154.001 279.885 156.267 282.665 156.267 285.445 156.267 287.7 154.001 287.7 151.218 287.7 148.436 285.436 146.17 282.665 146.17ZM295.602 185.484C293.872 185.484 292.473 186.893 292.473 188.616 292.473 190.34 293.872 191.749 295.602 191.749 297.333 191.749 298.732 190.349 298.732 188.616 298.732 186.884 297.325 185.484 295.602 185.484ZM295.602 168.614C292.831 168.614 290.559 170.871 290.559 173.662 290.559 176.454 292.823 178.711 295.602 178.711 298.382 178.711 300.646 176.445 300.646 173.662 300.646 170.88 298.382 168.614 295.602 168.614ZM282.665 41.475C279.885 41.475 277.621 43.7412 277.621 46.5238 277.621 49.3063 279.885 51.5638 282.665 51.5638 285.445 51.5638 287.7 49.3063 287.7 46.5238 287.7 43.7412 285.436 41.475 282.665 41.475ZM282.665 56.4376C279.885 56.4376 277.621 58.7039 277.621 61.4777 277.621 64.2514 279.885 66.5264 282.665 66.5264 285.445 66.5264 287.7 64.2602 287.7 61.4777 287.7 58.6951 285.436 56.4376 282.665 56.4376ZM282.665 86.3541C279.885 86.3541 277.621 88.6204 277.621 91.4029 277.621 94.1854 279.885 96.443 282.665 96.443 285.445 96.443 287.7 94.1767 287.7 91.4029 287.7 88.6291 285.436 86.3541 282.665 86.3541ZM282.665 71.4002C279.885 71.4002 277.621 73.6665 277.621 76.449 277.621 79.2316 279.885 81.4978 282.665 81.4978 285.445 81.4978 287.7 79.2316 287.7 76.449 287.7 73.6665 285.436 71.4002 282.665 71.4002ZM308.549 116.271C305.769 116.271 303.505 118.537 303.505 121.319 303.505 124.102 305.769 126.359 308.549 126.359 311.329 126.359 313.584 124.093 313.584 121.319 313.584 118.546 311.32 116.271 308.549 116.271ZM373.254 110.706C371.523 110.706 370.125 112.106 370.125 113.838 370.125 115.571 371.523 116.962 373.254 116.962 374.985 116.962 376.384 115.562 376.384 113.838 376.384 112.114 374.976 110.706 373.254 110.706ZM360.317 71.4002C357.537 71.4002 355.273 73.6665 355.273 76.449 355.273 79.2316 357.537 81.4978 360.317 81.4978 363.097 81.4978 365.361 79.2316 365.361 76.449 365.361 73.6665 363.097 71.4002 360.317 71.4002ZM360.317 56.4464C357.537 56.4464 355.273 58.7126 355.273 61.4864 355.273 64.2602 357.537 66.5352 360.317 66.5352 363.097 66.5352 365.361 64.2689 365.361 61.4864 365.361 58.7039 363.097 56.4464 360.317 56.4464ZM360.317 86.3629C357.537 86.3629 355.273 88.6292 355.273 91.4117 355.273 94.1942 357.537 96.4517 360.317 96.4517 363.097 96.4517 365.361 94.1855 365.361 91.4117 365.361 88.6379 363.097 86.3629 360.317 86.3629ZM347.37 48.9738C344.599 48.9738 342.326 51.2313 342.326 54.0226 342.326 56.8139 344.591 59.0714 347.37 59.0714 350.15 59.0714 352.414 56.8051 352.414 54.0226 352.414 51.2401 350.15 48.9738 347.37 48.9738ZM360.317 101.326C357.537 101.326 355.273 103.592 355.273 106.374 355.273 109.157 357.537 111.414 360.317 111.414 363.097 111.414 365.361 109.148 365.361 106.374 365.361 103.601 363.097 101.326 360.317 101.326ZM360.317 116.288C357.537 116.288 355.273 118.554 355.273 121.337 355.273 124.119 357.537 126.386 360.317 126.386 363.097 126.386 365.361 124.128 365.361 121.337 365.361 118.546 363.097 116.288 360.317 116.288ZM417.749 176.112C414.978 176.112 412.705 178.379 412.705 181.161 412.705 183.944 414.969 186.21 417.749 186.21 420.529 186.21 422.793 183.953 422.793 181.161 422.793 178.37 420.529 176.112 417.749 176.112ZM347.379 63.9364C344.608 63.9364 342.335 66.1939 342.335 68.9765 342.335 71.759 344.599 74.0253 347.379 74.0253 350.159 74.0253 352.423 71.759 352.423 68.9765 352.423 66.1939 350.159 63.9364 347.379 63.9364ZM417.749 161.159C414.978 161.159 412.705 163.425 412.705 166.207 412.705 168.99 414.969 171.247 417.749 171.247 420.529 171.247 422.793 168.981 422.793 166.207 422.793 163.434 420.529 161.159 417.749 161.159ZM417.749 146.205C414.978 146.205 412.705 148.471 412.705 151.253 412.705 154.036 414.969 156.302 417.749 156.302 420.529 156.302 422.793 154.036 422.793 151.253 422.793 148.471 420.529 146.205 417.749 146.205ZM373.263 93.8529C370.492 93.8529 368.219 96.1192 368.219 98.9017 368.219 101.684 370.483 103.942 373.263 103.942 376.043 103.942 378.307 101.676 378.307 98.9017 378.307 96.128 376.043 93.8529 373.263 93.8529ZM373.263 63.9452C370.492 63.9452 368.219 66.2027 368.219 68.9852 368.219 71.7677 370.483 74.034 373.263 74.034 376.043 74.034 378.307 71.7677 378.307 68.9852 378.307 66.2027 376.043 63.9452 373.263 63.9452ZM373.263 78.8991C370.492 78.8991 368.219 81.1653 368.219 83.9479 368.219 86.7304 370.483 88.9967 373.263 88.9967 376.043 88.9967 378.307 86.7304 378.307 83.9479 378.307 81.1653 376.043 78.8991 373.263 78.8991ZM334.441 116.297C331.67 116.297 329.398 118.563 329.398 121.346 329.398 124.128 331.67 126.386 334.441 126.386 337.213 126.386 339.477 124.119 339.477 121.346 339.477 118.572 337.213 116.297 334.441 116.297ZM334.441 131.251C331.67 131.251 329.398 133.517 329.398 136.291 329.398 139.065 331.67 141.34 334.441 141.34 337.213 141.34 339.477 139.082 339.477 136.291 339.477 133.5 337.213 131.251 334.441 131.251ZM321.495 33.9937C318.724 33.9937 316.46 36.2599 316.46 39.0424 316.46 41.825 318.724 44.0912 321.495 44.0912 324.266 44.0912 326.539 41.825 326.539 39.0424 326.539 36.2599 324.275 33.9937 321.495 33.9937ZM334.441 109.481C336.172 109.481 337.571 108.072 337.571 106.348 337.571 104.624 336.172 103.216 334.441 103.216 332.711 103.216 331.312 104.616 331.312 106.348 331.312 108.081 332.719 109.481 334.441 109.481ZM321.495 123.743C318.724 123.743 316.46 126.009 316.46 128.792 316.46 131.575 318.724 133.841 321.495 133.841 324.266 133.841 326.539 131.575 326.539 128.792 326.539 126.009 324.275 123.743 321.495 123.743ZM321.495 108.789C318.724 108.789 316.46 111.056 316.46 113.838 316.46 116.621 318.724 118.878 321.495 118.878 324.266 118.878 326.539 116.621 326.539 113.838 326.539 111.056 324.275 108.789 321.495 108.789ZM321.495 48.9563C318.724 48.9563 316.46 51.2138 316.46 54.0051 316.46 56.7964 318.724 59.0539 321.495 59.0539 324.266 59.0539 326.539 56.7876 326.539 54.0051 326.539 51.2226 324.275 48.9563 321.495 48.9563ZM347.379 78.8728C344.608 78.8728 342.335 81.1391 342.335 83.9216 342.335 86.7041 344.599 88.9704 347.379 88.9704 350.159 88.9704 352.423 86.7041 352.423 83.9216 352.423 81.1391 350.159 78.8728 347.379 78.8728ZM321.495 63.9189C318.724 63.9189 316.46 66.1764 316.46 68.959 316.46 71.7415 318.724 74.0078 321.495 74.0078 324.266 74.0078 326.539 71.7415 326.539 68.959 326.539 66.1764 324.275 63.9189 321.495 63.9189ZM347.379 108.789C344.608 108.789 342.335 111.056 342.335 113.838 342.335 116.621 344.599 118.878 347.379 118.878 350.159 118.878 352.423 116.621 352.423 113.838 352.423 111.056 350.159 108.789 347.379 108.789ZM347.379 93.8354C344.608 93.8354 342.335 96.1017 342.335 98.8842 342.335 101.667 344.599 103.924 347.379 103.924 350.159 103.924 352.423 101.658 352.423 98.8842 352.423 96.1105 350.159 93.8354 347.379 93.8354ZM347.379 123.752C344.608 123.752 342.335 126.018 342.335 128.801 342.335 131.583 344.599 133.85 347.379 133.85 350.159 133.85 352.423 131.583 352.423 128.801 352.423 126.018 350.159 123.752 347.379 123.752ZM334.441 41.4837C331.67 41.4837 329.398 43.75 329.398 46.5325 329.398 49.315 331.67 51.5726 334.441 51.5726 337.213 51.5726 339.477 49.315 339.477 46.5325 339.477 43.75 337.213 41.4837 334.441 41.4837ZM334.441 79.5728C336.172 79.5728 337.571 78.1728 337.571 76.4403 337.571 74.7078 336.172 73.3078 334.441 73.3078 332.711 73.3078 331.312 74.7078 331.312 76.4403 331.312 78.1728 332.719 79.5728 334.441 79.5728ZM334.441 56.4376C331.67 56.4376 329.398 58.7039 329.398 61.4777 329.398 64.2514 331.67 66.5264 334.441 66.5264 337.213 66.5264 339.477 64.2602 339.477 61.4777 339.477 58.6951 337.213 56.4376 334.441 56.4376Z" class="MsftOfcThm_Background1_Fill_v2" stroke="none" stroke-width="1" stroke-linecap="butt" stroke-linejoin="miter" stroke-miterlimit="4" fill="#333333" fill-opacity="1"/></g><path d="M1678.22 31.3513 1678.22 136.266 1637.56 136.266 1637.56 83.4069C1627.13 93.6839 1612.76 100.908 1594.44 105.078L1594.44 69.1083C1619.46 62.8527 1635.7 50.2671 1643.14 31.3513L1678.22 31.3513Z" class="MsftOfcThm_Background1_Fill_v2" stroke="none" stroke-width="1" stroke-linecap="butt" stroke-linejoin="miter" stroke-miterlimit="4" fill="#333333" fill-opacity="1"/><path d="M1805.2 31.3501C1818.01 31.3501 1828.81 33.6587 1837.6 38.2759 1846.53 42.8932 1853.16 49.1488 1857.48 57.0428 1861.95 64.9367 1864.18 73.8733 1864.18 83.8525 1864.18 93.8317 1861.95 102.843 1857.48 110.886 1853.16 118.78 1846.53 125.035 1837.6 129.652 1828.81 134.27 1818.01 136.578 1805.2 136.578L1760.29 136.578 1760.29 192.208 1719.19 192.208 1719.19 31.3501 1805.2 31.3501ZM1804.31 100.162C1810.12 100.162 1814.58 98.7468 1817.71 95.9168 1820.99 93.0869 1822.63 89.0655 1822.63 83.8525 1822.63 78.6395 1820.99 74.618 1817.71 71.7881 1814.58 68.9582 1810.12 67.5432 1804.31 67.5432L1760.29 67.5432 1760.29 100.162 1804.31 100.162Z" class="MsftOfcThm_Background1_Fill_v2" stroke="none" stroke-width="1" stroke-linecap="butt" stroke-linejoin="miter" stroke-miterlimit="4" fill="#333333" fill-opacity="1"/><path d="M1973.1 31.3501C1991.12 31.3501 2006.61 34.9992 2019.57 42.2974 2032.68 49.4467 2042.58 59.128 2049.28 71.3413 2056.13 83.5546 2059.56 97.0339 2059.56 111.779 2059.56 126.525 2056.13 140.004 2049.28 152.217 2042.58 164.431 2032.68 174.186 2019.57 181.485 2006.61 188.634 1991.12 192.208 1973.1 192.208L1899.37 192.208 1899.37 31.3501 1973.1 31.3501ZM1972.65 156.015C1986.8 156.015 1997.67 151.845 2005.27 143.504 2012.87 135.163 2016.66 124.588 2016.66 111.779 2016.66 98.9702 2012.87 88.3952 2005.27 80.0544 1997.67 71.7136 1986.8 67.5432 1972.65 67.5432L1940.48 67.5432 1940.48 156.015 1972.65 156.015Z" class="MsftOfcThm_Background1_Fill_v2" stroke="none" stroke-width="1" stroke-linecap="butt" stroke-linejoin="miter" stroke-miterlimit="4" fill="#333333" fill-opacity="1"/></svg>