<svg xmlns="http://www.w3.org/2000/svg" width="460" height="473" viewBox="0 0 460 473" fill="none"><path d="M151.301 432.197C69.9488 432.197 3.99997 366.234 3.99997 284.864C3.99997 203.494 69.9488 137.53 151.301 137.53C232.653 137.53 298.602 203.494 298.602 284.864C298.602 366.234 232.653 432.197 151.301 432.197Z" fill="#DBDCDD" fill-opacity="0.5"></path><path d="M85.3821 231.975C87.0412 231.975 88.4612 231.356 89.643 230.118C90.8245 228.88 91.4149 227.392 91.4149 225.653C91.4149 223.915 90.8245 222.426 89.643 221.189C88.4612 219.951 87.0412 219.332 85.3821 219.332C83.7225 219.332 82.3025 219.951 81.1211 221.189C79.9392 222.426 79.3487 223.915 79.3487 225.653C79.3487 227.392 79.9392 228.88 81.1211 230.118C82.3025 231.356 83.7225 231.975 85.3821 231.975ZM97.4483 241.458V240.194C97.4483 239.298 97.2283 238.475 96.7886 237.724C96.3486 236.974 95.7641 236.401 95.0353 236.006C93.4765 235.189 91.8926 234.577 90.2841 234.168C88.6752 233.76 87.0412 233.556 85.3821 233.556C83.7225 233.556 82.0885 233.76 80.48 234.168C78.8711 234.577 77.2872 235.189 75.7288 236.006C74.9996 236.401 74.4151 236.974 73.9751 237.724C73.5355 238.475 73.3154 239.298 73.3154 240.194V241.458C73.3154 242.328 73.6107 243.072 74.2016 243.691C74.7921 244.31 75.5023 244.619 76.3319 244.619H94.4318C95.2614 244.619 95.9716 244.31 96.5621 243.691C97.153 243.072 97.4483 242.328 97.4483 241.458Z" fill="#C7C8CB"></path><path d="M151.301 180.251C154.224 180.251 156.727 179.182 158.809 177.044C160.89 174.905 161.931 172.335 161.931 169.332C161.931 166.328 160.89 163.758 158.809 161.619C156.727 159.481 154.224 158.412 151.301 158.412C148.378 158.412 145.875 159.481 143.794 161.619C141.712 163.758 140.671 166.328 140.671 169.332C140.671 172.335 141.712 174.905 143.794 177.044C145.875 179.182 148.378 180.251 151.301 180.251ZM172.561 196.631V194.447C172.561 192.9 172.174 191.478 171.398 190.182C170.623 188.885 169.594 187.895 168.309 187.213C165.563 185.802 162.773 184.745 159.938 184.039C157.103 183.334 154.224 182.981 151.301 182.981C148.378 182.981 145.499 183.334 142.664 184.039C139.83 184.745 137.039 185.802 134.293 187.213C133.009 187.895 131.979 188.885 131.204 190.182C130.429 191.478 130.041 192.9 130.041 194.447V196.631C130.041 198.133 130.561 199.418 131.602 200.487C132.643 201.556 133.894 202.091 135.356 202.091H167.246C168.708 202.091 169.959 201.556 171 200.487C172.041 199.418 172.561 198.133 172.561 196.631Z" fill="#C7C8CB"></path><path d="M237.63 343.872C239.842 343.872 241.735 343.056 243.311 341.424C244.886 339.792 245.674 337.83 245.674 335.539C245.674 333.247 244.886 331.285 243.311 329.653C241.735 328.021 239.842 327.205 237.63 327.205C235.417 327.205 233.524 328.021 231.948 329.653C230.373 331.285 229.585 333.247 229.585 335.539C229.585 337.83 230.373 339.792 231.948 341.424C233.524 343.056 235.417 343.872 237.63 343.872ZM253.718 356.372V354.706C253.718 353.525 253.425 352.44 252.838 351.451C252.252 350.461 251.472 349.705 250.501 349.185C248.422 348.108 246.311 347.301 244.166 346.763C242.021 346.225 239.842 345.955 237.63 345.955C235.417 345.955 233.239 346.225 231.094 346.763C228.949 347.301 226.837 348.108 224.758 349.185C223.787 349.705 223.007 350.461 222.421 351.451C221.834 352.44 221.541 353.525 221.541 354.706V356.372C221.541 357.518 221.935 358.499 222.722 359.315C223.51 360.131 224.457 360.539 225.563 360.539H249.696C250.802 360.539 251.749 360.131 252.537 359.315C253.324 358.499 253.718 357.518 253.718 356.372Z" fill="#C7C8CB"></path><path d="M322.895 305.642C249.832 305.642 190.603 246.4 190.603 173.321C190.603 100.242 249.832 41 322.895 41C395.958 41 455.187 100.242 455.187 173.321C455.187 246.4 395.958 305.642 322.895 305.642Z" fill="#DBDCDD" fill-opacity="0.5"></path><path d="M352.291 114.295C354.846 114.295 357.033 113.36 358.853 111.49C360.673 109.62 361.581 107.373 361.581 104.746C361.581 102.12 360.673 99.8725 358.853 98.0025C357.033 96.1325 354.846 95.1973 352.291 95.1973C349.736 95.1973 347.553 96.1325 345.733 98.0025C343.913 99.8725 343.005 102.12 343.005 104.746C343.005 107.373 343.913 109.62 345.733 111.49C347.553 113.36 349.736 114.295 352.291 114.295ZM370.87 128.619V126.709C370.87 125.356 370.533 124.113 369.854 122.979C369.176 121.845 368.277 120.98 367.153 120.383C364.753 119.15 362.315 118.224 359.838 117.608C357.362 116.991 354.846 116.683 352.291 116.683C349.736 116.683 347.22 116.991 344.743 117.608C342.266 118.224 339.828 119.15 337.429 120.383C336.309 120.98 335.406 121.845 334.732 122.979C334.053 124.113 333.716 125.356 333.716 126.709V128.619C333.716 129.932 334.17 131.056 335.078 131.991C335.99 132.926 337.083 133.393 338.358 133.393H366.228C367.503 133.393 368.596 132.926 369.504 131.991C370.416 131.056 370.87 129.932 370.87 128.619Z" fill="#C7C8CB"></path><path d="M334.511 220.702C337.49 220.702 340.04 219.59 342.163 217.366C344.285 215.143 345.349 212.469 345.349 209.347C345.349 206.224 344.285 203.55 342.163 201.326C340.04 199.103 337.49 197.991 334.511 197.991C331.529 197.991 328.978 199.103 326.856 201.326C324.733 203.55 323.674 206.224 323.674 209.347C323.674 212.469 324.733 215.143 326.856 217.366C328.978 219.59 331.529 220.702 334.511 220.702ZM356.186 237.735V235.464C356.186 233.856 355.788 232.377 355.001 231.028C354.21 229.68 353.16 228.651 351.85 227.941C349.049 226.475 346.205 225.374 343.317 224.641C340.425 223.908 337.49 223.541 334.511 223.541C331.529 223.541 328.593 223.908 325.706 224.641C322.814 225.374 319.97 226.475 317.173 227.941C315.863 228.651 314.812 229.68 314.021 231.028C313.23 232.377 312.837 233.856 312.837 235.464V237.735C312.837 239.297 313.369 240.634 314.428 241.745C315.491 242.857 316.766 243.413 318.253 243.413H350.765C352.256 243.413 353.532 242.857 354.595 241.745C355.654 240.634 356.186 239.297 356.186 237.735Z" fill="#C7C8CB"></path><path d="M396.413 191.61C397.905 191.61 399.18 191.054 400.243 189.943C401.303 188.831 401.834 187.494 401.834 185.933C401.834 184.371 401.303 183.035 400.243 181.923C399.18 180.811 397.905 180.255 396.413 180.255C394.926 180.255 393.647 180.811 392.588 181.923C391.529 183.035 390.997 184.371 390.997 185.933C390.997 187.494 391.529 188.831 392.588 189.943C393.647 191.054 394.926 191.61 396.413 191.61ZM407.251 200.127V198.991C407.251 198.187 407.056 197.448 406.658 196.774C406.265 196.099 405.738 195.585 405.085 195.23C403.684 194.496 402.262 193.946 400.818 193.58C399.37 193.213 397.905 193.03 396.413 193.03C394.926 193.03 393.457 193.213 392.013 193.58C390.569 193.946 389.147 194.496 387.746 195.23C387.089 195.585 386.566 196.099 386.168 196.774C385.775 197.448 385.576 198.187 385.576 198.991V200.127C385.576 200.908 385.844 201.576 386.372 202.132C386.903 202.688 387.543 202.966 388.287 202.966H404.54C405.288 202.966 405.924 202.688 406.455 202.132C406.987 201.576 407.251 200.908 407.251 200.127Z" fill="#C7C8CB"></path><path d="M280.831 114.665C282.249 114.665 283.463 114.109 284.475 112.997C285.486 111.885 285.992 110.548 285.992 108.987C285.992 107.425 285.486 106.089 284.475 104.977C283.463 103.865 282.249 103.309 280.831 103.309C279.413 103.309 278.194 103.865 277.187 104.977C276.175 106.089 275.669 107.425 275.669 108.987C275.669 110.548 276.175 111.885 277.187 112.997C278.194 114.109 279.413 114.665 280.831 114.665ZM291.149 123.181V122.046C291.149 121.241 290.963 120.502 290.587 119.828C290.211 119.153 289.71 118.639 289.087 118.284C287.751 117.551 286.398 117.001 285.024 116.634C283.645 116.267 282.249 116.084 280.831 116.084C279.413 116.084 278.012 116.267 276.638 116.634C275.263 117.001 273.906 117.551 272.574 118.284C271.947 118.639 271.45 119.153 271.074 119.828C270.698 120.502 270.508 121.241 270.508 122.046V123.181C270.508 123.962 270.763 124.63 271.269 125.186C271.77 125.742 272.38 126.02 273.089 126.02H288.568C289.282 126.02 289.887 125.742 290.393 125.186C290.898 124.63 291.149 123.962 291.149 123.181Z" fill="#C7C8CB"></path><path d="M153.886 276.271C156.572 276.271 158.872 275.286 160.785 273.316C162.698 271.346 163.654 268.979 163.654 266.213C163.654 263.447 162.698 261.079 160.785 259.11C158.872 257.14 156.572 256.155 153.886 256.155C151.2 256.155 148.9 257.14 146.987 259.11C145.074 261.079 144.118 263.447 144.118 266.213C144.118 268.979 145.074 271.346 146.987 273.316C148.9 275.286 151.2 276.271 153.886 276.271ZM173.422 291.357V289.346C173.422 287.921 173.066 286.611 172.354 285.417C171.641 284.222 170.695 283.311 169.515 282.682C166.991 281.383 164.428 280.409 161.823 279.759C159.218 279.11 156.572 278.785 153.886 278.785C151.2 278.785 148.554 279.11 145.949 279.759C143.344 280.409 140.78 281.383 138.257 282.682C137.077 283.311 136.13 284.222 135.418 285.417C134.706 286.611 134.35 287.921 134.35 289.346V291.357C134.35 292.74 134.828 293.924 135.784 294.909C136.741 295.894 137.891 296.386 139.234 296.386H168.538C169.881 296.386 171.031 295.894 171.988 294.909C172.944 293.924 173.422 292.74 173.422 291.357Z" fill="#C7C8CB"></path><path d="M67.2827 327.208C70.6009 327.208 73.4414 325.97 75.8046 323.494C78.1675 321.018 79.3489 318.041 79.3489 314.564C79.3489 311.087 78.1675 308.11 75.8046 305.635C73.4414 303.158 70.6009 301.92 67.2827 301.92C63.9641 301.92 61.1236 303.158 58.7603 305.635C56.3975 308.11 55.2161 311.087 55.2161 314.564C55.2161 318.041 56.3975 321.018 58.7603 323.494C61.1236 325.97 63.9641 327.208 67.2827 327.208ZM91.4155 346.174V343.645C91.4155 341.854 90.9755 340.208 90.0958 338.706C89.2161 337.205 88.0472 336.059 86.5891 335.269C83.472 333.636 80.3042 332.411 77.0868 331.594C73.8689 330.778 70.6009 330.369 67.2827 330.369C63.9641 330.369 60.6961 330.778 57.4786 331.594C54.2607 332.411 51.0934 333.636 47.9762 335.269C46.5182 336.059 45.3489 337.205 44.4692 338.706C43.5895 340.208 43.1494 341.854 43.1494 343.645V346.174C43.1494 347.913 43.7403 349.401 44.9218 350.639C46.1032 351.877 47.5236 352.496 49.1827 352.496H85.3822C87.0413 352.496 88.4618 351.877 89.6432 350.639C90.825 349.401 91.4155 347.913 91.4155 346.174Z" fill="#C7C8CB"></path><path d="M155.323 368.873C156.983 368.873 158.403 368.254 159.584 367.016C160.766 365.779 161.356 364.29 161.356 362.552C161.356 360.813 160.766 359.324 159.584 358.087C158.403 356.849 156.983 356.229 155.323 356.229C153.664 356.229 152.244 356.849 151.062 358.087C149.881 359.324 149.29 360.813 149.29 362.552C149.29 364.29 149.881 365.779 151.062 367.016C152.244 368.254 153.664 368.873 155.323 368.873ZM167.39 378.356V377.092C167.39 376.197 167.17 375.373 166.73 374.622C166.29 373.872 165.705 373.299 164.976 372.904C163.418 372.087 161.834 371.475 160.225 371.066C158.617 370.658 156.983 370.454 155.323 370.454C153.664 370.454 152.03 370.658 150.421 371.066C148.812 371.475 147.229 372.087 145.67 372.904C144.941 373.299 144.357 373.872 143.916 374.622C143.477 375.373 143.257 376.197 143.257 377.092V378.356C143.257 379.226 143.552 379.97 144.143 380.589C144.733 381.208 145.444 381.517 146.273 381.517H164.373C165.203 381.517 165.913 381.208 166.503 380.589C167.094 379.97 167.39 379.226 167.39 378.356Z" fill="#C7C8CB"></path><path d="M219.024 198.432C217.286 198.432 215.798 197.785 214.56 196.491C213.322 195.197 212.704 193.64 212.704 191.823C212.704 190.005 213.322 188.449 214.56 187.155C215.798 185.861 217.286 185.214 219.024 185.214C220.762 185.214 222.25 185.861 223.488 187.155C224.726 188.449 225.345 190.005 225.345 191.823C225.345 193.64 224.726 195.197 223.488 196.491C222.25 197.785 220.762 198.432 219.024 198.432ZM206.383 208.346V207.025C206.383 206.088 206.613 205.228 207.074 204.443C207.535 203.658 208.147 203.059 208.911 202.646C210.544 201.792 212.203 201.152 213.888 200.725C215.574 200.298 217.286 200.085 219.024 200.085C220.762 200.085 222.474 200.298 224.159 200.725C225.845 201.152 227.504 201.792 229.137 202.646C229.901 203.059 230.513 203.658 230.974 204.443C231.435 205.228 231.665 206.088 231.665 207.025V208.346C231.665 209.255 231.356 210.033 230.737 210.68C230.118 211.328 229.374 211.651 228.505 211.651H209.543C208.674 211.651 207.93 211.328 207.311 210.68C206.692 210.033 206.383 209.255 206.383 208.346Z" fill="#1678D1"></path><path d="M260.395 237.149C258.34 237.149 256.582 236.36 255.119 234.785C253.656 233.209 252.925 231.315 252.925 229.102C252.925 226.89 253.656 224.996 255.119 223.42C256.582 221.844 258.34 221.056 260.395 221.056C262.449 221.056 264.207 221.844 265.67 223.42C267.133 224.996 267.864 226.89 267.864 229.102C267.864 231.315 267.133 233.209 265.67 234.785C264.207 236.36 262.449 237.149 260.395 237.149ZM245.455 249.218V247.608C245.455 246.469 245.727 245.421 246.272 244.465C246.817 243.51 247.54 242.781 248.443 242.278C250.373 241.239 252.333 240.459 254.325 239.94C256.317 239.42 258.34 239.16 260.395 239.16C262.449 239.16 264.472 239.42 266.464 239.94C268.456 240.459 270.417 241.239 272.345 242.278C273.248 242.781 273.97 243.51 274.515 244.465C275.06 245.421 275.332 246.469 275.332 247.608V249.218C275.332 250.324 274.969 251.271 274.238 252.059C273.503 252.847 272.626 253.241 271.597 253.241H249.19C248.163 253.241 247.284 252.847 246.552 252.059C245.821 251.271 245.455 250.324 245.455 249.218Z" fill="#1678D1"></path><path opacity="0.25" d="M193.913 142.936C191.749 152.431 190.604 162.316 190.604 172.467C190.604 236.848 236.574 290.488 297.474 302.346C298.217 296.338 298.602 290.219 298.602 284.01C298.602 217.46 254.488 161.215 193.913 142.936Z" fill="#1678D1"></path><path d="M300.65 239.373C300.629 228.394 296.812 219.11 289.195 211.519C281.578 203.929 272.284 200.143 261.307 200.163C250.33 200.183 241.048 204.002 233.459 211.62C225.87 219.239 222.086 228.537 222.106 239.515C222.125 250.494 225.944 259.778 233.56 267.369C241.177 274.959 250.473 278.745 261.449 278.725C265.88 278.717 270.058 278.004 273.983 276.587C277.908 275.17 281.379 273.25 284.392 270.827L318.292 304.608C319.398 305.714 320.812 306.265 322.524 306.262C324.235 306.259 325.645 305.702 326.747 304.592C327.854 303.482 328.407 302.071 328.403 300.359C328.398 298.647 327.841 297.238 326.734 296.132L292.839 262.351C295.247 259.325 297.157 255.847 298.558 251.916C299.959 247.986 300.659 243.804 300.65 239.373ZM288.568 239.395C288.581 246.949 285.948 253.374 280.67 258.672C275.392 263.969 268.979 266.625 261.427 266.639C253.875 266.652 247.451 264.02 242.154 258.742C236.858 253.463 234.203 247.047 234.189 239.493C234.176 231.939 236.807 225.514 242.085 220.216C247.361 214.919 253.776 212.263 261.328 212.25C268.881 212.236 275.306 214.868 280.601 220.146C285.897 225.425 288.551 231.841 288.568 239.395Z" fill="#1678D1"></path></svg>