<svg xmlns="http://www.w3.org/2000/svg" width="460" height="475" viewBox="0 0 460 475" fill="none"><g clip-path="url(#clip0_1424_61370)"><path fill-rule="evenodd" clip-rule="evenodd" d="M307.487 334.584C286.828 344.427 261.75 349.348 232.239 349.348C202.73 349.348 177.648 344.427 156.992 334.585C136.336 324.742 126.008 312.909 126.008 299.088C126.008 285.266 136.336 273.434 156.992 263.591C177.648 253.748 202.73 248.827 232.239 248.827C261.75 248.827 286.828 253.748 307.487 263.591C328.142 273.434 338.47 285.266 338.47 299.088C338.47 312.909 328.142 324.742 307.487 334.584ZM229.541 317.699C271.097 317.699 304.781 306.623 304.781 292.958C304.781 279.295 271.097 268.218 229.541 268.218C187.986 268.218 154.3 279.295 154.3 292.958C154.3 306.623 187.986 317.699 229.541 317.699Z" fill="#DBDCDD"></path><path d="M262.483 378.091C250.385 379.872 240.304 380.762 232.239 380.762C224.173 380.762 214.091 379.872 201.993 378.091C189.894 376.311 178.238 373.432 167.025 369.453C155.812 365.474 146.172 360.291 138.106 353.903C130.041 347.516 126.008 339.715 126.008 330.501V361.914C126.008 371.128 130.041 378.929 138.106 385.316C146.172 391.704 155.812 396.887 167.025 400.866C178.238 404.845 189.894 407.724 201.993 409.504C214.091 411.285 224.173 412.175 232.239 412.175C240.304 412.175 250.385 411.285 262.483 409.504C274.585 407.724 286.239 404.845 297.454 400.866C308.665 396.887 318.307 391.704 326.372 385.316C334.437 378.929 338.47 371.128 338.47 361.914V330.501C338.47 339.715 334.437 347.516 326.372 353.903C318.307 360.291 308.665 365.474 297.454 369.453C286.239 373.432 274.585 376.311 262.483 378.091Z" fill="#DBDCDD"></path><path d="M262.483 440.917C250.385 442.697 240.304 443.587 232.239 443.587C224.173 443.587 214.091 442.697 201.993 440.917C189.894 439.137 178.238 436.258 167.025 432.278C155.812 428.3 146.172 423.116 138.106 416.729C130.041 410.342 126.008 402.541 126.008 393.326V424.739C126.008 433.954 130.041 441.755 138.106 448.142C146.172 454.529 155.812 459.713 167.025 463.691C178.238 467.669 189.894 470.55 201.993 472.329C214.091 474.108 224.173 475 232.239 475C240.304 475 250.385 474.108 262.483 472.329C274.585 470.55 286.239 467.669 297.454 463.691C308.665 459.713 318.307 454.529 326.372 448.142C334.437 441.755 338.47 433.954 338.47 424.739V393.326C338.47 402.541 334.437 410.342 326.372 416.729C318.307 423.116 308.665 428.3 297.454 432.278C286.239 436.258 274.585 439.137 262.483 440.917Z" fill="#DBDCDD"></path><path opacity="0.25" d="M148.012 41.3516C157.612 41.3516 165.394 33.0549 165.394 22.8206C165.394 12.5862 157.612 4.28955 148.012 4.28955C138.412 4.28955 130.63 12.5862 130.63 22.8206C130.63 33.0549 138.412 41.3516 148.012 41.3516Z" fill="#28A8E8"></path><path opacity="0.05" d="M148.011 46.6418C160.352 46.6418 170.356 35.9771 170.356 22.821C170.356 9.66505 160.352 -1 148.011 -1C135.671 -1 125.667 9.66505 125.667 22.821C125.667 35.9771 135.671 46.6418 148.011 46.6418Z" fill="#28A8E8"></path><path opacity="0.25" d="M148.012 37.6563C155.696 37.6563 161.925 31.0154 161.925 22.8235C161.925 14.6316 155.696 7.99072 148.012 7.99072C140.328 7.99072 134.099 14.6316 134.099 22.8235C134.099 31.0154 140.328 37.6563 148.012 37.6563Z" fill="#28A8E8"></path><path d="M140.286 20.6181C140.183 20.5389 140.121 20.4424 140.1 20.326C140.079 20.2097 140.111 20.0884 140.2 19.9622C141.108 18.6353 142.245 17.6055 143.613 16.8728C144.981 16.1401 146.441 15.7737 147.992 15.7737C149.543 15.7737 151.009 16.1277 152.383 16.8382C153.76 17.5486 154.907 18.5734 155.831 19.9151C155.919 20.0562 155.947 20.18 155.919 20.2889C155.892 20.3978 155.831 20.4919 155.743 20.5686C155.655 20.6454 155.552 20.6825 155.436 20.6751C155.321 20.6676 155.216 20.6008 155.13 20.477C154.324 19.2591 153.288 18.3284 152.023 17.6798C150.758 17.0313 149.413 16.7094 147.995 16.7094C146.576 16.7094 145.243 17.0337 143.999 17.6798C142.754 18.3284 141.723 19.2591 140.903 20.477C140.815 20.6181 140.713 20.6949 140.597 20.7122C140.481 20.7295 140.376 20.6973 140.29 20.6181H140.286ZM150.474 32.1561C148.951 31.7501 147.709 30.9431 146.743 29.7326C145.777 28.5222 145.294 27.0443 145.294 25.2967C145.294 24.5169 145.556 23.8609 146.083 23.3312C146.611 22.8014 147.247 22.5366 147.995 22.5366C148.742 22.5366 149.378 22.8014 149.906 23.3312C150.433 23.8609 150.695 24.5169 150.695 25.2967C150.695 25.8115 150.879 26.2448 151.243 26.5963C151.607 26.9478 152.042 27.1235 152.539 27.1235C153.035 27.1235 153.461 26.9478 153.811 26.5963C154.162 26.2448 154.338 25.8115 154.338 25.2967C154.338 23.4871 153.716 21.9648 152.471 20.732C151.227 19.4992 149.741 18.8829 148.013 18.8829C146.285 18.8829 144.799 19.4992 143.555 20.732C142.31 21.9648 141.688 23.4772 141.688 25.2719C141.688 25.6457 141.72 26.1136 141.788 26.6755C141.855 27.2374 142.011 27.8934 142.259 28.641C142.303 28.7821 142.299 28.9058 142.248 29.0148C142.197 29.1237 142.113 29.2029 141.995 29.2499C141.876 29.297 141.765 29.292 141.653 29.2375C141.542 29.1831 141.467 29.094 141.424 28.9677C141.203 28.3588 141.047 27.7548 140.952 27.1532C140.857 26.5517 140.81 25.9329 140.81 25.2917C140.81 23.2173 141.516 21.4771 142.928 20.071C144.34 18.6675 146.028 17.9645 147.99 17.9645C149.952 17.9645 151.663 18.6675 153.084 20.071C154.503 21.4746 155.213 23.2149 155.213 25.2917C155.213 26.0715 154.953 26.7225 154.433 27.2473C153.913 27.7696 153.282 28.032 152.534 28.032C151.786 28.032 151.148 27.7696 150.614 27.2473C150.079 26.725 149.812 26.074 149.812 25.2917C149.812 24.7768 149.634 24.3436 149.274 23.9921C148.914 23.6406 148.487 23.4649 147.99 23.4649C147.493 23.4649 147.063 23.6406 146.706 23.9921C146.348 24.3436 146.167 24.7768 146.167 25.2917C146.167 26.8042 146.587 28.0691 147.43 29.0841C148.271 30.099 149.36 30.8095 150.691 31.2129C150.823 31.26 150.911 31.3367 150.953 31.4481C150.994 31.5595 151.004 31.6734 150.973 31.7996C150.944 31.9086 150.886 32.0026 150.797 32.0794C150.709 32.1561 150.6 32.1808 150.467 32.1486L150.474 32.1561ZM143.139 15.7242C143.023 15.8034 142.905 15.8207 142.789 15.7836C142.672 15.7465 142.585 15.6623 142.526 15.5386C142.468 15.4148 142.452 15.3009 142.482 15.1994C142.512 15.0979 142.582 15.0113 142.696 14.9346C142.698 14.9346 142.703 14.9296 142.705 14.9271C143.522 14.4593 144.377 14.1028 145.268 13.8528C146.162 13.6028 147.068 13.479 147.992 13.479C148.916 13.479 149.843 13.6003 150.737 13.8429C151.631 14.0855 152.492 14.4321 153.328 14.8851C153.461 14.9643 153.537 15.0559 153.558 15.1648C153.579 15.2737 153.57 15.3826 153.526 15.4915C153.481 15.6004 153.409 15.6871 153.305 15.749C153.201 15.8108 153.077 15.8034 152.931 15.7267C152.155 15.3059 151.354 14.9816 150.528 14.7563C149.701 14.5311 148.856 14.4172 147.992 14.4172C147.128 14.4172 146.309 14.5236 145.489 14.7341C144.669 14.9445 143.887 15.2762 143.139 15.7292V15.7242ZM145.731 31.8293C144.867 30.8614 144.205 29.8737 143.743 28.8687C143.281 27.8612 143.051 26.673 143.051 25.2991C143.051 23.9253 143.534 22.6826 144.5 21.7073C145.466 20.732 146.629 20.2443 147.99 20.2443C149.351 20.2443 150.523 20.732 151.503 21.7073C152.483 22.6826 152.975 23.8808 152.975 25.2991C152.975 25.4402 152.936 25.5517 152.854 25.6383C152.773 25.7249 152.669 25.767 152.536 25.767C152.42 25.767 152.316 25.7249 152.23 25.6383C152.144 25.5517 152.098 25.4402 152.098 25.2991C152.098 24.1283 151.691 23.1505 150.879 22.3608C150.066 21.5736 149.104 21.1776 147.992 21.1776C146.88 21.1776 145.926 21.5711 145.127 22.3608C144.328 23.148 143.931 24.1283 143.931 25.2991C143.931 26.5641 144.135 27.636 144.546 28.5172C144.957 29.3984 145.556 30.2847 146.346 31.1733C146.434 31.2674 146.478 31.3763 146.478 31.5001C146.478 31.6239 146.434 31.7352 146.346 31.8268C146.258 31.9184 146.155 31.9679 146.039 31.9679C145.923 31.9679 145.819 31.9209 145.733 31.8268L145.731 31.8293ZM152.362 30.2376C151.06 30.2376 149.929 29.7698 148.97 28.8341C148.011 27.8983 147.533 26.7201 147.533 25.2991C147.533 25.1754 147.572 25.064 147.653 24.9724C147.735 24.8808 147.839 24.8313 147.971 24.8313C148.104 24.8313 148.208 24.8783 148.289 24.9724C148.371 25.0665 148.41 25.1754 148.41 25.2991C148.41 26.47 148.805 27.428 149.597 28.1781C150.388 28.9281 151.31 29.3019 152.362 29.3019C152.45 29.3019 152.573 29.2945 152.736 29.2797C152.898 29.2648 153.066 29.24 153.24 29.2103C153.372 29.1781 153.486 29.1979 153.581 29.2697C153.676 29.3415 153.739 29.4455 153.767 29.5866C153.797 29.7103 153.774 29.8218 153.702 29.9133C153.63 30.0049 153.535 30.0693 153.416 30.1015C153.154 30.1807 152.922 30.2228 152.724 30.2302C152.527 30.2376 152.406 30.2426 152.362 30.2426V30.2376Z" fill="#28A8E8"></path><path opacity="0.15" d="M116 161.237V276.349C116 276.88 116.404 277.31 116.901 277.31H125.142C125.64 277.31 126.043 276.88 126.043 276.349V161.237C126.043 160.707 125.64 160.277 125.142 160.277H116.901C116.404 160.277 116 160.707 116 161.237Z" fill="url(#paint0_linear_1424_61370)"></path><path opacity="0.15" d="M308.678 41.5256H316.699C317.257 41.5256 317.709 41.9029 317.709 42.3689V107.284H307.663V42.3689C307.663 41.9029 308.116 41.5256 308.673 41.5256H308.678Z" fill="url(#paint1_linear_1424_61370)"></path><path opacity="0.35" d="M325.37 148.634V263.745C325.37 264.276 325.774 264.706 326.271 264.706H334.512C335.008 264.706 335.412 264.276 335.412 263.745V148.634C335.412 148.103 335.008 147.673 334.512 147.673H326.271C325.774 147.673 325.37 148.103 325.37 148.634Z" fill="url(#paint2_linear_1424_61370)"></path><path d="M231.207 71.1489V87.4816C231.207 88.012 231.611 88.4421 232.108 88.4421H246.164C246.665 88.4421 247.065 88.012 247.065 87.4816V71.1489C247.065 70.6185 246.665 70.1885 246.164 70.1885H232.108C231.611 70.1885 231.207 70.6185 231.207 71.1489Z" fill="#1678D1"></path><path opacity="0.75" d="M231.207 146.665C233.768 146.298 238.626 146.137 247.069 146.185V240.679C247.069 241.273 246.617 241.756 246.059 241.756H232.217C231.659 241.756 231.211 241.273 231.211 240.679V146.665H231.207Z" fill="url(#paint3_linear_1424_61370)"></path><path opacity="0.75" d="M232.217 86.3972H246.059C246.612 86.3972 247.065 86.88 247.065 87.4744V110.246H231.207V87.4744C231.207 86.88 231.655 86.3972 232.213 86.3972H232.217Z" fill="url(#paint4_linear_1424_61370)"></path><path d="M259.5 196.077V204.416C259.5 204.947 259.904 205.377 260.4 205.377H268.224C268.72 205.377 269.125 204.947 269.125 204.416V196.077C269.125 195.546 268.72 195.116 268.224 195.116H260.4C259.904 195.116 259.5 195.546 259.5 196.077Z" fill="#1678D1"></path><path d="M276.861 155.913V172.196C276.861 172.726 277.265 173.157 277.762 173.157H293.04C293.536 173.157 293.94 172.726 293.94 172.196V155.913C293.94 155.382 293.536 154.952 293.04 154.952H277.762C277.265 154.952 276.861 155.382 276.861 155.913Z" fill="#1678D1"></path><path d="M306.503 202.345V207.013C306.503 207.543 306.907 207.973 307.403 207.973H311.783C312.284 207.973 312.684 207.543 312.684 207.013V202.345C312.684 201.814 312.284 201.384 311.783 201.384H307.403C306.907 201.384 306.503 201.814 306.503 202.345Z" fill="#1678D1"></path><path d="M213.003 229.635V234.303C213.003 234.834 213.406 235.264 213.904 235.264H218.283C218.781 235.264 219.184 234.834 219.184 234.303V229.635C219.184 229.104 218.781 228.674 218.283 228.674H213.904C213.406 228.674 213.003 229.104 213.003 229.635Z" fill="#1678D1"></path><path opacity="0.25" d="M128.232 275.68V277.433C128.232 277.963 128.636 278.393 129.133 278.393H130.778C131.275 278.393 131.678 277.963 131.678 277.433V275.68C131.678 275.15 131.275 274.719 130.778 274.719H129.133C128.636 274.719 128.232 275.15 128.232 275.68Z" fill="#1678D1"></path><path opacity="0.25" d="M122.339 281.408V283.16C122.339 283.691 122.742 284.121 123.24 284.121H124.884C125.381 284.121 125.785 283.691 125.785 283.16V281.408C125.785 280.877 125.381 280.447 124.884 280.447H123.24C122.742 280.447 122.339 280.877 122.339 281.408Z" fill="#1678D1"></path><path opacity="0.25" d="M154.444 84.2336V84.4662C154.444 84.9969 154.848 85.4271 155.345 85.4271H155.564C156.061 85.4271 156.465 84.9969 156.465 84.4662V84.2336C156.465 83.7029 156.061 83.2727 155.564 83.2727H155.345C154.848 83.2727 154.444 83.7029 154.444 84.2336Z" fill="#1678D1"></path><path opacity="0.25" d="M151.188 81.3796V81.6122C151.188 82.1429 151.591 82.5731 152.088 82.5731H152.307C152.804 82.5731 153.207 82.1429 153.207 81.6122V81.3796C153.207 80.8489 152.804 80.4187 152.307 80.4187H152.088C151.591 80.4187 151.188 80.8489 151.188 81.3796Z" fill="#1678D1"></path><path opacity="0.25" d="M340.372 260.176V261.929C340.372 262.46 340.776 262.89 341.273 262.89H342.92C343.416 262.89 343.82 262.46 343.82 261.929V260.176C343.82 259.646 343.416 259.216 342.92 259.216H341.273C340.776 259.216 340.372 259.646 340.372 260.176Z" fill="#1678D1"></path><path opacity="0.25" d="M317.688 187.694V191.422C317.688 191.952 318.092 192.382 318.592 192.382H322.089C322.585 192.382 322.99 191.952 322.99 191.422V187.694C322.99 187.163 322.585 186.733 322.089 186.733H318.592C318.092 186.733 317.688 187.163 317.688 187.694Z" fill="#1678D1"></path><path opacity="0.25" d="M220.554 239.043V240.796C220.554 241.326 220.957 241.756 221.455 241.756H223.098C223.596 241.756 223.999 241.326 223.999 240.796V239.043C223.999 238.513 223.596 238.083 223.098 238.083H221.455C220.957 238.083 220.554 238.513 220.554 239.043Z" fill="#1678D1"></path><path d="M227.865 56.0261H223.486C222.988 56.0261 222.585 56.4562 222.585 56.9866V61.6554C222.585 62.1858 222.988 62.6159 223.486 62.6159H227.865C228.363 62.6159 228.766 62.1858 228.766 61.6554V56.9866C228.766 56.4562 228.363 56.0261 227.865 56.0261Z" fill="#1678D1"></path><path opacity="0.25" d="M219.038 64.0732H217.394C216.896 64.0732 216.493 64.5033 216.493 65.0337V66.7861C216.493 67.3165 216.896 67.7466 217.394 67.7466H219.038C219.536 67.7466 219.939 67.3165 219.939 66.7861V65.0337C219.939 64.5033 219.536 64.0732 219.038 64.0732Z" fill="#1678D1"></path><path opacity="0.25" d="M236.563 51.8032H236.299C235.803 51.8032 235.398 52.2334 235.398 52.7641V53.0439C235.398 53.5745 235.803 54.0048 236.299 54.0048H236.563C237.059 54.0048 237.463 53.5745 237.463 53.0439V52.7641C237.463 52.2334 237.059 51.8032 236.563 51.8032Z" fill="#1678D1"></path><path opacity="0.25" d="M289.354 112.417H289.09C288.594 112.417 288.189 112.847 288.189 113.378V113.658C288.189 114.188 288.594 114.619 289.09 114.619H289.354C289.85 114.619 290.254 114.188 290.254 113.658V113.378C290.254 112.847 289.85 112.417 289.354 112.417Z" fill="#1678D1"></path><path opacity="0.25" d="M232.371 57.1189H232.108C231.611 57.1189 231.207 57.5491 231.207 58.0798V58.3596C231.207 58.8902 231.611 59.3205 232.108 59.3205H232.371C232.867 59.3205 233.272 58.8902 233.272 58.3596V58.0798C233.272 57.5491 232.867 57.1189 232.371 57.1189Z" fill="#1678D1"></path><path d="M216.093 314.699V319.367C216.093 319.898 216.496 320.328 216.994 320.328H221.373C221.871 320.328 222.274 319.898 222.274 319.367V314.699C222.274 314.169 221.871 313.739 221.373 313.739H216.994C216.496 313.739 216.093 314.169 216.093 314.699Z" fill="#1678D1"></path><path d="M150.608 72.9038V77.5726C150.608 78.1031 151.012 78.5331 151.509 78.5331H155.889C156.386 78.5331 156.79 78.1031 156.79 77.5726V72.9038C156.79 72.3734 156.386 71.9434 155.889 71.9434H151.509C151.012 71.9434 150.608 72.3734 150.608 72.9038Z" fill="#1678D1"></path><path d="M160.907 59.6133V64.2821C160.907 64.8125 161.31 65.2426 161.808 65.2426H166.187C166.685 65.2426 167.088 64.8125 167.088 64.2821V59.6133C167.088 59.0829 166.685 58.6528 166.187 58.6528H161.808C161.31 58.6528 160.907 59.0829 160.907 59.6133Z" fill="#1678D1"></path><path d="M278.043 112.282V116.951C278.043 117.481 278.443 117.912 278.944 117.912H283.323C283.819 117.912 284.224 117.481 284.224 116.951V112.282C284.224 111.752 283.819 111.322 283.323 111.322H278.944C278.443 111.322 278.043 111.752 278.043 112.282Z" fill="#1678D1"></path><path d="M169.371 123.718H184.644C185.142 123.718 185.545 123.288 185.545 122.757V106.474C185.545 105.943 185.142 105.513 184.644 105.513H169.371C168.873 105.513 168.47 105.943 168.47 106.474V122.757C168.47 123.288 168.873 123.718 169.371 123.718Z" fill="#1678D1"></path><path opacity="0.25" d="M161.828 119.607V119.887C161.828 120.418 162.232 120.848 162.729 120.848H162.992C163.489 120.848 163.892 120.418 163.892 119.887V119.607C163.892 119.076 163.489 118.646 162.992 118.646H162.729C162.232 118.646 161.828 119.076 161.828 119.607Z" fill="#1678D1"></path><path d="M161.703 131.668H166.082C166.58 131.668 166.983 131.238 166.983 130.708V126.039C166.983 125.509 166.58 125.079 166.082 125.079H161.703C161.205 125.079 160.802 125.509 160.802 126.039V130.708C160.802 131.238 161.205 131.668 161.703 131.668Z" fill="#1678D1"></path><path d="M119.574 32.8738V54.5907C119.574 55.1211 119.977 55.5512 120.475 55.5512H140.846C141.344 55.5512 141.747 55.1211 141.747 54.5907V32.8738C141.747 32.3433 141.344 31.9133 140.846 31.9133H120.475C119.977 31.9133 119.574 32.3433 119.574 32.8738Z" fill="#1678D1"></path><path opacity="0.75" d="M119.576 44.4676V130.987C119.576 131.394 119.979 131.723 120.477 131.723H140.848C141.345 131.723 141.749 131.394 141.749 130.987V44.4676C141.749 44.0618 141.345 43.7327 140.848 43.7327H120.477C119.979 43.7327 119.576 44.0618 119.576 44.4676Z" fill="url(#paint5_linear_1424_61370)"></path><path opacity="0.25" d="M212.595 95.3382C217.157 95.3382 220.856 91.395 220.856 86.5306C220.856 81.6661 217.157 77.7229 212.595 77.7229C208.032 77.7229 204.333 81.6661 204.333 86.5306C204.333 91.395 208.032 95.3382 212.595 95.3382Z" fill="#28A8E8"></path><path opacity="0.05" d="M212.595 97.8513C218.46 97.8513 223.213 92.7833 223.213 86.5311C223.213 80.2794 218.46 75.2109 212.595 75.2109C206.731 75.2109 201.977 80.2794 201.977 86.5311C201.977 92.7833 206.731 97.8513 212.595 97.8513Z" fill="#28A8E8"></path><path opacity="0.25" d="M212.594 93.5778C216.247 93.5778 219.208 90.4219 219.208 86.5282C219.208 82.6345 216.247 79.478 212.594 79.478C208.942 79.478 205.981 82.6345 205.981 86.5282C205.981 90.4219 208.942 93.5778 212.594 93.5778Z" fill="#28A8E8"></path><path d="M208.923 85.4804C208.874 85.4431 208.844 85.3964 208.835 85.3417C208.826 85.2871 208.839 85.2278 208.881 85.1685C209.313 84.5372 209.854 84.0497 210.504 83.7005C211.154 83.3517 211.849 83.1785 212.585 83.1785C213.321 83.1785 214.017 83.3465 214.672 83.6832C215.327 84.0199 215.872 84.5073 216.311 85.1461C216.353 85.2129 216.367 85.2726 216.353 85.3245C216.339 85.3763 216.311 85.4211 216.27 85.458C216.228 85.4953 216.179 85.5126 216.123 85.5075C216.067 85.5028 216.019 85.4729 215.977 85.4136C215.594 84.8342 215.102 84.3911 214.5 84.0843C213.899 83.7771 213.261 83.6239 212.585 83.6239C211.909 83.6239 211.278 83.7771 210.685 84.0843C210.093 84.3911 209.604 84.8342 209.213 85.4136C209.171 85.4804 209.122 85.5173 209.067 85.5248C209.011 85.5322 208.963 85.5173 208.92 85.4804H208.923ZM213.764 90.9635C213.04 90.7702 212.45 90.3869 211.99 89.8126C211.531 89.2382 211.3 88.535 211.3 87.7035C211.3 87.3318 211.426 87.0199 211.677 86.7701C211.928 86.5203 212.23 86.3914 212.585 86.3914C212.94 86.3914 213.242 86.5175 213.492 86.7701C213.743 87.0227 213.869 87.3346 213.869 87.7035C213.869 87.9486 213.955 88.154 214.129 88.3198C214.303 88.4856 214.507 88.5696 214.744 88.5696C214.981 88.5696 215.183 88.4856 215.35 88.3198C215.518 88.154 215.601 87.9458 215.601 87.7035C215.601 86.842 215.306 86.1192 214.714 85.535C214.122 84.9481 213.416 84.6563 212.596 84.6563C211.777 84.6563 211.069 84.9481 210.479 85.535C209.886 86.1215 209.592 86.8392 209.592 87.6932C209.592 87.8715 209.608 88.0943 209.638 88.3618C209.668 88.6289 209.745 88.9408 209.864 89.2952C209.884 89.362 209.882 89.4213 209.859 89.4731C209.835 89.5254 209.794 89.5623 209.738 89.5847C209.682 89.6071 209.629 89.6043 209.575 89.5796C209.522 89.5548 209.487 89.5105 209.466 89.4512C209.362 89.1612 209.288 88.874 209.241 88.5897C209.195 88.3049 209.174 88.0102 209.174 87.7058C209.174 86.7206 209.51 85.8936 210.182 85.2255C210.852 84.5568 211.654 84.2253 212.587 84.2253C213.521 84.2253 214.333 84.5596 215.009 85.2255C215.684 85.8936 216.021 86.7206 216.021 87.7058C216.021 88.077 215.898 88.3866 215.65 88.634C215.401 88.8815 215.102 89.008 214.747 89.008C214.391 89.008 214.087 88.8843 213.834 88.634C213.581 88.3842 213.453 88.077 213.453 87.7058C213.453 87.4606 213.367 87.2552 213.198 87.0894C213.028 86.9237 212.824 86.8392 212.587 86.8392C212.35 86.8392 212.148 86.9237 211.976 87.0894C211.804 87.2552 211.721 87.463 211.721 87.7058C211.721 88.4263 211.921 89.0253 212.32 89.5077C212.719 89.9905 213.237 90.3271 213.869 90.5204C213.931 90.5428 213.973 90.5797 213.994 90.6316C214.015 90.6839 214.017 90.738 214.003 90.7978C213.99 90.8496 213.962 90.894 213.92 90.9313C213.878 90.9682 213.827 90.9785 213.764 90.9635ZM210.279 83.156C210.223 83.1929 210.168 83.2032 210.112 83.1831C210.056 83.1635 210.014 83.1262 209.987 83.0669C209.958 83.0076 209.951 82.9529 209.965 82.9058C209.98 82.8591 210.014 82.8166 210.068 82.7797C210.068 82.7797 210.07 82.7797 210.072 82.7774C210.46 82.5546 210.866 82.3861 211.291 82.2675C211.716 82.1484 212.146 82.0891 212.585 82.0891C213.024 82.0891 213.465 82.1461 213.89 82.2623C214.315 82.3763 214.723 82.542 215.12 82.7573C215.183 82.7946 215.22 82.839 215.229 82.8913C215.239 82.9431 215.234 82.995 215.213 83.0472C215.192 83.0991 215.157 83.1388 215.109 83.1682C215.06 83.1981 215.002 83.1929 214.932 83.1584C214.563 82.9581 214.182 82.8044 213.79 82.698C213.398 82.5915 212.996 82.5369 212.585 82.5369C212.174 82.5369 211.784 82.5864 211.396 82.6882C211.008 82.7895 210.634 82.9455 210.279 83.1607V83.156ZM211.51 90.8076C211.099 90.3472 210.785 89.8793 210.565 89.4017C210.346 88.9235 210.235 88.3567 210.235 87.7058C210.235 87.0549 210.465 86.4605 210.924 85.9978C211.384 85.535 211.937 85.302 212.582 85.302C213.228 85.302 213.785 85.535 214.252 85.9978C214.718 86.4605 214.951 87.0301 214.951 87.7058C214.951 87.7726 214.932 87.8272 214.893 87.8669C214.853 87.9061 214.805 87.9285 214.742 87.9285C214.686 87.9285 214.637 87.9089 214.595 87.8669C214.554 87.8244 214.533 87.7726 214.533 87.7058C214.533 87.1487 214.34 86.6832 213.955 86.3097C213.569 85.9357 213.112 85.7475 212.582 85.7475C212.053 85.7475 211.6 85.9357 211.222 86.3097C210.843 86.6832 210.653 87.1487 210.653 87.7058C210.653 88.3072 210.75 88.8171 210.946 89.2354C211.141 89.6538 211.426 90.075 211.8 90.498C211.842 90.5428 211.863 90.5947 211.863 90.654C211.863 90.7133 211.842 90.7656 211.8 90.8099C211.758 90.8547 211.709 90.8767 211.654 90.8767C211.598 90.8767 211.549 90.8547 211.507 90.8099L211.51 90.8076ZM214.66 90.0526C214.041 90.0526 213.504 89.8298 213.049 89.3839C212.594 88.9385 212.367 88.3791 212.367 87.7035C212.367 87.6437 212.385 87.5919 212.425 87.5475C212.464 87.5027 212.513 87.4807 212.575 87.4807C212.638 87.4807 212.689 87.5027 212.726 87.5475C212.764 87.5919 212.784 87.6437 212.784 87.7035C212.784 88.2605 212.972 88.7158 213.349 89.072C213.725 89.4287 214.164 89.6071 214.663 89.6071C214.705 89.6071 214.763 89.6043 214.839 89.5968C214.916 89.5894 214.995 89.5796 215.079 89.5646C215.141 89.5501 215.195 89.56 215.241 89.5922C215.287 89.6244 215.315 89.6762 215.329 89.743C215.343 89.8023 215.332 89.8546 215.299 89.8989C215.267 89.9438 215.22 89.9732 215.164 89.9881C215.039 90.025 214.93 90.0451 214.835 90.0502C214.74 90.0549 214.684 90.0549 214.663 90.0549L214.66 90.0526Z" fill="#28A8E8"></path><path opacity="0.25" d="M280.635 50.8688C287.527 50.8688 293.119 44.9099 293.119 37.5586C293.119 30.2075 287.527 24.2483 280.635 24.2483C273.738 24.2483 268.15 30.2075 268.15 37.5586C268.15 44.9099 273.738 50.8688 280.635 50.8688Z" fill="#28A8E8"></path><path opacity="0.05" d="M280.634 54.6713C289.499 54.6713 296.685 47.0109 296.685 37.5612C296.685 28.1116 289.499 20.4512 280.634 20.4512C271.77 20.4512 264.583 28.1116 264.583 37.5612C264.583 47.0109 271.77 54.6713 280.634 54.6713Z" fill="#28A8E8"></path><path opacity="0.25" d="M280.634 48.2149C286.152 48.2149 290.628 43.4447 290.628 37.5605C290.628 31.6763 286.152 26.9062 280.634 26.9062C275.112 26.9062 270.641 31.6763 270.641 37.5605C270.641 43.4447 275.112 48.2149 280.634 48.2149Z" fill="#28A8E8"></path><path d="M275.082 35.9735C275.007 35.9165 274.963 35.8474 274.95 35.7633C274.933 35.6788 274.955 35.5925 275.02 35.5033C275.675 34.5502 276.492 33.81 277.472 33.2852C278.456 32.758 279.505 32.4956 280.621 32.4956C281.733 32.4956 282.787 32.7505 283.771 33.2605C284.764 33.7704 285.585 34.5081 286.248 35.471C286.31 35.5724 286.332 35.6616 286.31 35.7409C286.288 35.8198 286.248 35.8871 286.187 35.9412C286.121 35.9959 286.046 36.023 285.963 36.0183C285.879 36.0132 285.805 35.9637 285.743 35.8745C285.168 35.0007 284.421 34.3298 283.512 33.8644C282.602 33.3991 281.64 33.1664 280.621 33.1664C279.602 33.1664 278.644 33.3991 277.748 33.8644C276.857 34.3298 276.114 34.9982 275.526 35.8745C275.464 35.9758 275.389 36.0304 275.306 36.043C275.223 36.0552 275.148 36.0304 275.082 35.9758V35.9735ZM282.4 44.2614C281.307 43.9691 280.415 43.3897 279.716 42.5212C279.022 41.6522 278.68 40.59 278.68 39.3353C278.68 38.7755 278.864 38.303 279.246 37.9243C279.624 37.5428 280.081 37.3523 280.617 37.3523C281.153 37.3523 281.61 37.5428 281.987 37.9243C282.37 38.3053 282.554 38.7755 282.554 39.3353C282.554 39.7042 282.69 40.0157 282.949 40.2683C283.213 40.5209 283.525 40.6469 283.881 40.6469C284.241 40.6469 284.544 40.5209 284.794 40.2683C285.049 40.0157 285.177 39.7042 285.177 39.3353C285.177 38.0354 284.728 36.9414 283.837 36.0575C282.941 35.1713 281.878 34.7284 280.634 34.7284C279.391 34.7284 278.324 35.1713 277.432 36.0575C276.536 36.9437 276.092 38.0307 276.092 39.3176C276.092 39.5875 276.114 39.9218 276.163 40.3252C276.211 40.7287 276.325 41.1993 276.501 41.7363C276.536 41.8376 276.532 41.9268 276.496 42.0062C276.461 42.0855 276.4 42.1397 276.316 42.1743C276.233 42.2093 276.149 42.2041 276.07 42.1673C275.991 42.1299 275.934 42.0631 275.908 41.974C275.75 41.536 275.635 41.1027 275.565 40.6717C275.499 40.2412 275.464 39.7957 275.464 39.3353C275.464 37.8449 275.969 36.5949 276.984 35.5873C277.999 34.5799 279.211 34.0749 280.621 34.0749C282.027 34.0749 283.257 34.5799 284.28 35.5873C285.3 36.5949 285.809 37.8449 285.809 39.3353C285.809 39.8947 285.625 40.3626 285.251 40.7389C284.873 41.1148 284.421 41.303 283.885 41.303C283.354 41.303 282.892 41.1148 282.506 40.7389C282.124 40.3626 281.93 39.8947 281.93 39.3353C281.93 38.9665 281.803 38.6546 281.544 38.402C281.289 38.1493 280.981 38.0233 280.626 38.0233C280.265 38.0233 279.958 38.1493 279.703 38.402C279.444 38.6546 279.317 38.9665 279.317 39.3353C279.317 40.4219 279.62 41.3305 280.221 42.058C280.828 42.7859 281.605 43.2958 282.563 43.5881C282.66 43.6227 282.721 43.6768 282.752 43.7562C282.782 43.8356 282.787 43.9196 282.765 44.0088C282.747 44.0877 282.703 44.155 282.642 44.2091C282.58 44.2638 282.501 44.281 282.405 44.2586L282.4 44.2614ZM277.133 32.4609C277.05 32.5178 276.966 32.5302 276.883 32.503C276.795 32.4758 276.734 32.4164 276.694 32.3272C276.65 32.2381 276.641 32.1564 276.659 32.0847C276.681 32.0128 276.734 31.9485 276.813 31.894C276.817 31.894 276.817 31.8915 276.821 31.8891C277.41 31.5549 278.021 31.2975 278.662 31.1168C279.303 30.9385 279.954 30.8469 280.617 30.8469C281.28 30.8469 281.948 30.9335 282.589 31.1069C283.231 31.2801 283.85 31.5301 284.447 31.8544C284.544 31.9114 284.601 31.9782 284.614 32.0549C284.627 32.1317 284.619 32.2109 284.588 32.2901C284.562 32.3693 284.504 32.4312 284.43 32.4758C284.36 32.5203 284.267 32.5153 284.166 32.4584C283.608 32.1564 283.033 31.9238 282.435 31.7604C281.842 31.597 281.236 31.5178 280.617 31.5178C279.997 31.5178 279.409 31.5945 278.82 31.7455C278.232 31.8965 277.669 32.1341 277.133 32.4609ZM278.996 44.0261C278.377 43.3304 277.902 42.6225 277.568 41.8997C277.234 41.1769 277.072 40.3229 277.072 39.3353C277.072 38.3473 277.419 37.4564 278.113 36.7556C278.807 36.0552 279.642 35.7064 280.621 35.7064C281.596 35.7064 282.435 36.0552 283.143 36.7556C283.846 37.4564 284.201 38.3151 284.201 39.3353C284.201 39.4367 284.171 39.5184 284.113 39.5777C284.056 39.637 283.977 39.6692 283.885 39.6692C283.802 39.6692 283.727 39.6398 283.665 39.5777C283.604 39.516 283.569 39.4343 283.569 39.3353C283.569 38.4935 283.279 37.7903 282.695 37.2262C282.11 36.6594 281.421 36.3769 280.621 36.3769C279.822 36.3769 279.136 36.6594 278.565 37.2262C277.99 37.7931 277.704 38.4958 277.704 39.3353C277.704 40.2435 277.849 41.0135 278.148 41.6471C278.442 42.2807 278.873 42.9171 279.44 43.5559C279.501 43.6227 279.536 43.7016 279.536 43.7908C279.536 43.88 279.501 43.9593 279.44 44.0261C279.378 44.0929 279.303 44.1274 279.22 44.1274C279.136 44.1274 279.062 44.0929 279 44.0261H278.996ZM283.758 42.8826C282.822 42.8826 282.009 42.5459 281.32 41.875C280.63 41.2017 280.287 40.3574 280.287 39.3377C280.287 39.2485 280.314 39.1691 280.375 39.1023C280.432 39.0356 280.507 39.001 280.599 39.001C280.692 39.001 280.771 39.0356 280.828 39.1023C280.885 39.1691 280.916 39.2485 280.916 39.3377C280.916 40.1791 281.197 40.8673 281.768 41.4048C282.334 41.9417 282.998 42.2116 283.753 42.2116C283.815 42.2116 283.907 42.2065 284.021 42.1943C284.135 42.1817 284.258 42.1673 284.381 42.1448C284.478 42.1224 284.562 42.1374 284.627 42.1869C284.693 42.2364 284.742 42.3129 284.764 42.4147C284.781 42.5039 284.768 42.5828 284.715 42.6496C284.663 42.7164 284.592 42.7612 284.509 42.7836C284.324 42.8406 284.157 42.87 284.012 42.8751C283.872 42.8798 283.788 42.8826 283.753 42.8826H283.758Z" fill="#28A8E8"></path><path opacity="0.25" d="M199.901 197.736C209.604 197.736 217.469 189.351 217.469 179.007C217.469 168.664 209.604 160.279 199.901 160.279C190.199 160.279 182.333 168.664 182.333 179.007C182.333 189.351 190.199 197.736 199.901 197.736Z" fill="#28A8E8"></path><path opacity="0.05" d="M199.901 203.079C212.374 203.079 222.484 192.3 222.484 179.003C222.484 165.707 212.374 154.927 199.901 154.927C187.428 154.927 177.317 165.707 177.317 179.003C177.317 192.3 187.428 203.079 199.901 203.079Z" fill="#28A8E8"></path><path opacity="0.25" d="M199.901 193.997C207.667 193.997 213.962 187.285 213.962 179.006C213.962 170.726 207.667 164.014 199.901 164.014C192.135 164.014 185.839 170.726 185.839 179.006C185.839 187.285 192.135 193.997 199.901 193.997Z" fill="#28A8E8"></path><path d="M192.092 176.774C191.987 176.695 191.924 176.596 191.904 176.479C191.883 176.363 191.915 176.239 192.003 176.113C192.921 174.771 194.07 173.732 195.454 172.991C196.838 172.251 198.312 171.88 199.882 171.88C201.451 171.88 202.928 172.239 204.319 172.957C205.71 173.675 206.871 174.712 207.802 176.068C207.89 176.209 207.921 176.336 207.89 176.447C207.86 176.559 207.802 176.653 207.714 176.732C207.625 176.811 207.521 176.846 207.403 176.838C207.284 176.831 207.18 176.764 207.092 176.638C206.279 175.407 205.232 174.465 203.952 173.811C202.673 173.157 201.314 172.828 199.88 172.828C198.445 172.828 197.098 173.155 195.842 173.811C194.583 174.465 193.54 175.407 192.714 176.638C192.626 176.779 192.521 176.858 192.403 176.875C192.285 176.893 192.18 176.86 192.092 176.781V176.774ZM202.39 188.436C200.85 188.025 199.594 187.21 198.616 185.987C197.641 184.765 197.151 183.272 197.151 181.504C197.151 180.715 197.418 180.054 197.95 179.517C198.482 178.98 199.127 178.712 199.88 178.712C200.632 178.712 201.277 178.98 201.809 179.517C202.341 180.054 202.608 180.715 202.608 181.504C202.608 182.024 202.794 182.463 203.163 182.817C203.532 183.17 203.968 183.349 204.472 183.349C204.976 183.349 205.404 183.17 205.759 182.817C206.114 182.463 206.29 182.024 206.29 181.504C206.29 179.675 205.661 178.138 204.405 176.89C203.147 175.645 201.646 175.021 199.9 175.021C198.154 175.021 196.654 175.645 195.396 176.89C194.137 178.136 193.511 179.665 193.511 181.48C193.511 181.858 193.543 182.331 193.61 182.898C193.677 183.465 193.836 184.129 194.086 184.886C194.13 185.027 194.128 185.153 194.075 185.265C194.021 185.376 193.938 185.453 193.819 185.502C193.701 185.552 193.587 185.547 193.475 185.49C193.364 185.433 193.287 185.344 193.243 185.217C193.02 184.604 192.863 183.992 192.767 183.383C192.672 182.777 192.623 182.148 192.623 181.502C192.623 179.405 193.336 177.645 194.764 176.227C196.192 174.808 197.897 174.098 199.88 174.098C201.863 174.098 203.592 174.808 205.028 176.227C206.462 177.645 207.18 179.405 207.18 181.502C207.18 182.292 206.917 182.95 206.393 183.477C205.868 184.005 205.227 184.27 204.472 184.27C203.718 184.27 203.07 184.005 202.531 183.477C201.99 182.95 201.721 182.292 201.721 181.502C201.721 180.982 201.54 180.544 201.178 180.19C200.815 179.836 200.383 179.658 199.88 179.658C199.376 179.658 198.944 179.836 198.582 180.19C198.219 180.544 198.038 180.982 198.038 181.502C198.038 183.032 198.463 184.309 199.315 185.334C200.165 186.359 201.263 187.077 202.61 187.488C202.742 187.535 202.833 187.614 202.877 187.725C202.921 187.836 202.928 187.953 202.901 188.079C202.87 188.19 202.812 188.285 202.724 188.364C202.636 188.443 202.524 188.465 202.392 188.436H202.39ZM194.978 171.831C194.86 171.91 194.741 171.93 194.623 171.89C194.504 171.85 194.416 171.769 194.356 171.642C194.295 171.516 194.281 171.402 194.311 171.298C194.342 171.194 194.414 171.108 194.527 171.028C194.53 171.028 194.534 171.023 194.537 171.021C195.363 170.548 196.227 170.187 197.128 169.937C198.031 169.684 198.948 169.558 199.88 169.558C200.81 169.558 201.751 169.68 202.654 169.925C203.558 170.169 204.431 170.521 205.274 170.977C205.406 171.056 205.485 171.15 205.505 171.261C205.527 171.373 205.517 171.481 205.473 171.593C205.429 171.704 205.355 171.791 205.25 171.853C205.146 171.915 205.021 171.907 204.874 171.828C204.089 171.402 203.281 171.076 202.445 170.845C201.61 170.618 200.755 170.501 199.882 170.501C199.009 170.501 198.18 170.608 197.353 170.821C196.524 171.034 195.732 171.367 194.978 171.826V171.831ZM197.597 188.106C196.724 187.129 196.055 186.131 195.588 185.114C195.122 184.096 194.889 182.893 194.889 181.507C194.889 180.121 195.377 178.861 196.355 177.875C197.33 176.89 198.507 176.398 199.884 176.398C201.261 176.398 202.443 176.89 203.434 177.875C204.426 178.861 204.92 180.071 204.92 181.507C204.92 181.648 204.879 181.765 204.797 181.851C204.716 181.938 204.609 181.982 204.475 181.982C204.356 181.982 204.252 181.938 204.163 181.851C204.075 181.765 204.031 181.651 204.031 181.507C204.031 180.324 203.62 179.334 202.8 178.539C201.978 177.742 201.006 177.343 199.882 177.343C198.758 177.343 197.792 177.742 196.987 178.539C196.18 179.336 195.777 180.326 195.777 181.507C195.777 182.784 195.983 183.869 196.399 184.76C196.812 185.651 197.421 186.547 198.219 187.446C198.307 187.539 198.352 187.651 198.352 187.777C198.352 187.903 198.307 188.015 198.219 188.109C198.131 188.203 198.027 188.25 197.908 188.25C197.79 188.25 197.685 188.203 197.597 188.109V188.106ZM204.298 186.497C202.982 186.497 201.839 186.025 200.869 185.079C199.9 184.133 199.415 182.943 199.415 181.507C199.415 181.381 199.457 181.269 199.538 181.175C199.62 181.081 199.726 181.034 199.861 181.034C199.996 181.034 200.102 181.081 200.184 181.175C200.265 181.269 200.307 181.381 200.307 181.507C200.307 182.69 200.706 183.661 201.505 184.416C202.304 185.173 203.235 185.552 204.301 185.552C204.389 185.552 204.514 185.544 204.677 185.527C204.839 185.51 205.009 185.487 205.187 185.455C205.32 185.423 205.436 185.443 205.531 185.515C205.626 185.586 205.689 185.693 205.719 185.834C205.75 185.96 205.726 186.071 205.652 186.166C205.578 186.26 205.483 186.324 205.364 186.354C205.097 186.433 204.865 186.475 204.665 186.485C204.465 186.495 204.342 186.497 204.298 186.497Z" fill="#28A8E8"></path><path opacity="0.25" d="M318.157 139.712C322.611 139.712 326.226 135.862 326.226 131.113C326.226 126.363 322.611 122.513 318.157 122.513C313.703 122.513 310.092 126.363 310.092 131.113C310.092 135.862 313.703 139.712 318.157 139.712Z" fill="#28A8E8"></path><path opacity="0.05" d="M318.157 142.167C323.886 142.167 328.529 137.218 328.529 131.112C328.529 125.007 323.886 120.057 318.157 120.057C312.429 120.057 307.786 125.007 307.786 131.112C307.786 137.218 312.429 142.167 318.157 142.167Z" fill="#28A8E8"></path><path opacity="0.25" d="M318.159 137.996C321.725 137.996 324.616 134.914 324.616 131.112C324.616 127.31 321.725 124.228 318.159 124.228C314.592 124.228 311.701 127.31 311.701 131.112C311.701 134.914 314.592 137.996 318.159 137.996Z" fill="#28A8E8"></path><path d="M314.573 130.09C314.529 130.053 314.499 130.008 314.49 129.954C314.481 129.899 314.494 129.843 314.534 129.786C314.956 129.169 315.487 128.692 316.12 128.353C316.757 128.013 317.433 127.843 318.149 127.843C318.87 127.843 319.55 128.008 320.187 128.338C320.829 128.667 321.36 129.142 321.791 129.766C321.83 129.83 321.843 129.89 321.83 129.939C321.821 129.989 321.791 130.033 321.751 130.07C321.712 130.107 321.663 130.122 321.606 130.12C321.554 130.118 321.505 130.085 321.466 130.028C321.092 129.464 320.613 129.031 320.025 128.731C319.436 128.431 318.817 128.281 318.153 128.281C317.495 128.281 316.88 128.431 316.3 128.731C315.72 129.031 315.245 129.464 314.863 130.028C314.819 130.093 314.775 130.13 314.723 130.137C314.666 130.145 314.617 130.13 314.578 130.093L314.573 130.09ZM319.304 135.447C318.597 135.259 318.022 134.885 317.574 134.323C317.126 133.761 316.897 133.076 316.897 132.264C316.897 131.902 317.02 131.598 317.266 131.35C317.508 131.105 317.806 130.981 318.153 130.981C318.501 130.981 318.795 131.105 319.041 131.35C319.287 131.595 319.405 131.9 319.405 132.264C319.405 132.504 319.493 132.704 319.66 132.868C319.832 133.031 320.034 133.112 320.262 133.112C320.495 133.112 320.693 133.031 320.855 132.868C321.018 132.704 321.101 132.504 321.101 132.264C321.101 131.424 320.811 130.717 320.236 130.145C319.656 129.573 318.966 129.285 318.167 129.285C317.363 129.285 316.673 129.573 316.098 130.145C315.518 130.717 315.228 131.419 315.228 132.251C315.228 132.425 315.245 132.642 315.276 132.902C315.307 133.162 315.382 133.467 315.496 133.816C315.513 133.88 315.513 133.939 315.491 133.989C315.465 134.038 315.426 134.076 315.373 134.098C315.32 134.12 315.267 134.118 315.215 134.093C315.166 134.068 315.131 134.026 315.109 133.969C315.008 133.687 314.934 133.407 314.89 133.127C314.846 132.848 314.824 132.561 314.824 132.264C314.824 131.301 315.149 130.493 315.808 129.84C316.462 129.189 317.244 128.862 318.153 128.862C319.063 128.862 319.858 129.189 320.517 129.84C321.176 130.491 321.505 131.298 321.505 132.264C321.505 132.625 321.387 132.927 321.145 133.169C320.903 133.412 320.609 133.534 320.262 133.534C319.915 133.534 319.616 133.412 319.37 133.169C319.12 132.927 318.997 132.625 318.997 132.264C318.997 132.024 318.913 131.823 318.747 131.659C318.58 131.496 318.382 131.415 318.149 131.415C317.921 131.415 317.723 131.496 317.556 131.659C317.385 131.823 317.301 132.024 317.301 132.264C317.301 132.967 317.499 133.553 317.89 134.023C318.276 134.494 318.782 134.823 319.401 135.011C319.463 135.033 319.506 135.068 319.524 135.12C319.546 135.172 319.55 135.224 319.533 135.284C319.52 135.333 319.493 135.377 319.454 135.415C319.414 135.452 319.362 135.462 319.3 135.447H319.304ZM315.9 127.82C315.847 127.857 315.79 127.865 315.737 127.847C315.685 127.83 315.645 127.79 315.614 127.733C315.588 127.676 315.579 127.622 315.592 127.575C315.61 127.528 315.641 127.488 315.694 127.451C315.694 127.451 315.698 127.451 315.698 127.449C316.08 127.233 316.475 127.065 316.888 126.951C317.301 126.837 317.723 126.778 318.149 126.778C318.58 126.778 319.01 126.835 319.427 126.946C319.84 127.058 320.24 127.219 320.627 127.429C320.688 127.466 320.728 127.508 320.736 127.56C320.745 127.612 320.741 127.662 320.719 127.711C320.697 127.761 320.666 127.803 320.618 127.83C320.57 127.857 320.512 127.855 320.442 127.82C320.082 127.625 319.713 127.474 319.326 127.37C318.94 127.266 318.549 127.211 318.149 127.211C317.745 127.211 317.367 127.261 316.989 127.357C316.607 127.454 316.243 127.61 315.896 127.817L315.9 127.82ZM317.104 135.293C316.704 134.845 316.396 134.388 316.181 133.92C315.97 133.452 315.86 132.9 315.86 132.264C315.86 131.628 316.084 131.048 316.533 130.595C316.981 130.142 317.525 129.917 318.153 129.917C318.786 129.917 319.331 130.142 319.788 130.595C320.24 131.048 320.468 131.603 320.468 132.264C320.468 132.328 320.451 132.382 320.411 132.422C320.376 132.462 320.328 132.482 320.262 132.482C320.209 132.482 320.161 132.462 320.121 132.422C320.082 132.382 320.06 132.33 320.06 132.264C320.06 131.721 319.875 131.266 319.493 130.9C319.12 130.533 318.672 130.35 318.153 130.35C317.64 130.35 317.196 130.533 316.827 130.9C316.458 131.266 316.269 131.719 316.269 132.264C316.269 132.85 316.366 133.348 316.555 133.756C316.748 134.165 317.025 134.576 317.394 134.989C317.433 135.033 317.451 135.083 317.451 135.14C317.451 135.197 317.433 135.249 317.394 135.291C317.354 135.333 317.301 135.356 317.249 135.356C317.196 135.356 317.148 135.333 317.108 135.291L317.104 135.293ZM320.179 134.556C319.577 134.556 319.05 134.338 318.606 133.905C318.158 133.469 317.938 132.925 317.938 132.264C317.938 132.207 317.96 132.155 317.995 132.113C318.03 132.07 318.083 132.048 318.145 132.048C318.206 132.048 318.255 132.07 318.294 132.113C318.329 132.155 318.347 132.207 318.347 132.264C318.347 132.806 318.531 133.251 318.9 133.6C319.265 133.949 319.691 134.122 320.183 134.122C320.222 134.122 320.28 134.12 320.359 134.113C320.433 134.105 320.508 134.095 320.591 134.08C320.653 134.066 320.706 134.076 320.75 134.108C320.794 134.14 320.82 134.19 320.833 134.254C320.851 134.311 320.837 134.363 320.807 134.405C320.772 134.447 320.728 134.477 320.671 134.491C320.548 134.529 320.442 134.548 320.35 134.551C320.262 134.553 320.205 134.556 320.183 134.556H320.179Z" fill="#28A8E8"></path><path opacity="0.25" d="M141.438 246.536C145.596 246.536 148.966 242.943 148.966 238.51C148.966 234.078 145.596 230.485 141.438 230.485C137.281 230.485 133.91 234.078 133.91 238.51C133.91 242.943 137.281 246.536 141.438 246.536Z" fill="#28A8E8"></path><path opacity="0.05" d="M141.439 248.827C146.785 248.827 151.118 244.208 151.118 238.51C151.118 232.811 146.785 228.192 141.439 228.192C136.095 228.192 131.762 232.811 131.762 238.51C131.762 244.208 136.095 248.827 141.439 248.827Z" fill="#28A8E8"></path><path opacity="0.25" d="M141.439 244.939C144.766 244.939 147.464 242.063 147.464 238.515C147.464 234.967 144.766 232.091 141.439 232.091C138.111 232.091 135.413 234.967 135.413 238.515C135.413 242.063 138.111 244.939 141.439 244.939Z" fill="#28A8E8"></path><path d="M138.093 237.558C138.048 237.523 138.021 237.481 138.012 237.431C138.002 237.382 138.016 237.328 138.053 237.275C138.446 236.701 138.94 236.255 139.532 235.936C140.125 235.62 140.758 235.461 141.43 235.461C142.1 235.461 142.734 235.614 143.331 235.921C143.928 236.228 144.425 236.674 144.824 237.256C144.861 237.318 144.875 237.37 144.861 237.419C144.847 237.469 144.824 237.505 144.785 237.54C144.745 237.575 144.704 237.59 144.652 237.585C144.601 237.58 144.557 237.553 144.52 237.498C144.172 236.971 143.724 236.567 143.173 236.288C142.625 236.008 142.042 235.867 141.427 235.867C140.812 235.867 140.236 236.008 139.697 236.288C139.159 236.567 138.71 236.971 138.357 237.498C138.32 237.56 138.276 237.592 138.225 237.6C138.174 237.607 138.13 237.592 138.093 237.56V237.558ZM142.505 242.556C141.845 242.38 141.307 242.031 140.888 241.506C140.471 240.981 140.262 240.342 140.262 239.585C140.262 239.246 140.375 238.964 140.603 238.733C140.83 238.503 141.107 238.389 141.43 238.389C141.752 238.389 142.028 238.503 142.256 238.733C142.483 238.964 142.597 239.248 142.597 239.585C142.597 239.808 142.676 239.996 142.834 240.147C142.992 240.298 143.18 240.375 143.396 240.375C143.612 240.375 143.796 240.298 143.949 240.147C144.102 239.996 144.176 239.808 144.176 239.585C144.176 238.8 143.907 238.142 143.368 237.607C142.83 237.073 142.186 236.805 141.439 236.805C140.691 236.805 140.048 237.073 139.509 237.607C138.971 238.142 138.701 238.798 138.701 239.575C138.701 239.738 138.715 239.939 138.743 240.184C138.771 240.429 138.84 240.711 138.947 241.035C138.966 241.097 138.966 241.149 138.942 241.199C138.92 241.248 138.884 241.281 138.833 241.301C138.783 241.32 138.734 241.32 138.687 241.295C138.641 241.271 138.606 241.233 138.587 241.179C138.492 240.917 138.425 240.654 138.383 240.394C138.341 240.135 138.32 239.865 138.32 239.587C138.32 238.689 138.627 237.934 139.238 237.328C139.848 236.719 140.58 236.414 141.43 236.414C142.279 236.414 143.02 236.719 143.635 237.328C144.251 237.936 144.557 238.689 144.557 239.587C144.557 239.926 144.446 240.209 144.22 240.434C143.995 240.66 143.721 240.773 143.398 240.773C143.076 240.773 142.797 240.66 142.567 240.434C142.337 240.209 142.221 239.926 142.221 239.587C142.221 239.365 142.145 239.177 141.989 239.026C141.833 238.874 141.648 238.798 141.432 238.798C141.216 238.798 141.03 238.874 140.874 239.026C140.719 239.177 140.642 239.365 140.642 239.587C140.642 240.243 140.823 240.79 141.188 241.229C141.553 241.667 142.024 241.976 142.6 242.152C142.658 242.172 142.695 242.206 142.714 242.254C142.732 242.3 142.737 242.353 142.723 242.404C142.711 242.452 142.686 242.491 142.646 242.526C142.607 242.56 142.56 242.57 142.505 242.556ZM139.33 235.439C139.279 235.473 139.228 235.481 139.177 235.464C139.126 235.446 139.089 235.411 139.063 235.357C139.038 235.302 139.031 235.253 139.045 235.211C139.059 235.169 139.089 235.129 139.137 235.095C139.137 235.095 139.14 235.095 139.142 235.092C139.498 234.889 139.867 234.736 140.252 234.627C140.638 234.518 141.032 234.463 141.432 234.463C141.831 234.463 142.233 234.515 142.62 234.619C143.008 234.723 143.382 234.874 143.742 235.07C143.8 235.104 143.833 235.144 143.842 235.191C143.851 235.238 143.847 235.285 143.828 235.332C143.81 235.379 143.777 235.416 143.733 235.443C143.689 235.471 143.635 235.468 143.57 235.434C143.234 235.251 142.888 235.112 142.53 235.013C142.172 234.914 141.806 234.867 141.432 234.867C141.058 234.867 140.703 234.911 140.347 235.003C139.992 235.095 139.653 235.238 139.33 235.434V235.439ZM140.452 242.414C140.078 241.996 139.79 241.568 139.59 241.132C139.391 240.696 139.291 240.181 139.291 239.585C139.291 238.988 139.5 238.451 139.918 238.028C140.336 237.604 140.84 237.394 141.43 237.394C142.019 237.394 142.526 237.604 142.95 238.028C143.375 238.451 143.586 238.969 143.586 239.585C143.586 239.647 143.568 239.694 143.533 239.731C143.498 239.768 143.452 239.788 143.396 239.788C143.345 239.788 143.301 239.768 143.264 239.731C143.227 239.694 143.206 239.644 143.206 239.585C143.206 239.078 143.029 238.654 142.678 238.313C142.326 237.971 141.91 237.8 141.427 237.8C140.944 237.8 140.531 237.971 140.187 238.313C139.841 238.654 139.669 239.078 139.669 239.585C139.669 240.132 139.758 240.597 139.936 240.978C140.113 241.36 140.373 241.744 140.717 242.13C140.754 242.169 140.775 242.216 140.775 242.271C140.775 242.325 140.756 242.372 140.717 242.412C140.677 242.452 140.635 242.474 140.584 242.474C140.533 242.474 140.489 242.454 140.452 242.412V242.414ZM143.324 241.724C142.76 241.724 142.27 241.521 141.854 241.115C141.439 240.709 141.232 240.199 141.232 239.585C141.232 239.531 141.251 239.483 141.286 239.444C141.32 239.404 141.367 239.382 141.423 239.382C141.478 239.382 141.524 239.402 141.56 239.444C141.594 239.486 141.613 239.531 141.613 239.585C141.613 240.093 141.785 240.508 142.126 240.833C142.467 241.157 142.867 241.32 143.324 241.32C143.362 241.32 143.417 241.318 143.487 241.31C143.557 241.303 143.628 241.293 143.705 241.281C143.763 241.268 143.812 241.276 143.851 241.305C143.891 241.335 143.919 241.382 143.933 241.442C143.944 241.496 143.935 241.543 143.905 241.583C143.875 241.622 143.833 241.649 143.781 241.664C143.668 241.699 143.568 241.716 143.482 241.721C143.396 241.726 143.345 241.726 143.324 241.726V241.724Z" fill="#28A8E8"></path><path d="M332.509 150.674C332.233 150.674 331.991 150.567 331.789 150.355C331.591 150.142 331.49 149.884 331.49 149.585V144.131C331.49 143.832 331.591 143.574 331.789 143.361C331.991 143.148 332.233 143.042 332.509 143.042H333.023V141.95C333.023 141.195 333.269 140.552 333.77 140.022C334.271 139.492 334.873 139.225 335.58 139.225C336.283 139.225 336.889 139.49 337.39 140.022C337.886 140.554 338.137 141.198 338.137 141.95V143.042H338.646C338.927 143.042 339.169 143.148 339.366 143.361C339.569 143.574 339.67 143.832 339.67 144.131V149.585C339.67 149.884 339.569 150.142 339.366 150.355C339.169 150.567 338.927 150.674 338.646 150.674H332.505H332.509ZM335.58 147.946C335.861 147.946 336.103 147.839 336.305 147.626C336.502 147.413 336.603 147.156 336.603 146.857C336.603 146.557 336.502 146.3 336.305 146.087C336.103 145.874 335.861 145.767 335.58 145.767C335.299 145.767 335.057 145.874 334.859 146.087C334.657 146.3 334.561 146.557 334.561 146.857C334.561 147.156 334.657 147.413 334.859 147.626C335.057 147.839 335.299 147.946 335.58 147.946ZM334.047 143.037H337.117V141.945C337.117 141.49 336.968 141.104 336.669 140.787C336.366 140.47 336.006 140.309 335.58 140.309C335.158 140.309 334.794 140.467 334.495 140.787C334.196 141.106 334.047 141.492 334.047 141.945V143.037Z" fill="#1678D1"></path><path d="M205.712 204.826C205.296 204.826 204.941 204.668 204.643 204.353C204.346 204.039 204.2 203.658 204.2 203.215V195.157C204.2 194.714 204.349 194.335 204.643 194.018C204.939 193.701 205.296 193.545 205.712 193.545H206.469V191.934C206.469 190.82 206.838 189.869 207.574 189.083C208.31 188.298 209.202 187.904 210.249 187.904C211.296 187.904 212.185 188.298 212.924 189.083C213.662 189.867 214.029 190.818 214.029 191.934V193.545H214.786C215.201 193.545 215.557 193.704 215.854 194.018C216.151 194.333 216.297 194.714 216.297 195.157V203.215C216.297 203.658 216.149 204.036 215.854 204.353C215.559 204.67 215.201 204.826 214.786 204.826H205.716H205.712ZM210.246 200.796C210.662 200.796 211.017 200.638 211.315 200.323C211.612 200.009 211.758 199.628 211.758 199.185C211.758 198.741 211.609 198.363 211.315 198.046C211.02 197.729 210.662 197.573 210.246 197.573C209.831 197.573 209.475 197.731 209.179 198.046C208.883 198.36 208.735 198.741 208.735 199.185C208.735 199.628 208.883 200.006 209.179 200.323C209.473 200.64 209.831 200.796 210.246 200.796ZM207.978 193.545H212.513V191.934C212.513 191.263 212.292 190.691 211.851 190.221C211.41 189.751 210.876 189.515 210.244 189.515C209.613 189.515 209.078 189.751 208.637 190.221C208.196 190.691 207.976 191.261 207.976 191.934V193.545H207.978Z" fill="#1678D1"></path><path d="M166.138 82.4444C165.934 82.4444 165.76 82.3678 165.616 82.2119C165.472 82.0559 165.397 81.8705 165.397 81.6548V77.7065C165.397 77.4889 165.47 77.303 165.616 77.1499C165.762 76.9963 165.936 76.9169 166.138 76.9169H166.51V76.1273C166.51 75.5801 166.691 75.115 167.051 74.7312C167.411 74.3474 167.85 74.1545 168.36 74.1545C168.871 74.1545 169.31 74.3474 169.67 74.7312C170.03 75.115 170.211 75.5829 170.211 76.1273V76.9169H170.583C170.787 76.9169 170.961 76.9939 171.105 77.1499C171.249 77.3058 171.323 77.4912 171.323 77.7065V81.6548C171.323 81.8729 171.251 82.0582 171.105 82.2119C170.959 82.3655 170.784 82.4444 170.583 82.4444H166.138ZM168.36 80.4693C168.565 80.4693 168.739 80.3922 168.883 80.2367C169.027 80.0808 169.101 79.895 169.101 79.6797C169.101 79.464 169.029 79.2763 168.883 79.1227C168.736 78.969 168.562 78.8897 168.36 78.8897C168.158 78.8897 167.982 78.9667 167.838 79.1227C167.694 79.2786 167.62 79.464 167.62 79.6797C167.62 79.895 167.692 80.0831 167.838 80.2367C167.984 80.3899 168.158 80.4693 168.36 80.4693ZM167.25 76.9146H169.473V76.125C169.473 75.7958 169.364 75.5161 169.148 75.2854C168.931 75.0553 168.669 74.939 168.36 74.939C168.052 74.939 167.789 75.0553 167.573 75.2854C167.358 75.5161 167.248 75.7958 167.248 76.125V76.9146H167.25Z" fill="#1678D1"></path><path d="M286.486 213.143V310.6C280.13 313.492 269.025 315.049 264.312 315.603V213.143C264.312 212.549 264.764 212.066 265.322 212.066H285.476C286.034 212.066 286.486 212.549 286.486 213.143Z" fill="white"></path><path opacity="0.75" d="M286.486 213.143V310.6C280.13 313.492 269.025 315.049 264.312 315.603V213.143C264.312 212.549 264.764 212.066 265.322 212.066H285.476C286.034 212.066 286.486 212.549 286.486 213.143Z" fill="url(#paint6_linear_1424_61370)"></path><path d="M205.73 239.4V315.811C205.73 316.103 205.658 316.372 205.531 316.593C202.124 316.503 194.283 314.826 190.296 313.928V239.4C190.296 238.675 190.747 238.085 191.306 238.085H204.72C205.277 238.085 205.73 238.675 205.73 239.4Z" fill="white"></path><path opacity="0.75" d="M205.73 239.4V315.811C205.73 316.103 205.658 316.372 205.531 316.593C202.124 316.503 194.283 314.826 190.296 313.928V239.4C190.296 238.675 190.747 238.085 191.306 238.085H204.72C205.277 238.085 205.73 238.675 205.73 239.4Z" fill="url(#paint7_linear_1424_61370)"></path></g><defs><linearGradient id="paint0_linear_1424_61370" x1="121.02" y1="277.31" x2="121.02" y2="160.274" gradientUnits="userSpaceOnUse"><stop stop-color="#678CCE"></stop><stop offset="1" stop-color="#1678D1"></stop></linearGradient><linearGradient id="paint1_linear_1424_61370" x1="312.688" y1="107.285" x2="312.688" y2="41.5256" gradientUnits="userSpaceOnUse"><stop stop-color="#678CCE"></stop><stop offset="1" stop-color="#1678D1"></stop></linearGradient><linearGradient id="paint2_linear_1424_61370" x1="330.391" y1="264.706" x2="330.391" y2="147.67" gradientUnits="userSpaceOnUse"><stop stop-color="#678CCE"></stop><stop offset="1" stop-color="#1678D1"></stop></linearGradient><linearGradient id="paint3_linear_1424_61370" x1="239.136" y1="241.758" x2="239.136" y2="146.177" gradientUnits="userSpaceOnUse"><stop stop-color="#678CCE"></stop><stop offset="1" stop-color="#1678D1"></stop></linearGradient><linearGradient id="paint4_linear_1424_61370" x1="239.136" y1="110.248" x2="239.136" y2="86.4" gradientUnits="userSpaceOnUse"><stop stop-color="#678CCE"></stop><stop offset="1" stop-color="#1678D1"></stop></linearGradient><linearGradient id="paint5_linear_1424_61370" x1="130.661" y1="131.723" x2="130.661" y2="43.7327" gradientUnits="userSpaceOnUse"><stop stop-color="#678CCE"></stop><stop offset="1" stop-color="#1678D1"></stop></linearGradient><linearGradient id="paint6_linear_1424_61370" x1="264.312" y1="263.835" x2="286.486" y2="263.835" gradientUnits="userSpaceOnUse"><stop stop-color="#678CCE"></stop><stop offset="1" stop-color="#1678D1"></stop></linearGradient><linearGradient id="paint7_linear_1424_61370" x1="190.296" y1="277.339" x2="205.73" y2="277.339" gradientUnits="userSpaceOnUse"><stop stop-color="#678CCE"></stop><stop offset="1" stop-color="#1678D1"></stop></linearGradient><clipPath id="clip0_1424_61370"><rect width="460" height="475" fill="white"></rect></clipPath></defs></svg>