<svg xmlns="http://www.w3.org/2000/svg" width="460" height="475" viewBox="0 0 460 475" fill="none"><g clip-path="url(#clip0_1277_6351)"><mask id="mask0_1277_6351" style="mask-type:luminance" maskUnits="userSpaceOnUse" x="-169" y="18" width="784" height="441"><path d="M614.334 18H-168.989V458.619H614.334V18Z" fill="white"></path></mask><g mask="url(#mask0_1277_6351)"><path d="M53.5938 382.47C60.0019 377.847 67.5548 377.266 75.0237 376.708C84.2266 376.021 93.4102 376.391 102.417 378.712C104.414 379.226 106.355 379.903 107.959 381.275C110.137 383.137 110.316 384.342 108.346 386.381C106.904 387.873 107.038 388.454 109.092 388.845C112.073 389.413 115.032 390.1 117.976 390.836C121.408 391.695 124.795 391.488 128.305 391.181C135.416 390.562 142.576 390.387 149.636 391.937C151.12 392.263 152.589 392.668 153.873 393.531C156.157 395.067 156.353 396.126 154.45 398.129C153.368 399.266 153.689 399.782 154.947 400.15C163.256 402.58 171.538 405.114 179.906 407.326C181.984 407.874 184.368 407.56 186.568 407.293C192.583 406.562 198.515 407.157 204.419 408.183C206.063 408.469 207.678 409.142 209.195 409.867C210.294 410.391 211.485 411.187 211.385 412.637C211.282 414.117 210.171 415.009 208.88 415.508C205.357 416.868 201.668 417.57 197.907 417.763C195.233 417.902 192.546 417.923 189.871 417.842C185.718 417.718 182.262 419.499 178.903 421.594C177.996 422.16 177.349 422.68 178.61 423.79C180.701 425.631 180.417 426.989 177.735 427.943C173.026 429.62 168.116 429.836 163.189 429.339C161.067 429.122 158.902 428.988 156.882 428.192C155.708 427.731 154.427 427.225 154.443 425.706C154.458 424.296 155.714 423.863 156.786 423.454C160.273 422.127 163.981 422.127 167.617 422.018C171.442 421.903 174.359 419.877 177.438 418.118C178.493 417.516 178.188 416.776 177.179 416.417C175.917 415.968 174.618 415.633 173.561 414.743C172.02 413.444 171.377 412.079 173.287 410.592C174.829 409.393 174.275 408.854 172.739 408.409C164.591 406.054 156.506 403.461 148.291 401.376C144.028 400.294 139.618 401.623 135.291 402.045C134.591 402.114 133.858 402.78 133.321 403.342C132.49 404.211 131.065 405.061 131.51 406.363C131.917 407.55 133.478 407.297 134.6 407.443C138.425 407.941 142.179 408.705 145.664 410.435C147.219 411.208 148.78 412.18 148.773 414.106C148.767 415.894 147.236 416.887 145.853 417.654C144.465 418.425 142.936 419.066 141.388 419.417C127.348 422.593 113.291 422.896 99.2623 419.352C97.4594 418.897 95.6659 418.287 94.2466 416.943C92.1194 414.931 92.1235 413.16 94.5285 411.445C97.1926 409.547 100.325 408.699 103.499 408.12C109.127 407.09 114.816 406.47 120.533 406.532C123.163 406.558 124.91 405.446 126.483 403.589C127.766 402.074 127.367 401.393 125.557 400.843C119.898 399.126 114.181 398.878 108.367 399.765C106.959 399.98 105.531 400.075 104.111 400.204C100.837 400.499 97.6569 400.724 94.7374 402.759C91.7877 404.815 88.0457 404.552 84.6085 404.757C80.7914 404.985 76.9266 404.719 73.2421 403.472C72.0818 403.079 70.6122 402.638 70.6029 401.172C70.5931 399.594 72.0684 399.001 73.3474 398.65C79.2129 397.039 85.222 396.728 91.1145 398.063C94.8182 398.902 98.3778 398.52 102.001 398.28C105.561 398.044 109.106 397.617 112.66 397.285C113.826 397.175 115.027 397.089 115.861 396.164C116.444 395.518 117.152 394.764 116.925 393.83C116.701 392.91 115.692 392.94 114.931 392.766C111.797 392.052 108.616 391.507 105.531 390.627C100.195 389.104 95.0809 391.063 89.8693 391.387C80.383 391.977 70.948 391.887 61.6457 389.651C58.6727 388.935 55.8242 387.907 53.5938 385.671V382.468V382.47Z" fill="#EDF0F1"></path><path d="M220.843 435.328C217.953 434.822 215.056 434.344 212.174 433.794C209.886 433.357 207.655 432.684 205.658 431.46C202.083 429.261 202.158 426.319 205.879 424.398C209.818 422.365 214.128 421.517 218.476 421.012C228.717 419.821 238.942 419.814 249.102 421.843C251.473 422.317 253.794 422.996 255.96 424.054C257.572 424.845 259.204 425.942 259.11 427.988C259.02 429.865 257.486 430.864 255.92 431.615C252.26 433.365 248.327 434.149 244.341 434.72C243.464 434.846 242.611 435.12 241.751 435.328H220.845H220.843Z" fill="#EDF0F1"></path><path d="M344.279 424.82C337.821 424.926 330.016 424.417 322.501 421.696C320.951 421.136 319.486 420.445 318.585 419.049C317.438 417.277 315.847 416.762 313.819 416.676C308.92 416.469 304.02 416.193 299.14 415.727C295.109 415.343 291.666 417.217 288.007 418.241C286.521 418.656 287.705 419.442 288.19 419.948C291.026 422.929 294.661 423.886 298.622 423.959C300.601 423.996 302.547 424.239 304.407 424.916C305.574 425.34 306.941 425.754 307.035 427.246C307.133 428.824 305.709 429.273 304.571 429.669C299.924 431.264 295.109 431.411 290.283 430.95C288.076 430.738 285.824 430.587 283.723 429.722C282.719 429.306 281.671 428.828 281.528 427.609C281.377 426.295 282.482 425.816 283.421 425.307C285.812 424.011 285.791 423.786 283.653 421.959C281.157 419.822 278.309 418.846 275.041 418.922C270.198 419.037 265.396 418.719 260.762 417.194C258.909 416.586 256.498 415.945 256.523 413.703C256.547 411.377 258.934 410.563 260.925 410.03C270.769 407.389 280.683 407.456 290.601 409.631C292.531 410.055 294.338 410.846 295.742 412.335C296.717 413.375 297.978 413.74 299.361 413.818C302.388 413.989 305.411 414.246 308.442 414.332C314.04 414.492 319.429 414.353 324.986 412.397C334.153 409.167 343.912 409.159 353.593 409.894C358.759 410.287 363.915 410.773 368.827 412.604C371.214 413.494 373.927 414.492 373.988 417.33C374.05 420.181 371.206 421.061 368.962 421.824C361.435 424.383 353.618 424.966 344.283 424.818L344.279 424.82Z" fill="#EDF0F1"></path><path d="M399.287 395.942C391.356 396.138 383.918 395.545 376.758 392.894C375.579 392.457 374.457 391.968 373.494 391.12C371.919 389.733 371.365 388.241 372.931 386.53C374.147 385.205 374.02 384.419 372.168 384.027C367.717 383.082 363.282 382.034 358.815 381.167C357.718 380.954 356.51 381.208 355.368 381.359C347.436 382.416 339.53 382.499 331.648 380.932C329.795 380.563 328 379.997 326.45 378.891C324.447 377.458 324.488 375.795 326.572 374.439C328.237 373.355 330.142 372.774 332.072 372.404C340.582 370.772 349.109 370.708 357.624 372.377C359.378 372.721 361.12 373.198 362.65 374.155C363.927 374.955 364.98 376.002 364.164 377.669C363.462 379.105 364.119 379.597 365.396 379.869C369.937 380.836 374.453 381.919 379.018 382.748C381.148 383.135 383.229 382.121 385.354 381.872C387.565 381.61 389.789 381.424 392 381.114C393.432 380.912 394.493 380.291 394.526 378.561C394.562 376.815 394.016 375.63 392.176 375.246C390.344 374.865 388.496 374.529 386.705 373.99C385.619 373.662 384.404 373.12 384.485 371.673C384.555 370.415 385.652 369.903 386.664 369.577C391.139 368.127 395.758 367.774 400.417 368.211C402.987 368.453 405.602 368.562 408.018 369.636C408.919 370.037 409.898 370.473 409.98 371.616C410.074 372.926 409.058 373.52 408.05 373.877C406.626 374.379 405.145 374.75 403.668 375.066C401.996 375.425 400.449 375.833 400.613 378.016C400.784 380.254 402.416 380.684 404.219 380.755C409.046 380.941 413.827 381.488 418.56 382.441C421.289 382.989 423.949 383.765 426.307 385.293C429.404 387.299 429.245 390.2 425.965 391.916C421.844 394.072 417.315 394.749 412.799 395.273C408.193 395.808 403.566 396.301 399.287 395.95V395.942Z" fill="#EDF0F1"></path><path d="M240.367 376.453C251.501 376.332 261.794 377.03 271.708 380.529C273.487 381.156 275.205 381.864 276.563 383.249C278.746 385.475 278.693 387.668 276.188 389.58C272.088 392.709 267.172 393.831 262.247 394.678C246.801 397.333 231.352 397.243 215.939 394.303C212.499 393.647 209.147 392.653 206.145 390.833C201.641 388.101 201.712 384.743 206.314 382.184C212.461 378.764 219.318 377.962 226.137 377.057C231.107 376.397 236.105 376.42 240.371 376.453H240.367Z" fill="#EDF0F1"></path><path d="M239.045 360.693C236.812 360.693 234.576 360.78 232.349 360.674C228.296 360.485 224.521 361.083 220.637 362.583C214.417 364.986 207.715 365.09 201.093 364.706C197.809 364.516 194.498 364.273 191.293 363.4C190.177 363.097 189.057 362.767 187.998 362.309C186.743 361.764 185.597 360.975 185.477 359.456C185.347 357.786 186.696 357.233 187.892 356.623C190.729 355.179 193.813 354.638 196.932 354.375C204.156 353.763 211.375 353.612 218.504 355.267C219.716 355.549 221.025 355.787 222.049 356.428C225.561 358.618 229.433 358.816 233.381 358.829C244.186 358.864 254.989 358.896 265.792 358.975C267.893 358.99 269.786 358.545 271.72 357.676C277.403 355.127 283.511 354.861 289.582 355.16C294.147 355.384 297.953 353.85 301.65 351.542C302.906 350.756 303.351 350.213 301.911 349.028C300.046 347.492 300.389 346.141 302.747 345.123C305.848 343.782 309.226 343.734 312.486 343.648C316.108 343.554 319.825 343.619 323.326 344.883C324.554 345.326 326.177 345.746 326.051 347.38C325.937 348.876 324.448 349.434 323.15 349.795C320.037 350.66 316.831 351.105 313.616 350.998C309.585 350.864 306.48 352.987 303.216 354.782C302.07 355.413 302.062 356.038 303.375 356.53C304.457 356.936 305.587 357.282 306.578 357.857C309.177 359.368 309.23 360.991 306.839 362.733C305.807 363.482 304.628 363.906 303.412 364.194C293.873 366.453 284.323 366.413 274.768 364.313C273.988 364.142 273.107 363.989 272.508 363.523C269.211 360.945 265.364 361.077 261.521 361.137C254.022 361.254 246.548 360.35 239.041 360.692L239.045 360.693Z" fill="#EDF0F1"></path><path d="M360.798 350.832C366.987 350.669 373.103 351.275 379.157 352.516C381.887 353.076 384.522 353.926 386.795 355.606C389.014 357.248 389.071 359.105 386.946 360.881C385.563 362.037 383.935 362.791 382.197 363.271C372.621 365.914 362.879 366.426 353.01 365.69C347.828 365.304 342.704 364.7 337.764 363.025C335.442 362.239 332.762 361.278 332.652 358.583C332.541 355.768 335.348 354.816 337.584 353.985C345.071 351.204 352.924 350.888 360.794 350.83L360.798 350.832Z" fill="#EDF0F1"></path><path d="M136.058 362.798C129.341 362.986 122.679 362.536 116.16 360.819C114.532 360.389 112.959 359.722 111.4 359.072C109.842 358.423 108.532 357.351 108.461 355.585C108.383 353.638 109.886 352.623 111.446 351.848C115.834 349.67 120.602 348.901 125.397 348.363C134.936 347.295 144.447 347.546 153.903 349.273C156.374 349.723 158.777 350.408 161.039 351.494C162.596 352.242 164.119 353.26 164.225 355.136C164.334 357.098 162.746 358.065 161.209 358.843C155.329 361.828 148.878 362.219 142.481 362.768C140.354 362.95 138.2 362.796 136.058 362.796V362.798Z" fill="#EDF0F1"></path><path d="M249.602 352.148C241.777 352.401 234.333 351.867 227.123 349.457C226.615 349.288 226.092 349.144 225.614 348.91C223.903 348.074 222.144 347.107 221.964 345.016C221.778 342.857 223.635 342.055 225.217 341.238C229.667 338.936 234.539 338.167 239.431 337.822C250.565 337.035 261.699 336.654 272.527 340.217C273.371 340.495 274.232 340.801 274.979 341.261C278.553 343.457 278.451 346.307 274.738 348.309C270.809 350.429 266.448 350.955 262.127 351.593C257.876 352.22 253.601 352.351 249.602 352.149V352.148Z" fill="#EDF0F1"></path><path d="M141.399 379.399C136.475 379.537 131.59 379.274 126.829 377.884C125.891 377.609 124.934 377.312 124.085 376.848C121.304 375.331 121.275 373.254 124.01 371.663C126.365 370.294 129.018 369.809 131.665 369.406C139.851 368.161 148.014 368.288 156.093 370.188C158.226 370.689 161.026 371.17 161.16 373.785C161.308 376.646 158.37 377.151 156.225 377.826C151.407 379.341 146.411 379.529 141.399 379.397V379.399Z" fill="#EDF0F1"></path><path d="M187.001 349.475C183.93 349.259 180.527 349.259 177.284 348.165C176.06 347.753 174.395 347.456 174.441 345.804C174.489 344.12 176.104 343.679 177.458 343.215C180.89 342.041 184.494 342.076 188.023 342.101C191.015 342.123 194.093 342.175 196.999 343.18C198.25 343.612 199.775 343.992 199.809 345.616C199.846 347.291 198.267 347.638 197.041 348.064C193.894 349.153 190.601 349.335 187.003 349.475H187.001Z" fill="#EDF0F1"></path><path d="M91.6294 371.378C87.9543 371.491 84.659 371.408 81.5155 370.24C80.4511 369.845 79.1562 369.4 79.1582 368.017C79.1582 366.679 80.3475 366.032 81.4445 365.712C88.4377 363.671 95.4615 363.546 102.46 365.685C103.579 366.026 104.691 366.642 104.497 368.098C104.321 369.427 103.264 369.935 102.088 370.271C98.5438 371.282 94.9381 371.684 91.6273 371.378H91.6294Z" fill="#EDF0F1"></path><g opacity="0.75"><path d="M256.56 253.673H380.672C381.463 253.673 382.108 253.238 382.108 252.701V241.445C382.108 240.908 381.463 240.473 380.672 240.473H260.75C256.494 244.954 256.295 250.645 256.56 253.671V253.673Z" fill="white"></path><path d="M256.56 253.673H380.672C381.463 253.673 382.108 253.238 382.108 252.701V241.445C382.108 240.908 381.463 240.473 380.672 240.473H260.75C256.494 244.954 256.295 250.645 256.56 253.671V253.673Z" fill="url(#paint0_linear_1277_6351)"></path></g><g opacity="0.75"><path d="M283.208 214.054H398.32C399.066 214.054 399.67 213.852 399.67 213.603V208.396C399.67 208.148 399.066 207.945 398.32 207.945H284.342C281.825 210.024 281.368 212.498 283.208 214.052V214.054Z" fill="white"></path><path d="M283.208 214.054H398.32C399.066 214.054 399.67 213.852 399.67 213.603V208.396C399.67 208.148 399.066 207.945 398.32 207.945H284.342C281.825 210.024 281.368 212.498 283.208 214.052V214.054Z" fill="url(#paint1_linear_1277_6351)"></path></g><g opacity="0.35"><path d="M377.581 223.556H305.336C304.924 223.556 304.594 223.889 304.594 224.3V236.01C304.594 236.421 304.924 236.754 305.336 236.754H377.581C377.989 236.754 378.324 236.421 378.324 236.01V224.3C378.324 223.889 377.989 223.556 377.581 223.556Z" fill="white"></path><path d="M377.581 223.556H305.336C304.924 223.556 304.594 223.889 304.594 224.3V236.01C304.594 236.421 304.924 236.754 305.336 236.754H377.581C377.989 236.754 378.324 236.421 378.324 236.01V224.3C378.324 223.889 377.989 223.556 377.581 223.556Z" fill="url(#paint2_linear_1277_6351)"></path></g><g opacity="0.35"><path d="M424.359 223.556H382.851C382.443 223.556 382.108 223.889 382.108 224.3V236.01C382.108 236.421 382.443 236.754 382.851 236.754H424.359C424.767 236.754 425.101 236.421 425.101 236.01V224.3C425.101 223.889 424.767 223.556 424.359 223.556Z" fill="white"></path><path d="M424.359 223.556H382.851C382.443 223.556 382.108 223.889 382.108 224.3V236.01C382.108 236.421 382.443 236.754 382.851 236.754H424.359C424.767 236.754 425.101 236.421 425.101 236.01V224.3C425.101 223.889 424.767 223.556 424.359 223.556Z" fill="url(#paint3_linear_1277_6351)"></path></g><g opacity="0.75"><path d="M359.832 258.434H261.611C261.199 258.434 260.868 258.767 260.868 259.178V286.83C260.868 287.241 261.199 287.574 261.611 287.574H359.832C360.24 287.574 360.575 287.241 360.575 286.83V259.178C360.575 258.767 360.24 258.434 359.832 258.434Z" fill="white"></path><path d="M359.832 258.434H261.611C261.199 258.434 260.868 258.767 260.868 259.178V286.83C260.868 287.241 261.199 287.574 261.611 287.574H359.832C360.24 287.574 360.575 287.241 360.575 286.83V259.178C360.575 258.767 360.24 258.434 359.832 258.434Z" fill="url(#paint4_linear_1277_6351)"></path></g><path d="M392.152 258.434H364.499C364.087 258.434 363.757 258.767 363.757 259.178V286.83C363.757 287.241 364.087 287.574 364.499 287.574H392.152C392.564 287.574 392.895 287.241 392.895 286.83V259.178C392.895 258.767 392.564 258.434 392.152 258.434Z" fill="#1678D1"></path><path opacity="0.25" d="M114.082 119.266C127.43 119.266 138.251 108.445 138.251 95.0969C138.251 81.7486 127.43 70.9277 114.082 70.9277C100.734 70.9277 89.9131 81.7486 89.9131 95.0969C89.9131 108.445 100.734 119.266 114.082 119.266Z" fill="#28A8E8"></path><path opacity="0.05" d="M114.081 126.165C131.24 126.165 145.149 112.255 145.149 95.0969C145.149 77.9385 131.24 64.0288 114.081 64.0288C96.9229 64.0288 83.0137 77.9385 83.0137 95.0969C83.0137 112.255 96.9229 126.165 114.081 126.165Z" fill="#28A8E8"></path><path opacity="0.25" d="M114.083 114.443C124.768 114.443 133.429 105.781 133.429 95.097C133.429 84.4124 124.768 75.751 114.083 75.751C103.399 75.751 94.7373 84.4124 94.7373 95.097C94.7373 105.781 103.399 114.443 114.083 114.443Z" fill="#28A8E8"></path><path d="M103.342 92.2176C103.2 92.116 103.112 91.9879 103.083 91.8361C103.053 91.6844 103.098 91.5257 103.221 91.3621C104.482 89.6322 106.065 88.2883 107.968 87.3332C109.871 86.3757 111.9 85.8996 114.059 85.8996C116.218 85.8996 118.251 86.3614 120.164 87.2884C122.077 88.2149 123.674 89.5514 124.956 91.3029C125.079 91.4853 125.12 91.6489 125.079 91.7912C125.039 91.9332 124.956 92.0564 124.835 92.1584C124.714 92.2604 124.57 92.3053 124.409 92.2959C124.248 92.2865 124.103 92.1988 123.982 92.0377C122.863 90.4498 121.423 89.234 119.661 88.3903C117.901 87.5466 116.033 87.1223 114.059 87.1223C112.085 87.1223 110.234 87.5442 108.504 88.3903C106.774 89.234 105.34 90.4498 104.2 92.0377C104.077 92.22 103.935 92.322 103.773 92.3432C103.612 92.3649 103.467 92.322 103.347 92.22L103.342 92.2176ZM117.507 107.267C115.391 106.738 113.661 105.684 112.317 104.108C110.973 102.532 110.303 100.603 110.303 98.3226C110.303 97.3059 110.67 96.4504 111.402 95.7585C112.135 95.0665 113.021 94.7205 114.059 94.7205C115.097 94.7205 115.981 95.0665 116.716 95.7585C117.448 96.4504 117.815 97.3059 117.815 98.3226C117.815 98.9933 118.069 99.56 118.579 100.017C119.088 100.475 119.688 100.705 120.38 100.705C121.072 100.705 121.662 100.475 122.15 100.017C122.638 99.56 122.882 98.9958 122.882 98.3226C122.882 95.9624 122.017 93.9788 120.287 92.3694C118.557 90.7627 116.493 89.957 114.09 89.957C111.687 89.957 109.622 90.7603 107.892 92.3694C106.162 93.9764 105.297 95.9506 105.297 98.292C105.297 98.7804 105.342 99.3915 105.435 100.124C105.527 100.856 105.745 101.712 106.091 102.688C106.153 102.871 106.148 103.034 106.077 103.176C106.006 103.319 105.89 103.421 105.726 103.482C105.563 103.544 105.406 103.539 105.252 103.468C105.101 103.397 104.994 103.281 104.932 103.117C104.626 102.323 104.409 101.534 104.276 100.752C104.143 99.9676 104.077 99.1594 104.077 98.3251C104.077 95.6185 105.058 93.3481 107.023 91.5187C108.987 89.6865 111.331 88.7718 114.059 88.7718C116.787 88.7718 119.166 89.6865 121.14 91.5187C123.115 93.3505 124.101 95.6185 124.101 98.3251C124.101 99.3417 123.74 100.193 123.017 100.875C122.295 101.558 121.415 101.897 120.377 101.897C119.339 101.897 118.448 101.555 117.706 100.875C116.965 100.193 116.593 99.3442 116.593 98.3251C116.593 97.6543 116.344 97.0881 115.844 96.6307C115.346 96.1734 114.748 95.9433 114.057 95.9433C113.365 95.9433 112.77 96.1734 112.27 96.6307C111.772 97.0881 111.521 97.6523 111.521 98.3251C111.521 100.299 112.106 101.946 113.277 103.271C114.448 104.594 115.957 105.52 117.811 106.049C117.993 106.111 118.116 106.213 118.178 106.355C118.24 106.497 118.249 106.651 118.209 106.812C118.169 106.954 118.085 107.077 117.965 107.179C117.841 107.281 117.69 107.312 117.507 107.272V107.267ZM107.312 85.838C107.148 85.9396 106.987 85.9657 106.823 85.9135C106.66 85.8617 106.539 85.7548 106.456 85.5936C106.376 85.43 106.354 85.2831 106.395 85.1505C106.435 85.0179 106.534 84.9041 106.693 84.8046C106.698 84.8021 106.703 84.7997 106.707 84.7972C107.845 84.1885 109.032 83.7214 110.272 83.3966C111.514 83.0719 112.774 82.9087 114.057 82.9087C115.339 82.9087 116.631 83.0674 117.872 83.3824C119.114 83.6977 120.313 84.1506 121.474 84.7405C121.657 84.8425 121.764 84.9633 121.795 85.1077C121.825 85.2525 121.809 85.3925 121.749 85.5345C121.688 85.6768 121.586 85.7882 121.444 85.871C121.301 85.9539 121.128 85.942 120.925 85.84C119.847 85.2905 118.732 84.8686 117.583 84.5724C116.434 84.2758 115.258 84.129 114.057 84.129C112.855 84.129 111.715 84.2665 110.578 84.5414C109.437 84.8164 108.35 85.2476 107.312 85.838ZM110.914 106.84C109.712 105.58 108.793 104.291 108.151 102.98C107.511 101.667 107.189 100.114 107.189 98.3251C107.189 96.5357 107.859 94.9123 109.203 93.6398C110.547 92.3669 112.163 91.7321 114.057 91.7321C115.95 91.7321 117.578 92.3669 118.941 93.6398C120.304 94.9123 120.987 96.474 120.987 98.3251C120.987 98.5078 120.929 98.6571 120.818 98.7685C120.707 98.8799 120.56 98.9366 120.375 98.9366C120.211 98.9366 120.069 98.8799 119.948 98.7685C119.827 98.6571 119.766 98.5099 119.766 98.3251C119.766 96.7988 119.202 95.5214 118.071 94.4953C116.941 93.4668 115.604 92.9548 114.057 92.9548C112.509 92.9548 111.182 93.4693 110.073 94.4953C108.964 95.5239 108.409 96.7988 108.409 98.3251C108.409 99.9745 108.693 101.373 109.264 102.522C109.833 103.672 110.67 104.826 111.767 105.987C111.891 106.111 111.95 106.253 111.95 106.414C111.95 106.575 111.888 106.72 111.767 106.84C111.644 106.964 111.502 107.023 111.341 107.023C111.179 107.023 111.035 106.961 110.914 106.84ZM120.133 104.764C118.322 104.764 116.749 104.153 115.417 102.932C114.085 101.712 113.417 100.174 113.417 98.3226C113.417 98.1594 113.474 98.017 113.585 97.8963C113.696 97.7755 113.843 97.7139 114.028 97.7139C114.213 97.7139 114.36 97.7755 114.471 97.8963C114.583 98.0195 114.64 98.1615 114.64 98.3226C114.64 99.8489 115.19 101.101 116.289 102.077C117.389 103.053 118.671 103.541 120.135 103.541C120.259 103.541 120.432 103.532 120.654 103.51C120.877 103.489 121.112 103.461 121.356 103.418C121.539 103.378 121.697 103.404 121.83 103.494C121.963 103.586 122.048 103.724 122.088 103.906C122.129 104.07 122.098 104.212 121.996 104.333C121.894 104.456 121.761 104.537 121.6 104.577C121.233 104.679 120.913 104.736 120.638 104.745C120.363 104.755 120.195 104.76 120.133 104.76V104.764Z" fill="#28A8E8"></path><path opacity="0.25" d="M82.2511 266.696C93.5089 266.696 102.635 257.57 102.635 246.313C102.635 235.055 93.5089 225.928 82.2511 225.928C70.9933 225.928 61.8672 235.055 61.8672 246.313C61.8672 257.57 70.9933 266.696 82.2511 266.696Z" fill="#28A8E8"></path><path opacity="0.05" d="M82.2534 272.519C96.7257 272.519 108.458 260.787 108.458 246.314C108.458 231.842 96.7257 220.11 82.2534 220.11C67.7811 220.11 56.0488 231.842 56.0488 246.314C56.0488 260.787 67.7811 272.519 82.2534 272.519Z" fill="#28A8E8"></path><path opacity="0.25" d="M82.2527 262.63C91.2642 262.63 98.5699 255.325 98.5699 246.313C98.5699 237.301 91.2642 229.996 82.2527 229.996C73.2408 229.996 65.9355 237.301 65.9355 246.313C65.9355 255.325 73.2408 262.63 82.2527 262.63Z" fill="#28A8E8"></path><path d="M73.1956 243.887C73.0748 243.801 73.0038 243.695 72.9777 243.564C72.9516 243.436 72.9895 243.304 73.094 243.166C74.158 241.706 75.4921 240.574 77.0967 239.768C78.7013 238.962 80.4148 238.557 82.2323 238.557C84.0503 238.557 85.7683 238.948 87.3823 239.727C88.9962 240.509 90.3426 241.638 91.4254 243.114C91.5274 243.268 91.5629 243.406 91.5274 243.526C91.4943 243.647 91.4254 243.749 91.3213 243.835C91.2169 243.92 91.0986 243.96 90.9611 243.951C90.8236 243.941 90.7028 243.87 90.6008 243.733C89.6576 242.394 88.4418 241.367 86.958 240.656C85.4746 239.943 83.8985 239.588 82.2323 239.588C80.5661 239.588 79.0044 239.943 77.5471 240.656C76.0869 241.37 74.8785 242.394 73.9161 243.733C73.8145 243.887 73.6933 243.972 73.5558 243.991C73.4183 244.01 73.2976 243.974 73.1956 243.889V243.887ZM85.1429 256.58C83.358 256.135 81.8982 255.246 80.7652 253.917C79.6327 252.587 79.066 250.959 79.066 249.037C79.066 248.179 79.374 247.458 79.9929 246.873C80.6114 246.29 81.358 245.998 82.2323 245.998C83.107 245.998 83.8536 246.29 84.4721 246.873C85.0906 247.456 85.3987 248.176 85.3987 249.037C85.3987 249.603 85.6145 250.079 86.0433 250.466C86.4721 250.852 86.9796 251.044 87.5626 251.044C88.1456 251.044 88.6433 250.852 89.0554 250.466C89.4679 250.079 89.6739 249.603 89.6739 249.037C89.6739 247.046 88.944 245.373 87.4867 244.017C86.0266 242.662 84.2849 241.984 82.2609 241.984C80.2369 241.984 78.4928 242.662 77.0351 244.017C75.5753 245.373 74.8475 247.039 74.8475 249.013C74.8475 249.425 74.8854 249.94 74.9638 250.558C75.0421 251.177 75.2245 251.897 75.5182 252.722C75.5704 252.876 75.5655 253.014 75.5064 253.134C75.4472 253.255 75.3477 253.34 75.2102 253.393C75.0727 253.445 74.9401 253.44 74.812 253.381C74.6839 253.322 74.5941 253.222 74.5419 253.085C74.2837 252.416 74.1009 251.75 73.9875 251.089C73.8761 250.428 73.8189 249.745 73.8189 249.042C73.8189 246.759 74.6463 244.844 76.3027 243.299C77.9595 241.754 79.9383 240.981 82.2372 240.981C84.5362 240.981 86.5459 241.754 88.2093 243.299C89.8755 244.844 90.7073 246.757 90.7073 249.042C90.7073 249.9 90.4017 250.618 89.7926 251.191C89.1835 251.767 88.4418 252.054 87.5646 252.054C86.6879 252.054 85.9388 251.767 85.311 251.191C84.6851 250.615 84.3701 249.9 84.3701 249.042C84.3701 248.475 84.1592 247.999 83.7398 247.612C83.32 247.226 82.8178 247.034 82.2323 247.034C81.6469 247.034 81.1471 247.226 80.7253 247.612C80.3054 247.999 80.0945 248.475 80.0945 249.042C80.0945 250.707 80.5878 252.096 81.5759 253.212C82.562 254.329 83.8369 255.109 85.3987 255.557C85.5529 255.608 85.6569 255.694 85.7067 255.815C85.7565 255.936 85.7659 256.064 85.7328 256.201C85.6998 256.322 85.6308 256.424 85.5268 256.509C85.4248 256.595 85.2942 256.621 85.1404 256.588L85.1429 256.58ZM76.5422 238.505C76.4047 238.59 76.2672 238.611 76.1298 238.569C75.9923 238.526 75.8903 238.436 75.8217 238.298C75.7528 238.161 75.7365 238.038 75.7695 237.924C75.8026 237.81 75.8878 237.715 76.0208 237.632C76.0253 237.63 76.0278 237.628 76.0327 237.625C76.9922 237.111 77.995 236.718 79.0399 236.445C80.0876 236.17 81.1516 236.033 82.2323 236.033C83.3131 236.033 84.4032 236.165 85.4509 236.431C86.4982 236.697 87.5104 237.078 88.4891 237.576C88.6433 237.661 88.7331 237.765 88.7592 237.884C88.7853 238.002 88.771 238.123 88.7213 238.244C88.6691 238.365 88.5838 238.459 88.463 238.528C88.3423 238.597 88.1974 238.587 88.0244 238.502C87.1146 238.038 86.1759 237.682 85.2045 237.433C84.2327 237.184 83.2445 237.059 82.2299 237.059C81.2156 237.059 80.2557 237.175 79.2936 237.407C78.3316 237.64 77.4141 238.004 76.5398 238.502L76.5422 238.505ZM79.5805 256.218C78.5683 255.154 77.7911 254.068 77.2509 252.961C76.7103 251.855 76.4402 250.546 76.4402 249.034C76.4402 247.522 77.0065 246.155 78.1395 245.081C79.2724 244.008 80.6375 243.472 82.2323 243.472C83.8275 243.472 85.202 244.008 86.3513 245.081C87.501 246.155 88.0767 247.472 88.0767 249.034C88.0767 249.188 88.0293 249.314 87.9347 249.409C87.8396 249.503 87.7164 249.551 87.5602 249.551C87.4227 249.551 87.3019 249.503 87.1999 249.409C87.0979 249.314 87.0457 249.191 87.0457 249.034C87.0457 247.747 86.5696 246.669 85.6165 245.804C84.6639 244.936 83.5358 244.503 82.2299 244.503C80.9244 244.503 79.8057 244.936 78.8694 245.804C77.9334 246.672 77.4663 247.747 77.4663 249.034C77.4663 250.425 77.7058 251.606 78.1868 252.575C78.6678 253.544 79.372 254.518 80.2985 255.497C80.4005 255.599 80.4527 255.72 80.4527 255.857C80.4527 255.995 80.4005 256.116 80.2985 256.218C80.1965 256.32 80.0757 256.372 79.9383 256.372C79.8008 256.372 79.68 256.32 79.578 256.218H79.5805ZM87.3562 254.466C85.8275 254.466 84.5027 253.952 83.3796 252.921C82.256 251.89 81.6922 250.596 81.6922 249.034C81.6922 248.897 81.7395 248.776 81.8341 248.674C81.9292 248.572 82.0524 248.52 82.2087 248.52C82.3649 248.52 82.4885 248.572 82.5832 248.674C82.6778 248.776 82.7252 248.897 82.7252 249.034C82.7252 250.321 83.1899 251.378 84.1164 252.201C85.0433 253.026 86.1241 253.436 87.361 253.436C87.463 253.436 87.6099 253.426 87.7996 253.409C87.9889 253.393 88.1856 253.367 88.392 253.331C88.5458 253.298 88.6788 253.319 88.7902 253.395C88.9016 253.473 88.975 253.587 89.0081 253.744C89.0411 253.881 89.0175 254.002 88.9297 254.104C88.8445 254.205 88.7331 254.274 88.5956 254.31C88.2876 254.395 88.0175 254.442 87.7854 254.452C87.5528 254.462 87.4108 254.464 87.361 254.464L87.3562 254.466Z" fill="#28A8E8"></path><path opacity="0.25" d="M413.937 311.561C422.191 311.561 428.886 304.869 428.886 296.614C428.886 288.36 422.191 281.667 413.937 281.667C405.684 281.667 398.993 288.36 398.993 296.614C398.993 304.869 405.684 311.561 413.937 311.561Z" fill="#28A8E8"></path><path opacity="0.05" d="M413.942 315.826C424.554 315.826 433.154 307.225 433.154 296.614C433.154 286.004 424.554 277.403 413.942 277.403C403.331 277.403 394.73 286.004 394.73 296.614C394.73 307.225 403.331 315.826 413.942 315.826Z" fill="#28A8E8"></path><path opacity="0.25" d="M413.942 308.578C420.547 308.578 425.904 303.221 425.904 296.614C425.904 290.007 420.547 284.651 413.942 284.651C407.332 284.651 401.976 290.007 401.976 296.614C401.976 303.221 407.332 308.578 413.942 308.578Z" fill="#28A8E8"></path><path d="M407.214 295.173C407.12 295.115 407.067 295.039 407.038 294.947C407.014 294.854 407.038 294.753 407.112 294.65C407.834 293.542 408.768 292.663 409.915 292.011C411.057 291.362 412.297 291.001 413.631 290.934C414.961 290.867 416.234 291.088 417.446 291.6C418.658 292.112 419.682 292.887 420.53 293.928C420.612 294.037 420.645 294.138 420.62 294.225C420.6 294.312 420.555 294.392 420.481 294.46C420.408 294.527 420.322 294.561 420.22 294.558C420.118 294.555 420.029 294.507 419.951 294.412C419.209 293.466 418.282 292.761 417.169 292.294C416.055 291.826 414.888 291.625 413.668 291.687C412.448 291.748 411.318 292.067 410.278 292.643C409.237 293.22 408.389 294.015 407.736 295.031C407.663 295.148 407.581 295.215 407.479 295.232C407.377 295.249 407.287 295.229 407.21 295.17L407.214 295.173ZM416.434 304.022C415.112 303.762 414.007 303.166 413.13 302.234C412.252 301.302 411.775 300.132 411.702 298.725C411.673 298.095 411.869 297.558 412.301 297.107C412.734 296.657 413.268 296.416 413.909 296.382C414.549 296.349 415.104 296.536 415.582 296.939C416.055 297.342 416.308 297.86 416.34 298.489C416.361 298.904 416.536 299.245 416.863 299.511C417.189 299.777 417.568 299.9 417.997 299.878C418.425 299.855 418.78 299.696 419.07 299.399C419.355 299.1 419.486 298.744 419.47 298.33C419.392 296.872 418.796 295.674 417.679 294.734C416.561 293.796 415.259 293.363 413.774 293.438C412.293 293.514 411.041 294.076 410.025 295.123C409.005 296.17 408.536 297.418 408.609 298.862C408.621 299.164 408.67 299.539 408.752 299.99C408.829 300.44 408.993 300.961 409.238 301.554C409.282 301.666 409.282 301.767 409.242 301.856C409.205 301.946 409.131 302.013 409.034 302.055C408.936 302.097 408.838 302.1 408.74 302.06C408.642 302.021 408.577 301.951 408.532 301.853C408.32 301.372 408.16 300.894 408.054 300.412C407.948 299.931 407.879 299.435 407.854 298.921C407.769 297.25 408.303 295.817 409.462 294.625C410.616 293.433 412.036 292.792 413.721 292.708C415.406 292.624 416.903 293.114 418.18 294.183C419.457 295.252 420.139 296.623 420.224 298.294C420.253 298.923 420.057 299.458 419.633 299.903C419.209 300.348 418.678 300.586 418.034 300.616C417.393 300.647 416.834 300.465 416.353 300.068C415.871 299.67 415.618 299.158 415.586 298.529C415.561 298.114 415.39 297.773 415.068 297.505C414.745 297.239 414.374 297.116 413.946 297.135C413.517 297.155 413.154 297.317 412.864 297.616C412.571 297.916 412.432 298.271 412.456 298.686C412.518 299.905 412.93 300.905 413.697 301.685C414.46 302.466 415.422 302.989 416.581 303.258C416.699 303.289 416.777 303.35 416.818 303.435C416.859 303.519 416.871 303.614 416.85 303.717C416.83 303.807 416.785 303.885 416.712 303.952C416.638 304.019 416.549 304.042 416.43 304.022H416.434ZM409.462 291.107C409.364 291.174 409.266 291.197 409.164 291.169C409.062 291.141 408.98 291.079 408.927 290.981C408.874 290.883 408.858 290.794 408.878 290.71C408.903 290.626 408.956 290.553 409.054 290.486C409.054 290.486 409.058 290.483 409.062 290.48C409.743 290.069 410.461 289.744 411.22 289.504C411.975 289.263 412.75 289.123 413.542 289.084C414.333 289.045 415.137 289.101 415.912 289.258C416.687 289.414 417.446 289.655 418.176 289.982C418.295 290.038 418.364 290.111 418.388 290.198C418.409 290.284 418.409 290.374 418.372 290.464C418.34 290.553 418.282 290.626 418.197 290.682C418.107 290.738 418.001 290.735 417.874 290.682C417.189 290.377 416.487 290.15 415.769 290.005C415.051 289.859 414.321 289.803 413.578 289.842C412.848 289.879 412.134 290.002 411.441 290.206C410.747 290.411 410.086 290.713 409.466 291.11L409.462 291.107ZM412.35 303.966C411.567 303.224 410.959 302.458 410.523 301.669C410.086 300.879 409.837 299.931 409.784 298.823C409.727 297.714 410.09 296.693 410.882 295.864C411.669 295.036 412.648 294.594 413.819 294.532C414.986 294.474 416.014 294.815 416.895 295.557C417.777 296.299 418.246 297.241 418.303 298.386C418.311 298.498 418.278 298.593 418.213 298.666C418.152 298.739 418.062 298.778 417.944 298.784C417.846 298.789 417.756 298.758 417.679 298.694C417.597 298.629 417.556 298.54 417.552 298.425C417.503 297.482 417.116 296.713 416.385 296.114C415.655 295.515 414.81 295.238 413.856 295.288C412.901 295.336 412.097 295.697 411.445 296.365C410.792 297.035 410.49 297.84 410.539 298.784C410.592 299.802 410.808 300.655 411.2 301.35C411.587 302.041 412.138 302.729 412.852 303.412C412.93 303.485 412.975 303.569 412.979 303.67C412.983 303.77 412.95 303.86 412.877 303.938C412.803 304.016 412.722 304.058 412.62 304.064C412.518 304.07 412.432 304.036 412.35 303.963V303.966ZM417.976 302.393C416.859 302.449 415.867 302.122 415.006 301.411C414.146 300.697 413.689 299.771 413.627 298.627C413.623 298.526 413.652 298.436 413.717 298.358C413.782 298.28 413.872 298.238 413.986 298.232C414.101 298.227 414.194 298.26 414.264 298.33C414.337 298.4 414.378 298.489 414.382 298.587C414.431 299.531 414.81 300.286 415.52 300.854C416.23 301.422 417.038 301.685 417.94 301.638C418.017 301.635 418.123 301.621 418.258 301.601C418.397 301.582 418.539 301.557 418.69 301.523C418.801 301.492 418.898 301.504 418.984 301.557C419.07 301.61 419.127 301.691 419.155 301.803C419.188 301.901 419.176 301.99 419.115 302.069C419.058 302.147 418.98 302.203 418.878 302.231C418.654 302.306 418.458 302.351 418.291 302.365C418.123 302.379 418.017 302.388 417.981 302.39L417.976 302.393Z" fill="#28A8E8"></path><path d="M57.9052 274.041C55.8363 274.041 54.0351 273.372 52.5015 272.036C50.9683 270.699 50.0654 269.024 49.7929 267.014H47.3609C47.0292 267.014 46.7522 266.903 46.527 266.677C46.3018 266.452 46.1904 266.175 46.1904 265.843C46.1904 265.511 46.3018 265.234 46.527 265.009C46.7522 264.784 47.0292 264.672 47.3609 264.672H49.7929C50.0654 262.662 50.9683 260.987 52.5015 259.65C54.0351 258.314 55.8339 257.646 57.9052 257.646C59.9765 257.646 61.7753 258.314 63.3085 259.65C64.8421 260.987 65.7449 262.662 66.0175 264.672H68.449C68.7807 264.672 69.0581 264.784 69.2833 265.009C69.5086 265.234 69.6199 265.511 69.6199 265.843C69.6199 266.175 69.5086 266.452 69.2833 266.677C69.0581 266.903 68.7807 267.014 68.449 267.014H66.0175C65.7449 269.024 64.8421 270.699 63.3085 272.036C61.7753 273.372 59.9765 274.041 57.9052 274.041ZM55.5634 269.941H60.249C60.5807 269.941 60.8581 269.829 61.0833 269.604C61.3085 269.379 61.4199 269.102 61.4199 268.77V265.255C61.4199 264.923 61.3085 264.646 61.0833 264.421C60.8581 264.196 60.5807 264.085 60.249 264.085V263.03C60.249 262.347 60.0238 261.767 59.5759 261.288C59.1279 260.809 58.571 260.57 57.9076 260.57C57.2438 260.57 56.7106 260.8 56.2533 261.257C55.7935 261.717 55.5658 262.267 55.5658 262.911V264.082C55.2341 264.082 54.9567 264.194 54.7315 264.419C54.5067 264.644 54.3953 264.921 54.3953 265.253V268.767C54.3953 269.1 54.5067 269.377 54.7315 269.602C54.9567 269.827 55.2341 269.938 55.5658 269.938L55.5634 269.941ZM57.9052 267.891C57.6514 267.891 57.4405 267.808 57.2749 267.642C57.1088 267.476 57.026 267.265 57.026 267.012C57.026 266.758 57.1088 266.547 57.2749 266.381C57.4405 266.215 57.6514 266.132 57.9052 266.132C58.1585 266.132 58.3695 266.215 58.5355 266.381C58.7016 266.547 58.7844 266.758 58.7844 267.012C58.7844 267.265 58.7016 267.476 58.5355 267.642C58.3695 267.808 58.1585 267.891 57.9052 267.891ZM56.7343 264.085V262.914C56.7343 262.582 56.8457 262.305 57.0709 262.079C57.2961 261.854 57.5735 261.743 57.9052 261.743C58.2369 261.743 58.5143 261.854 58.7395 262.079C58.9643 262.305 59.0757 262.582 59.0757 262.914V264.085H56.7343Z" fill="#1678D1"></path><path d="M444.993 227.725L443.194 225.929C442.936 225.671 442.639 225.542 442.296 225.542C441.953 225.542 441.655 225.671 441.398 225.929C441.141 226.186 441.011 226.491 441.011 226.844C441.011 227.196 441.141 227.501 441.398 227.759L444.091 230.484C444.352 230.742 444.65 230.871 444.993 230.871C445.331 230.871 445.633 230.742 445.89 230.484L451.341 225.033C451.598 224.776 451.728 224.471 451.728 224.118C451.728 223.765 451.598 223.46 451.341 223.203C451.084 222.946 450.778 222.817 450.427 222.817C450.072 222.817 449.77 222.946 449.509 223.203L444.989 227.725H444.993ZM446.339 239.526C446.188 239.526 446.049 239.515 445.919 239.495C445.792 239.476 445.662 239.442 445.535 239.4C442.651 238.437 440.35 236.658 438.64 234.061C436.927 231.464 436.074 228.668 436.074 225.674V219.612C436.074 219.078 436.225 218.597 436.535 218.169C436.849 217.74 437.249 217.43 437.739 217.24L445.437 214.354C445.735 214.248 446.033 214.195 446.335 214.195C446.633 214.195 446.935 214.248 447.233 214.354L454.927 217.24C455.421 217.433 455.82 217.743 456.131 218.169C456.441 218.597 456.596 219.078 456.596 219.612V225.674C456.596 228.668 455.739 231.464 454.029 234.061C452.32 236.658 450.019 238.437 447.135 239.4C447.004 239.442 446.878 239.476 446.747 239.495C446.621 239.515 446.482 239.526 446.331 239.526H446.339Z" fill="#4080D8"></path><path opacity="0.25" d="M363.753 189.365C381.631 189.365 396.122 174.874 396.122 156.998C396.122 139.122 381.631 124.631 363.753 124.631C345.879 124.631 331.388 139.122 331.388 156.998C331.388 174.874 345.879 189.365 363.753 189.365Z" fill="#28A8E8"></path><path opacity="0.05" d="M363.757 198.603C386.735 198.603 405.359 179.976 405.359 156.999C405.359 134.021 386.735 115.394 363.757 115.394C340.78 115.394 322.151 134.021 322.151 156.999C322.151 179.976 340.78 198.603 363.757 198.603Z" fill="#28A8E8"></path><path opacity="0.25" d="M363.757 182.907C378.064 182.907 389.663 171.307 389.663 156.998C389.663 142.69 378.064 131.09 363.757 131.09C349.449 131.09 337.846 142.69 337.846 156.998C337.846 171.307 349.449 182.907 363.757 182.907Z" fill="#28A8E8"></path><path d="M349.371 153.145C349.179 153.01 349.065 152.839 349.02 152.633C348.983 152.429 349.045 152.218 349.208 152C350.897 149.684 353.014 147.886 355.564 146.604C358.11 145.324 360.827 144.682 363.72 144.682C366.608 144.682 369.333 145.303 371.896 146.542C374.458 147.782 376.595 149.573 378.313 151.917C378.476 152.161 378.529 152.379 378.476 152.571C378.423 152.761 378.313 152.924 378.15 153.062C377.987 153.199 377.795 153.258 377.579 153.247C377.358 153.235 377.171 153.116 377.008 152.898C375.51 150.773 373.581 149.144 371.222 148.014C368.864 146.883 366.363 146.317 363.72 146.317C361.076 146.317 358.595 146.883 356.282 148.014C353.965 149.144 352.043 150.773 350.517 152.898C350.354 153.143 350.162 153.28 349.946 153.306C349.73 153.332 349.538 153.278 349.375 153.143L349.371 153.145ZM368.338 173.299C365.507 172.591 363.189 171.18 361.39 169.068C359.591 166.957 358.693 164.374 358.693 161.321C358.693 159.958 359.183 158.814 360.166 157.887C361.145 156.96 362.332 156.498 363.724 156.498C365.115 156.498 366.298 156.96 367.281 157.887C368.26 158.814 368.75 159.958 368.75 161.321C368.75 162.219 369.093 162.978 369.774 163.589C370.455 164.203 371.259 164.509 372.185 164.509C373.111 164.509 373.903 164.203 374.556 163.589C375.208 162.975 375.539 162.219 375.539 161.321C375.539 158.159 374.38 155.503 372.063 153.349C369.746 151.197 366.979 150.118 363.764 150.118C360.546 150.118 357.779 151.194 355.462 153.349C353.149 155.501 351.99 158.146 351.99 161.278C351.99 161.932 352.051 162.75 352.174 163.731C352.296 164.712 352.59 165.857 353.055 167.166C353.133 167.41 353.128 167.627 353.031 167.82C352.937 168.009 352.782 168.147 352.561 168.227C352.345 168.308 352.133 168.303 351.929 168.206C351.725 168.111 351.582 167.955 351.501 167.737C351.093 166.675 350.799 165.618 350.623 164.568C350.444 163.518 350.354 162.435 350.354 161.319C350.354 157.695 351.672 154.655 354.303 152.202C356.931 149.749 360.072 148.523 363.724 148.523C367.379 148.523 370.566 149.749 373.209 152.202C375.853 154.655 377.175 157.693 377.175 161.319C377.175 162.682 376.689 163.819 375.722 164.732C374.756 165.644 373.576 166.101 372.189 166.101C370.798 166.101 369.607 165.644 368.611 164.732C367.616 163.819 367.118 162.682 367.118 161.319C367.118 160.42 366.784 159.662 366.114 159.051C365.449 158.437 364.65 158.131 363.724 158.131C362.798 158.131 362.002 158.437 361.333 159.051C360.664 159.665 360.333 160.42 360.333 161.319C360.333 163.961 361.117 166.17 362.683 167.94C364.25 169.711 366.274 170.953 368.754 171.661C368.999 171.742 369.162 171.879 369.244 172.069C369.325 172.258 369.342 172.465 369.284 172.683C369.231 172.872 369.121 173.036 368.958 173.174C368.795 173.309 368.591 173.351 368.346 173.297L368.338 173.299ZM354.687 144.601C354.467 144.736 354.25 144.772 354.03 144.703C353.814 144.634 353.651 144.492 353.541 144.274C353.434 144.056 353.406 143.859 353.459 143.681C353.516 143.506 353.647 143.352 353.863 143.217C353.867 143.212 353.875 143.21 353.879 143.205C355.405 142.39 356.996 141.764 358.653 141.331C360.313 140.895 362.006 140.676 363.724 140.676C365.441 140.676 367.171 140.887 368.832 141.309C370.492 141.731 372.104 142.338 373.654 143.129C373.899 143.264 374.046 143.428 374.082 143.62C374.123 143.812 374.107 144.001 374.021 144.191C373.944 144.381 373.805 144.533 373.613 144.641C373.425 144.75 373.193 144.736 372.92 144.601C371.475 143.866 369.986 143.3 368.444 142.904C366.902 142.509 365.331 142.312 363.724 142.312C362.116 142.312 360.59 142.497 359.065 142.864C357.539 143.231 356.078 143.812 354.687 144.601ZM359.509 172.728C357.902 171.038 356.666 169.315 355.809 167.556C354.952 165.798 354.524 163.719 354.524 161.321C354.524 158.923 355.421 156.749 357.221 155.045C359.02 153.342 361.186 152.491 363.72 152.491C366.257 152.491 368.436 153.342 370.26 155.045C372.087 156.749 373.001 158.84 373.001 161.321C373.001 161.565 372.924 161.764 372.777 161.914C372.626 162.063 372.426 162.139 372.185 162.139C371.965 162.139 371.777 162.063 371.614 161.914C371.451 161.764 371.369 161.565 371.369 161.321C371.369 159.278 370.61 157.567 369.101 156.19C367.587 154.813 365.796 154.126 363.724 154.126C361.655 154.126 359.876 154.813 358.391 156.19C356.906 157.567 356.164 159.276 356.164 161.321C356.164 163.528 356.543 165.402 357.306 166.943C358.069 168.483 359.187 170.028 360.66 171.583C360.823 171.747 360.905 171.936 360.905 172.154C360.905 172.372 360.823 172.562 360.66 172.726C360.497 172.889 360.305 172.97 360.089 172.97C359.868 172.97 359.681 172.889 359.517 172.726L359.509 172.728ZM371.855 169.948C369.431 169.948 367.322 169.13 365.539 167.495C363.752 165.86 362.859 163.803 362.859 161.321C362.859 161.103 362.936 160.914 363.087 160.75C363.234 160.587 363.434 160.506 363.679 160.506C363.924 160.506 364.119 160.587 364.27 160.75C364.421 160.914 364.495 161.103 364.495 161.321C364.495 163.364 365.229 165.042 366.702 166.35C368.175 167.658 369.888 168.312 371.851 168.312C372.014 168.312 372.246 168.298 372.544 168.272C372.846 168.246 373.16 168.204 373.487 168.149C373.731 168.095 373.944 168.128 374.119 168.251C374.299 168.374 374.413 168.557 374.47 168.803C374.523 169.021 374.482 169.211 374.343 169.374C374.209 169.538 374.033 169.647 373.813 169.701C373.323 169.836 372.895 169.912 372.528 169.926C372.161 169.941 371.936 169.948 371.851 169.948H371.855Z" fill="#28A8E8"></path><path d="M341.139 133.68C337.99 133.68 335.248 132.661 332.914 130.625C330.581 128.589 329.21 126.041 328.79 122.979H325.093C324.588 122.979 324.163 122.809 323.821 122.467C323.482 122.126 323.311 121.702 323.311 121.197C323.311 120.692 323.482 120.268 323.821 119.927C324.163 119.586 324.588 119.415 325.093 119.415H328.79C329.21 116.353 330.581 113.805 332.914 111.769C335.248 109.734 337.99 108.715 341.139 108.715C344.293 108.715 347.035 109.734 349.368 111.769C351.698 113.805 353.073 116.353 353.489 119.415H357.189C357.695 119.415 358.119 119.586 358.462 119.927C358.801 120.268 358.972 120.692 358.972 121.197C358.972 121.702 358.801 122.126 358.462 122.467C358.119 122.809 357.695 122.979 357.189 122.979H353.489C353.073 126.041 351.698 128.589 349.368 130.625C347.035 132.661 344.293 133.68 341.139 133.68ZM337.574 127.437H344.709C345.211 127.437 345.635 127.267 345.978 126.925C346.321 126.584 346.488 126.16 346.488 125.655V120.306C346.488 119.801 346.321 119.377 345.978 119.036C345.635 118.694 345.211 118.524 344.709 118.524V116.919C344.709 115.879 344.366 114.995 343.681 114.267C343 113.54 342.151 113.175 341.139 113.175C340.132 113.175 339.32 113.523 338.622 114.223C337.924 114.921 337.574 115.761 337.574 116.742V118.524C337.068 118.524 336.643 118.694 336.305 119.036C335.962 119.377 335.791 119.801 335.791 120.306V125.655C335.791 126.16 335.962 126.584 336.305 126.925C336.643 127.267 337.068 127.437 337.574 127.437ZM341.139 124.316C340.756 124.316 340.433 124.19 340.185 123.937C339.932 123.683 339.805 123.366 339.805 122.979C339.805 122.593 339.932 122.273 340.185 122.022C340.438 121.769 340.756 121.643 341.139 121.643C341.527 121.643 341.849 121.769 342.098 122.022C342.351 122.276 342.477 122.593 342.477 122.979C342.477 123.366 342.351 123.686 342.098 123.937C341.845 124.19 341.527 124.316 341.139 124.316ZM339.36 118.521V116.739C339.36 116.235 339.528 115.81 339.87 115.469C340.213 115.128 340.637 114.957 341.139 114.957C341.645 114.957 342.069 115.128 342.412 115.469C342.751 115.81 342.922 116.235 342.922 116.739V118.521H339.356H339.36Z" fill="#1678D1"></path><path d="M221.436 43.0906C186.694 54.9787 163.234 125.756 163.234 203.629C163.234 281.502 187.001 360.993 222.283 383.321C266.499 411.303 310.895 342.937 310.157 224.553C309.426 107.347 264.834 28.243 221.437 43.0906H221.436ZM216.284 209.573C216.314 210.133 216.332 210.672 216.332 211.19C216.332 211.708 216.318 212.243 216.289 212.793C216.261 213.344 216.217 213.837 216.157 214.272L229.464 235.215C230.015 234.172 230.634 233.389 231.323 232.867C232.012 232.346 232.74 232.156 233.506 232.306C235.178 232.63 236.619 234.285 237.818 237.279C239.025 240.294 239.637 243.793 239.65 247.757C239.666 251.724 239.07 254.944 237.883 257.403C236.699 259.849 235.267 260.837 233.592 260.38C231.931 259.929 230.529 258.193 229.376 255.186C228.231 252.2 227.658 248.795 227.648 244.959C227.648 244.422 227.661 243.869 227.692 243.302C227.723 242.734 227.771 242.228 227.832 241.781L214.642 220.677C214.137 221.695 213.573 222.46 212.95 222.974C212.331 223.486 211.682 223.68 211.009 223.557C209.551 223.293 208.32 221.802 207.309 219.098C206.306 216.411 205.801 213.277 205.796 209.686C205.79 206.097 206.281 203.109 207.275 200.708C208.274 198.295 209.5 197.157 210.955 197.307C211.629 197.376 212.277 197.754 212.898 198.442C213.522 199.133 214.09 200.058 214.598 201.218L227.671 183.917C227.606 183.455 227.556 182.937 227.521 182.363C227.487 181.79 227.47 181.236 227.468 180.701C227.458 176.888 228.013 173.665 229.137 171.02C230.268 168.36 231.657 167.033 233.31 167.056C234.979 167.077 236.412 168.464 237.607 171.227C238.809 174.01 239.421 177.38 239.433 181.322C239.446 185.265 238.855 188.576 237.67 191.238C236.49 193.885 235.063 195.124 233.393 194.973C232.629 194.904 231.902 194.509 231.208 193.791C230.518 193.076 229.894 192.119 229.338 190.922L216.14 208.05C216.201 208.503 216.247 209.007 216.28 209.567L216.284 209.573Z" fill="#1678D1"></path><path d="M170.79 204.401H28.4501C27.914 204.401 27.4795 204.835 27.4795 205.371V216.628C27.4795 217.164 27.914 217.599 28.4501 217.599H170.79C171.326 217.599 171.76 217.164 171.76 216.628V205.371C171.76 204.835 171.326 204.401 170.79 204.401Z" fill="white"></path><path d="M137.177 149.896H65.3866C64.8505 149.896 64.416 150.33 64.416 150.866V162.123C64.416 162.659 64.8505 163.094 65.3866 163.094H137.177C137.713 163.094 138.147 162.659 138.147 162.123V150.866C138.147 150.33 137.713 149.896 137.177 149.896Z" fill="white"></path><path d="M168.079 149.896H140.88C140.344 149.896 139.909 150.33 139.909 150.866V162.123C139.909 162.659 140.344 163.094 140.88 163.094H168.079C168.616 163.094 169.05 162.659 169.05 162.123V150.866C169.05 150.33 168.616 149.896 168.079 149.896Z" fill="white"></path><path d="M123 198.372V171.174C123 170.637 122.706 170.203 122.346 170.203H28.1335C27.7708 170.203 27.4795 170.639 27.4795 171.174V198.372C27.4795 198.909 27.7728 199.342 28.1335 199.342H122.346C122.708 199.342 123 198.907 123 198.372Z" fill="white"></path><path d="M154.826 170.202H127.627C127.091 170.202 126.656 170.637 126.656 171.172V198.372C126.656 198.908 127.091 199.343 127.627 199.343H154.826C155.363 199.343 155.797 198.908 155.797 198.372V171.172C155.797 170.637 155.363 170.202 154.826 170.202Z" fill="white"></path><g opacity="0.35"><path d="M171.016 204.401H28.2237C27.8124 204.401 27.4795 204.734 27.4795 205.145V216.854C27.4795 217.266 27.8124 217.599 28.2237 217.599H171.016C171.427 217.599 171.76 217.266 171.76 216.854V205.145C171.76 204.734 171.427 204.401 171.016 204.401Z" fill="white"></path><path d="M171.016 204.401H28.2237C27.8124 204.401 27.4795 204.734 27.4795 205.145V216.854C27.4795 217.266 27.8124 217.599 28.2237 217.599H171.016C171.427 217.599 171.76 217.266 171.76 216.854V205.145C171.76 204.734 171.427 204.401 171.016 204.401Z" fill="url(#paint5_linear_1277_6351)"></path></g><g opacity="0.75"><path d="M238.225 183.475H156.743C156.223 183.475 155.8 183.039 155.8 182.502V171.247C155.8 170.71 156.223 170.274 156.743 170.274H235.473C238.269 174.755 238.399 180.446 238.225 183.473V183.475Z" fill="white"></path><path d="M238.225 183.475H156.743C156.223 183.475 155.8 183.039 155.8 182.502V171.247C155.8 170.71 156.223 170.274 156.743 170.274H235.473C238.269 174.755 238.399 180.446 238.225 183.473V183.475Z" fill="url(#paint6_linear_1277_6351)"></path></g><g opacity="0.35"><path d="M136.317 149.896H64.0742C63.6634 149.896 63.3301 150.229 63.3301 150.64V162.35C63.3301 162.76 63.6634 163.094 64.0742 163.094H136.317C136.728 163.094 137.062 162.76 137.062 162.35V150.64C137.062 150.229 136.728 149.896 136.317 149.896Z" fill="white"></path><path d="M136.317 149.896H64.0742C63.6634 149.896 63.3301 150.229 63.3301 150.64V162.35C63.3301 162.76 63.6634 163.094 64.0742 163.094H136.317C136.728 163.094 137.062 162.76 137.062 162.35V150.64C137.062 150.229 136.728 149.896 136.317 149.896Z" fill="url(#paint7_linear_1277_6351)"></path></g><path d="M168.306 149.896H140.653C140.242 149.896 139.909 150.229 139.909 150.64V162.35C139.909 162.76 140.242 163.094 140.653 163.094H168.306C168.717 163.094 169.05 162.76 169.05 162.35V150.64C169.05 150.229 168.717 149.896 168.306 149.896Z" fill="#1678D1"></path><g opacity="0.75"><path d="M118.116 170.202H28.2237C27.8124 170.202 27.4795 170.535 27.4795 170.946V198.598C27.4795 199.01 27.8124 199.343 28.2237 199.343H118.116C118.527 199.343 118.861 199.01 118.861 198.598V170.946C118.861 170.535 118.527 170.202 118.116 170.202Z" fill="white"></path><path d="M118.116 170.202H28.2237C27.8124 170.202 27.4795 170.535 27.4795 170.946V198.598C27.4795 199.01 27.8124 199.343 28.2237 199.343H118.116C118.527 199.343 118.861 199.01 118.861 198.598V170.946C118.861 170.535 118.527 170.202 118.116 170.202Z" fill="url(#paint8_linear_1277_6351)"></path></g><path d="M150.913 170.202H123.261C122.85 170.202 122.517 170.535 122.517 170.946V198.598C122.517 199.01 122.85 199.343 123.261 199.343H150.913C151.324 199.343 151.657 199.01 151.657 198.598V170.946C151.657 170.535 151.324 170.202 150.913 170.202Z" fill="#1678D1"></path><g opacity="0.75"><path d="M211.779 217.599H175.15C174.913 217.599 174.721 217.164 174.721 216.625V205.375C174.721 204.84 174.914 204.401 175.15 204.401H211.421C212.908 208.222 213.534 212.706 211.781 217.595L211.779 217.599Z" fill="white"></path><path d="M211.779 217.599H175.15C174.913 217.599 174.721 217.164 174.721 216.625V205.375C174.721 204.84 174.914 204.401 175.15 204.401H211.421C212.908 208.222 213.534 212.706 211.781 217.595L211.779 217.599Z" fill="url(#paint9_linear_1277_6351)"></path></g><path d="M89.09 141.585L87.2055 139.701C86.9355 139.431 86.6226 139.298 86.2623 139.298C85.9025 139.298 85.5895 139.433 85.3191 139.701C85.049 139.971 84.9164 140.291 84.9164 140.661C84.9164 141.031 85.0514 141.351 85.3191 141.621L88.1468 144.481C88.4168 144.752 88.7298 144.884 89.09 144.884C89.4503 144.884 89.7628 144.749 90.0333 144.481L95.7564 138.758C96.0269 138.488 96.1595 138.168 96.1595 137.798C96.1595 137.428 96.0245 137.109 95.7564 136.838C95.4888 136.568 95.1665 136.435 94.7969 136.435C94.4272 136.435 94.107 136.57 93.8369 136.838L89.09 141.585ZM90.5049 153.973C90.3482 153.973 90.2014 153.961 90.0663 153.94C89.9313 153.919 89.7962 153.883 89.6632 153.838C86.6344 152.828 84.222 150.961 82.4257 148.233C80.6289 145.505 79.7334 142.571 79.7334 139.431V133.068C79.7334 132.506 79.8966 132.001 80.2213 131.553C80.5461 131.105 80.9679 130.778 81.4848 130.577L89.5637 127.548C89.8791 127.437 90.192 127.38 90.5069 127.38C90.8223 127.38 91.1352 127.437 91.4502 127.548L99.5294 130.577C100.046 130.778 100.466 131.105 100.793 131.553C101.117 132.001 101.281 132.506 101.281 133.068V139.431C101.281 142.573 100.383 145.508 98.5886 148.233C96.7923 150.961 94.3795 152.828 91.3506 153.838C91.2156 153.883 91.0806 153.916 90.948 153.94C90.8154 153.963 90.6681 153.973 90.5094 153.973H90.5049Z" fill="#4080D8"></path><path d="M239.172 253.675H118.853C118.06 253.675 117.414 253.24 117.414 252.702V241.447C117.414 240.91 118.06 240.475 118.853 240.475H238.774C238.849 240.555 238.924 240.636 238.996 240.719C239.249 241.963 239.494 243.797 239.653 246.477C239.849 249.775 239.547 252.112 239.168 253.675H239.172Z" fill="white"></path><g opacity="0.75"><path d="M239.172 253.675H118.853C118.06 253.675 117.414 253.24 117.414 252.702V241.447C117.414 240.91 118.06 240.475 118.853 240.475H238.774C238.849 240.555 238.924 240.636 238.996 240.719C239.249 241.963 239.494 243.797 239.653 246.477C239.849 249.775 239.547 252.112 239.168 253.675H239.172Z" fill="white"></path><path d="M239.172 253.675H118.853C118.06 253.675 117.414 253.24 117.414 252.702V241.447C117.414 240.91 118.06 240.475 118.853 240.475H238.774C238.849 240.555 238.924 240.636 238.996 240.719C239.249 241.963 239.494 243.797 239.653 246.477C239.849 249.775 239.547 252.112 239.168 253.675H239.172Z" fill="url(#paint10_linear_1277_6351)"></path></g><path d="M238.274 238.363C238.215 238.276 238.177 238.219 238.166 238.196C238.183 238.215 238.221 238.267 238.274 238.363Z" fill="white"></path><path d="M238.274 238.363C238.215 238.276 238.177 238.219 238.166 238.196C238.183 238.215 238.221 238.267 238.274 238.363Z" fill="url(#paint11_linear_1277_6351)"></path><path d="M232.677 304.355C235.426 304.227 237.654 301.342 237.654 297.911C237.654 294.48 235.426 291.803 232.677 291.931C229.928 292.059 227.699 294.945 227.699 298.376C227.699 301.806 229.928 304.484 232.677 304.355Z" fill="#99C9FB"></path><path d="M235.231 295.435C235.156 295.349 235.056 295.304 234.953 295.309C234.849 295.314 234.75 295.368 234.675 295.461C233.619 296.561 232.67 297.815 231.85 299.193C231.649 298.717 231.448 298.24 231.247 297.763C231.015 297.213 230.336 297.741 230.568 298.29C230.862 298.987 231.157 299.685 231.451 300.381C231.487 300.452 231.536 300.51 231.596 300.549C231.655 300.588 231.722 300.607 231.791 300.603C231.859 300.6 231.926 300.575 231.985 300.531C232.044 300.486 232.094 300.424 232.13 300.35C233.003 298.774 234.047 297.352 235.231 296.128C235.304 296.033 235.345 295.906 235.345 295.776C235.345 295.646 235.304 295.524 235.231 295.435Z" fill="white"></path><path d="M210.405 316.798L202.899 302.437L211.591 296.222L213.872 307.34L229.946 317.429C230.58 317.115 231.268 317.034 231.924 317.198C232.58 317.361 233.177 317.761 233.642 318.35C234.106 318.938 234.419 319.69 234.541 320.512C234.663 321.334 234.589 322.191 234.329 322.98C234.069 323.769 233.633 324.454 233.075 324.953C232.517 325.452 231.861 325.742 231.187 325.789C230.512 325.836 229.849 325.637 229.277 325.217C228.706 324.797 228.251 324.174 227.968 323.423L210.405 316.798Z" fill="#A0616A"></path><path d="M197.415 285.048C195.056 289.48 203.437 304.797 203.437 304.797C203.846 303.679 207.748 315.832 208.402 315.073C210.26 312.915 213.168 307.011 214.785 306.678C215.71 306.488 212.641 298.448 212.641 298.448C212.641 298.448 211.239 293.681 209.335 287.598C208.823 285.864 207.963 284.337 206.835 283.158C205.707 281.98 204.348 281.189 202.884 280.858C202.884 280.858 199.773 280.616 197.415 285.048Z" fill="#3F3D56"></path><path d="M197.529 425.841L201.094 425.674L202.79 408.435L197.528 408.681L197.529 425.841Z" fill="#A0616A"></path><path d="M196.62 424.43L197.623 424.383L201.541 422.212L203.64 424.102C204.827 424.047 205.965 424.582 206.804 425.59C207.643 426.597 208.114 427.997 208.114 429.478V429.657L196.62 430.196V424.43Z" fill="#2F2E41"></path><path d="M214.091 425.067L217.656 424.901L219.352 407.661L214.091 407.907L214.091 425.067Z" fill="#A0616A"></path><path d="M213.18 423.655L214.183 423.608L218.1 421.437L220.2 423.327C221.387 423.272 222.525 423.807 223.364 424.815C224.203 425.823 224.674 427.221 224.674 428.702V428.881L213.18 429.42L213.18 423.655Z" fill="#2F2E41"></path><path d="M215.634 331.18L192.447 332.986C188.044 336.176 187.977 342.64 189.42 350.244C189.42 350.244 188.932 354.826 189.906 355.996C190.881 357.167 191.368 357.144 190.881 359.294C190.393 361.445 192.967 364.8 192.655 365.204C192.342 365.609 191.611 367.771 191.611 367.771L194.047 384.983C194.047 384.983 195.751 414.995 196.239 415.58C196.726 416.165 197.213 415.534 196.726 417.077C196.239 418.619 195.751 418.034 196.239 418.619C196.67 419.18 197.077 419.77 197.456 420.386L203.345 420.111C203.345 420.111 203.789 417.051 203.789 416.747C203.789 416.443 204.276 414.597 204.276 414.293C204.276 413.989 203.845 413.472 203.845 413.472C203.697 412.861 203.596 412.231 203.545 411.591C203.545 410.983 202.084 387.647 202.084 387.647L205.006 357.115L212.069 386.573C212.069 386.573 212.069 412.713 212.556 413.299C213.043 413.884 213.043 413.58 212.8 414.807C212.556 416.034 211.582 415.775 212.313 416.653C213.043 417.531 213.287 416 213.043 417.531L212.8 419.062L220.106 418.852C220.106 418.852 221.08 416.244 220.593 415.355C220.106 414.466 220.135 414.713 220.73 413.193C221.324 411.674 221.567 411.358 221.324 411.065C221.08 410.773 221.08 409.156 221.08 409.156L219.863 380.13C219.863 380.13 219.619 349.442 219.619 348.53C219.601 348.062 219.67 347.591 219.821 347.153V345.916L218.888 341.573L215.634 331.18Z" fill="#2F2E41"></path><path d="M201.705 271.657C205.683 271.472 208.909 267.296 208.909 262.33C208.909 257.365 205.683 253.49 201.705 253.675C197.725 253.861 194.5 258.037 194.5 263.003C194.5 267.969 197.725 271.844 201.705 271.657Z" fill="#A0616A"></path><path d="M205.307 277.433C206.859 278.512 207.788 280.585 208.321 282.713C209.308 286.653 209.902 290.747 210.09 294.903L210.652 307.347L217.624 333.575C211.582 340.238 188.87 336.367 188.87 336.367C188.87 336.367 188.173 336.11 188.87 335.207C189.567 334.305 190.246 335.044 189.549 334.206C188.852 333.369 189.332 334.316 189.565 333.434C189.797 332.554 189.565 333.144 189.332 332.865C189.1 332.586 191.132 329.881 191.132 329.881L189.272 314.726L186.948 284.091C189.737 279.61 195.346 276.783 195.346 276.783L196.795 273.46L204.041 273.846L205.307 277.433Z" fill="#3F3D56"></path><path d="M207.645 257.613C208.205 258.107 208.62 258.815 208.831 259.637C208.912 258.275 208.918 256.911 208.847 255.556C208.762 254.605 208.223 254.415 207.599 254.195C207.036 253.997 206.399 253.773 206.228 252.854C203.963 250.21 200.021 250.532 197.323 251.618C195.839 252.215 194.984 252.933 194.908 253.333L194.892 253.416L194.832 253.456C193.687 254.224 193.464 256.489 193.479 258.254C193.507 261.58 194.428 265.316 194.946 265.598C194.974 265.613 194.981 265.607 194.992 265.594C195.773 264.779 196.726 265.572 197.144 266.008C197.391 263.929 198.186 261.987 199.402 260.492C200.618 258.998 202.185 258.037 203.853 257.763C204.398 257.672 204.939 257.534 205.471 257.349C205.74 257.249 206.018 257.191 206.296 257.176C206.776 257.144 207.247 257.296 207.645 257.613Z" fill="#2F2E41"></path><path d="M252.365 336.629L266.224 318.419L269.875 304.202L264 301.51C261.087 305.31 258.093 316.667 258.093 316.667L248.636 332.952C248.558 332.99 248.485 333.031 248.407 333.078C247.975 333.355 247.6 333.765 247.318 334.269C247.041 334.772 246.869 335.352 246.82 335.952C246.771 336.552 246.845 337.152 247.037 337.694C247.228 338.237 247.53 338.703 247.914 339.047C248.301 339.392 248.75 339.604 249.227 339.662C249.705 339.72 250.19 339.623 250.639 339.38C251.088 339.137 251.48 338.756 251.781 338.274C252.087 337.792 252.287 337.226 252.365 336.629Z" fill="#FFB8B8"></path><path d="M262.398 303.192L269.828 305.528L269.856 305.52C272.59 304.731 274.748 298.965 276.078 294.267C276.519 292.718 276.474 291.041 275.96 289.574C275.442 288.108 274.491 286.962 273.3 286.368C272.418 285.938 271.447 285.829 270.497 286.053C269.55 286.278 268.661 286.828 267.931 287.641L264.226 291.795L262.398 303.192Z" fill="#99C9FB"></path><path d="M256.041 422.587L252.043 422.774L250.142 403.626L256.041 403.351V422.587Z" fill="#FFB8B8"></path><path d="M257.061 420.912L255.935 420.965L251.545 418.941L249.191 421.279C247.861 421.341 246.584 422.06 245.646 423.278C244.703 424.496 244.173 426.112 244.173 427.772V427.976L257.061 427.377V420.912Z" fill="#2F2E41"></path><path d="M273.772 421.76L269.774 421.946L267.877 402.799L273.772 402.524V421.76Z" fill="#FFB8B8"></path><path d="M274.793 420.084L273.667 420.136L269.277 418.113L266.923 420.451C265.593 420.513 264.316 421.232 263.378 422.45C262.435 423.667 261.909 425.284 261.909 426.944V427.148L274.793 426.548V420.084Z" fill="#2F2E41"></path><path d="M279.867 338.619C279.867 338.619 280.333 345.585 279.166 352.337C277.999 359.088 277.999 377.949 277.999 377.949L275.433 414.822L267.734 414.308L265.633 352.968L258.167 373.99L258.869 376.869L257.934 377.64C257.934 377.64 258.636 383.286 258.167 383.308C257.702 383.329 256.535 384.257 256.535 384.257L257.469 414.205L249.534 414.284L246.735 372.194L249.771 347.885L250.003 343.215L251.052 343.22L251.586 341.249L252.569 337.854L279.867 338.619Z" fill="#2F2E41"></path><path d="M280.266 340.066L280.307 339.991C282.531 336.008 279.189 326.839 278.688 325.511L280.809 324.553L280.332 319.506L280.103 317.257L281.727 315.158L281.731 315.107L282.661 304.872L284.02 298.04C284.53 295.457 284.489 292.777 283.893 290.274C283.298 287.77 282.176 285.535 280.642 283.796L277.504 280.252L273.694 273.391L267.546 273.678L265.436 278.745C263.392 279.429 261.581 280.979 260.316 283.125C259.047 285.27 258.407 287.874 258.505 290.484L258.982 303.493L257.114 319.804V322.74L255.008 325.758L255.465 328.604L253.866 329.535L253.16 333.686C252.866 334.182 250.933 337.487 250.933 338.366C250.933 338.498 251.01 338.621 251.181 338.755C252.495 339.806 259.774 341.735 262.993 339.976C266.424 338.104 280.058 340.036 280.197 340.056L280.266 340.066Z" fill="#99C9FB"></path><path d="M269.827 271.299C274.323 271.09 277.966 266.37 277.966 260.76C277.966 255.148 274.323 250.77 269.827 250.979C265.331 251.189 261.684 255.908 261.684 261.519C261.684 267.131 265.331 271.509 269.827 271.299Z" fill="#FFB8B8"></path><path d="M269.044 271.499C270.309 271.424 271.565 271.215 272.805 270.874C274.034 270.464 276.742 267.723 277.481 266.144C278.028 264.971 278.358 263.181 278.538 261.886C278.778 260.171 278.733 258.426 278.399 256.762C278.068 255.099 277.456 253.554 276.604 252.229C276.277 251.672 275.829 251.242 275.315 250.985C275.266 250.967 275.221 250.951 275.172 250.938C274.425 250.752 273.744 250.29 273.226 249.609C273.124 249.471 273.014 249.342 272.895 249.225C272.312 248.667 271.622 248.296 270.888 248.14C269.701 247.84 268.004 248.365 265.845 249.701C264.76 250.373 263.557 250.256 262.626 250.079C262.573 250.07 262.52 250.079 262.471 250.105C262.422 250.13 262.378 250.171 262.345 250.222C261.961 250.714 261.447 251.012 260.909 251.058C260.578 251.102 260.244 251.699 259.844 252.475C259.75 252.651 259.644 252.856 259.567 252.982L259.55 252.753L259.371 253.025C259.085 253.451 258.889 253.957 258.8 254.494C258.71 255.033 258.726 255.585 258.857 256.1C258.983 256.616 259.216 257.078 259.526 257.443C259.84 257.808 260.227 258.065 260.648 258.19C260.982 258.274 261.325 258.315 261.668 258.311C261.876 258.318 262.092 258.326 262.296 258.354C262.961 258.471 263.585 258.802 264.103 259.315C264.626 259.828 265.021 260.506 265.262 261.282C265.319 261.462 265.409 261.621 265.523 261.747C265.637 261.874 265.776 261.965 265.927 262.013C266.078 262.061 266.233 262.065 266.388 262.024C266.543 261.984 266.69 261.9 266.816 261.779C267.024 261.553 267.273 261.393 267.543 261.311C267.808 261.229 268.081 261.229 268.346 261.309C268.571 261.446 268.75 261.68 268.852 261.969C268.979 262.291 269.174 262.556 269.423 262.731C270.272 263.202 270.378 265.58 270.121 267.589C269.868 269.526 269.325 270.956 268.795 271.066C268.391 271.151 268.342 271.191 268.318 271.283L268.293 271.366L268.338 271.437C268.567 271.521 268.807 271.543 269.044 271.499Z" fill="#2F2E41"></path><path d="M262.292 304.282L258.379 298.242C254.393 299.798 247.319 307.995 247.319 307.995L232.796 316.54C232.311 316.461 231.814 316.543 231.353 316.78C230.893 317.016 230.486 317.397 230.173 317.885C229.86 318.373 229.653 318.95 229.572 319.56C229.491 320.168 229.54 320.787 229.712 321.353C229.885 321.92 230.176 322.414 230.556 322.786C230.935 323.158 231.39 323.394 231.875 323.472C232.36 323.55 232.858 323.465 233.318 323.228C233.778 322.99 234.184 322.608 234.496 322.119L253.524 314.606L262.292 304.282Z" fill="#FFB8B8"></path><path d="M261.354 305.75L267.526 296.872L267.869 290.77C267.934 289.571 267.73 288.387 267.277 287.351C266.829 286.315 266.147 285.468 265.319 284.906C264.189 284.154 262.855 283.977 261.59 284.41C260.321 284.844 259.22 285.856 258.498 287.242C256.315 291.447 253.969 297.105 255.177 300.177L255.189 300.208L261.354 305.75Z" fill="#99C9FB"></path><path d="M204.448 340.693L188.401 331.185C187.259 330.509 186.881 328.591 187.558 326.91L198.021 300.925C198.697 299.244 200.177 298.427 201.318 299.103L217.365 308.611C218.506 309.288 218.884 311.205 218.208 312.886L207.745 338.871C207.068 340.552 205.589 341.369 204.448 340.693Z" fill="#E6E6E6"></path><path d="M201.706 336.106L190.803 329.646C189.734 329.012 189.38 327.216 190.014 325.642L198.706 304.054C199.34 302.48 200.726 301.715 201.794 302.348L214.962 310.151C216.032 310.784 216.385 312.58 215.752 314.154L211.029 325.882C208.207 332.893 206.467 338.927 201.706 336.106Z" fill="white"></path><path d="M207.096 324.285L197.439 318.563C197.321 318.464 197.237 318.313 197.203 318.139C197.169 317.965 197.186 317.779 197.252 317.615C197.318 317.45 197.428 317.319 197.563 317.245C197.697 317.171 197.847 317.158 197.984 317.21L207.641 322.932C207.758 323.031 207.843 323.182 207.877 323.356C207.911 323.53 207.893 323.716 207.827 323.881C207.761 324.045 207.651 324.176 207.517 324.25C207.382 324.324 207.233 324.336 207.096 324.285Z" fill="#99C9FB"></path><path d="M198.568 322.542L196.364 321.237C196.246 321.137 196.162 320.987 196.127 320.812C196.093 320.638 196.111 320.452 196.176 320.288C196.243 320.124 196.353 319.993 196.487 319.919C196.622 319.844 196.771 319.832 196.908 319.883L199.112 321.189C199.23 321.289 199.314 321.439 199.348 321.614C199.383 321.788 199.366 321.974 199.3 322.138C199.233 322.302 199.123 322.433 198.989 322.508C198.854 322.582 198.705 322.594 198.568 322.542Z" fill="#99C9FB"></path><path d="M201.395 327.531L195.288 323.912C195.17 323.813 195.086 323.662 195.051 323.488C195.017 323.314 195.035 323.127 195.101 322.963C195.167 322.799 195.277 322.668 195.411 322.594C195.546 322.519 195.695 322.507 195.833 322.559L201.939 326.177C202.058 326.277 202.141 326.427 202.175 326.602C202.21 326.776 202.193 326.962 202.127 327.126C202.06 327.29 201.95 327.421 201.816 327.495C201.681 327.57 201.532 327.582 201.395 327.531Z" fill="#99C9FB"></path><path d="M210.917 314.795L201.26 309.073C201.142 308.973 201.058 308.823 201.024 308.649C200.99 308.474 201.007 308.288 201.073 308.124C201.139 307.96 201.25 307.829 201.384 307.755C201.518 307.68 201.668 307.668 201.805 307.72L211.462 313.442C211.58 313.541 211.664 313.692 211.698 313.866C211.732 314.04 211.715 314.226 211.649 314.391C211.583 314.555 211.472 314.686 211.338 314.76C211.204 314.834 211.054 314.847 210.917 314.795Z" fill="#99C9FB"></path><path d="M202.388 313.052L200.184 311.746C200.066 311.647 199.982 311.496 199.948 311.322C199.914 311.148 199.931 310.962 199.997 310.798C200.063 310.633 200.173 310.502 200.308 310.428C200.442 310.354 200.592 310.342 200.729 310.393L202.933 311.699C203.051 311.798 203.135 311.949 203.169 312.123C203.203 312.297 203.186 312.483 203.12 312.648C203.054 312.812 202.943 312.943 202.809 313.017C202.675 313.091 202.525 313.104 202.388 313.052Z" fill="#99C9FB"></path><path d="M205.215 318.038L199.108 314.42C198.99 314.32 198.906 314.17 198.872 313.996C198.837 313.821 198.855 313.635 198.921 313.471C198.987 313.307 199.097 313.176 199.231 313.102C199.366 313.027 199.515 313.015 199.653 313.067L205.76 316.685C205.878 316.784 205.962 316.935 205.996 317.109C206.03 317.283 206.013 317.47 205.947 317.634C205.881 317.798 205.77 317.929 205.636 318.004C205.502 318.078 205.352 318.09 205.215 318.038Z" fill="#99C9FB"></path><path d="M191.15 319.115L187.524 302.441L197.212 299.7L196.691 311.286L209.42 327.049C210.093 326.983 210.761 327.163 211.34 327.566C211.92 327.97 212.386 328.58 212.683 329.322C212.98 330.064 213.093 330.907 213.011 331.746C212.929 332.585 212.653 333.385 212.218 334.049C211.783 334.713 211.208 335.211 210.562 335.483C209.916 335.755 209.227 335.79 208.58 335.583C207.934 335.375 207.356 334.935 206.918 334.315C206.48 333.695 206.201 332.923 206.115 332.092L191.15 319.115Z" fill="#A0616A"></path><path d="M186.534 283.601C183.246 286.994 187.466 304.92 187.466 304.92C188.12 303.994 188.879 317.187 189.678 316.699C191.948 315.313 196.108 310.704 197.712 310.989C198.63 311.152 197.668 302.242 197.668 302.242C197.668 302.242 197.492 297.115 197.16 290.53C197.093 288.665 196.649 286.868 195.869 285.308C195.089 283.748 193.998 282.475 192.697 281.607C192.697 281.607 189.822 280.208 186.534 283.601Z" fill="#3F3D56"></path><path d="M241.249 354.164L232.492 349.412C232.305 349.311 232.14 349.158 232.01 348.963C231.88 348.768 231.787 348.538 231.74 348.288C231.693 348.045 231.691 347.789 231.734 347.539C231.777 347.291 231.864 347.055 231.99 346.85C234.527 342.685 236.268 337.873 237.076 332.797C237.136 332.409 237.303 332.054 237.546 331.793C237.789 331.532 238.094 331.38 238.41 331.365C242.877 331.176 246.214 333.055 248.332 336.951C248.442 337.153 248.515 337.385 248.548 337.631C248.577 337.876 248.564 338.13 248.511 338.373C247.283 343.702 245.419 348.795 242.979 353.477C242.8 353.831 242.526 354.095 242.204 354.221C241.886 354.348 241.547 354.327 241.249 354.164Z" fill="#E6E6E6"></path><path d="M243.822 346.805L237.128 343.171C236.962 343.081 236.833 342.91 236.771 342.697C236.709 342.483 236.718 342.244 236.797 342.032C236.875 341.821 237.017 341.654 237.19 341.568C237.364 341.483 237.555 341.485 237.722 341.576L244.418 345.209C244.499 345.254 244.573 345.319 244.634 345.4C244.695 345.482 244.744 345.578 244.773 345.684C244.805 345.79 244.818 345.903 244.814 346.016C244.809 346.13 244.789 346.243 244.748 346.348C244.712 346.453 244.654 346.547 244.589 346.627C244.52 346.707 244.442 346.77 244.357 346.812C244.271 346.854 244.177 346.876 244.087 346.874C243.998 346.873 243.908 346.85 243.822 346.805Z" fill="white"></path><path d="M244.863 344.006L238.168 340.373C238.002 340.282 237.874 340.111 237.811 339.898C237.749 339.685 237.758 339.446 237.837 339.234C237.916 339.023 238.057 338.856 238.23 338.77C238.404 338.684 238.595 338.687 238.762 338.777L245.458 342.411C245.626 342.501 245.752 342.672 245.813 342.885C245.879 343.099 245.866 343.338 245.789 343.549C245.711 343.761 245.568 343.928 245.393 344.014C245.222 344.099 245.03 344.097 244.863 344.006Z" fill="white"></path></g></g><defs><linearGradient id="paint0_linear_1277_6351" x1="256.482" y1="253.673" x2="382.108" y2="253.673" gradientUnits="userSpaceOnUse"><stop offset="0.00520833" stop-color="#4080D8" stop-opacity="0.35"></stop><stop offset="0.494792" stop-color="#4080D8" stop-opacity="0.5"></stop><stop offset="1" stop-color="#4080D8" stop-opacity="0.9"></stop></linearGradient><linearGradient id="paint1_linear_1277_6351" x1="282.086" y1="214.054" x2="399.67" y2="214.054" gradientUnits="userSpaceOnUse"><stop offset="0.00520833" stop-color="#4080D8" stop-opacity="0.35"></stop><stop offset="0.494792" stop-color="#4080D8" stop-opacity="0.5"></stop><stop offset="1" stop-color="#4080D8" stop-opacity="0.9"></stop></linearGradient><linearGradient id="paint2_linear_1277_6351" x1="304.594" y1="236.754" x2="378.324" y2="236.754" gradientUnits="userSpaceOnUse"><stop offset="0.00520833" stop-color="#4080D8" stop-opacity="0.35"></stop><stop offset="0.494792" stop-color="#4080D8" stop-opacity="0.5"></stop><stop offset="1" stop-color="#4080D8" stop-opacity="0.9"></stop></linearGradient><linearGradient id="paint3_linear_1277_6351" x1="382.108" y1="236.754" x2="425.101" y2="236.754" gradientUnits="userSpaceOnUse"><stop offset="0.00520833" stop-color="#4080D8" stop-opacity="0.35"></stop><stop offset="0.494792" stop-color="#4080D8" stop-opacity="0.5"></stop><stop offset="1" stop-color="#4080D8" stop-opacity="0.9"></stop></linearGradient><linearGradient id="paint4_linear_1277_6351" x1="260.868" y1="287.574" x2="360.575" y2="287.574" gradientUnits="userSpaceOnUse"><stop offset="0.00520833" stop-color="#4080D8" stop-opacity="0.35"></stop><stop offset="0.494792" stop-color="#4080D8" stop-opacity="0.5"></stop><stop offset="1" stop-color="#4080D8" stop-opacity="0.9"></stop></linearGradient><linearGradient id="paint5_linear_1277_6351" x1="27.4795" y1="217.599" x2="171.76" y2="217.599" gradientUnits="userSpaceOnUse"><stop offset="0.00520833" stop-color="#4080D8" stop-opacity="0.35"></stop><stop offset="0.494792" stop-color="#4080D8" stop-opacity="0.5"></stop><stop offset="1" stop-color="#4080D8" stop-opacity="0.9"></stop></linearGradient><linearGradient id="paint6_linear_1277_6351" x1="155.8" y1="183.475" x2="238.276" y2="183.475" gradientUnits="userSpaceOnUse"><stop offset="0.00520833" stop-color="#4080D8" stop-opacity="0.35"></stop><stop offset="0.494792" stop-color="#4080D8" stop-opacity="0.5"></stop><stop offset="1" stop-color="#4080D8" stop-opacity="0.9"></stop></linearGradient><linearGradient id="paint7_linear_1277_6351" x1="63.3301" y1="163.094" x2="137.062" y2="163.094" gradientUnits="userSpaceOnUse"><stop offset="0.00520833" stop-color="#4080D8" stop-opacity="0.35"></stop><stop offset="0.494792" stop-color="#4080D8" stop-opacity="0.5"></stop><stop offset="1" stop-color="#4080D8" stop-opacity="0.9"></stop></linearGradient><linearGradient id="paint8_linear_1277_6351" x1="27.4795" y1="199.343" x2="118.861" y2="199.343" gradientUnits="userSpaceOnUse"><stop offset="0.00520833" stop-color="#4080D8" stop-opacity="0.35"></stop><stop offset="0.494792" stop-color="#4080D8" stop-opacity="0.5"></stop><stop offset="1" stop-color="#4080D8" stop-opacity="0.9"></stop></linearGradient><linearGradient id="paint9_linear_1277_6351" x1="174.721" y1="217.599" x2="212.844" y2="217.599" gradientUnits="userSpaceOnUse"><stop offset="0.00520833" stop-color="#4080D8" stop-opacity="0.35"></stop><stop offset="0.494792" stop-color="#4080D8" stop-opacity="0.5"></stop><stop offset="1" stop-color="#4080D8" stop-opacity="0.9"></stop></linearGradient><linearGradient id="paint10_linear_1277_6351" x1="117.414" y1="253.675" x2="239.714" y2="253.675" gradientUnits="userSpaceOnUse"><stop offset="0.00520833" stop-color="#4080D8" stop-opacity="0.35"></stop><stop offset="0.494792" stop-color="#4080D8" stop-opacity="0.5"></stop><stop offset="1" stop-color="#4080D8" stop-opacity="0.9"></stop></linearGradient><linearGradient id="paint11_linear_1277_6351" x1="238.166" y1="238.363" x2="238.274" y2="238.363" gradientUnits="userSpaceOnUse"><stop offset="0.00520833" stop-color="#4080D8" stop-opacity="0.35"></stop><stop offset="0.494792" stop-color="#4080D8" stop-opacity="0.5"></stop><stop offset="1" stop-color="#4080D8" stop-opacity="0.9"></stop></linearGradient><clipPath id="clip0_1277_6351"><rect width="460" height="475" fill="white"></rect></clipPath></defs></svg>