<svg xmlns="http://www.w3.org/2000/svg" width="460" height="475" viewBox="0 0 460 475" fill="none"><g clip-path="url(#clip0_1424_61440)"><mask id="mask0_1424_61440" style="mask-type:luminance" maskUnits="userSpaceOnUse" x="3" y="19" width="457" height="456"><path d="M460 19.9536H3V475H460V19.9536Z" fill="white"></path></mask><g mask="url(#mask0_1424_61440)"><path opacity="0.25" d="M190.895 380.004C201.429 380.004 209.968 371.064 209.968 360.036C209.968 349.007 201.429 340.067 190.895 340.067C180.361 340.067 171.822 349.007 171.822 360.036C171.822 371.064 180.361 380.004 190.895 380.004Z" fill="#28A8E8"></path><path opacity="0.05" d="M190.895 385.706C204.437 385.706 215.414 374.213 215.414 360.036C215.414 345.859 204.437 334.366 190.895 334.366C177.354 334.366 166.377 345.859 166.377 360.036C166.377 374.213 177.354 385.706 190.895 385.706Z" fill="#28A8E8"></path><path opacity="0.25" d="M190.896 376.019C199.328 376.019 206.163 368.863 206.163 360.036C206.163 351.208 199.328 344.052 190.896 344.052C182.464 344.052 175.629 351.208 175.629 360.036C175.629 368.863 182.464 376.019 190.896 376.019Z" fill="#28A8E8"></path><path d="M182.526 357.274C182.417 357.184 182.354 357.077 182.334 356.948C182.314 356.82 182.356 356.693 182.459 356.562C183.513 355.181 184.806 354.128 186.341 353.408C187.873 352.688 189.491 352.365 191.193 352.442C192.892 352.519 194.483 352.975 195.959 353.807C197.436 354.64 198.648 355.802 199.6 357.294C199.689 357.451 199.716 357.587 199.68 357.701C199.644 357.816 199.575 357.917 199.475 357.996C199.374 358.075 199.26 358.108 199.133 358.094C199.006 358.08 198.896 358.003 198.805 357.865C197.976 356.514 196.884 355.458 195.523 354.698C194.165 353.938 192.707 353.523 191.15 353.452C189.593 353.382 188.119 353.663 186.725 354.299C185.331 354.935 184.159 355.887 183.207 357.157C183.104 357.304 182.989 357.383 182.859 357.393C182.729 357.402 182.62 357.364 182.526 357.276V357.274ZM193.178 370.205C191.528 369.693 190.201 368.76 189.196 367.411C188.19 366.062 187.728 364.445 187.806 362.563C187.842 361.724 188.159 361.032 188.76 360.486C189.361 359.942 190.071 359.687 190.889 359.724C191.706 359.762 192.394 360.08 192.948 360.676C193.502 361.272 193.761 361.993 193.728 362.832C193.706 363.386 193.886 363.861 194.27 364.258C194.657 364.654 195.122 364.864 195.667 364.89C196.212 364.916 196.685 364.747 197.087 364.387C197.487 364.027 197.699 363.569 197.724 363.014C197.804 361.066 197.19 359.397 195.883 358.007C194.574 356.618 192.973 355.88 191.081 355.795C189.187 355.709 187.532 356.298 186.113 357.563C184.695 358.828 183.944 360.425 183.864 362.36C183.846 362.762 183.864 363.269 183.908 363.877C183.956 364.485 184.098 365.198 184.338 366.017C184.38 366.171 184.369 366.305 184.309 366.419C184.248 366.534 184.152 366.613 184.02 366.658C183.889 366.702 183.766 366.693 183.647 366.628C183.529 366.562 183.449 366.464 183.406 366.326C183.192 365.659 183.046 365 182.97 364.35C182.893 363.697 182.868 363.028 182.897 362.338C182.991 360.105 183.841 358.267 185.452 356.824C187.062 355.384 188.943 354.71 191.094 354.809C193.261 354.907 195.09 355.749 196.584 357.332C198.079 358.915 198.778 360.823 198.686 363.057C198.651 363.896 198.338 364.586 197.744 365.121C197.15 365.657 196.446 365.907 195.626 365.87C194.807 365.832 194.119 365.519 193.556 364.93C192.993 364.341 192.729 363.625 192.765 362.785C192.787 362.231 192.611 361.756 192.233 361.359C191.856 360.964 191.394 360.753 190.849 360.727C190.303 360.702 189.825 360.87 189.417 361.23C189.008 361.59 188.791 362.046 188.769 362.603C188.702 364.233 189.106 365.615 189.984 366.749C190.862 367.883 192.021 368.701 193.462 369.204C193.605 369.26 193.696 369.349 193.741 369.469C193.786 369.588 193.788 369.714 193.75 369.847C193.712 369.964 193.645 370.063 193.545 370.142C193.444 370.221 193.323 370.24 193.18 370.201L193.178 370.205ZM185.874 352.15C185.742 352.227 185.613 352.243 185.485 352.194C185.358 352.145 185.267 352.054 185.209 351.916C185.151 351.778 185.139 351.656 185.175 351.549C185.211 351.441 185.293 351.35 185.423 351.273C185.428 351.273 185.43 351.268 185.434 351.266C186.352 350.805 187.304 350.461 188.293 350.237C189.283 350.012 190.283 349.923 191.295 349.97C192.307 350.017 193.319 350.192 194.288 350.498C195.256 350.803 196.187 351.221 197.083 351.75C197.223 351.841 197.304 351.944 197.324 352.063C197.344 352.183 197.326 352.299 197.273 352.414C197.219 352.528 197.136 352.617 197.02 352.681C196.904 352.744 196.77 352.727 196.611 352.636C195.78 352.143 194.916 351.755 194.02 351.469C193.125 351.184 192.202 351.02 191.255 350.978C190.324 350.936 189.406 351.008 188.497 351.193C187.588 351.378 186.716 351.696 185.876 352.147L185.874 352.15ZM187.994 369.616C187.091 368.531 186.408 367.436 185.948 366.328C185.488 365.222 185.289 363.929 185.349 362.451C185.412 360.921 185.997 359.656 187.098 358.655C188.202 357.655 189.499 357.187 190.991 357.255C192.484 357.322 193.746 357.907 194.777 359.006C195.809 360.105 196.292 361.42 196.229 362.947C196.223 363.098 196.174 363.218 196.082 363.307C195.991 363.396 195.872 363.435 195.727 363.428C195.6 363.421 195.488 363.372 195.396 363.274C195.305 363.176 195.26 363.054 195.266 362.902C195.318 361.642 194.918 360.568 194.063 359.68C193.207 358.791 192.171 358.318 190.951 358.262C189.732 358.206 188.666 358.583 187.757 359.392C186.848 360.201 186.366 361.235 186.314 362.495C186.258 363.856 186.435 365.021 186.844 365.991C187.252 366.962 187.871 367.944 188.697 368.94C188.789 369.046 188.834 369.165 188.827 369.3C188.82 369.436 188.769 369.551 188.668 369.646C188.568 369.742 188.454 369.789 188.325 369.782C188.195 369.775 188.085 369.721 187.994 369.616ZM195.334 368.234C193.906 368.168 192.687 367.609 191.677 366.553C190.667 365.496 190.197 364.205 190.259 362.675C190.266 362.542 190.312 362.425 190.406 362.329C190.5 362.233 190.616 362.187 190.761 362.194C190.907 362.2 191.02 362.257 191.103 362.36C191.186 362.462 191.226 362.584 191.222 362.717C191.17 363.978 191.559 365.03 192.392 365.877C193.225 366.723 194.219 367.172 195.374 367.224C195.47 367.228 195.606 367.224 195.785 367.217C195.964 367.21 196.147 367.191 196.341 367.165C196.486 367.137 196.611 367.165 196.712 367.245C196.812 367.324 196.877 367.441 196.902 367.593C196.929 367.729 196.899 367.846 196.815 367.942C196.73 368.038 196.622 368.101 196.493 368.129C196.2 368.199 195.946 368.234 195.729 368.232C195.512 368.232 195.381 368.229 195.331 368.227L195.334 368.234Z" fill="#28A8E8"></path><path d="M54.4225 257.358L47.0381 264.445C46.6851 264.784 46.6611 265.358 46.9846 265.727L53.7541 273.459C54.0771 273.828 54.6255 273.853 54.9785 273.515L62.363 266.427C62.7159 266.089 62.7399 265.515 62.4164 265.145L55.647 257.414C55.3239 257.045 54.7755 257.019 54.4225 257.358Z" fill="#1678D1"></path><g opacity="0.75"><path d="M47.2486 280.609L14.441 312.094C14.0885 312.432 14.0645 313.006 14.388 313.375L21.157 321.107C21.4805 321.476 22.0289 321.502 22.3819 321.163L55.189 289.678C55.542 289.339 55.566 288.765 55.2425 288.396L48.473 280.664C48.1495 280.295 47.6015 280.27 47.2486 280.609Z" fill="white"></path><path d="M47.2486 280.609L14.441 312.094C14.0885 312.432 14.0645 313.006 14.388 313.375L21.157 321.107C21.4805 321.476 22.0289 321.502 22.3819 321.163L55.189 289.678C55.542 289.339 55.566 288.765 55.2425 288.396L48.473 280.664C48.1495 280.295 47.6015 280.27 47.2486 280.609Z" fill="url(#paint0_linear_1424_61440)"></path></g><g opacity="0.15"><path d="M120.659 402.768L52.576 468.106C52.223 468.446 52.1995 469.019 52.5225 469.39L57.1671 474.692C57.4901 475.062 58.0385 475.089 58.3915 474.749L126.474 409.41C126.827 409.071 126.851 408.498 126.527 408.128L121.883 402.824C121.56 402.454 121.012 402.43 120.659 402.768Z" fill="white"></path><path d="M120.659 402.768L52.576 468.106C52.223 468.446 52.1995 469.019 52.5225 469.39L57.1671 474.692C57.4901 475.062 58.0385 475.089 58.3915 474.749L126.474 409.41C126.827 409.071 126.851 408.498 126.527 408.128L121.883 402.824C121.56 402.454 121.012 402.43 120.659 402.768Z" fill="url(#paint1_linear_1424_61440)"></path></g><g opacity="0.15"><path d="M248.529 365.297L253.175 370.603C253.499 370.973 253.478 371.545 253.125 371.885L204.063 418.966L198.247 412.322L247.309 365.241C247.662 364.902 248.209 364.93 248.529 365.299V365.297Z" fill="white"></path><path d="M248.529 365.297L253.175 370.603C253.499 370.973 253.478 371.545 253.125 371.885L204.063 418.966L198.247 412.322L247.309 365.241C247.662 364.902 248.209 364.93 248.529 365.299V365.297Z" fill="url(#paint2_linear_1424_61440)"></path></g><g opacity="0.35"><path d="M144.798 293.178L76.7148 358.517C76.3619 358.855 76.3379 359.429 76.6613 359.798L81.3055 365.103C81.629 365.472 82.1774 365.497 82.5299 365.158L150.613 299.82C150.966 299.481 150.99 298.907 150.666 298.538L146.022 293.234C145.699 292.864 145.151 292.839 144.798 293.178Z" fill="white"></path><path d="M144.798 293.178L76.7148 358.517C76.3619 358.855 76.3379 359.429 76.6613 359.798L81.3055 365.103C81.629 365.472 82.1774 365.497 82.5299 365.158L150.613 299.82C150.966 299.481 150.99 298.907 150.666 298.538L146.022 293.234C145.699 292.864 145.151 292.839 144.798 293.178Z" fill="url(#paint3_linear_1424_61440)"></path></g><g opacity="0.75"><path d="M141.383 359.481L149.399 368.637C149.723 369.006 149.698 369.581 149.345 369.918L135.85 382.869L126.665 372.376L140.161 359.425C140.514 359.086 141.061 359.109 141.385 359.479L141.383 359.481Z" fill="white"></path><path d="M141.383 359.481L149.399 368.637C149.723 369.006 149.698 369.581 149.345 369.918L135.85 382.869L126.665 372.376L140.161 359.425C140.514 359.086 141.061 359.109 141.385 359.479L141.383 359.481Z" fill="url(#paint4_linear_1424_61440)"></path></g><path d="M78.0118 388.696L66.8467 399.411C66.4937 399.75 66.4697 400.324 66.7932 400.693L77.0279 412.383C77.3514 412.752 77.8998 412.777 78.2523 412.438L89.4179 401.723C89.7704 401.385 89.7944 400.81 89.4709 400.441L79.2362 388.752C78.9127 388.382 78.3648 388.357 78.0118 388.696Z" fill="#1678D1"></path><path d="M78.2367 383.274L74.1123 387.233C73.7593 387.571 73.7353 388.145 74.0588 388.515L77.8399 392.833C78.163 393.202 78.7114 393.227 79.0643 392.889L83.1887 388.93C83.5417 388.592 83.5657 388.018 83.2422 387.649L79.4611 383.33C79.1376 382.961 78.5896 382.936 78.2367 383.274Z" fill="#1678D1"></path><path d="M60.3783 326.651L50.866 335.78C50.513 336.119 50.4894 336.693 50.8129 337.062L59.5321 347.021C59.8556 347.39 60.4036 347.415 60.7565 347.077L70.2685 337.948C70.6214 337.609 70.6454 337.035 70.322 336.666L61.6027 326.707C61.2792 326.338 60.7308 326.313 60.3783 326.651Z" fill="#1678D1"></path><path d="M148.776 386.734L139.263 395.862C138.911 396.201 138.887 396.775 139.21 397.144L147.929 407.103C148.253 407.472 148.801 407.497 149.154 407.158L158.666 398.03C159.019 397.691 159.043 397.117 158.719 396.748L150 386.789C149.677 386.42 149.129 386.395 148.776 386.734Z" fill="#1678D1"></path><path d="M45.9321 357.677L43.3043 360.199C42.9518 360.538 42.9277 361.111 43.2512 361.481L45.6601 364.232C45.9835 364.602 46.5315 364.626 46.8845 364.288L49.5123 361.766C49.8653 361.427 49.8889 360.853 49.5658 360.484L47.1566 357.733C46.8335 357.363 46.2851 357.338 45.9321 357.677Z" fill="#1678D1"></path><path d="M26.3927 325.433L24.2008 327.536C23.8482 327.874 23.8242 328.448 24.1477 328.818L26.1568 331.112C26.4799 331.482 27.0283 331.507 27.3812 331.168L29.5727 329.065C29.9257 328.726 29.9493 328.152 29.6258 327.783L27.6171 325.489C27.2937 325.119 26.7452 325.094 26.3927 325.433Z" fill="#1678D1"></path><path opacity="0.25" d="M6.18133 453.908L5.52636 454.534C5.17339 454.874 5.14939 455.447 5.47287 455.818L6.0735 456.506C6.39698 456.872 6.94538 456.898 7.29793 456.559L7.95331 455.932C8.30628 455.593 8.33028 455.019 8.0068 454.649L7.40617 453.961C7.08269 453.595 6.5343 453.568 6.18133 453.908Z" fill="#1678D1"></path><path opacity="0.25" d="M4.1887 311.816L3.28986 312.679C2.9369 313.017 2.91332 313.591 3.23638 313.96L4.06066 314.902C4.38414 315.271 4.93211 315.296 5.28508 314.958L6.18434 314.095C6.53688 313.756 6.5609 313.182 6.23742 312.813L5.41313 311.872C5.09007 311.502 4.54167 311.477 4.1887 311.816Z" fill="#1678D1"></path><path opacity="0.25" d="M111.849 288.349C111.526 287.98 110.979 287.955 110.626 288.294C110.274 288.632 110.25 289.205 110.573 289.574C110.896 289.944 111.444 289.968 111.796 289.63C112.148 289.292 112.172 288.718 111.849 288.349Z" fill="#1678D1"></path><path opacity="0.25" d="M111.656 284.572C111.333 284.203 110.786 284.178 110.433 284.517C110.08 284.855 110.057 285.428 110.38 285.798C110.703 286.167 111.251 286.192 111.603 285.853C111.955 285.515 111.979 284.942 111.656 284.572Z" fill="#1678D1"></path><path opacity="0.25" d="M87.3782 366.543L86.4793 367.406C86.1263 367.744 86.1028 368.318 86.4258 368.688L87.2501 369.629C87.5736 369.998 88.1216 370.023 88.4746 369.685L89.3734 368.822C89.7263 368.483 89.7504 367.909 89.4269 367.54L88.6026 366.598C88.2795 366.229 87.7311 366.204 87.3782 366.543Z" fill="#1678D1"></path><path opacity="0.25" d="M117.196 310.317L115.127 312.303C114.774 312.642 114.75 313.215 115.073 313.585L116.971 315.752C117.294 316.121 117.842 316.146 118.195 315.808L120.265 313.821C120.618 313.483 120.641 312.909 120.318 312.539L118.421 310.373C118.097 310.003 117.549 309.978 117.196 310.317Z" fill="#1678D1"></path><path opacity="0.25" d="M25.3191 334.624L24.6637 335.253C24.3111 335.591 24.2871 336.165 24.6106 336.535L25.2112 337.221C25.5347 337.59 26.0831 337.615 26.4357 337.276L27.091 336.647C27.444 336.309 27.4676 335.735 27.1445 335.366L26.5435 334.679C26.22 334.31 25.672 334.285 25.3191 334.624Z" fill="#1678D1"></path><path opacity="0.25" d="M171.462 385.007L171.438 384.979C171.115 384.609 170.567 384.584 170.214 384.923L170.187 384.948C169.835 385.287 169.811 385.861 170.134 386.231L170.158 386.258C170.481 386.628 171.03 386.653 171.383 386.314L171.409 386.289C171.762 385.95 171.786 385.376 171.462 385.007Z" fill="#1678D1"></path><path d="M10.6524 382.433L8.46094 384.536C8.10797 384.875 8.08396 385.449 8.40744 385.818L10.4166 388.112C10.74 388.482 11.288 388.507 11.641 388.169L13.8325 386.065C14.1854 385.727 14.209 385.152 13.8855 384.783L11.8768 382.489C11.5534 382.12 11.005 382.094 10.6524 382.433Z" fill="#1678D1"></path><path d="M115.122 279.315L112.494 281.837C112.141 282.176 112.117 282.749 112.441 283.119L114.849 285.87C115.173 286.239 115.721 286.264 116.074 285.926L118.702 283.404C119.055 283.065 119.079 282.491 118.755 282.122L116.346 279.371C116.023 279.001 115.475 278.976 115.122 279.315Z" fill="#1678D1"></path><path d="M128.96 278.567L126.332 281.089C125.979 281.428 125.955 282.002 126.279 282.371L128.687 285.123C129.011 285.492 129.559 285.517 129.912 285.178L132.54 282.656C132.893 282.318 132.916 281.744 132.593 281.374L130.184 278.623C129.861 278.254 129.312 278.228 128.96 278.567Z" fill="#1678D1"></path><path d="M164.971 377.566L162.344 380.088C161.991 380.427 161.967 381 162.29 381.37L164.699 384.121C165.023 384.491 165.571 384.515 165.924 384.177L168.552 381.655C168.905 381.316 168.928 380.742 168.605 380.373L166.196 377.622C165.872 377.252 165.324 377.227 164.971 377.566Z" fill="#1678D1"></path><path d="M13.8806 428.707L11.6891 430.81C11.3365 431.148 11.3125 431.722 11.636 432.092L13.6447 434.386C13.9682 434.756 14.5166 434.781 14.8691 434.442L17.061 432.339C17.4136 432 17.4376 431.426 17.1141 431.057L15.1054 428.762C14.7819 428.393 14.2335 428.368 13.8806 428.707Z" fill="#1678D1"></path><g opacity="0.75"><path d="M65.5127 400.687L12.4995 451.565C12.1836 451.865 12.1899 452.412 12.5134 452.783L22.7481 464.471C23.0715 464.842 23.5896 464.895 23.9055 464.591L76.9188 413.715C77.2347 413.411 77.2284 412.866 76.9049 412.497L66.6702 400.807C66.3467 400.438 65.8286 400.384 65.5127 400.687Z" fill="white"></path><path d="M65.5127 400.687L12.4995 451.565C12.1836 451.865 12.1899 452.412 12.5134 452.783L22.7481 464.471C23.0715 464.842 23.5896 464.895 23.9055 464.591L76.9188 413.715C77.2347 413.411 77.2284 412.866 76.9049 412.497L66.6702 400.807C66.3467 400.438 65.8286 400.384 65.5127 400.687Z" fill="url(#paint5_linear_1424_61440)"></path></g><g opacity="0.75"><path d="M101.518 254.563L47.3848 306.514C47.0318 306.852 47.0078 307.426 47.3313 307.796L59.0014 321.124C59.3249 321.494 59.8729 321.519 60.2258 321.18L114.359 269.229C114.712 268.89 114.736 268.316 114.413 267.947L102.742 254.618C102.419 254.249 101.871 254.224 101.518 254.563Z" fill="white"></path><path d="M101.518 254.563L47.3848 306.514C47.0318 306.852 47.0078 307.426 47.3313 307.796L59.0014 321.124C59.3249 321.494 59.8729 321.519 60.2258 321.18L114.359 269.229C114.712 268.89 114.736 268.316 114.413 267.947L102.742 254.618C102.419 254.249 101.871 254.224 101.518 254.563Z" fill="url(#paint6_linear_1424_61440)"></path></g><g opacity="0.75"><path d="M200.717 371.339L133.881 435.482C133.528 435.821 133.504 436.395 133.828 436.764L145.497 450.093C145.821 450.463 146.369 450.485 146.722 450.148L213.558 386.006C213.911 385.668 213.935 385.094 213.612 384.724L201.942 371.395C201.618 371.026 201.07 371.001 200.717 371.339Z" fill="white"></path><path d="M200.717 371.339L133.881 435.482C133.528 435.821 133.504 436.395 133.828 436.764L145.497 450.093C145.821 450.463 146.369 450.485 146.722 450.148L213.558 386.006C213.911 385.668 213.935 385.094 213.612 384.724L201.942 371.395C201.618 371.026 201.07 371.001 200.717 371.339Z" fill="url(#paint7_linear_1424_61440)"></path></g><path opacity="0.25" d="M138.443 267.101C146.674 267.101 153.346 260.116 153.346 251.498C153.346 242.881 146.674 235.896 138.443 235.896C130.212 235.896 123.54 242.881 123.54 251.498C123.54 260.116 130.212 267.101 138.443 267.101Z" fill="#28A8E8"></path><path opacity="0.05" d="M138.443 271.556C149.024 271.556 157.601 262.576 157.601 251.498C157.601 240.421 149.024 231.441 138.443 231.441C127.862 231.441 119.285 240.421 119.285 251.498C119.285 262.576 127.862 271.556 138.443 271.556Z" fill="#28A8E8"></path><path opacity="0.25" d="M138.443 263.988C145.032 263.988 150.372 258.396 150.372 251.498C150.372 244.6 145.032 239.008 138.443 239.008C131.854 239.008 126.513 244.6 126.513 251.498C126.513 258.396 131.854 263.988 138.443 263.988Z" fill="#28A8E8"></path><path d="M131.903 249.34C131.819 249.27 131.769 249.186 131.754 249.088C131.738 248.989 131.772 248.889 131.852 248.786C132.676 247.706 133.686 246.885 134.885 246.321C136.082 245.757 137.347 245.505 138.676 245.566C140.005 245.626 141.247 245.982 142.399 246.632C143.554 247.282 144.501 248.192 145.245 249.357C145.314 249.478 145.336 249.583 145.307 249.675C145.278 249.766 145.225 249.843 145.147 249.904C145.069 249.965 144.979 249.993 144.879 249.981C144.778 249.969 144.693 249.911 144.622 249.801C143.974 248.746 143.121 247.921 142.057 247.327C140.994 246.733 139.858 246.408 138.64 246.352C137.423 246.296 136.272 246.517 135.182 247.013C134.095 247.509 133.177 248.253 132.433 249.244C132.352 249.359 132.263 249.42 132.16 249.429C132.057 249.438 131.973 249.408 131.901 249.338L131.903 249.34ZM140.226 259.445C138.937 259.045 137.899 258.316 137.114 257.261C136.328 256.206 135.967 254.943 136.029 253.472C136.056 252.815 136.306 252.275 136.775 251.849C137.244 251.424 137.8 251.225 138.439 251.256C139.078 251.286 139.614 251.534 140.047 251.999C140.481 252.465 140.684 253.028 140.655 253.683C140.637 254.116 140.777 254.487 141.079 254.796C141.381 255.104 141.745 255.271 142.172 255.289C142.598 255.308 142.966 255.177 143.281 254.897C143.597 254.616 143.76 254.258 143.777 253.825C143.84 252.303 143.362 250.998 142.339 249.913C141.316 248.828 140.065 248.25 138.586 248.183C137.108 248.115 135.812 248.576 134.704 249.565C133.596 250.554 133.009 251.803 132.947 253.311C132.933 253.627 132.947 254.022 132.982 254.497C133.018 254.971 133.132 255.53 133.317 256.169C133.351 256.288 133.342 256.393 133.295 256.484C133.248 256.575 133.172 256.636 133.072 256.672C132.971 256.706 132.873 256.699 132.781 256.648C132.69 256.597 132.627 256.519 132.594 256.412C132.426 255.89 132.312 255.376 132.252 254.868C132.192 254.359 132.172 253.835 132.194 253.297C132.265 251.55 132.933 250.114 134.191 248.989C135.451 247.862 136.92 247.338 138.6 247.415C140.293 247.493 141.723 248.15 142.888 249.387C144.054 250.624 144.602 252.116 144.53 253.861C144.503 254.518 144.258 255.055 143.793 255.474C143.329 255.893 142.779 256.089 142.138 256.059C141.497 256.029 140.959 255.785 140.521 255.325C140.081 254.864 139.875 254.305 139.902 253.65C139.92 253.217 139.781 252.846 139.486 252.537C139.192 252.228 138.832 252.062 138.406 252.043C137.979 252.025 137.606 252.156 137.287 252.436C136.967 252.717 136.797 253.075 136.779 253.507C136.726 254.779 137.043 255.86 137.729 256.746C138.415 257.633 139.321 258.271 140.447 258.666C140.559 258.711 140.63 258.781 140.664 258.874C140.697 258.968 140.7 259.066 140.67 259.171C140.641 259.263 140.588 259.34 140.51 259.401C140.431 259.461 140.338 259.478 140.226 259.447V259.445ZM134.519 245.337C134.416 245.398 134.316 245.409 134.215 245.372C134.115 245.334 134.043 245.262 133.999 245.154C133.954 245.047 133.945 244.951 133.972 244.866C133.999 244.783 134.063 244.712 134.164 244.652C134.166 244.652 134.171 244.649 134.173 244.647C134.89 244.287 135.634 244.018 136.406 243.844C137.179 243.669 137.961 243.599 138.752 243.637C139.543 243.674 140.333 243.81 141.09 244.048C141.848 244.287 142.573 244.612 143.273 245.026C143.382 245.096 143.444 245.178 143.46 245.271C143.476 245.365 143.46 245.456 143.42 245.545C143.38 245.634 143.313 245.704 143.223 245.753C143.134 245.802 143.027 245.791 142.904 245.718C142.254 245.332 141.579 245.031 140.878 244.806C140.177 244.584 139.457 244.455 138.718 244.422C137.979 244.39 137.273 244.446 136.563 244.591C135.852 244.735 135.171 244.983 134.517 245.337H134.519ZM136.174 258.984C135.468 258.138 134.935 257.279 134.575 256.417C134.215 255.551 134.059 254.541 134.108 253.386C134.157 252.191 134.613 251.202 135.475 250.421C136.337 249.637 137.351 249.272 138.517 249.326C139.683 249.38 140.668 249.836 141.475 250.694C142.281 251.552 142.659 252.579 142.609 253.774C142.605 253.893 142.567 253.987 142.493 254.055C142.419 254.123 142.328 254.155 142.216 254.15C142.116 254.146 142.028 254.106 141.957 254.031C141.886 253.956 141.852 253.858 141.857 253.742C141.897 252.757 141.584 251.917 140.916 251.223C140.248 250.528 139.438 250.159 138.484 250.117C137.53 250.074 136.699 250.367 135.989 250.998C135.278 251.63 134.901 252.439 134.861 253.423C134.816 254.487 134.954 255.397 135.274 256.155C135.593 256.912 136.078 257.682 136.723 258.46C136.795 258.542 136.829 258.636 136.824 258.741C136.819 258.846 136.777 258.935 136.699 259.012C136.621 259.09 136.531 259.122 136.431 259.117C136.33 259.113 136.246 259.068 136.172 258.986L136.174 258.984ZM141.91 257.904C140.793 257.852 139.842 257.415 139.053 256.59C138.265 255.764 137.896 254.754 137.945 253.561C137.95 253.456 137.988 253.365 138.059 253.29C138.131 253.215 138.225 253.18 138.336 253.185C138.448 253.189 138.537 253.234 138.604 253.316C138.671 253.397 138.701 253.491 138.696 253.596C138.656 254.581 138.96 255.404 139.612 256.063C140.261 256.725 141.039 257.076 141.941 257.116C142.017 257.118 142.124 257.116 142.263 257.111C142.402 257.107 142.546 257.09 142.699 257.071C142.813 257.05 142.909 257.071 142.989 257.134C143.069 257.198 143.118 257.289 143.139 257.408C143.159 257.513 143.139 257.604 143.072 257.682C143.005 257.759 142.922 257.806 142.822 257.829C142.594 257.885 142.395 257.911 142.225 257.911C142.055 257.911 141.953 257.908 141.915 257.906L141.91 257.904Z" fill="#28A8E8"></path><path d="M109.825 246.589L97.0944 258.807C96.7418 259.145 96.7178 259.719 97.0413 260.089L108.711 273.417C109.034 273.787 109.583 273.812 109.936 273.473L122.667 261.256C123.02 260.917 123.044 260.343 122.72 259.973L111.05 246.645C110.726 246.275 110.178 246.25 109.825 246.589Z" fill="#1678D1"></path><path d="M165.352 350.305C165.042 350.305 164.776 350.187 164.552 349.956C164.329 349.725 164.22 349.446 164.22 349.119V343.2C164.22 342.875 164.331 342.597 164.552 342.363C164.774 342.129 165.039 342.015 165.352 342.015H165.917V340.831C165.917 340.013 166.192 339.313 166.744 338.738C167.295 338.163 167.961 337.873 168.743 337.873C169.525 337.873 170.192 338.16 170.742 338.738C171.291 339.316 171.568 340.013 171.568 340.831V342.015H172.134C172.444 342.015 172.71 342.131 172.933 342.363C173.157 342.595 173.266 342.873 173.266 343.2V349.119C173.266 349.444 173.154 349.722 172.933 349.956C172.712 350.19 172.446 350.305 172.134 350.305H165.35H165.352ZM168.745 347.344C169.056 347.344 169.321 347.227 169.545 346.996C169.768 346.764 169.878 346.486 169.878 346.159C169.878 345.831 169.766 345.555 169.545 345.321C169.324 345.09 169.058 344.973 168.745 344.973C168.433 344.973 168.169 345.09 167.946 345.321C167.725 345.553 167.612 345.831 167.612 346.159C167.612 346.486 167.725 346.762 167.946 346.996C168.167 347.229 168.433 347.344 168.745 347.344ZM167.05 342.017H170.443V340.833C170.443 340.34 170.277 339.922 169.949 339.575C169.619 339.229 169.219 339.058 168.747 339.058C168.276 339.058 167.876 339.232 167.546 339.575C167.215 339.919 167.052 340.34 167.052 340.833V342.017H167.05Z" fill="#1678D1"></path><path d="M158.874 187.658C159.055 187.622 159.247 187.615 159.352 187.419C159.712 187.725 160.071 188.032 160.431 188.341C159.714 188.61 159.37 187.943 158.874 187.66V187.658Z" fill="#5D7087"></path><path d="M374.277 242.315C374.475 242.427 374.673 242.54 374.871 242.652C374.631 241.969 374.1 241.522 373.645 241.017C362.635 228.726 351.616 216.44 340.602 204.151C330.94 193.377 321.286 182.601 311.628 171.826C303.082 162.292 294.544 152.748 285.973 143.232C284.903 142.042 283.888 140.796 282.447 139.975C269.714 132.702 257.015 125.376 244.297 118.077C232.369 111.232 220.43 104.406 208.498 97.5734C208.156 97.344 207.953 97.419 207.917 97.8632C209.045 99.1472 210.167 100.438 211.306 101.713C219.474 110.837 227.649 119.957 235.82 129.08C243.928 138.135 252.033 147.192 260.141 156.247C268.249 165.301 276.361 174.349 284.465 183.408C287.16 186.422 289.852 189.444 292.543 192.465C291.975 191.841 291.41 191.216 290.846 190.587C286.798 186.037 282.725 181.505 278.665 176.965C274.634 172.459 270.599 167.96 266.568 163.456C262.47 158.884 258.372 154.315 254.282 149.741C250.251 145.237 246.242 140.705 242.177 136.238C237.238 130.813 232.418 125.273 227.455 119.873C225.959 118.246 224.46 116.611 223.001 114.944C217.926 109.137 212.755 103.427 207.589 97.7114C207.049 97.4331 206.769 96.6987 206.044 96.7547C205.501 96.9466 205.173 97.412 204.813 97.8283C191.35 113.398 177.884 128.963 164.433 144.54C144.33 167.82 124.236 191.109 104.136 214.391C103.87 214.7 103.649 215.083 103.202 215.156V215.439C121.541 236.036 139.881 256.636 158.219 277.234C168.049 288.276 177.864 299.333 187.723 310.345C190.026 312.917 192.139 315.686 194.741 317.959C194.936 318.139 195.092 318.169 195.226 318.122C196.441 319.282 197.991 319.867 199.405 320.662C211.782 327.631 224.181 334.553 236.573 341.491C247.931 347.852 259.307 354.185 270.624 360.62C272.002 361.403 272.764 361.153 273.699 360.04C276.504 356.715 279.372 353.445 282.216 350.158C291.288 339.66 300.365 329.163 309.446 318.67C318.767 307.898 328.097 297.134 337.426 286.368C344.877 277.769 352.328 269.171 359.775 260.569C364.408 255.219 369.046 249.875 373.649 244.499C374.083 243.99 374.862 243.59 374.618 242.654C374.509 242.533 374.395 242.42 374.273 242.318L374.277 242.315ZM297.686 199.49C297.783 199.249 297.825 198.987 297.762 198.681C297.665 198.302 297.421 198.024 297.185 197.736C296.911 197.402 296.637 197.07 296.355 196.742C296.928 197.385 297.501 198.028 298.074 198.672C298.006 198.676 297.939 198.688 297.867 198.721C297.893 199.022 297.813 199.27 297.686 199.49Z" fill="white"></path><path d="M103.203 215.151C103.65 215.078 103.871 214.693 104.137 214.386C124.237 191.104 144.332 167.815 164.434 144.535C177.887 128.956 191.352 113.391 204.814 97.823C205.174 97.4071 205.502 96.9417 206.045 96.7499C206.77 96.6961 207.052 97.4305 207.59 97.7061C212.756 103.422 217.928 109.135 223.003 114.939C224.461 116.606 225.96 118.241 227.456 119.871C232.419 125.27 237.242 130.81 242.178 136.236C246.246 140.705 250.252 145.234 254.283 149.738C258.373 154.312 262.471 158.882 266.569 163.453C270.6 167.957 274.635 172.459 278.666 176.963C282.726 181.502 286.799 186.034 290.847 190.585C292.966 192.963 295.164 195.262 297.182 197.736C297.418 198.024 297.662 198.302 297.759 198.681C297.902 199.371 297.54 199.843 297.14 200.315C293.745 204.347 290.249 208.283 286.82 212.282C282.996 216.734 279.142 221.153 275.33 225.618C272.449 228.992 269.509 232.311 266.616 235.673C263.478 239.315 260.344 242.956 257.193 246.583C254.283 249.931 251.381 253.285 248.483 256.643C245.345 260.281 242.191 263.904 239.056 267.545C236.161 270.905 233.257 274.259 230.347 277.605C227.193 281.23 224.068 284.878 220.925 288.512C218.024 291.866 215.127 295.223 212.216 298.57C209.062 302.195 205.935 305.843 202.792 309.477C200.433 312.201 198.093 314.944 195.719 317.654C195.468 317.94 195.218 318.403 194.74 317.959C192.14 315.685 190.025 312.917 187.722 310.344C177.863 299.332 168.048 288.273 158.218 277.234C139.88 256.636 121.539 236.036 103.201 215.438V215.155L103.203 215.151Z" fill="#C9E9F9"></path><path d="M209.399 281.345C206.654 281.345 204.305 280.321 202.35 278.275C200.395 276.228 199.417 273.768 199.417 270.894V218.642C199.417 215.768 200.395 213.308 202.35 211.262C204.305 209.216 206.654 208.191 209.399 208.191H214.389V197.741C214.389 190.512 216.822 184.351 221.689 179.257C226.556 174.162 232.439 171.615 239.344 171.615C246.248 171.615 252.135 174.162 256.999 179.257C261.864 184.353 264.299 190.512 264.299 197.741V208.191H269.286C272.032 208.191 274.382 209.216 276.337 211.262C278.291 213.308 279.268 215.768 279.268 218.642V270.894C279.268 273.768 278.291 276.228 276.337 278.275C274.382 280.321 272.032 281.345 269.286 281.345H209.397H209.399ZM239.346 255.219C242.091 255.219 244.441 254.195 246.395 252.148C248.348 250.102 249.329 247.642 249.329 244.768C249.329 241.894 248.348 239.434 246.395 237.388C244.441 235.342 242.091 234.318 239.346 234.318C236.6 234.318 234.251 235.342 232.297 237.388C230.342 239.434 229.364 241.894 229.364 244.768C229.364 247.642 230.342 250.102 232.297 252.148C234.251 254.195 236.6 255.219 239.346 255.219ZM224.374 208.191H254.321V197.741C254.321 193.387 252.863 189.685 249.953 186.638C247.043 183.591 243.507 182.066 239.348 182.066C235.189 182.066 231.653 183.591 228.743 186.638C225.832 189.685 224.376 193.387 224.376 197.741V208.191H224.374Z" fill="#1678D1"></path><path d="M195.057 317.957C196.189 317.267 196.904 316.121 197.759 315.148C200.871 311.617 203.906 308.011 206.982 304.443C212.649 297.867 218.32 291.291 223.995 284.724C227.742 280.391 231.505 276.076 235.251 271.746C241.896 264.061 248.529 256.365 255.175 248.681C258.983 244.28 262.811 239.902 266.619 235.501C273.173 227.92 279.71 220.327 286.26 212.745C289.882 208.552 293.521 204.371 297.147 200.183C297.51 199.767 297.918 199.369 297.868 198.726C298.209 198.574 298.474 198.78 298.748 198.939C307.084 203.819 315.524 208.501 323.889 213.32C338.138 221.529 352.451 229.615 366.704 237.819C369.109 239.203 371.582 240.459 373.89 242.028C374.155 242.208 374.404 242.416 374.618 242.659C374.863 243.597 374.084 243.997 373.65 244.504C369.046 249.881 364.409 255.227 359.775 260.575C352.329 269.176 344.878 277.774 337.427 286.373C328.097 297.139 318.768 307.904 309.446 318.675C300.365 329.168 291.289 339.665 282.216 350.163C279.373 353.451 276.505 356.72 273.699 360.045C272.764 361.156 272.002 361.409 270.625 360.625C259.307 354.19 247.931 347.857 236.573 341.496C224.181 334.558 211.782 327.636 199.405 320.667C197.925 319.832 196.294 319.234 195.057 317.962V317.957Z" fill="#98CDF9" fill-opacity="0.75"></path><path d="M374.871 242.652C370.537 240.196 366.203 237.743 361.873 235.285C354.666 231.196 347.455 227.12 340.261 223.008C334.912 219.952 329.605 216.823 324.256 213.767C317.731 210.039 311.169 206.382 304.653 202.635C302.455 201.372 300.172 200.255 298.121 198.72C293.567 193.615 289.027 188.501 284.465 183.403C276.361 174.344 268.249 165.296 260.141 156.242C252.033 147.187 243.929 138.13 235.821 129.075C227.65 119.953 219.477 110.832 211.307 101.708C210.167 100.436 209.048 99.1423 207.918 97.8583C207.954 97.4141 208.157 97.3391 208.499 97.5685C220.433 104.402 232.37 111.23 244.297 118.073C257.016 125.369 269.719 132.698 282.448 139.97C283.888 140.791 284.903 142.037 285.973 143.228C294.54 152.743 303.078 162.287 311.628 171.821C321.286 182.594 330.94 193.372 340.603 204.146C351.617 216.435 362.631 228.721 373.646 241.012C374.1 241.517 374.631 241.964 374.871 242.647V242.652Z" fill="#B4E1F7"></path><path d="M446.867 46.1657L347.78 141.259C347.426 141.598 347.401 142.171 347.725 142.541L359.396 155.87C359.716 156.239 360.264 156.264 360.618 155.925L459.705 60.8325C460.058 60.4937 460.084 59.9199 459.759 59.5502L448.088 46.2215C447.768 45.8521 447.216 45.8271 446.867 46.1657Z" fill="white"></path><g opacity="0.75"><path d="M446.867 46.1657L347.78 141.259C347.426 141.598 347.401 142.171 347.725 142.541L359.396 155.87C359.716 156.239 360.264 156.264 360.618 155.925L459.705 60.8325C460.058 60.4937 460.084 59.9199 459.759 59.5502L448.088 46.2215C447.768 45.8521 447.216 45.8271 446.867 46.1657Z" fill="white"></path><path d="M446.867 46.1657L347.78 141.259C347.426 141.598 347.401 142.171 347.725 142.541L359.396 155.87C359.716 156.239 360.264 156.264 360.618 155.925L459.705 60.8325C460.058 60.4937 460.084 59.9199 459.759 59.5502L448.088 46.2215C447.768 45.8521 447.216 45.8271 446.867 46.1657Z" fill="url(#paint8_linear_1424_61440)"></path></g><path opacity="0.25" d="M403.93 85.3828C414.405 85.3828 422.897 76.4941 422.897 65.5288C422.897 54.564 414.405 45.675 403.93 45.675C393.459 45.675 384.968 54.564 384.968 65.5288C384.968 76.4941 393.459 85.3828 403.93 85.3828Z" fill="#28A8E8"></path><path opacity="0.05" d="M403.93 91.0508C417.396 91.0508 428.309 79.6242 428.309 65.5285C428.309 51.4329 417.396 40.0061 403.93 40.0061C390.469 40.0061 379.556 51.4329 379.556 65.5285C379.556 79.6242 390.469 91.0508 403.93 91.0508Z" fill="#28A8E8"></path><path opacity="0.25" d="M403.93 81.4216C412.316 81.4216 419.11 74.3065 419.11 65.5294C419.11 56.7519 412.316 49.6367 403.93 49.6367C395.548 49.6367 388.75 56.7519 388.75 65.5294C388.75 74.3065 395.548 81.4216 403.93 81.4216Z" fill="#28A8E8"></path><path d="M395.611 62.7828C395.502 62.6942 395.439 62.5865 395.422 62.4604C395.405 62.3338 395.443 62.2054 395.544 62.0766C396.593 60.7018 397.877 59.6564 399.402 58.9383C400.927 58.2207 402.536 57.9027 404.225 57.9772C405.918 58.0544 407.498 58.5083 408.968 59.3362C410.438 60.1637 411.642 61.3189 412.586 62.8018C412.674 62.9562 412.704 63.0916 412.666 63.2063C412.628 63.3209 412.56 63.4189 412.463 63.4987C412.362 63.5781 412.249 63.6107 412.122 63.5966C411.996 63.5829 411.886 63.5058 411.794 63.3677C410.972 62.0255 409.886 60.9753 408.534 60.2201C407.182 59.4646 405.733 59.0508 404.187 58.9807C402.637 58.9106 401.171 59.1911 399.79 59.8223C398.404 60.4539 397.237 61.4009 396.289 62.6637C396.188 62.8088 396.075 62.8882 395.944 62.8997C395.814 62.9116 395.704 62.8719 395.611 62.7855V62.7828ZM406.2 75.6399C404.558 75.1305 403.239 74.2042 402.241 72.862C401.243 71.5198 400.779 69.9129 400.859 68.0423C400.893 67.2073 401.209 66.5175 401.807 65.9776C402.405 65.435 403.113 65.1823 403.926 65.2198C404.739 65.2573 405.421 65.5727 405.969 66.1668C406.52 66.7609 406.777 67.4764 406.744 68.3113C406.723 68.8631 406.904 69.3355 407.287 69.7285C407.67 70.1211 408.134 70.3315 408.677 70.3575C409.216 70.3831 409.688 70.2146 410.088 69.8569C410.488 69.4992 410.699 69.0431 410.72 68.4935C410.8 66.5549 410.189 64.8969 408.888 63.515C407.586 62.1327 405.994 61.4009 404.111 61.3145C402.228 61.228 400.581 61.8146 399.17 63.0731C397.759 64.331 397.014 65.9189 396.934 67.8411C396.921 68.2412 396.934 68.7436 396.98 69.3496C397.027 69.9553 397.17 70.6636 397.406 71.4774C397.448 71.6296 397.439 71.7628 397.376 71.8775C397.317 71.9922 397.22 72.0716 397.09 72.1161C396.963 72.1602 396.841 72.151 396.719 72.0857C396.601 72.0199 396.525 71.922 396.483 71.7862C396.268 71.1246 396.125 70.4696 396.049 69.822C395.974 69.1741 395.948 68.5076 395.974 67.8226C396.066 65.6009 396.917 63.7744 398.518 62.3409C400.118 60.9073 401.988 60.2409 404.128 60.337C406.28 60.4349 408.1 61.2699 409.587 62.8437C411.074 64.4175 411.769 66.3141 411.676 68.5358C411.638 69.3704 411.33 70.0558 410.741 70.5891C410.151 71.1219 409.448 71.3698 408.635 71.335C407.822 71.2997 407.135 70.9865 406.575 70.3994C406.019 69.8123 405.754 69.104 405.788 68.2668C405.813 67.715 405.636 67.2426 405.261 66.8496C404.886 66.4566 404.427 66.2462 403.884 66.2228C403.34 66.1994 402.869 66.3657 402.46 66.7234C402.056 67.0812 401.841 67.5346 401.82 68.0868C401.752 69.7074 402.153 71.08 403.024 72.207C403.896 73.3344 405.05 74.1482 406.482 74.6484C406.626 74.7048 406.718 74.7935 406.76 74.913C406.803 75.0321 406.807 75.1582 406.769 75.2892C406.735 75.4039 406.664 75.5023 406.567 75.5817C406.47 75.6611 406.348 75.6796 406.204 75.6399H406.2ZM398.939 57.6874C398.808 57.7646 398.682 57.781 398.551 57.732C398.425 57.6826 398.332 57.5913 398.278 57.4559C398.219 57.32 398.206 57.1987 398.244 57.0911C398.278 56.9835 398.362 56.8948 398.488 56.8176C398.492 56.8176 398.497 56.8128 398.501 56.8106C399.411 56.3523 400.358 56.0104 401.34 55.7886C402.325 55.5663 403.319 55.4776 404.326 55.5217C405.328 55.5663 406.335 55.744 407.3 56.0457C408.264 56.3474 409.187 56.7638 410.075 57.29C410.218 57.3809 410.294 57.4841 410.315 57.601C410.336 57.7179 410.315 57.8348 410.265 57.9494C410.21 58.0637 410.126 58.1528 410.012 58.2137C409.898 58.2745 409.764 58.2604 409.608 58.1691C408.782 57.6804 407.919 57.2922 407.03 57.0091C406.137 56.7263 405.223 56.5627 404.28 56.5203C403.353 56.4784 402.443 56.5486 401.538 56.7334C400.632 56.9182 399.764 57.2336 398.93 57.6804L398.939 57.6874ZM401.045 75.0533C400.148 73.9748 399.469 72.8854 399.01 71.784C398.551 70.6848 398.353 69.3986 398.417 67.9276C398.48 66.4076 399.061 65.1497 400.156 64.1533C401.251 63.1573 402.54 62.6942 404.027 62.7621C405.509 62.8296 406.765 63.4096 407.792 64.5017C408.816 65.5938 409.3 66.9012 409.233 68.4212C409.229 68.5707 409.178 68.6902 409.085 68.7789C408.993 68.8675 408.875 68.9077 408.732 68.9006C408.605 68.8958 408.496 68.8442 408.403 68.7484C408.315 68.6527 408.273 68.5288 408.277 68.3788C408.327 67.1257 407.931 66.057 407.076 65.1752C406.226 64.2913 405.198 63.8211 403.985 63.7673C402.772 63.7135 401.714 64.0853 400.809 64.8899C399.903 65.6944 399.427 66.7208 399.373 67.9743C399.318 69.3285 399.495 70.4859 399.903 71.4496C400.308 72.413 400.923 73.3904 401.748 74.3819C401.837 74.4874 401.879 74.6065 401.875 74.7397C401.87 74.8729 401.82 74.9876 401.719 75.0837C401.618 75.1794 401.504 75.224 401.378 75.2191C401.247 75.2143 401.137 75.1583 401.049 75.0533H401.045ZM408.344 73.678C406.921 73.6127 405.712 73.0561 404.709 72.0058C403.707 70.9561 403.235 69.6721 403.298 68.1521C403.302 68.0189 403.353 67.9042 403.446 67.8085C403.534 67.7123 403.656 67.6682 403.795 67.6727C403.938 67.6775 404.052 67.7335 404.141 67.8389C404.225 67.9439 404.263 68.0608 404.254 68.1967C404.204 69.4502 404.591 70.4951 405.417 71.3372C406.247 72.1792 407.236 72.6256 408.386 72.6772C408.479 72.682 408.618 72.6772 408.795 72.6701C408.972 72.6631 409.153 72.6445 409.347 72.6211C409.494 72.5951 409.616 72.6211 409.717 72.7005C409.818 72.7799 409.877 72.8968 409.907 73.049C409.932 73.1848 409.903 73.2991 409.818 73.3975C409.734 73.4958 409.629 73.5562 409.498 73.5845C409.208 73.6546 408.955 73.6899 408.74 73.6872C408.525 73.685 408.39 73.685 408.344 73.6828V73.678Z" fill="#28A8E8"></path><path opacity="0.25" d="M374.214 211.503C380.124 211.503 384.913 206.487 384.913 200.299C384.913 194.111 380.124 189.095 374.214 189.095C368.301 189.095 363.512 194.111 363.512 200.299C363.512 206.487 368.301 211.503 374.214 211.503Z" fill="#28A8E8"></path><path opacity="0.05" d="M374.214 214.699C381.809 214.699 387.966 208.252 387.966 200.299C387.966 192.346 381.809 185.898 374.214 185.898C366.616 185.898 360.458 192.346 360.458 200.299C360.458 208.252 366.616 214.699 374.214 214.699Z" fill="#28A8E8"></path><path opacity="0.25" d="M374.215 209.267C378.945 209.267 382.778 205.252 382.778 200.299C382.778 195.346 378.945 191.331 374.215 191.331C369.48 191.331 365.647 195.346 365.647 200.299C365.647 205.252 369.48 209.267 374.215 209.267Z" fill="#28A8E8"></path><path d="M369.518 198.749C369.459 198.699 369.421 198.639 369.409 198.566C369.4 198.494 369.426 198.423 369.48 198.349C370.07 197.572 370.799 196.983 371.658 196.578C372.517 196.174 373.423 195.994 374.379 196.036C375.331 196.08 376.224 196.335 377.054 196.803C377.879 197.271 378.561 197.923 379.092 198.758C379.143 198.844 379.16 198.921 379.138 198.987C379.117 199.052 379.08 199.106 379.021 199.151C378.966 199.195 378.903 199.214 378.831 199.207C378.759 199.2 378.696 199.155 378.646 199.078C378.182 198.321 377.567 197.729 376.805 197.301C376.043 196.873 375.226 196.642 374.354 196.602C373.482 196.562 372.652 196.721 371.873 197.076C371.089 197.432 370.432 197.967 369.897 198.678C369.838 198.76 369.775 198.805 369.704 198.812C369.632 198.819 369.569 198.795 369.514 198.746L369.518 198.749ZM375.491 206.003C374.564 205.715 373.823 205.193 373.259 204.436C372.694 203.678 372.433 202.771 372.479 201.716C372.5 201.244 372.677 200.856 373.014 200.551C373.351 200.247 373.751 200.103 374.21 200.123C374.67 200.145 375.053 200.322 375.365 200.657C375.676 200.991 375.819 201.396 375.803 201.866C375.79 202.177 375.891 202.444 376.11 202.665C376.325 202.888 376.586 203.007 376.893 203.021C377.201 203.035 377.466 202.941 377.69 202.738C377.917 202.537 378.035 202.279 378.048 201.968C378.094 200.876 377.749 199.939 377.016 199.16C376.279 198.381 375.381 197.967 374.32 197.918C373.259 197.869 372.328 198.201 371.532 198.91C370.736 199.618 370.314 200.516 370.272 201.599C370.26 201.826 370.272 202.109 370.293 202.45C370.319 202.792 370.403 203.192 370.538 203.65C370.563 203.736 370.554 203.811 370.521 203.877C370.487 203.942 370.432 203.987 370.361 204.01C370.285 204.034 370.218 204.029 370.15 203.994C370.083 203.959 370.036 203.9 370.015 203.825C369.893 203.451 369.813 203.082 369.771 202.717C369.725 202.352 369.712 201.976 369.729 201.59C369.779 200.336 370.26 199.305 371.165 198.496C372.067 197.687 373.124 197.31 374.328 197.366C375.546 197.423 376.573 197.892 377.407 198.781C378.246 199.67 378.641 200.741 378.587 201.994C378.57 202.467 378.393 202.852 378.06 203.152C377.727 203.451 377.332 203.594 376.872 203.573C376.409 203.552 376.026 203.376 375.71 203.044C375.394 202.715 375.247 202.313 375.263 201.842C375.28 201.531 375.179 201.265 374.964 201.043C374.754 200.82 374.493 200.703 374.189 200.689C373.882 200.675 373.612 200.769 373.385 200.972C373.153 201.176 373.035 201.431 373.018 201.742C372.981 202.656 373.208 203.43 373.701 204.066C374.194 204.702 374.846 205.161 375.655 205.444C375.735 205.476 375.786 205.525 375.811 205.593C375.836 205.661 375.836 205.731 375.815 205.806C375.794 205.872 375.756 205.925 375.697 205.97C375.638 206.014 375.575 206.026 375.495 206.003H375.491ZM371.397 195.872C371.321 195.916 371.249 195.923 371.178 195.898C371.11 195.872 371.056 195.818 371.022 195.741C370.988 195.664 370.984 195.596 371.005 195.535C371.026 195.474 371.073 195.425 371.144 195.381C371.144 195.381 371.148 195.379 371.153 195.377C371.666 195.117 372.201 194.925 372.753 194.799C373.309 194.673 373.869 194.624 374.438 194.649C375.007 194.675 375.575 194.773 376.118 194.946C376.662 195.119 377.184 195.35 377.685 195.648C377.765 195.699 377.807 195.758 377.82 195.823C377.833 195.889 377.82 195.957 377.791 196.02C377.761 196.083 377.715 196.134 377.652 196.169C377.584 196.204 377.508 196.195 377.42 196.144C376.952 195.867 376.468 195.65 375.967 195.489C375.466 195.33 374.943 195.236 374.417 195.213C373.895 195.189 373.376 195.229 372.867 195.334C372.357 195.44 371.869 195.617 371.397 195.87V195.872ZM372.585 205.67C372.079 205.063 371.696 204.447 371.435 203.825C371.178 203.203 371.064 202.478 371.102 201.65C371.136 200.793 371.464 200.084 372.083 199.52C372.703 198.959 373.427 198.697 374.265 198.734C375.103 198.772 375.811 199.099 376.392 199.717C376.969 200.334 377.243 201.07 377.205 201.929C377.201 202.013 377.176 202.081 377.125 202.13C377.07 202.179 377.003 202.202 376.923 202.198C376.851 202.196 376.792 202.165 376.738 202.111C376.687 202.058 376.662 201.987 376.666 201.903C376.696 201.197 376.472 200.594 375.992 200.096C375.512 199.597 374.931 199.331 374.248 199.3C373.562 199.27 372.964 199.48 372.454 199.934C371.944 200.388 371.675 200.968 371.645 201.674C371.616 202.436 371.713 203.091 371.944 203.636C372.172 204.181 372.521 204.733 372.985 205.292C373.035 205.35 373.061 205.418 373.056 205.493C373.056 205.568 373.023 205.633 372.968 205.687C372.913 205.741 372.85 205.766 372.778 205.764C372.707 205.762 372.644 205.729 372.593 205.67H372.585ZM376.704 204.894C375.899 204.857 375.217 204.544 374.653 203.952C374.088 203.36 373.823 202.635 373.857 201.777C373.861 201.702 373.89 201.636 373.941 201.583C373.991 201.529 374.059 201.503 374.139 201.508C374.219 201.512 374.286 201.543 374.333 201.601C374.379 201.66 374.4 201.728 374.4 201.803C374.371 202.509 374.59 203.1 375.053 203.575C375.52 204.05 376.081 204.302 376.729 204.33C376.78 204.333 376.86 204.33 376.957 204.326C377.058 204.321 377.163 204.312 377.273 204.298C377.353 204.284 377.424 204.298 377.479 204.342C377.534 204.386 377.572 204.452 377.584 204.539C377.601 204.616 377.584 204.681 377.538 204.735C377.487 204.789 377.428 204.824 377.357 204.84C377.193 204.88 377.049 204.899 376.927 204.899C376.805 204.899 376.729 204.899 376.704 204.896V204.894Z" fill="#28A8E8"></path><path d="M261.376 63.1387L253.988 70.2256C253.638 70.5643 253.613 71.1382 253.937 71.5078L260.706 79.2391C261.03 79.6082 261.578 79.6334 261.932 79.2946L269.315 72.2078C269.669 71.869 269.69 71.2952 269.37 70.926L262.597 63.1943C262.277 62.8251 261.725 62.7999 261.376 63.1387Z" fill="#1678D1"></path><g opacity="0.75"><path d="M257.731 83.7466L224.924 115.231C224.571 115.57 224.547 116.144 224.87 116.514L231.64 124.245C231.963 124.615 232.511 124.639 232.864 124.301L265.671 92.8156C266.025 92.4773 266.05 91.903 265.726 91.5339L258.957 83.8026C258.633 83.433 258.085 83.4078 257.731 83.7466Z" fill="white"></path><path d="M257.731 83.7466L224.924 115.231C224.571 115.57 224.547 116.144 224.87 116.514L231.64 124.245C231.963 124.615 232.511 124.639 232.864 124.301L265.671 92.8156C266.025 92.4773 266.05 91.903 265.726 91.5339L258.957 83.8026C258.633 83.433 258.085 83.4078 257.731 83.7466Z" fill="url(#paint9_linear_1424_61440)"></path></g><g opacity="0.15"><path d="M378.624 158.61L383.27 163.917C383.595 164.286 383.573 164.859 383.22 165.198L334.159 212.279L328.342 205.635L377.403 158.554C377.757 158.215 378.304 158.243 378.624 158.613V158.61Z" fill="white"></path><path d="M378.624 158.61L383.27 163.917C383.595 164.286 383.573 164.859 383.22 165.198L334.159 212.279L328.342 205.635L377.403 158.554C377.757 158.215 378.304 158.243 378.624 158.613V158.61Z" fill="url(#paint10_linear_1424_61440)"></path></g><g opacity="0.35"><path d="M351.748 98.96L283.665 164.299C283.312 164.637 283.286 165.211 283.611 165.581L288.256 170.885C288.577 171.254 289.128 171.279 289.478 170.941L357.56 105.602C357.914 105.263 357.939 104.69 357.615 104.32L352.969 99.0156C352.649 98.6464 352.102 98.6212 351.748 98.96Z" fill="white"></path><path d="M351.748 98.96L283.665 164.299C283.312 164.637 283.286 165.211 283.611 165.581L288.256 170.885C288.577 171.254 289.128 171.279 289.478 170.941L357.56 105.602C357.914 105.263 357.939 104.69 357.615 104.32L352.969 99.0156C352.649 98.6464 352.102 98.6212 351.748 98.96Z" fill="url(#paint11_linear_1424_61440)"></path></g><g opacity="0.75"><path d="M327.942 172.777L335.962 181.932C336.282 182.302 336.261 182.877 335.907 183.214L322.412 196.165L313.226 185.672L326.721 172.721C327.075 172.382 327.622 172.405 327.946 172.775L327.942 172.777Z" fill="white"></path><path d="M327.942 172.777L335.962 181.932C336.282 182.302 336.261 182.877 335.907 183.214L322.412 196.165L313.226 185.672L326.721 172.721C327.075 172.382 327.622 172.405 327.946 172.775L327.942 172.777Z" fill="url(#paint12_linear_1424_61440)"></path></g><path d="M282.018 101.184L272.507 110.313C272.153 110.652 272.128 111.226 272.452 111.595L281.171 121.554C281.496 121.923 282.043 121.948 282.397 121.61L291.908 112.481C292.261 112.142 292.287 111.568 291.962 111.199L283.244 101.24C282.919 100.871 282.372 100.846 282.018 101.184Z" fill="#1678D1"></path><path d="M340.725 158.542L331.21 167.67C330.861 168.009 330.836 168.583 331.16 168.952L339.879 178.911C340.203 179.281 340.751 179.305 341.104 178.967L350.615 169.838C350.969 169.5 350.99 168.926 350.67 168.556L341.951 158.597C341.627 158.228 341.079 158.203 340.725 158.542Z" fill="#1678D1"></path><path d="M275.414 125.254L272.786 127.776C272.432 128.115 272.411 128.689 272.736 129.058L275.141 131.81C275.465 132.179 276.013 132.204 276.366 131.865L278.995 129.343C279.348 129.005 279.374 128.431 279.049 128.061L276.64 125.31C276.316 124.941 275.768 124.915 275.414 125.254Z" fill="#1678D1"></path><path d="M256.494 133.212L258.684 131.109C259.038 130.77 259.059 130.197 258.739 129.827L256.73 127.533C256.405 127.163 255.858 127.139 255.504 127.477L253.314 129.58C252.96 129.919 252.935 130.493 253.259 130.862L255.268 133.157C255.593 133.526 256.14 133.551 256.494 133.212Z" fill="#1678D1"></path><path opacity="0.25" d="M278.695 146.831L279.596 145.968C279.946 145.63 279.971 145.056 279.647 144.686L278.825 143.745C278.501 143.376 277.953 143.35 277.6 143.689L276.702 144.552C276.349 144.891 276.323 145.465 276.648 145.834L277.473 146.775C277.793 147.145 278.341 147.169 278.695 146.831Z" fill="#1678D1"></path><path opacity="0.25" d="M318.797 94.1311C318.477 93.7617 317.93 93.737 317.576 94.075C317.222 94.4135 317.201 94.9871 317.521 95.356C317.845 95.7249 318.393 95.7501 318.747 95.4116C319.096 95.0736 319.122 94.5 318.797 94.1311Z" fill="#1678D1"></path><path opacity="0.25" d="M318.605 90.3554C318.285 89.9865 317.737 89.9614 317.383 90.2998C317.03 90.6379 317.009 91.2115 317.329 91.5804C317.653 91.9497 318.201 91.9744 318.554 91.6364C318.904 91.298 318.929 90.7243 318.605 90.3554Z" fill="#1678D1"></path><path opacity="0.25" d="M294.326 172.323L293.424 173.185C293.075 173.524 293.049 174.098 293.374 174.467L294.195 175.408C294.519 175.778 295.067 175.803 295.421 175.464L296.322 174.602C296.672 174.263 296.697 173.689 296.373 173.319L295.551 172.378C295.227 172.009 294.679 171.984 294.326 172.323Z" fill="#1678D1"></path><path opacity="0.25" d="M324.147 116.094L322.075 118.08C321.725 118.419 321.7 118.993 322.024 119.362L323.92 121.529C324.244 121.898 324.791 121.923 325.145 121.585L327.213 119.599C327.567 119.26 327.592 118.686 327.268 118.316L325.373 116.15C325.048 115.78 324.501 115.755 324.147 116.094Z" fill="#1678D1"></path><path opacity="0.25" d="M257.563 124.022L258.22 123.393C258.574 123.054 258.595 122.48 258.275 122.111L257.673 121.425C257.349 121.056 256.801 121.03 256.447 121.369L255.794 121.998C255.44 122.336 255.415 122.91 255.74 123.28L256.342 123.966C256.662 124.335 257.214 124.361 257.563 124.022Z" fill="#1678D1"></path><path opacity="0.25" d="M382.432 225.366L382.407 225.338C382.082 224.968 381.535 224.943 381.181 225.282L381.156 225.307C380.802 225.646 380.777 226.22 381.101 226.59L381.126 226.617C381.45 226.987 381.998 227.012 382.352 226.673L382.377 226.648C382.731 226.309 382.752 225.735 382.432 225.366Z" fill="#1678D1"></path><path d="M322.07 85.0945L319.442 87.6166C319.088 87.9554 319.063 88.5292 319.387 88.8984L321.796 91.6499C322.121 92.0191 322.668 92.0442 323.022 91.7055L325.65 89.1838C326.004 88.845 326.025 88.2712 325.701 87.9016L323.296 85.1505C322.971 84.7809 322.424 84.7562 322.07 85.0945Z" fill="#1678D1"></path><path d="M335.91 84.3469L333.282 86.8691C332.928 87.2074 332.903 87.7817 333.227 88.1508L335.636 90.9023C335.96 91.2715 336.508 91.2966 336.862 90.9579L339.49 88.4358C339.84 88.0975 339.865 87.5232 339.541 87.154L337.131 84.4025C336.811 84.0333 336.259 84.0082 335.91 84.3469Z" fill="#1678D1"></path><path d="M375.929 217.931L373.3 220.453C372.951 220.792 372.925 221.366 373.25 221.735L375.659 224.487C375.979 224.856 376.531 224.881 376.88 224.542L379.509 222.02C379.863 221.682 379.888 221.108 379.563 220.738L377.154 217.987C376.83 217.618 376.282 217.593 375.929 217.931Z" fill="#1678D1"></path><g opacity="0.75"><path d="M339.209 28.1562L285.077 80.1073C284.723 80.4461 284.697 81.0199 285.022 81.3895L296.693 94.7182C297.013 95.0878 297.565 95.1125 297.915 94.7742L352.051 42.8228C352.401 42.4841 352.426 41.9102 352.102 41.5408L340.435 28.212C340.11 27.8426 339.563 27.8176 339.209 28.1562Z" fill="white"></path><path d="M339.209 28.1562L285.077 80.1073C284.723 80.4461 284.697 81.0199 285.022 81.3895L296.693 94.7182C297.013 95.0878 297.565 95.1125 297.915 94.7742L352.051 42.8228C352.401 42.4841 352.426 41.9102 352.102 41.5408L340.435 28.212C340.11 27.8426 339.563 27.8176 339.209 28.1562Z" fill="url(#paint13_linear_1424_61440)"></path></g><path d="M347.515 20.1821L334.786 32.4C334.433 32.7386 334.407 33.3126 334.732 33.6819L346.403 47.0108C346.727 47.3802 347.275 47.4051 347.629 47.0665L360.357 34.8486C360.711 34.51 360.737 33.9361 360.412 33.5667L348.741 20.2379C348.416 19.8684 347.869 19.8435 347.515 20.1821Z" fill="#1678D1"></path><path d="M391.346 96.7436C390.971 96.7436 390.655 96.6055 390.389 96.3272C390.12 96.0489 389.989 95.7145 389.989 95.3242V88.2219C389.989 87.8315 390.12 87.4972 390.389 87.2189C390.655 86.9405 390.971 86.8025 391.346 86.8025H392.024V85.3831C392.024 84.4008 392.356 83.5636 393.018 82.8716C393.679 82.1795 394.479 81.8333 395.414 81.8333C396.354 81.8333 397.154 82.1795 397.815 82.8716C398.476 83.5636 398.805 84.4008 398.805 85.3831V86.8025H399.483C399.858 86.8025 400.178 86.9405 400.443 87.2189C400.709 87.4972 400.839 87.8315 400.839 88.2219V95.3242C400.839 95.7145 400.709 96.0489 400.443 96.3272C400.178 96.6055 399.858 96.7436 399.483 96.7436H391.346ZM395.414 93.1915C395.789 93.1915 396.109 93.0535 396.375 92.7752C396.64 92.4968 396.771 92.1625 396.771 91.7717C396.771 91.3813 396.64 91.047 396.375 90.7687C396.109 90.4904 395.789 90.3523 395.414 90.3523C395.044 90.3523 394.724 90.4904 394.458 90.7687C394.193 91.047 394.058 91.3813 394.058 91.7717C394.058 92.1625 394.193 92.4968 394.458 92.7752C394.724 93.0535 395.044 93.1915 395.414 93.1915ZM393.38 86.8003H397.449V85.3809C397.449 84.7889 397.251 84.2861 396.855 83.8724C396.459 83.4586 395.979 83.2504 395.414 83.2504C394.85 83.2504 394.37 83.4586 393.974 83.8724C393.578 84.2861 393.38 84.7889 393.38 85.3809V86.8003Z" fill="#1678D1"></path></g></g><defs><linearGradient id="paint0_linear_1424_61440" x1="21.7429" y1="321.776" x2="57.2495" y2="290.688" gradientUnits="userSpaceOnUse"><stop offset="0.00520833" stop-color="#4080D8" stop-opacity="0.35"></stop><stop offset="0.494792" stop-color="#4080D8" stop-opacity="0.5"></stop><stop offset="1" stop-color="#4080D8" stop-opacity="0.9"></stop></linearGradient><linearGradient id="paint1_linear_1424_61440" x1="57.7525" y1="475.362" x2="130.006" y2="412.1" gradientUnits="userSpaceOnUse"><stop offset="0.00520833" stop-color="#4080D8" stop-opacity="0.35"></stop><stop offset="0.494792" stop-color="#4080D8" stop-opacity="0.5"></stop><stop offset="1" stop-color="#4080D8" stop-opacity="0.9"></stop></linearGradient><linearGradient id="paint2_linear_1424_61440" x1="198.247" y1="418.966" x2="253.407" y2="418.966" gradientUnits="userSpaceOnUse"><stop offset="0.00520833" stop-color="#4080D8" stop-opacity="0.35"></stop><stop offset="0.494792" stop-color="#4080D8" stop-opacity="0.5"></stop><stop offset="1" stop-color="#4080D8" stop-opacity="0.9"></stop></linearGradient><linearGradient id="paint3_linear_1424_61440" x1="81.8909" y1="365.771" x2="154.144" y2="302.51" gradientUnits="userSpaceOnUse"><stop offset="0.00520833" stop-color="#4080D8" stop-opacity="0.35"></stop><stop offset="0.494792" stop-color="#4080D8" stop-opacity="0.5"></stop><stop offset="1" stop-color="#4080D8" stop-opacity="0.9"></stop></linearGradient><linearGradient id="paint4_linear_1424_61440" x1="126.665" y1="382.869" x2="149.627" y2="382.869" gradientUnits="userSpaceOnUse"><stop offset="0.00520833" stop-color="#4080D8" stop-opacity="0.35"></stop><stop offset="0.494792" stop-color="#4080D8" stop-opacity="0.5"></stop><stop offset="1" stop-color="#4080D8" stop-opacity="0.9"></stop></linearGradient><linearGradient id="paint5_linear_1424_61440" x1="23.3335" y1="465.137" x2="79.7491" y2="415.745" gradientUnits="userSpaceOnUse"><stop offset="0.00520833" stop-color="#4080D8" stop-opacity="0.35"></stop><stop offset="0.494792" stop-color="#4080D8" stop-opacity="0.5"></stop><stop offset="1" stop-color="#4080D8" stop-opacity="0.9"></stop></linearGradient><linearGradient id="paint6_linear_1424_61440" x1="59.5869" y1="321.794" x2="117.309" y2="271.255" gradientUnits="userSpaceOnUse"><stop offset="0.00520833" stop-color="#4080D8" stop-opacity="0.35"></stop><stop offset="0.494792" stop-color="#4080D8" stop-opacity="0.5"></stop><stop offset="1" stop-color="#4080D8" stop-opacity="0.9"></stop></linearGradient><linearGradient id="paint7_linear_1424_61440" x1="146.083" y1="450.763" x2="217.038" y2="388.637" gradientUnits="userSpaceOnUse"><stop offset="0.00520833" stop-color="#4080D8" stop-opacity="0.35"></stop><stop offset="0.494792" stop-color="#4080D8" stop-opacity="0.5"></stop><stop offset="1" stop-color="#4080D8" stop-opacity="0.9"></stop></linearGradient><linearGradient id="paint8_linear_1424_61440" x1="359.982" y1="156.538" x2="464.532" y2="64.9995" gradientUnits="userSpaceOnUse"><stop offset="0.00520833" stop-color="#4080D8" stop-opacity="0.35"></stop><stop offset="0.494792" stop-color="#4080D8" stop-opacity="0.5"></stop><stop offset="1" stop-color="#4080D8" stop-opacity="0.9"></stop></linearGradient><linearGradient id="paint9_linear_1424_61440" x1="232.225" y1="124.914" x2="267.732" y2="93.8264" gradientUnits="userSpaceOnUse"><stop offset="0.00520833" stop-color="#4080D8" stop-opacity="0.35"></stop><stop offset="0.494792" stop-color="#4080D8" stop-opacity="0.5"></stop><stop offset="1" stop-color="#4080D8" stop-opacity="0.9"></stop></linearGradient><linearGradient id="paint10_linear_1424_61440" x1="328.342" y1="212.279" x2="383.498" y2="212.279" gradientUnits="userSpaceOnUse"><stop offset="0.00520833" stop-color="#4080D8" stop-opacity="0.35"></stop><stop offset="0.494792" stop-color="#4080D8" stop-opacity="0.5"></stop><stop offset="1" stop-color="#4080D8" stop-opacity="0.9"></stop></linearGradient><linearGradient id="paint11_linear_1424_61440" x1="288.842" y1="171.554" x2="361.092" y2="108.292" gradientUnits="userSpaceOnUse"><stop offset="0.00520833" stop-color="#4080D8" stop-opacity="0.35"></stop><stop offset="0.494792" stop-color="#4080D8" stop-opacity="0.5"></stop><stop offset="1" stop-color="#4080D8" stop-opacity="0.9"></stop></linearGradient><linearGradient id="paint12_linear_1424_61440" x1="313.226" y1="196.165" x2="336.189" y2="196.165" gradientUnits="userSpaceOnUse"><stop offset="0.00520833" stop-color="#4080D8" stop-opacity="0.35"></stop><stop offset="0.494792" stop-color="#4080D8" stop-opacity="0.5"></stop><stop offset="1" stop-color="#4080D8" stop-opacity="0.9"></stop></linearGradient><linearGradient id="paint13_linear_1424_61440" x1="297.279" y1="95.3873" x2="354.998" y2="44.8488" gradientUnits="userSpaceOnUse"><stop offset="0.00520833" stop-color="#4080D8" stop-opacity="0.35"></stop><stop offset="0.494792" stop-color="#4080D8" stop-opacity="0.5"></stop><stop offset="1" stop-color="#4080D8" stop-opacity="0.9"></stop></linearGradient><clipPath id="clip0_1424_61440"><rect width="460" height="475" fill="white"></rect></clipPath></defs></svg>