<svg xmlns="http://www.w3.org/2000/svg" width="460" height="476" viewBox="0 0 460 476" fill="none"><g clip-path="url(#clip0_1277_5586)"><mask id="mask0_1277_5586" style="mask-type:luminance" maskUnits="userSpaceOnUse" x="-86" y="62" width="625" height="351"><path d="M538.689 62H-85.3105V413H538.689V62Z" fill="white"></path></mask><g mask="url(#mask0_1277_5586)"><path opacity="0.25" d="M26.5809 224.279C34.9253 224.279 41.6902 217.514 41.6902 209.169C41.6902 200.825 34.9253 194.06 26.5809 194.06C18.2362 194.06 11.4717 200.825 11.4717 209.169C11.4717 217.514 18.2362 224.279 26.5809 224.279Z" fill="#28A8E8"></path><path opacity="0.05" d="M26.5805 228.591C37.3072 228.591 46.0025 219.896 46.0025 209.169C46.0025 198.442 37.3072 189.747 26.5805 189.747C15.8539 189.747 7.1582 198.442 7.1582 209.169C7.1582 219.896 15.8539 228.591 26.5805 228.591Z" fill="#28A8E8"></path><path opacity="0.25" d="M26.5799 221.263C33.2587 221.263 38.6731 215.848 38.6731 209.169C38.6731 202.49 33.2587 197.076 26.5799 197.076C19.9008 197.076 14.4863 202.49 14.4863 209.169C14.4863 215.848 19.9008 221.263 26.5799 221.263Z" fill="#28A8E8"></path><path d="M19.8663 207.37C19.7766 207.306 19.7226 207.226 19.7044 207.132C19.6866 207.038 19.7145 206.938 19.7906 206.836C20.58 205.755 21.5693 204.916 22.7585 204.318C23.9476 203.721 25.2168 203.421 26.5655 203.421C27.9146 203.421 29.1857 203.711 30.383 204.288C31.578 204.868 32.5774 205.703 33.3788 206.798C33.4549 206.912 33.4809 207.014 33.4549 207.104C33.4289 207.194 33.3788 207.27 33.3028 207.334C33.227 207.398 33.137 207.426 33.035 207.42C32.9332 207.414 32.8452 207.36 32.7672 207.258C32.0678 206.265 31.1685 205.506 30.0671 204.978C28.966 204.45 27.7989 204.186 26.5655 204.186C25.3325 204.186 24.1735 204.45 23.0922 204.978C22.011 205.506 21.1136 206.267 20.4019 207.258C20.3262 207.372 20.2361 207.436 20.1341 207.448C20.0324 207.46 19.9443 207.436 19.8663 207.372V207.37ZM28.7203 216.778C27.3972 216.446 26.3159 215.788 25.4764 214.803C24.637 213.817 24.2174 212.612 24.2174 211.188C24.2174 210.552 24.4472 210.016 24.9048 209.585C25.3624 209.153 25.9162 208.935 26.5655 208.935C27.2152 208.935 27.7687 209.151 28.2266 209.585C28.6842 210.016 28.914 210.552 28.914 211.188C28.914 211.607 29.0739 211.961 29.3917 212.247C29.7096 212.532 30.0853 212.676 30.5169 212.676C30.9485 212.676 31.3183 212.532 31.6241 212.247C31.93 211.961 32.0817 211.607 32.0817 211.188C32.0817 209.712 31.5403 208.471 30.459 207.466C29.3777 206.461 28.0865 205.959 26.5857 205.959C25.0848 205.959 23.7936 206.461 22.7123 207.466C21.631 208.471 21.0896 209.705 21.0896 211.167C21.0896 211.473 21.1175 211.855 21.1754 212.313C21.2336 212.77 21.3694 213.306 21.5852 213.916C21.6232 214.029 21.6213 214.131 21.5751 214.221C21.5293 214.311 21.4572 214.373 21.3554 214.411C21.2534 214.449 21.1556 214.447 21.0597 214.401C20.9635 214.355 20.8978 214.283 20.8598 214.181C20.6697 213.685 20.5319 213.192 20.45 212.702C20.3681 212.213 20.3262 211.707 20.3262 211.185C20.3262 209.493 20.9398 208.076 22.1666 206.93C23.3938 205.785 24.8609 205.214 26.5655 205.214C28.2705 205.214 29.7593 205.785 30.9927 206.93C32.2257 208.076 32.8432 209.495 32.8432 211.185C32.8432 211.821 32.6173 212.353 32.1656 212.778C31.7142 213.204 31.1643 213.418 30.5149 213.418C29.8652 213.418 29.3098 213.204 28.846 212.778C28.3823 212.353 28.1486 211.821 28.1486 211.185C28.1486 210.766 27.9926 210.412 27.6809 210.126C27.3692 209.84 26.9974 209.696 26.5636 209.696C26.13 209.696 25.7582 209.84 25.4465 210.126C25.1345 210.412 24.9789 210.766 24.9789 211.185C24.9789 212.419 25.3445 213.45 26.0761 214.277C26.8076 215.105 27.7527 215.682 28.9101 216.014C29.0238 216.052 29.0999 216.116 29.1398 216.204C29.1798 216.292 29.1837 216.388 29.1597 216.49C29.134 216.58 29.0839 216.656 29.0079 216.719C28.9318 216.783 28.836 216.801 28.7222 216.778H28.7203ZM22.3467 203.381C22.2446 203.445 22.1429 203.461 22.0409 203.429C21.9388 203.397 21.8631 203.331 21.8111 203.229C21.7591 203.127 21.7471 203.035 21.7731 202.953C21.7991 202.871 21.8611 202.799 21.959 202.738C21.9609 202.738 21.9648 202.733 21.9671 202.731C22.6785 202.352 23.4198 202.06 24.1953 201.856C24.9707 201.652 25.7602 201.55 26.5616 201.55C27.3631 201.55 28.1704 201.648 28.9481 201.846C29.7235 202.044 30.4749 202.326 31.2003 202.695C31.3144 202.759 31.3823 202.835 31.4002 202.925C31.4181 203.015 31.4103 203.103 31.3723 203.193C31.3342 203.283 31.2702 203.353 31.1825 203.403C31.0944 203.453 30.9845 203.447 30.8588 203.383C30.185 203.039 29.4876 202.775 28.768 202.592C28.0485 202.408 27.3153 202.316 26.5636 202.316C25.8122 202.316 25.1007 202.401 24.3874 202.573C23.6756 202.745 22.9941 203.015 22.3447 203.385L22.3467 203.381ZM24.5989 216.51C23.8475 215.72 23.272 214.917 22.8722 214.095C22.4725 213.274 22.2706 212.305 22.2706 211.185C22.2706 210.066 22.6905 209.051 23.5297 208.255C24.3692 207.46 25.3806 207.062 26.5636 207.062C27.7469 207.062 28.7641 207.46 29.6176 208.255C30.4688 209.051 30.8965 210.026 30.8965 211.185C30.8965 211.299 30.8607 211.391 30.7905 211.461C30.7206 211.531 30.6287 211.567 30.5149 211.567C30.4129 211.567 30.3251 211.531 30.2471 211.461C30.1691 211.391 30.133 211.299 30.133 211.185C30.133 210.232 29.7794 209.433 29.0739 208.791C28.3683 208.149 27.5311 207.828 26.5636 207.828C25.5964 207.828 24.767 208.149 24.0734 208.791C23.3799 209.433 23.0341 210.232 23.0341 211.185C23.0341 212.217 23.2122 213.09 23.5677 213.81C23.9236 214.529 24.4452 215.25 25.1326 215.976C25.2086 216.052 25.2467 216.142 25.2467 216.244C25.2467 216.346 25.2086 216.434 25.1326 216.512C25.0569 216.59 24.9668 216.625 24.8648 216.625C24.7631 216.625 24.675 216.587 24.597 216.512L24.5989 216.51ZM30.3628 215.213C29.2299 215.213 28.2484 214.831 27.4151 214.067C26.5818 213.304 26.1661 212.343 26.1661 211.185C26.1661 211.084 26.2018 210.995 26.2717 210.917C26.3419 210.84 26.4339 210.804 26.5476 210.804C26.6617 210.804 26.7537 210.842 26.8236 210.917C26.8934 210.993 26.9295 211.084 26.9295 211.185C26.9295 212.139 27.273 212.922 27.9607 213.532C28.6481 214.143 29.4496 214.447 30.3651 214.447C30.4408 214.447 30.5487 214.441 30.6888 214.427C30.8285 214.413 30.9745 214.395 31.1285 214.369C31.2423 214.343 31.3424 214.359 31.4243 214.417C31.5062 214.475 31.5601 214.561 31.5861 214.675C31.6121 214.777 31.592 214.865 31.5283 214.943C31.4642 215.021 31.3823 215.071 31.2803 215.095C31.0505 215.159 30.8506 215.192 30.6787 215.201C30.5068 215.208 30.4028 215.21 30.3628 215.21V215.213Z" fill="#28A8E8"></path><path opacity="0.25" d="M155.92 193.03C161.069 193.03 165.244 188.856 165.244 183.707C165.244 178.558 161.069 174.383 155.92 174.383C150.771 174.383 146.597 178.558 146.597 183.707C146.597 188.856 150.771 193.03 155.92 193.03Z" fill="#28A8E8"></path><path opacity="0.05" d="M155.921 195.691C162.539 195.691 167.905 190.326 167.905 183.707C167.905 177.089 162.539 171.724 155.921 171.724C149.303 171.724 143.938 177.089 143.938 183.707C143.938 190.326 149.303 195.691 155.921 195.691Z" fill="#28A8E8"></path><path opacity="0.25" d="M155.921 191.17C160.042 191.17 163.383 187.829 163.383 183.708C163.383 179.586 160.042 176.245 155.921 176.245C151.799 176.245 148.458 179.586 148.458 183.708C148.458 187.829 151.799 191.17 155.921 191.17Z" fill="#28A8E8"></path><path d="M151.777 182.596C151.723 182.556 151.689 182.508 151.677 182.448C151.665 182.388 151.683 182.328 151.731 182.266C152.219 181.599 152.829 181.081 153.562 180.711C154.296 180.342 155.079 180.158 155.91 180.158C156.742 180.158 157.527 180.336 158.265 180.694C159.002 181.051 159.62 181.567 160.113 182.243C160.161 182.312 160.175 182.376 160.161 182.43C160.147 182.484 160.113 182.532 160.067 182.572C160.022 182.612 159.966 182.628 159.904 182.626C159.841 182.624 159.786 182.588 159.74 182.526C159.308 181.915 158.752 181.445 158.073 181.119C157.393 180.793 156.674 180.63 155.913 180.63C155.151 180.63 154.437 180.793 153.77 181.119C153.102 181.445 152.549 181.915 152.109 182.526C152.061 182.596 152.007 182.636 151.945 182.644C151.883 182.652 151.827 182.636 151.781 182.596H151.777ZM157.241 188.402C156.426 188.198 155.758 187.793 155.239 187.183C154.721 186.575 154.461 185.83 154.461 184.952C154.461 184.561 154.603 184.231 154.885 183.963C155.167 183.695 155.509 183.563 155.91 183.563C156.312 183.563 156.652 183.697 156.936 183.963C157.217 184.231 157.359 184.561 157.359 184.952C157.359 185.212 157.457 185.43 157.653 185.606C157.849 185.782 158.081 185.872 158.349 185.872C158.617 185.872 158.842 185.784 159.032 185.606C159.222 185.428 159.314 185.212 159.314 184.952C159.314 184.041 158.98 183.276 158.313 182.656C157.645 182.036 156.848 181.727 155.922 181.727C154.997 181.727 154.199 182.036 153.532 182.656C152.865 183.276 152.531 184.037 152.531 184.94C152.531 185.128 152.549 185.364 152.585 185.648C152.621 185.932 152.705 186.26 152.839 186.637C152.862 186.707 152.86 186.771 152.833 186.825C152.805 186.879 152.761 186.919 152.697 186.943C152.633 186.967 152.573 186.965 152.515 186.937C152.457 186.909 152.415 186.865 152.391 186.801C152.273 186.495 152.189 186.192 152.137 185.888C152.085 185.586 152.061 185.274 152.061 184.952C152.061 183.909 152.441 183.034 153.198 182.326C153.956 181.619 154.861 181.267 155.913 181.267C156.964 181.267 157.883 181.621 158.644 182.326C159.406 183.032 159.788 183.907 159.788 184.952C159.788 185.344 159.648 185.672 159.37 185.936C159.092 186.199 158.752 186.329 158.351 186.329C157.949 186.329 157.607 186.197 157.319 185.936C157.032 185.674 156.89 185.344 156.89 184.952C156.89 184.693 156.794 184.475 156.602 184.299C156.41 184.123 156.18 184.033 155.913 184.033C155.645 184.033 155.417 184.121 155.223 184.299C155.029 184.477 154.935 184.693 154.935 184.952C154.935 185.714 155.161 186.35 155.613 186.859C156.064 187.369 156.646 187.727 157.361 187.93C157.431 187.954 157.479 187.992 157.503 188.048C157.527 188.104 157.531 188.162 157.515 188.224C157.499 188.278 157.467 188.326 157.421 188.366C157.375 188.406 157.315 188.418 157.245 188.402H157.241ZM153.308 180.136C153.246 180.176 153.182 180.186 153.12 180.166C153.058 180.146 153.011 180.106 152.978 180.042C152.947 179.978 152.938 179.922 152.954 179.872C152.971 179.822 153.008 179.778 153.07 179.738C153.07 179.738 153.074 179.736 153.076 179.734C153.516 179.5 153.974 179.319 154.451 179.195C154.931 179.069 155.417 179.007 155.913 179.007C156.408 179.007 156.906 179.067 157.383 179.189C157.863 179.31 158.325 179.484 158.772 179.712C158.842 179.752 158.884 179.798 158.896 179.854C158.908 179.91 158.902 179.964 158.878 180.018C158.854 180.072 158.816 180.116 158.761 180.148C158.704 180.18 158.638 180.176 158.561 180.136C158.145 179.924 157.715 179.76 157.271 179.646C156.828 179.532 156.374 179.476 155.91 179.476C155.447 179.476 155.007 179.53 154.567 179.636C154.128 179.742 153.708 179.908 153.308 180.136ZM154.697 188.238C154.234 187.75 153.88 187.255 153.632 186.749C153.384 186.244 153.26 185.644 153.26 184.952C153.26 184.261 153.52 183.635 154.038 183.146C154.555 182.656 155.181 182.41 155.91 182.41C156.64 182.41 157.269 182.656 157.795 183.146C158.321 183.635 158.584 184.239 158.584 184.952C158.584 185.022 158.563 185.08 158.521 185.122C158.478 185.164 158.421 185.186 158.351 185.186C158.289 185.186 158.233 185.164 158.187 185.122C158.141 185.08 158.117 185.022 158.117 184.952C158.117 184.363 157.899 183.871 157.463 183.476C157.028 183.08 156.512 182.88 155.914 182.88C155.317 182.88 154.805 183.078 154.378 183.476C153.95 183.871 153.736 184.365 153.736 184.952C153.736 185.588 153.846 186.128 154.066 186.571C154.286 187.015 154.607 187.461 155.031 187.908C155.079 187.956 155.101 188.01 155.101 188.072C155.101 188.134 155.077 188.19 155.031 188.236C154.985 188.282 154.929 188.306 154.867 188.306C154.805 188.306 154.749 188.282 154.703 188.236L154.697 188.238ZM158.253 187.437C157.553 187.437 156.948 187.201 156.434 186.729C155.92 186.258 155.663 185.666 155.663 184.95C155.663 184.888 155.685 184.832 155.727 184.787C155.769 184.74 155.826 184.717 155.896 184.717C155.966 184.717 156.024 184.74 156.066 184.787C156.108 184.832 156.13 184.888 156.13 184.95C156.13 185.54 156.342 186.022 156.766 186.399C157.189 186.777 157.685 186.965 158.249 186.965C158.297 186.965 158.363 186.961 158.449 186.953C158.535 186.945 158.624 186.933 158.721 186.917C158.79 186.901 158.852 186.911 158.902 186.947C158.952 186.983 158.986 187.035 159.002 187.107C159.018 187.169 159.006 187.225 158.966 187.271C158.926 187.317 158.876 187.349 158.812 187.365C158.67 187.405 158.547 187.425 158.441 187.429C158.335 187.433 158.271 187.435 158.247 187.435L158.253 187.437Z" fill="#28A8E8"></path><g opacity="0.75"><path d="M129.294 190.49H57.3428C56.9148 190.49 56.5674 190.838 56.5674 191.266V208.394C56.5674 208.822 56.9148 209.169 57.3428 209.169H129.294C129.722 209.169 130.069 208.822 130.069 208.394V191.266C130.069 190.838 129.722 190.49 129.294 190.49Z" fill="white"></path><path d="M129.294 190.49H57.3428C56.9148 190.49 56.5674 190.838 56.5674 191.266V208.394C56.5674 208.822 56.9148 209.169 57.3428 209.169H129.294C129.722 209.169 130.069 208.822 130.069 208.394V191.266C130.069 190.838 129.722 190.49 129.294 190.49Z" fill="url(#paint0_linear_1277_5586)"></path></g><g opacity="0.35"><path d="M141.324 313.245H50.2286C49.8005 313.245 49.4531 313.593 49.4531 314.021V324.623C49.4531 325.051 49.8005 325.398 50.2286 325.398H141.324C141.752 325.398 142.099 325.051 142.099 324.623V314.021C142.099 313.593 141.752 313.245 141.324 313.245Z" fill="white"></path><path d="M141.324 313.245H50.2286C49.8005 313.245 49.4531 313.593 49.4531 314.021V324.623C49.4531 325.051 49.8005 325.398 50.2286 325.398H141.324C141.752 325.398 142.099 325.051 142.099 324.623V314.021C142.099 313.593 141.752 313.245 141.324 313.245Z" fill="url(#paint1_linear_1277_5586)"></path></g><path d="M190.244 231.036H180.148C179.719 231.036 179.372 231.383 179.372 231.811V241.908C179.372 242.336 179.719 242.684 180.148 242.684H190.244C190.673 242.684 191.02 242.336 191.02 241.908V231.811C191.02 231.383 190.673 231.036 190.244 231.036Z" fill="#1678D1"></path><path d="M104.907 281.646H85.792C85.3637 281.646 85.0166 281.993 85.0166 282.421V301.536C85.0166 301.964 85.3637 302.311 85.792 302.311H104.907C105.335 302.311 105.682 301.964 105.682 301.536V282.421C105.682 281.993 105.335 281.646 104.907 281.646Z" fill="#1678D1"></path><path d="M68.2666 281.167H62.337C61.9086 281.167 61.5615 281.514 61.5615 281.942V287.872C61.5615 288.3 61.9086 288.647 62.337 288.647H68.2666C68.695 288.647 69.0421 288.3 69.0421 287.872V281.942C69.0421 281.514 68.695 281.167 68.2666 281.167Z" fill="#1678D1"></path><path d="M149.266 211.764H143.336C142.908 211.764 142.561 212.111 142.561 212.539V218.469C142.561 218.897 142.908 219.244 143.336 219.244H149.266C149.694 219.244 150.041 218.897 150.041 218.469V212.539C150.041 212.111 149.694 211.764 149.266 211.764Z" fill="#1678D1"></path><path opacity="0.25" d="M129.829 165.396H127.211C126.783 165.396 126.436 165.743 126.436 166.171V168.789C126.436 169.218 126.783 169.565 127.211 169.565H129.829C130.258 169.565 130.605 169.218 130.605 168.789V166.171C130.605 165.743 130.258 165.396 129.829 165.396Z" fill="#1678D1"></path><path opacity="0.25" d="M123.323 170.646H120.705C120.277 170.646 119.93 170.994 119.93 171.422V174.04C119.93 174.468 120.277 174.816 120.705 174.816H123.323C123.752 174.816 124.099 174.468 124.099 174.04V171.422C124.099 170.994 123.752 170.646 123.323 170.646Z" fill="#1678D1"></path><path opacity="0.25" d="M70.5936 165.315H69.1789C68.8938 165.315 68.6631 165.546 68.6631 165.83V167.245C68.6631 167.53 68.8938 167.761 69.1789 167.761H70.5936C70.8786 167.761 71.1094 167.53 71.1094 167.245V165.83C71.1094 165.546 70.8786 165.315 70.5936 165.315Z" fill="#1678D1"></path><path opacity="0.25" d="M54.909 331.398H52.2911C51.8627 331.398 51.5156 331.746 51.5156 332.174V334.792C51.5156 335.22 51.8627 335.568 52.2911 335.568H54.909C55.3373 335.568 55.6844 335.22 55.6844 334.792V332.174C55.6844 331.746 55.3373 331.398 54.909 331.398Z" fill="#1678D1"></path><path opacity="0.25" d="M122.143 300.388H117.28C116.852 300.388 116.505 300.735 116.505 301.164V306.026C116.505 306.454 116.852 306.802 117.28 306.802H122.143C122.571 306.802 122.918 306.454 122.918 306.026V301.164C122.918 300.735 122.571 300.388 122.143 300.388Z" fill="#1678D1"></path><path opacity="0.25" d="M138.584 220.898H135.966C135.538 220.898 135.19 221.246 135.19 221.674V224.292C135.19 224.72 135.538 225.068 135.966 225.068H138.584C139.012 225.068 139.359 224.72 139.359 224.292V221.674C139.359 221.246 139.012 220.898 138.584 220.898Z" fill="#1678D1"></path><path opacity="0.25" d="M113.719 286.879V285.432C113.719 285.142 113.484 284.907 113.193 284.907H111.746C111.456 284.907 111.221 285.142 111.221 285.432V286.879C111.221 287.17 111.456 287.405 111.746 287.405H113.193C113.484 287.405 113.719 287.17 113.719 286.879Z" fill="#1678D1"></path><path d="M52.7064 215.502H46.7764C46.3481 215.502 46.001 215.85 46.001 216.278V222.208C46.001 222.636 46.3481 222.983 46.7764 222.983H52.7064C53.1344 222.983 53.4818 222.636 53.4818 222.208V216.278C53.4818 215.85 53.1344 215.502 52.7064 215.502Z" fill="#1678D1"></path><path d="M83.1927 160.676H77.2628C76.8347 160.676 76.4873 161.023 76.4873 161.451V167.381C76.4873 167.809 76.8347 168.157 77.2628 168.157H83.1927C83.6211 168.157 83.9681 167.809 83.9681 167.381V161.451C83.9681 161.023 83.6211 160.676 83.1927 160.676Z" fill="#1678D1"></path><path d="M98.2822 173.137H92.3526C91.9243 173.137 91.5771 173.484 91.5771 173.912V179.842C91.5771 180.27 91.9243 180.617 92.3526 180.617H98.2822C98.7106 180.617 99.0577 180.27 99.0577 179.842V173.912C99.0577 173.484 98.7106 173.137 98.2822 173.137Z" fill="#1678D1"></path><path d="M132.501 271.537H126.571C126.143 271.537 125.796 271.884 125.796 272.312V278.242C125.796 278.67 126.143 279.017 126.571 279.017H132.501C132.929 279.017 133.277 278.67 133.277 278.242V272.312C133.277 271.884 132.929 271.537 132.501 271.537Z" fill="#1678D1"></path><g opacity="0.75"><path d="M171.005 236.859H30.003C29.5746 236.859 29.2275 237.207 29.2275 237.635V262.917C29.2275 263.345 29.5746 263.692 30.003 263.692H171.005C171.433 263.692 171.78 263.345 171.78 262.917V237.635C171.78 237.207 171.433 236.859 171.005 236.859Z" fill="white"></path><path d="M171.005 236.859H30.003C29.5746 236.859 29.2275 237.207 29.2275 237.635V262.917C29.2275 263.345 29.5746 263.692 30.003 263.692H171.005C171.433 263.692 171.78 263.345 171.78 262.917V237.635C171.78 237.207 171.433 236.859 171.005 236.859Z" fill="url(#paint2_linear_1277_5586)"></path></g><path d="M287.497 247.835C284.672 247.835 282.388 245.663 282.388 242.981V186.545C282.388 183.864 284.672 181.69 287.497 181.69H347.498V153.178C347.498 150.498 345.213 148.324 342.389 148.324H168.038C165.216 148.324 162.93 150.496 162.93 153.178V303.54C162.93 306.22 165.216 308.394 168.038 308.394H342.389C345.213 308.394 347.498 306.222 347.498 303.54V247.835H287.497Z" fill="#1678D1"></path><g opacity="0.35"><path d="M427.448 247.728H352.071C351.551 247.728 351.132 248.4 351.132 249.23V257.511C351.132 258.341 351.551 259.013 352.071 259.013H427.448C427.968 259.013 428.388 258.341 428.388 257.511V249.23C428.388 248.4 427.968 247.728 427.448 247.728Z" fill="white"></path><path d="M427.448 247.728H352.071C351.551 247.728 351.132 248.4 351.132 249.23V257.511C351.132 258.341 351.551 259.013 352.071 259.013H427.448C427.968 259.013 428.388 258.341 428.388 257.511V249.23C428.388 248.4 427.968 247.728 427.448 247.728Z" fill="url(#paint3_linear_1277_5586)"></path></g><path d="M439.987 247.728H430.015C429.638 247.728 429.333 248.4 429.333 249.23V257.511C429.333 258.341 429.638 259.013 430.015 259.013H439.987C440.364 259.013 440.669 258.341 440.669 257.511V249.23C440.669 248.4 440.364 247.728 439.987 247.728Z" fill="#1678D1"></path><g opacity="0.35"><path d="M409.45 201.126H371.85C371.33 201.126 370.911 201.798 370.911 202.628V210.909C370.911 211.739 371.33 212.412 371.85 212.412H409.45C409.97 212.412 410.389 211.739 410.389 210.909V202.628C410.389 201.798 409.97 201.126 409.45 201.126Z" fill="white"></path><path d="M409.45 201.126H371.85C371.33 201.126 370.911 201.798 370.911 202.628V210.909C370.911 211.739 371.33 212.412 371.85 212.412H409.45C409.97 212.412 410.389 211.739 410.389 210.909V202.628C410.389 201.798 409.97 201.126 409.45 201.126Z" fill="url(#paint4_linear_1277_5586)"></path></g><path d="M422.401 201.126H412.047C411.653 201.126 411.335 201.798 411.335 202.628V210.909C411.335 211.739 411.653 212.412 412.047 212.412H422.401C422.791 212.412 423.11 211.739 423.11 210.909V202.628C423.11 201.798 422.791 201.126 422.401 201.126Z" fill="#1678D1"></path><g opacity="0.75"><path d="M401.341 218.49H327.355C326.835 218.49 326.412 219.163 326.412 219.992V241.901C326.412 242.731 326.835 243.403 327.355 243.403H401.341C401.861 243.403 402.28 242.731 402.28 241.901V219.992C402.28 219.163 401.861 218.49 401.341 218.49Z" fill="white"></path><path d="M401.341 218.49H327.355C326.835 218.49 326.412 219.163 326.412 219.992V241.901C326.412 242.731 326.835 243.403 327.355 243.403H401.341C401.861 243.403 402.28 242.731 402.28 241.901V219.992C402.28 219.163 401.861 218.49 401.341 218.49Z" fill="url(#paint5_linear_1277_5586)"></path></g><path d="M429.157 218.49H405.835C404.955 218.49 404.236 219.163 404.236 219.992V241.901C404.236 242.731 404.955 243.403 405.835 243.403H429.157C430.041 243.403 430.756 242.731 430.756 241.901V219.992C430.756 219.163 430.041 218.49 429.157 218.49Z" fill="#1678D1"></path><path d="M334.952 211.442H273.534C271.876 211.442 270.534 212.784 270.534 214.44V253.038C270.534 254.694 271.876 256.036 273.534 256.036H334.952C336.61 256.036 337.952 254.694 337.952 253.038V214.44C337.952 212.784 336.61 211.442 334.952 211.442Z" fill="#99C9F8"></path><path d="M160.167 339.584C174.714 339.584 186.507 327.792 186.507 313.245C186.507 298.698 174.714 286.906 160.167 286.906C145.621 286.906 133.828 298.698 133.828 313.245C133.828 327.792 145.621 339.584 160.167 339.584Z" fill="white"></path><path d="M160.168 336.623C173.079 336.623 183.545 326.156 183.545 313.245C183.545 300.334 173.079 289.868 160.168 289.868C147.257 289.868 136.79 300.334 136.79 313.245C136.79 326.156 147.257 336.623 160.168 336.623Z" fill="#28A8E8"></path><path d="M171.158 318.365C170.093 317.168 169.032 315.967 167.966 314.77C167.145 313.846 166.311 312.931 165.5 311.999C165.332 311.806 165.244 311.834 165.108 312.016C164.962 312.207 164.799 312.381 164.639 312.563C163.546 313.828 162.454 315.093 161.351 316.351C161.141 316.586 161.179 316.726 161.389 316.94C162.466 318.031 163.528 319.138 164.655 320.296C164.477 320.306 164.387 320.316 164.295 320.316H155.114C154.926 320.312 154.838 320.26 154.984 320.076C155.119 319.908 155.246 319.726 155.385 319.56C156.738 317.961 158.097 316.366 159.45 314.764C160.752 313.223 162.046 311.68 163.35 310.141C163.489 309.979 163.538 309.821 163.538 309.613C163.534 306.426 163.534 303.24 163.534 300.052C163.534 299.541 163.543 299.541 163.022 299.541C161.095 299.541 159.171 299.544 157.252 299.55C156.781 299.55 156.776 299.556 156.776 300.036C156.776 303.14 156.77 306.248 156.782 309.353C156.782 309.741 156.651 310.021 156.395 310.299C155.523 311.24 154.672 312.199 153.818 313.157C152.412 314.736 151.007 316.323 149.602 317.907C148.932 318.661 148.27 319.418 147.599 320.17C147.475 320.306 147.453 320.432 147.501 320.607C148.041 322.584 148.582 324.563 149.104 326.547C149.192 326.871 149.35 326.949 149.661 326.949C156.678 326.943 163.691 326.943 170.708 326.949C171.016 326.949 171.154 326.851 171.232 326.553C171.756 324.559 172.297 322.566 172.835 320.576C172.881 320.402 172.847 320.272 172.729 320.138C172.201 319.552 171.684 318.957 171.16 318.365H171.158Z" fill="white"></path><path d="M282.209 173.51C297.172 173.51 309.304 161.38 309.304 146.416C309.304 131.451 297.172 119.321 282.209 119.321C267.246 119.321 255.113 131.451 255.113 146.416C255.113 161.38 267.246 173.51 282.209 173.51Z" fill="white"></path><path d="M282.208 170.465C295.491 170.465 306.258 159.698 306.258 146.416C306.258 133.134 295.491 122.367 282.208 122.367C268.925 122.367 258.158 133.134 258.158 146.416C258.158 159.698 268.925 170.465 282.208 170.465Z" fill="#28A8E8"></path><path d="M268.653 145.427C267.929 145.289 267.522 145.171 267.522 144.825C267.522 144.539 267.721 144.311 268.302 144.311C268.884 144.311 269.599 144.537 270.152 144.991L271.078 143.78C270.379 143.178 269.466 142.864 268.41 142.864C266.723 142.864 265.79 143.822 265.79 144.923C265.79 146.478 267.308 146.754 268.39 146.972C269.092 147.119 269.515 147.267 269.515 147.641C269.515 147.955 269.157 148.203 268.579 148.203C267.682 148.203 266.954 147.809 266.479 147.335L265.582 148.604C266.242 149.236 267.168 149.65 268.497 149.65C270.259 149.65 271.234 148.774 271.234 147.453C271.234 145.964 269.739 145.65 268.653 145.425V145.427Z" fill="white"></path><path d="M275.206 142.856C273.197 142.856 271.689 144.253 271.689 146.252C271.689 148.25 273.197 149.649 275.206 149.649C275.719 149.649 276.197 149.561 276.633 149.383L277.117 149.975L278.3 149.03L277.884 148.528C278.407 147.938 278.713 147.159 278.713 146.254C278.713 144.255 277.214 142.856 275.206 142.856ZM276.782 147.189L276.103 146.371L274.93 147.317L275.589 148.114C275.472 148.144 275.346 148.154 275.206 148.154C274.114 148.154 273.415 147.327 273.415 146.254C273.415 145.18 274.127 144.353 275.206 144.353C276.288 144.353 276.99 145.178 276.99 146.254C276.99 146.597 276.922 146.915 276.782 147.189Z" fill="white"></path><path d="M281.264 142.964H279.57V149.533H283.903V148.056H281.264V142.964Z" fill="white"></path><path d="M288.065 142.964H284.776V149.533H286.473V147.307H288.065C289.547 147.307 290.353 146.344 290.353 145.15C290.353 143.957 289.544 142.964 288.065 142.964ZM287.841 145.87H286.473V144.393H287.841C288.296 144.393 288.628 144.701 288.628 145.142C288.628 145.584 288.293 145.87 287.841 145.87Z" fill="white"></path><path d="M292.979 144.657C292.251 144.657 291.432 144.874 290.821 145.396L291.364 146.352C291.747 146.028 292.238 145.85 292.712 145.85C293.323 145.85 293.678 146.126 293.678 146.539V147.141C293.395 146.785 292.833 146.59 292.202 146.59C291.474 146.59 290.567 146.933 290.567 148.086C290.567 149.162 291.471 149.653 292.202 149.653C292.81 149.653 293.382 149.415 293.678 149.062V149.533H295.195V146.559C295.195 145.082 294.12 144.659 292.979 144.659V144.657ZM293.678 147.89V148.314C293.522 148.54 293.167 148.658 292.833 148.658C292.43 148.658 292.075 148.48 292.075 148.106C292.075 147.733 292.43 147.555 292.833 147.555C293.167 147.555 293.522 147.673 293.678 147.89Z" fill="white"></path><path d="M299.502 142.964V145.338C299.118 144.864 298.615 144.659 298.095 144.659C296.902 144.659 295.985 145.534 295.985 147.151C295.985 148.768 296.921 149.651 298.095 149.651C298.624 149.651 299.109 149.433 299.502 148.982V149.533H301.007V142.964H299.502ZM299.502 147.88C299.304 148.136 298.91 148.314 298.585 148.314C297.984 148.314 297.539 147.86 297.539 147.151C297.539 146.441 297.984 145.998 298.585 145.998C298.91 145.998 299.304 146.163 299.502 146.422V147.88Z" fill="white"></path><path d="M142.668 179.36C142.408 179.36 142.184 179.268 141.999 179.082C141.813 178.897 141.721 178.673 141.721 178.413V173.674C141.721 173.414 141.813 173.191 141.999 173.005C142.184 172.819 142.408 172.727 142.668 172.727H143.142V171.78C143.142 171.124 143.374 170.565 143.835 170.103C144.297 169.641 144.857 169.409 145.512 169.409C146.168 169.409 146.727 169.641 147.189 170.103C147.651 170.565 147.882 171.124 147.882 171.78V172.727H148.356C148.616 172.727 148.84 172.819 149.026 173.005C149.211 173.191 149.303 173.414 149.303 173.674V178.413C149.303 178.673 149.211 178.897 149.026 179.082C148.84 179.268 148.616 179.36 148.356 179.36H142.67H142.668ZM145.512 176.99C145.772 176.99 145.996 176.898 146.182 176.712C146.368 176.526 146.46 176.302 146.46 176.042C146.46 175.783 146.368 175.559 146.182 175.373C145.996 175.187 145.772 175.095 145.512 175.095C145.252 175.095 145.029 175.187 144.843 175.373C144.657 175.559 144.565 175.783 144.565 176.042C144.565 176.302 144.657 176.526 144.843 176.712C145.029 176.898 145.252 176.99 145.512 176.99ZM144.091 172.725H146.935V171.777C146.935 171.382 146.797 171.046 146.521 170.77C146.246 170.494 145.91 170.357 145.514 170.357C145.118 170.357 144.783 170.494 144.507 170.77C144.231 171.046 144.093 171.382 144.093 171.777V172.725H144.091Z" fill="#1678D1"></path><path d="M121.335 301.999C121.171 301.999 121.033 301.941 120.917 301.825C120.801 301.709 120.743 301.569 120.743 301.407V298.445C120.743 298.281 120.801 298.144 120.917 298.028C121.033 297.912 121.173 297.854 121.335 297.854H121.631V297.262C121.631 296.852 121.774 296.503 122.064 296.215C122.354 295.927 122.702 295.781 123.111 295.781C123.521 295.781 123.871 295.925 124.159 296.215C124.447 296.503 124.592 296.852 124.592 297.262V297.854H124.888C125.052 297.854 125.19 297.912 125.306 298.028C125.422 298.144 125.48 298.283 125.48 298.445V301.407C125.48 301.571 125.422 301.709 125.306 301.825C125.19 301.941 125.05 301.999 124.888 301.999H121.335ZM123.111 300.518C123.276 300.518 123.413 300.46 123.529 300.344C123.645 300.228 123.703 300.088 123.703 299.926C123.703 299.764 123.645 299.625 123.529 299.509C123.413 299.393 123.274 299.335 123.111 299.335C122.95 299.335 122.81 299.393 122.694 299.509C122.578 299.625 122.52 299.764 122.52 299.926C122.52 300.088 122.578 300.228 122.694 300.344C122.81 300.46 122.95 300.518 123.111 300.518ZM122.222 297.852H123.999V297.26C123.999 297.014 123.913 296.805 123.739 296.631C123.565 296.457 123.357 296.371 123.109 296.371C122.862 296.371 122.654 296.457 122.48 296.631C122.306 296.805 122.22 297.012 122.22 297.26V297.852H122.222Z" fill="#1678D1"></path><path d="M138.633 190.49H121.505C121.077 190.49 120.729 190.838 120.729 191.266V208.394C120.729 208.822 121.077 209.169 121.505 209.169H138.633C139.061 209.169 139.408 208.822 139.408 208.394V191.266C139.408 190.838 139.061 190.49 138.633 190.49Z" fill="#1678D1"></path><path d="M284.113 283.26V286.01C284.113 286.322 284.367 286.576 284.679 286.576H287.428C287.74 286.576 287.994 286.322 287.994 286.01V283.26C287.994 282.947 287.74 282.694 287.428 282.694H284.679C284.367 282.694 284.113 282.947 284.113 283.26Z" fill="#1678D1"></path><path opacity="0.25" d="M288.854 288.801V289.834C288.854 290.146 289.105 290.4 289.42 290.4H290.45C290.762 290.4 291.016 290.146 291.016 289.834V288.801C291.016 288.489 290.762 288.235 290.45 288.235H289.42C289.105 288.235 288.854 288.489 288.854 288.801Z" fill="#1678D1"></path><foreignObject x="186.866" y="243.208" width="201.399" height="201.401"></foreignObject><path data-figma-bg-blur-radius="39.4862" d="M287.566 405.122C321.372 405.122 348.78 377.715 348.78 343.908C348.78 310.101 321.372 282.694 287.566 282.694C253.759 282.694 226.353 310.101 226.353 343.908C226.353 377.715 253.759 405.122 287.566 405.122Z" fill="#1678D1" fill-opacity="0.1"></path><path opacity="0.25" d="M287.568 391.527C313.867 391.527 335.187 370.208 335.187 343.909C335.187 317.609 313.867 296.29 287.568 296.29C261.269 296.29 239.949 317.609 239.949 343.909C239.949 370.208 261.269 391.527 287.568 391.527Z" fill="#1678D1"></path><path opacity="0.1" d="M287.562 382.027C308.612 382.027 325.678 364.962 325.678 343.911C325.678 322.861 308.612 305.796 287.562 305.796C266.512 305.796 249.449 322.861 249.449 343.911C249.449 364.962 266.512 382.027 287.562 382.027Z" fill="#1678D1"></path><path d="M296.629 338.171V333.814C296.629 333.215 296.427 332.935 295.855 332.761C292.137 331.628 288.416 330.5 284.698 329.367C284.08 329.178 283.463 328.976 282.842 328.794C282.137 328.588 281.617 328.985 281.614 329.731C281.614 331.606 281.614 333.483 281.614 335.356V335.737C281.607 336.071 281.49 336.323 281.11 336.343C280.775 336.36 280.596 336.154 280.567 335.731C280.561 335.632 280.564 335.533 280.564 335.435C280.564 333.588 280.561 331.739 280.564 329.893C280.564 328.224 281.753 327.384 283.339 327.873C287.226 329.073 291.123 330.248 295.017 331.433C295.407 331.551 295.8 331.66 296.187 331.79C297.175 332.114 297.643 332.68 297.649 333.715C297.675 336.691 297.685 339.665 297.646 342.641C297.626 344.106 296.463 344.893 295.056 344.481C294.636 344.358 294.224 344.218 293.808 344.084C293.486 343.981 293.346 343.755 293.427 343.433C293.512 343.099 293.785 343.044 294.064 343.117C294.487 343.224 294.903 343.362 295.316 343.496C296.076 343.74 296.622 343.356 296.622 342.571V338.171H296.625H296.629Z" fill="#1678D1"></path><path d="M289.868 340.102C289.868 338.465 289.865 336.829 289.868 335.193C289.868 334.597 290.193 334.189 290.743 334.042C291.263 333.9 291.77 334.101 292.059 334.558C292.212 334.794 292.241 335.062 292.241 335.33C292.244 338.516 292.244 341.702 292.241 344.891C292.241 345.415 292.098 345.885 291.578 346.115C291.139 346.31 290.697 346.29 290.301 345.977C289.976 345.72 289.865 345.371 289.865 344.968C289.868 343.347 289.865 341.724 289.865 340.104H289.872L289.868 340.102Z" fill="#1678D1"></path><path d="M288.969 340.176C288.969 341.373 288.975 342.571 288.969 343.766C288.962 344.617 288.468 345.082 287.643 345.034C287.162 345.007 286.759 344.674 286.652 344.202C286.616 344.051 286.6 343.895 286.6 343.742C286.6 341.347 286.593 338.954 286.6 336.56C286.6 335.781 287.029 335.288 287.688 335.25C288.449 335.209 288.962 335.717 288.969 336.54C288.975 337.75 288.969 338.961 288.969 340.174V340.176Z" fill="#1678D1"></path><path d="M283.347 340.141C283.347 339.323 283.344 338.505 283.347 337.687C283.354 337.003 283.812 336.529 284.472 336.518C285.154 336.508 285.674 336.983 285.677 337.659C285.687 339.295 285.687 340.931 285.677 342.565C285.674 343.253 285.154 343.755 284.501 343.744C283.831 343.734 283.35 343.233 283.347 342.549V340.139V340.141Z" fill="#1678D1"></path><path d="M282.378 340.176V341.443C282.378 342.121 281.93 342.614 281.289 342.652C280.678 342.687 280.087 342.198 280.064 341.562C280.028 340.619 280.025 339.676 280.064 338.735C280.09 338.075 280.656 337.599 281.276 337.636C281.943 337.676 282.385 338.169 282.385 338.873V340.182H282.381V340.178L282.378 340.176Z" fill="#1678D1"></path><path d="M308.553 354.989C309.869 355.399 310.432 356.083 310.441 357.239C310.448 358.336 309.681 359.331 308.534 359.708C308.017 359.879 307.484 359.919 306.951 359.93C306.164 359.945 305.375 359.93 304.585 359.937C304.283 359.941 304.13 359.871 304.13 359.511C304.143 356.708 304.136 353.906 304.136 351.103C304.136 350.906 304.104 350.684 304.413 350.693C305.579 350.722 306.753 350.581 307.913 350.768C309.138 350.963 309.84 351.59 309.996 352.55C310.155 353.535 309.674 354.362 308.55 354.987H308.553V354.989ZM305.765 357.178C305.765 357.544 305.768 357.91 305.765 358.277C305.761 358.507 305.859 358.608 306.093 358.599C306.545 358.581 306.996 358.599 307.445 358.562C308.144 358.505 308.673 357.945 308.716 357.254C308.755 356.584 308.303 356.055 307.575 355.897C307.087 355.79 306.593 355.84 306.106 355.814C305.839 355.801 305.758 355.914 305.768 356.158C305.778 356.496 305.768 356.834 305.768 357.173L305.765 357.178ZM306.574 352.015C306.408 352.015 306.236 352.024 306.067 352.015C305.852 352.002 305.761 352.092 305.761 352.307C305.768 352.952 305.761 353.601 305.768 354.246C305.768 354.355 305.761 354.496 305.921 354.498C306.564 354.509 307.221 354.594 307.793 354.191C308.27 353.855 308.371 353.366 308.274 352.844C308.189 352.397 307.835 352.197 307.409 352.088C307.13 352.015 306.853 352.02 306.574 352.015Z" fill="#1678D1"></path><path d="M280.935 358.082C281.143 357.329 281.351 356.58 281.562 355.827C281.77 355.095 281.982 354.367 282.183 353.632C282.242 353.413 282.336 353.316 282.586 353.314C283.763 353.303 283.766 353.292 284.049 354.437C284.361 355.713 284.673 356.992 284.994 358.295C285.371 356.733 285.748 355.205 286.109 353.669C286.174 353.4 286.288 353.292 286.571 353.316C286.847 353.34 287.133 353.33 287.416 353.316C287.633 353.308 287.734 353.358 287.663 353.604C287.058 355.628 286.457 357.652 285.856 359.676C285.807 359.85 285.713 359.944 285.531 359.935C285.488 359.935 285.446 359.935 285.404 359.935C283.841 359.9 284.244 360.181 283.841 358.751C283.522 357.617 283.226 356.477 282.901 355.257C282.476 356.733 282.063 358.123 281.679 359.518C281.592 359.834 281.445 359.942 281.124 359.944C279.944 359.955 279.947 359.964 279.625 358.856C279.135 357.165 278.634 355.479 278.143 353.788C278.004 353.321 278.007 353.321 278.488 353.316C279.648 353.308 279.645 353.31 279.931 354.45C280.233 355.659 280.548 356.862 280.854 358.069C280.88 358.069 280.906 358.073 280.935 358.075V358.082Z" fill="#1678D1"></path><path d="M264.042 355.303C264.042 353.937 264.058 352.571 264.035 351.205C264.029 350.79 264.172 350.665 264.572 350.687C265.651 350.746 266.739 350.617 267.818 350.775C269.255 350.985 270.103 351.858 270.246 353.314C270.379 354.628 269.577 355.919 268.371 356.365C267.627 356.639 266.85 356.637 266.08 356.628C265.764 356.623 265.667 356.7 265.677 357.022C265.703 357.839 265.677 358.657 265.696 359.472C265.703 359.819 265.579 359.963 265.231 359.939C264.978 359.922 264.721 359.922 264.471 359.939C264.133 359.961 264.029 359.808 264.035 359.485C264.052 358.781 264.042 358.075 264.042 357.371V355.301V355.303ZM265.69 353.632H265.686C265.686 354.069 265.686 354.507 265.686 354.944C265.686 355.077 265.654 355.259 265.865 355.259C266.479 355.259 267.107 355.345 267.695 355.06C268.325 354.753 268.637 354.075 268.514 353.27C268.42 352.63 268 352.205 267.295 352.115C266.85 352.057 266.395 352.082 265.943 352.064C265.729 352.056 265.69 352.185 265.69 352.362C265.69 352.786 265.69 353.209 265.69 353.632Z" fill="#1678D1"></path><path d="M274.013 360.055C272.089 360.134 270.652 358.84 270.643 356.669C270.63 354.474 271.995 353.15 274.231 353.152C276.242 353.152 277.455 354.422 277.455 356.518C277.455 358.768 276.194 360.06 274.01 360.055H274.013ZM275.83 356.617C275.82 356.419 275.813 356.224 275.797 356.027C275.722 355.261 275.173 354.601 274.517 354.476C273.616 354.305 272.905 354.652 272.518 355.437C272.255 355.965 272.251 356.525 272.297 357.086C272.378 357.992 272.963 358.619 273.847 358.786C274.543 358.917 275.248 358.558 275.596 357.891C275.804 357.492 275.823 357.057 275.83 356.619V356.617Z" fill="#1678D1"></path><path d="M292.034 357.081C291.426 357.081 290.819 357.096 290.214 357.074C289.879 357.061 289.844 357.221 289.889 357.487C290.019 358.188 290.698 358.757 291.495 358.818C292.171 358.871 292.817 358.759 293.396 358.393C293.653 358.228 293.76 358.254 293.773 358.59C293.805 359.579 293.757 359.654 292.782 359.91C292.067 360.098 291.332 360.136 290.607 359.995C289.301 359.739 288.521 358.895 288.306 357.577C288.076 356.164 288.271 354.877 289.395 353.864C290.503 352.864 292.505 352.901 293.471 353.961C294.218 354.781 294.309 355.803 294.264 356.853C294.251 357.094 294.056 357.081 293.887 357.083H292.028H292.031L292.034 357.081ZM291.264 355.943C291.644 355.943 292.021 355.927 292.401 355.947C292.665 355.963 292.746 355.875 292.723 355.614C292.648 354.669 291.735 354.096 290.861 354.463C290.325 354.686 290.061 355.142 289.896 355.671C289.834 355.873 289.912 355.952 290.123 355.945C290.503 355.934 290.88 355.945 291.261 355.941L291.264 355.943Z" fill="#1678D1"></path><path d="M313.665 355.336C313.665 356.717 313.655 358.094 313.671 359.476C313.678 359.827 313.564 359.939 313.213 359.943C312.007 359.959 312.007 359.97 312.007 358.774C312.007 356.226 312.014 353.676 312.001 351.13C312.001 350.799 312.085 350.693 312.423 350.691C313.665 350.682 313.665 350.671 313.665 351.917V355.34V355.336Z" fill="#1678D1"></path><path d="M297.166 354.39C297.514 353.691 297.956 353.263 298.674 353.195C299.331 353.134 299.451 353.23 299.448 353.87C299.448 354.136 299.529 354.465 299.406 354.656C299.253 354.888 298.957 354.612 298.713 354.612C298.054 354.612 297.67 354.973 297.4 355.506C297.225 355.849 297.166 356.226 297.166 356.609C297.166 357.581 297.153 358.553 297.17 359.524C297.173 359.84 297.062 359.934 296.754 359.941C295.593 359.965 295.597 359.973 295.593 358.809C295.593 357.134 295.61 355.456 295.58 353.781C295.574 353.379 295.701 353.256 296.078 353.311C296.269 353.338 296.474 353.34 296.669 353.311C297.095 353.25 297.218 353.443 297.17 353.831C297.15 353.978 297.17 354.129 297.17 354.386V354.39H297.166Z" fill="#1678D1"></path><path d="M377.164 106.104V108.855C377.164 109.167 377.418 109.42 377.73 109.42H380.479C380.791 109.42 381.045 109.167 381.045 108.855V106.104C381.045 105.792 380.791 105.539 380.479 105.539H377.73C377.418 105.539 377.164 105.792 377.164 106.104Z" fill="#1678D1"></path><path opacity="0.25" d="M381.902 111.646V112.679C381.902 112.991 382.156 113.245 382.468 113.245H383.501C383.813 113.245 384.067 112.991 384.067 112.679V111.646C384.067 111.334 383.813 111.081 383.501 111.081H382.468C382.156 111.081 381.902 111.334 381.902 111.646Z" fill="#1678D1"></path><foreignObject x="299.073" y="73.5648" width="163.086" height="163.085"></foreignObject><path data-figma-bg-blur-radius="31.9743" d="M380.616 204.675C407.991 204.675 430.185 182.483 430.185 155.107C430.185 127.731 407.991 105.539 380.616 105.539C353.241 105.539 331.047 127.731 331.047 155.107C331.047 182.483 353.241 204.675 380.616 204.675Z" fill="white" fill-opacity="0.05"></path><path opacity="0.25" d="M380.619 193.668C401.913 193.668 419.177 176.404 419.177 155.108C419.177 133.812 401.913 116.548 380.619 116.548C359.322 116.548 342.058 133.812 342.058 155.108C342.058 176.404 359.322 193.668 380.619 193.668Z" fill="#1678D1"></path><path opacity="0.25" d="M380.613 185.974C397.659 185.974 411.478 172.156 411.478 155.11C411.478 138.064 397.659 124.246 380.613 124.246C363.567 124.246 349.751 138.064 349.751 155.11C349.751 172.156 363.567 185.974 380.613 185.974Z" fill="#1678D1"></path><mask id="mask1_1277_5586" style="mask-type:alpha" maskUnits="userSpaceOnUse" x="357" y="130" width="47" height="46"><path d="M403.323 130.593H357.985V175.931H403.323V130.593Z" fill="#D9D9D9"></path></mask><g mask="url(#mask1_1277_5586)"><path d="M367.713 166.202C366.422 164.691 365.425 162.999 364.716 161.125C364.008 159.252 363.653 157.261 363.653 155.151C363.653 150.428 365.304 146.414 368.61 143.108C371.918 139.802 375.932 138.149 380.654 138.149H381.031L378.009 135.127L380.654 132.482L388.21 140.039L380.654 147.595L377.963 144.903L380.937 141.927H380.654C377.001 141.927 373.884 143.218 371.304 145.8C368.72 148.382 367.43 151.499 367.43 155.151C367.43 156.757 367.69 158.268 368.21 159.685C368.73 161.102 369.461 162.377 370.407 163.51L367.713 166.202ZM378.766 165.541C378.766 164.817 378.522 164.101 378.031 163.392C377.544 162.684 377.001 161.944 376.403 161.173C375.805 160.401 375.262 159.598 374.775 158.764C374.287 157.93 374.044 157.04 374.044 156.096C374.044 154.27 374.687 152.711 375.977 151.42C377.271 150.129 378.828 149.484 380.654 149.484C382.481 149.484 384.037 150.129 385.331 151.42C386.621 152.711 387.265 154.27 387.265 156.096C387.265 157.04 387.021 157.93 386.533 158.764C386.046 159.598 385.503 160.401 384.905 161.173C384.307 161.944 383.764 162.684 383.274 163.392C382.786 164.101 382.542 164.817 382.542 165.541H378.766ZM378.766 170.264V167.43H382.542V170.264H378.766ZM393.596 166.202L390.901 163.51C391.847 162.377 392.578 161.102 393.098 159.685C393.618 158.268 393.878 156.757 393.878 155.151C393.878 153.073 393.446 151.145 392.578 149.366C391.714 147.587 390.524 146.099 389.013 144.903L391.704 142.211C393.531 143.785 394.98 145.682 396.049 147.902C397.122 150.121 397.655 152.538 397.655 155.151C397.655 157.261 397.301 159.252 396.592 161.125C395.884 162.999 394.886 164.691 393.596 166.202Z" fill="#1678D1"></path></g><path d="M171.887 73.2352V75.9854C171.887 76.2978 172.14 76.5511 172.453 76.5511H175.203C175.515 76.5511 175.769 76.2978 175.769 75.9854V73.2352C175.769 72.9227 175.515 72.6694 175.203 72.6694H172.453C172.14 72.6694 171.887 72.9227 171.887 73.2352Z" fill="#1678D1"></path><path opacity="0.25" d="M176.628 78.7777V79.8101C176.628 80.1226 176.881 80.3759 177.193 80.3759H178.226C178.538 80.3759 178.792 80.1226 178.792 79.8101V78.7777C178.792 78.4652 178.538 78.2119 178.226 78.2119H177.193C176.881 78.2119 176.628 78.4652 176.628 78.7777Z" fill="#1678D1"></path><foreignObject x="93.7962" y="40.6946" width="163.085" height="163.085"></foreignObject><path data-figma-bg-blur-radius="31.9743" d="M175.339 171.806C202.715 171.806 224.907 149.613 224.907 122.237C224.907 94.8615 202.715 72.6689 175.339 72.6689C147.963 72.6689 125.771 94.8615 125.771 122.237C125.771 149.613 147.963 171.806 175.339 171.806Z" fill="white" fill-opacity="0.1"></path><path opacity="0.25" d="M175.341 160.798C196.637 160.798 213.901 143.534 213.901 122.238C213.901 100.942 196.637 83.6782 175.341 83.6782C154.045 83.6782 136.781 100.942 136.781 122.238C136.781 143.534 154.045 160.798 175.341 160.798Z" fill="#1678D1"></path><path opacity="0.25" d="M175.337 153.105C192.383 153.105 206.201 139.286 206.201 122.241C206.201 105.195 192.383 91.3765 175.337 91.3765C158.291 91.3765 144.473 105.195 144.473 122.241C144.473 139.286 158.291 153.105 175.337 153.105Z" fill="#1678D1"></path><path d="M192.629 126.256C191.466 127.463 190.117 128.42 188.648 129.21C187.201 129.989 185.676 130.577 184.095 131.018C183.098 131.298 182.087 131.522 181.063 131.674C180.418 131.77 179.77 131.844 179.119 131.9C178.483 131.956 177.844 131.992 177.206 132.008C176.195 132.034 175.181 132.004 174.174 131.902C173.683 131.852 173.185 131.818 172.697 131.738C171.878 131.602 171.059 131.462 170.249 131.276C168.091 130.78 166.034 130.011 164.109 128.898C162.886 128.19 161.757 127.357 160.764 126.346C160.586 126.166 160.416 125.976 160.242 125.792C161.541 129.196 163.654 131.97 166.636 134.042C170.195 136.514 174.15 137.538 178.455 137.11C185.29 136.432 190.918 131.716 193.055 125.796C192.909 125.954 192.771 126.108 192.629 126.254V126.256Z" fill="#1678D1"></path><path d="M160.257 113.719V113.716L160.254 113.719H160.257Z" fill="#1678D1"></path><path d="M160.28 113.684C161.359 112.455 162.632 111.472 164.033 110.649C165.53 109.771 167.121 109.11 168.78 108.614C170.115 108.214 171.472 107.92 172.853 107.753C173.472 107.677 174.092 107.607 174.713 107.561C175.263 107.519 175.817 107.495 176.368 107.499C177.146 107.505 177.925 107.537 178.701 107.577C179.198 107.603 179.698 107.643 180.192 107.715C180.999 107.835 181.807 107.962 182.604 108.13C184.726 108.576 186.759 109.287 188.674 110.319C190.261 111.174 191.705 112.222 192.923 113.567C192.965 113.615 193.009 113.661 193.067 113.722C190.694 107.319 184.483 102.344 176.736 102.301C169.238 102.257 162.76 106.959 160.254 113.712C160.262 113.701 160.27 113.691 160.278 113.679L160.28 113.684Z" fill="#1678D1"></path><path d="M189.567 103.905C191.063 103.877 192.165 102.641 192.151 101.236C192.165 99.7715 190.98 98.5482 189.461 98.5843C187.988 98.6181 186.849 99.8332 186.866 101.292C186.885 102.743 188.084 103.932 189.567 103.905Z" fill="#1678D1"></path><path d="M169.204 125.066H170.229V121.924C170.719 122.584 171.346 122.87 172.13 122.822C173.079 122.764 173.799 122.324 174.236 121.477C174.71 120.559 174.748 119.588 174.46 118.607C174.182 117.666 173.393 116.764 172.032 116.82C171.26 116.852 170.655 117.192 170.209 117.826C170.189 117.854 170.169 117.883 170.149 117.911C170.141 117.911 170.133 117.909 170.125 117.907C170.109 117.592 170.093 117.276 170.077 116.962H169.17C169.23 119.666 169.178 122.364 169.202 125.07L169.204 125.066ZM170.295 118.963C170.503 118.221 171.013 117.772 171.768 117.661C172.352 117.576 172.823 117.828 173.173 118.301C173.447 118.673 173.567 119.103 173.599 119.556C173.635 120.08 173.575 120.594 173.343 121.071C173.011 121.755 172.439 122.042 171.814 122.016C171.095 121.989 170.587 121.623 170.323 120.947C170.259 120.783 170.243 120.598 170.227 120.42C170.213 120.244 170.225 120.066 170.225 119.89C170.215 119.89 170.205 119.886 170.195 119.886C170.227 119.578 170.215 119.257 170.299 118.961L170.295 118.963Z" fill="#1678D1"></path><path d="M190.853 118.443C190.693 117.953 190.437 117.527 190.009 117.227C189.526 116.892 188.984 116.804 188.411 116.857C187.531 116.939 186.872 117.375 186.428 118.137C186.014 118.85 185.924 119.634 185.988 120.439C186.072 121.502 186.828 122.414 187.839 122.73C188.239 122.853 188.647 122.847 189.056 122.839C189.602 122.829 190.127 122.72 190.637 122.525C190.665 122.513 190.693 122.498 190.725 122.482C190.665 122.224 190.607 121.972 190.547 121.714C190.021 121.932 189.492 122.006 188.946 122.016C188.363 122.026 187.869 121.842 187.475 121.412C187.124 121.029 186.968 120.573 186.994 120.031H191.027C191.043 119.486 191.027 118.956 190.857 118.443H190.853ZM190.009 119.226C189.018 119.222 188.029 119.222 187.037 119.222C187.032 119.222 187.024 119.218 187.004 119.21C187.008 118.868 187.103 118.554 187.297 118.279C187.643 117.785 188.111 117.497 188.722 117.517C189.376 117.539 189.96 118.071 190.067 118.72C190.089 118.856 190.085 118.998 190.092 119.138C190.092 119.194 190.078 119.226 190.012 119.226H190.009Z" fill="#1678D1"></path><path d="M162.359 116.958C162.357 116.992 162.355 117.018 162.355 117.042C162.355 118.147 162.347 119.25 162.361 120.353C162.365 120.667 162.401 120.985 162.467 121.293C162.667 122.222 163.258 122.756 164.188 122.824C165.021 122.886 165.69 122.558 166.178 121.87C166.198 121.842 166.218 121.814 166.256 121.762C166.28 122.092 166.3 122.39 166.322 122.694H167.215V116.908C166.906 116.908 166.61 116.912 166.316 116.904C166.208 116.902 166.174 116.928 166.174 117.042C166.18 118.149 166.176 119.256 166.176 120.365C166.176 120.471 166.176 120.579 166.158 120.685C166.034 121.371 165.547 121.85 164.859 121.928C164.252 121.996 163.756 121.776 163.53 121.105C163.436 120.825 163.396 120.533 163.396 120.237C163.396 119.188 163.396 118.139 163.396 117.092V116.96H162.359V116.958Z" fill="#1678D1"></path><path d="M175.778 124.413C175.744 124.427 175.712 124.441 175.674 124.455C175.758 124.743 175.84 125.023 175.928 125.32C175.996 125.302 176.054 125.29 176.108 125.272C176.867 125.039 177.423 124.543 177.854 123.889C178.25 123.294 178.542 122.642 178.802 121.981C179.439 120.36 180.063 118.733 180.69 117.108C180.709 117.06 180.724 117.012 180.744 116.956C180.702 116.956 180.671 116.952 180.639 116.952C180.349 116.952 180.061 116.956 179.773 116.948C179.681 116.948 179.647 116.98 179.621 117.062C179.142 118.515 178.66 119.966 178.178 121.419C178.17 121.447 178.156 121.473 178.136 121.523C178.108 121.425 178.086 121.355 178.066 121.285C177.623 119.83 177.033 118.429 176.524 116.998C176.499 116.932 176.46 116.932 176.406 116.932H175.44C175.418 116.932 175.394 116.934 175.362 116.938C175.38 116.984 175.392 117.018 175.406 117.052C175.74 117.884 176.074 118.713 176.408 119.544C176.765 120.436 177.125 121.329 177.483 122.221C177.543 122.368 177.589 122.514 177.517 122.678C177.163 123.488 176.603 124.087 175.776 124.417L175.778 124.413Z" fill="#1678D1"></path><path d="M160.912 106.648C161.951 106.659 162.835 105.773 162.845 104.708C162.826 103.661 162.029 102.791 160.93 102.785C159.875 102.777 159.019 103.605 159.001 104.706C158.983 105.761 159.855 106.639 160.912 106.648Z" fill="#1678D1"></path><path d="M164.798 138.687C162.829 138.675 161.234 140.22 161.201 142.272C161.168 144.239 162.792 145.878 164.764 145.898C166.705 145.916 168.351 144.263 168.371 142.276C168.337 140.324 166.85 138.699 164.798 138.687Z" fill="#1678D1"></path><path d="M183.668 117.718C184.086 117.722 184.504 117.718 184.92 117.718H185.053V116.946H185.051C185.005 116.946 184.965 116.946 184.927 116.946H183.686C183.592 116.946 183.546 116.898 183.546 116.8V115.292C183.205 115.373 182.877 115.453 182.543 115.533V115.663C182.543 116.045 182.539 116.429 182.547 116.81C182.547 116.92 182.513 116.948 182.411 116.944C182.255 116.936 182.098 116.944 181.94 116.944C181.738 116.944 181.638 117.046 181.638 117.25V117.722H182.521C182.525 117.758 182.529 117.784 182.529 117.81C182.527 118.881 182.521 119.952 182.527 121.021C182.527 121.237 182.547 121.457 182.597 121.665C182.741 122.246 183.071 122.668 183.684 122.788C184.076 122.864 184.472 122.828 184.857 122.722C185.005 122.682 185.003 122.68 184.989 122.52C184.983 122.442 184.981 122.366 184.977 122.288C184.967 122.163 184.96 122.037 184.951 121.929C184.722 121.943 184.504 121.965 184.286 121.965C183.98 121.965 183.752 121.815 183.662 121.519C183.598 121.309 183.56 121.081 183.558 120.859C183.546 119.854 183.555 118.851 183.55 117.846C183.55 117.748 183.576 117.72 183.674 117.72L183.668 117.718Z" fill="#1678D1"></path><path d="M160.4 121.969V117.058C160.4 116.956 160.352 116.906 160.254 116.906H159.487C159.449 116.906 159.411 116.91 159.365 116.912V117.066C159.365 118.741 159.369 120.414 159.359 122.087C159.359 122.456 159.321 122.828 159.275 123.196C159.223 123.617 159.037 123.967 158.632 124.155C158.509 124.213 158.384 124.265 158.254 124.301C158.118 124.339 157.976 124.353 157.83 124.379C157.862 124.613 157.89 124.847 157.93 125.076C157.934 125.102 157.998 125.135 158.034 125.135C158.493 125.128 158.921 125.007 159.315 124.769C159.461 124.681 159.619 124.589 159.724 124.461C160.142 123.957 160.37 123.372 160.41 122.718C160.426 122.471 160.402 122.219 160.402 121.969H160.4Z" fill="#1678D1"></path><path d="M195.425 116.864C195.425 116.84 195.375 116.802 195.347 116.8C195.259 116.796 195.171 116.804 195.085 116.814C194.357 116.898 193.87 117.29 193.604 117.971C193.59 118.008 193.574 118.039 193.558 118.073C193.546 118.073 193.536 118.069 193.524 118.067V116.952H192.597C192.597 117.006 192.597 117.052 192.597 117.1C192.609 117.384 192.629 117.666 192.631 117.949C192.633 118.253 192.611 118.559 192.605 118.863C192.581 120.094 192.595 121.327 192.595 122.56V122.674H193.618V122.532C193.618 121.653 193.616 120.774 193.618 119.894C193.618 119.638 193.634 119.381 193.664 119.125C193.742 118.421 194.22 117.917 194.915 117.8C195.079 117.772 195.247 117.774 195.425 117.761C195.425 117.466 195.425 117.166 195.421 116.864H195.425Z" fill="#1678D1"></path></g></g><defs><clipPath id="bgblur_1_1277_5586_clip_path" transform="translate(-186.866 -243.208)"><path d="M287.566 405.122C321.372 405.122 348.78 377.715 348.78 343.908C348.78 310.101 321.372 282.694 287.566 282.694C253.759 282.694 226.353 310.101 226.353 343.908C226.353 377.715 253.759 405.122 287.566 405.122Z"></path></clipPath><clipPath id="bgblur_2_1277_5586_clip_path" transform="translate(-299.073 -73.5648)"><path d="M380.616 204.675C407.991 204.675 430.185 182.483 430.185 155.107C430.185 127.731 407.991 105.539 380.616 105.539C353.241 105.539 331.047 127.731 331.047 155.107C331.047 182.483 353.241 204.675 380.616 204.675Z"></path></clipPath><clipPath id="bgblur_3_1277_5586_clip_path" transform="translate(-93.7962 -40.6946)"><path d="M175.339 171.806C202.715 171.806 224.907 149.613 224.907 122.237C224.907 94.8615 202.715 72.6689 175.339 72.6689C147.963 72.6689 125.771 94.8615 125.771 122.237C125.771 149.613 147.963 171.806 175.339 171.806Z"></path></clipPath><linearGradient id="paint0_linear_1277_5586" x1="56.5674" y1="209.169" x2="130.069" y2="209.169" gradientUnits="userSpaceOnUse"><stop offset="0.00520833" stop-color="#4080D8" stop-opacity="0.35"></stop><stop offset="0.494792" stop-color="#4080D8" stop-opacity="0.5"></stop><stop offset="1" stop-color="#4080D8" stop-opacity="0.9"></stop></linearGradient><linearGradient id="paint1_linear_1277_5586" x1="49.4531" y1="325.398" x2="142.099" y2="325.398" gradientUnits="userSpaceOnUse"><stop offset="0.00520833" stop-color="#4080D8" stop-opacity="0.35"></stop><stop offset="0.494792" stop-color="#4080D8" stop-opacity="0.5"></stop><stop offset="1" stop-color="#4080D8" stop-opacity="0.9"></stop></linearGradient><linearGradient id="paint2_linear_1277_5586" x1="29.2275" y1="263.692" x2="171.78" y2="263.692" gradientUnits="userSpaceOnUse"><stop offset="0.00520833" stop-color="#4080D8" stop-opacity="0.35"></stop><stop offset="0.494792" stop-color="#4080D8" stop-opacity="0.5"></stop><stop offset="1" stop-color="#4080D8" stop-opacity="0.9"></stop></linearGradient><linearGradient id="paint3_linear_1277_5586" x1="351.132" y1="259.013" x2="428.388" y2="259.013" gradientUnits="userSpaceOnUse"><stop offset="0.00520833" stop-color="#4080D8" stop-opacity="0.35"></stop><stop offset="0.494792" stop-color="#4080D8" stop-opacity="0.5"></stop><stop offset="1" stop-color="#4080D8" stop-opacity="0.9"></stop></linearGradient><linearGradient id="paint4_linear_1277_5586" x1="370.911" y1="212.412" x2="410.389" y2="212.412" gradientUnits="userSpaceOnUse"><stop offset="0.00520833" stop-color="#4080D8" stop-opacity="0.35"></stop><stop offset="0.494792" stop-color="#4080D8" stop-opacity="0.5"></stop><stop offset="1" stop-color="#4080D8" stop-opacity="0.9"></stop></linearGradient><linearGradient id="paint5_linear_1277_5586" x1="326.412" y1="243.403" x2="402.28" y2="243.403" gradientUnits="userSpaceOnUse"><stop offset="0.00520833" stop-color="#4080D8" stop-opacity="0.35"></stop><stop offset="0.494792" stop-color="#4080D8" stop-opacity="0.5"></stop><stop offset="1" stop-color="#4080D8" stop-opacity="0.9"></stop></linearGradient><clipPath id="clip0_1277_5586"><rect width="460" height="476" fill="white"></rect></clipPath></defs></svg>