<svg xmlns="http://www.w3.org/2000/svg" width="460" height="475" viewBox="0 0 460 475" fill="none"><path d="M257.382 365.893C258.593 365.574 260.142 365.369 262.021 365.282C263.9 365.196 265.881 365.272 267.976 365.51C290.945 368.062 310.648 371.598 327.011 376.29C344.884 381.414 357.334 387.47 363.566 394.617C370.485 402.558 369.226 410.891 358.439 419.533C346.53 429.074 323.746 437.732 289.541 445.062C285.822 445.779 282.402 445.994 279.308 445.704C276.228 445.418 273.547 444.886 271.272 444.107C269.014 443.338 267.927 442.467 267.989 441.49C268.05 440.532 269.696 439.709 272.914 439.027C303.496 432.982 324.437 425.541 336.025 417.091C346.622 409.365 348.757 401.869 343.497 394.675C338.722 388.139 328.331 382.566 312.989 377.827C298.836 373.452 281.135 370.139 260.001 367.745C257.642 367.498 256.313 367.197 256 366.84C255.697 366.486 256.154 366.171 257.382 365.893ZM25.3964 407.531C43.2373 399.96 65.1721 394.247 91.4873 390.025C116.632 385.988 143.991 383.943 174.81 383.748C188.748 383.66 200.241 384.63 209.458 386.712C219.029 388.876 223.776 391.633 223.406 395.039C223.018 398.617 217.147 401.817 205.555 404.568C193.609 407.4 179.167 408.843 162.63 408.827C151.802 408.816 142.128 409.818 133.423 411.867C124.526 413.959 118.926 416.506 116.705 419.551C114.403 422.711 116.367 425.528 122.815 427.967C129.473 430.485 139.039 431.823 151.413 431.92C195.632 432.263 233.825 428.028 263.266 419.737C290.456 412.079 301.322 403.676 297.731 394.926C294.531 387.129 280.527 381.15 257.039 376.667C235.444 372.547 210.518 370.759 181.355 371.05C175.329 371.11 167.766 371.288 158.662 371.59C149.571 371.889 138.771 372.494 126.193 373.412C123.833 373.575 121.867 373.583 120.303 373.434C118.744 373.284 117.787 373.024 117.43 372.655C117.075 372.287 117.498 371.928 118.694 371.574C119.886 371.223 121.51 370.968 123.576 370.811C133.62 370.035 143.39 369.455 152.938 369.064C162.488 368.673 172.267 368.427 182.313 368.317C215.31 367.96 243.55 369.875 268.178 374.357C295.236 379.282 311.973 385.944 316.766 394.764C322.276 404.903 310.89 414.791 279.968 423.913C246.028 433.926 200.844 439.048 148.203 438.537C128.827 438.348 114.154 436.21 104.397 432.268C95.1036 428.515 92.7231 424.225 96.7544 419.47C100.567 414.969 109.105 411.306 122.206 408.371C134.911 405.522 149.017 404.129 164.921 404.122C175.497 404.116 184.777 403.183 192.588 401.344C200.243 399.543 204.303 397.45 204.862 395.097C205.403 392.818 202.5 390.93 196.288 389.406C190.236 387.921 182.533 387.219 173.107 387.268C145.692 387.413 121.655 389.264 100.027 392.928C77.4937 396.747 58.2726 401.911 42.1058 408.706C40.3005 409.409 38.1616 409.881 35.7023 410.115C33.2381 410.351 30.8761 410.385 28.6267 410.225C26.6903 410.065 25.278 409.745 24.3938 409.273C23.5118 408.803 23.8556 408.224 25.4069 407.534L25.3964 407.531ZM346.82 374.407C345.02 374.003 344.307 373.591 344.659 373.171C345.016 372.757 346.231 372.437 348.312 372.214C350.39 371.991 352.392 371.923 354.333 372.007C356.243 372.091 358.1 372.322 359.909 372.707C359.962 372.717 360.015 372.731 360.063 372.741C371.787 375.6 382.196 378.771 391.192 382.29C400.755 386.028 408.32 390.08 413.69 394.468C419.508 399.222 422.703 404.18 423.002 409.341C423.319 414.846 420.687 420.519 414.834 426.341C413.699 427.293 411.731 427.844 408.937 427.988C406.138 428.132 403.118 428.033 399.879 427.692C396.658 427.351 393.889 426.803 391.574 426.05C389.286 425.305 388.723 424.421 389.867 423.401C395.914 418.174 399.061 413.065 399.54 408.09C399.989 403.398 397.754 398.876 393.062 394.531C388.718 390.5 382.5 386.765 374.569 383.306C367.052 380.027 357.766 377.069 346.816 374.407H346.82ZM60.1672 386.143C80.5273 382.755 99.6384 380.216 117.883 378.448C135.84 376.707 155.998 375.75 178.789 375.55C202.679 375.343 222.871 376.861 239.927 380.276C258.161 383.924 268.381 388.734 269.705 394.898C271.149 401.643 261.651 407.969 240.174 413.629C217.37 419.638 188.785 422.701 155.964 422.538C152.752 422.523 150.306 422.247 148.629 421.717C146.965 421.19 146.366 420.508 146.823 419.674C147.225 418.94 148.529 418.308 150.726 417.773C152.909 417.24 155.552 416.981 158.662 416.991C184.801 417.08 207.46 414.673 225.653 409.947C242.978 405.444 251.106 400.398 250.662 394.958C250.248 389.904 242.472 385.883 227.942 382.768C214.2 379.822 197.443 378.487 177.293 378.645C155.791 378.813 137.168 379.689 121.043 381.294C104.683 382.923 87.183 385.309 68.2031 388.524C66.1403 388.889 64.0252 389.078 61.8704 389.088C59.7183 389.099 58.0701 388.931 56.9338 388.582C55.7974 388.233 55.5563 387.832 56.1834 387.366C56.8106 386.898 58.1362 386.497 60.1725 386.146L60.1672 386.143ZM50.8058 418.203C59.2725 410.71 75.129 404.728 98.0113 399.96C119.744 395.43 143.453 393.201 170.262 393.106C172.639 393.098 174.639 393.272 176.269 393.628C177.909 393.988 178.605 394.468 178.35 395.073C178.096 395.679 176.967 396.18 174.975 396.563C172.973 396.949 170.745 397.143 168.301 397.148C145.561 397.203 125.697 399.12 107.921 403.028C89.3483 407.109 76.8062 412.129 70.5863 418.282C70.0454 418.817 69.442 419.58 68.7726 420.579C68.0931 421.589 67.5289 422.662 67.0826 423.795C66.9145 424.655 65.7416 425.397 63.5552 426.019C61.3533 426.643 58.5846 427.044 55.2544 427.22C52.2704 427.398 50.0004 427.236 48.4569 426.732C46.9245 426.231 46.2472 425.596 46.4153 424.825C46.62 423.115 47.3391 421.652 48.5595 420.419C49.7641 419.205 50.5092 418.471 50.8084 418.206L50.8058 418.203Z" fill="#EDF0F1"></path><path opacity="0.25" d="M395.98 148.398C405.654 148.398 413.492 140.564 413.492 130.899C413.492 121.235 405.654 113.401 395.98 113.401C386.311 113.401 378.473 121.235 378.473 130.899C378.473 140.564 386.311 148.398 395.98 148.398Z" fill="#28A8E8"></path><path opacity="0.05" d="M395.981 153.394C408.414 153.394 418.492 143.323 418.492 130.899C418.492 118.476 408.414 108.404 395.981 108.404C383.548 108.404 373.474 118.476 373.474 130.899C373.474 143.323 383.548 153.394 395.981 153.394Z" fill="#28A8E8"></path><path opacity="0.25" d="M395.98 144.907C403.722 144.907 409.998 138.636 409.998 130.899C409.998 123.163 403.722 116.891 395.98 116.891C388.239 116.891 381.963 123.163 381.963 130.899C381.963 138.636 388.239 144.907 395.98 144.907Z" fill="#28A8E8"></path><path d="M388.194 128.817C388.093 128.744 388.032 128.652 388.01 128.542C387.983 128.431 388.018 128.316 388.106 128.198C389.022 126.944 390.166 125.974 391.548 125.281C392.926 124.589 394.4 124.243 395.958 124.243C397.52 124.243 398.995 124.579 400.385 125.247C401.772 125.916 402.929 126.887 403.858 128.153C403.946 128.287 403.977 128.405 403.946 128.507C403.915 128.61 403.858 128.699 403.77 128.772C403.682 128.846 403.576 128.88 403.462 128.872C403.343 128.864 403.242 128.801 403.149 128.683C402.339 127.535 401.296 126.653 400.02 126.042C398.744 125.431 397.393 125.124 395.962 125.124C394.532 125.124 393.19 125.431 391.935 126.042C390.681 126.653 389.642 127.535 388.819 128.683C388.731 128.817 388.626 128.89 388.507 128.904C388.392 128.916 388.287 128.888 388.199 128.814L388.194 128.817ZM398.458 139.714C396.926 139.331 395.672 138.568 394.699 137.427C393.722 136.286 393.238 134.889 393.238 133.239C393.238 132.502 393.502 131.883 394.035 131.382C394.563 130.881 395.205 130.629 395.958 130.629C396.706 130.629 397.349 130.881 397.881 131.382C398.409 131.883 398.678 132.502 398.678 133.239C398.678 133.724 398.858 134.133 399.228 134.466C399.598 134.799 400.033 134.965 400.535 134.965C401.037 134.965 401.464 134.799 401.816 134.466C402.172 134.136 402.348 133.727 402.348 133.239C402.348 131.529 401.719 130.092 400.469 128.93C399.215 127.765 397.718 127.183 395.98 127.183C394.237 127.183 392.741 127.765 391.486 128.93C390.232 130.094 389.607 131.524 389.607 133.218C389.607 133.572 389.642 134.013 389.708 134.545C389.774 135.077 389.933 135.694 390.184 136.402C390.228 136.536 390.223 136.654 390.17 136.756C390.122 136.858 390.034 136.932 389.92 136.976C389.801 137.021 389.686 137.016 389.576 136.965C389.462 136.916 389.387 136.829 389.343 136.711C389.123 136.137 388.965 135.565 388.868 134.999C388.775 134.432 388.723 133.845 388.723 133.242C388.723 131.282 389.436 129.638 390.857 128.313C392.279 126.987 393.982 126.325 395.958 126.325C397.934 126.325 399.659 126.989 401.089 128.313C402.52 129.64 403.233 131.282 403.233 133.242C403.233 133.978 402.969 134.592 402.445 135.088C401.926 135.581 401.288 135.827 400.535 135.827C399.782 135.827 399.135 135.581 398.598 135.088C398.062 134.595 397.793 133.978 397.793 133.242C397.793 132.756 397.608 132.347 397.252 132.014C396.891 131.681 396.46 131.516 395.958 131.516C395.456 131.516 395.025 131.681 394.664 132.014C394.299 132.347 394.123 132.754 394.123 133.242C394.123 134.671 394.55 135.864 395.395 136.821C396.244 137.779 397.335 138.45 398.682 138.833C398.814 138.878 398.902 138.951 398.946 139.053C398.99 139.156 398.999 139.266 398.968 139.384C398.937 139.486 398.876 139.575 398.792 139.649C398.704 139.722 398.59 139.746 398.462 139.714H398.458ZM391.068 124.199C390.954 124.272 390.835 124.29 390.716 124.254C390.597 124.217 390.509 124.138 390.452 124.023C390.395 123.907 390.377 123.797 390.408 123.703C390.435 123.608 390.509 123.524 390.619 123.451C390.624 123.451 390.628 123.446 390.633 123.446C391.456 123.005 392.318 122.667 393.216 122.43C394.114 122.195 395.029 122.076 395.958 122.076C396.886 122.076 397.824 122.192 398.722 122.42C399.62 122.648 400.491 122.976 401.327 123.404C401.464 123.477 401.538 123.567 401.56 123.669C401.582 123.771 401.569 123.876 401.525 123.978C401.481 124.08 401.406 124.162 401.305 124.222C401.204 124.283 401.076 124.275 400.931 124.201C400.148 123.802 399.342 123.498 398.506 123.283C397.674 123.071 396.825 122.963 395.953 122.963C395.086 122.963 394.259 123.063 393.432 123.262C392.604 123.461 391.816 123.774 391.064 124.201L391.068 124.199ZM393.678 139.405C392.811 138.492 392.142 137.558 391.676 136.609C391.214 135.66 390.98 134.535 390.98 133.239C390.98 131.943 391.464 130.768 392.441 129.845C393.414 128.924 394.585 128.463 395.958 128.463C397.331 128.463 398.506 128.924 399.496 129.845C400.482 130.766 400.979 131.896 400.979 133.239C400.979 133.373 400.94 133.477 400.856 133.559C400.777 133.64 400.667 133.68 400.535 133.68C400.416 133.68 400.315 133.64 400.227 133.559C400.139 133.477 400.095 133.37 400.095 133.239C400.095 132.135 399.686 131.209 398.863 130.464C398.044 129.719 397.076 129.347 395.958 129.347C394.836 129.347 393.872 129.719 393.071 130.464C392.265 131.209 391.865 132.132 391.865 133.239C391.865 134.432 392.072 135.445 392.485 136.278C392.895 137.11 393.502 137.947 394.299 138.789C394.387 138.878 394.431 138.98 394.431 139.098C394.431 139.216 394.387 139.318 394.299 139.407C394.211 139.497 394.105 139.541 393.991 139.541C393.872 139.541 393.766 139.497 393.678 139.407V139.405ZM400.359 137.902C399.047 137.902 397.908 137.459 396.939 136.575C395.975 135.691 395.491 134.579 395.491 133.236C395.491 133.118 395.531 133.016 395.615 132.927C395.694 132.837 395.804 132.793 395.931 132.793C396.063 132.793 396.174 132.837 396.253 132.927C396.336 133.016 396.376 133.118 396.376 133.236C396.376 134.34 396.772 135.248 397.569 135.956C398.365 136.664 399.294 137.018 400.354 137.018C400.443 137.018 400.566 137.01 400.729 136.997C400.891 136.984 401.063 136.961 401.239 136.932C401.376 136.903 401.486 136.921 401.582 136.987C401.679 137.052 401.741 137.152 401.772 137.286C401.802 137.404 401.78 137.506 401.706 137.595C401.635 137.684 401.538 137.742 401.42 137.771C401.151 137.844 400.918 137.886 400.724 137.891C400.526 137.897 400.403 137.902 400.359 137.902Z" fill="#28A8E8"></path><path opacity="0.25" d="M351.802 276.309C358.747 276.309 364.376 270.683 364.376 263.743C364.376 256.804 358.747 251.178 351.802 251.178C344.857 251.178 339.229 256.804 339.229 263.743C339.229 270.683 344.857 276.309 351.802 276.309Z" fill="#28A8E8"></path><path opacity="0.05" d="M351.802 279.895C360.728 279.895 367.963 272.664 367.963 263.744C367.963 254.824 360.728 247.593 351.802 247.593C342.877 247.593 335.642 254.824 335.642 263.744C335.642 272.664 342.877 279.895 351.802 279.895Z" fill="#28A8E8"></path><path opacity="0.25" d="M351.802 273.802C357.361 273.802 361.868 269.3 361.868 263.745C361.868 258.19 357.361 253.687 351.802 253.687C346.244 253.687 341.737 258.19 341.737 263.745C341.737 269.3 346.244 273.802 351.802 273.802Z" fill="#28A8E8"></path><path d="M346.213 262.249C346.138 262.197 346.095 262.131 346.077 262.05C346.064 261.968 346.086 261.887 346.152 261.803C346.807 260.903 347.63 260.206 348.621 259.708C349.611 259.209 350.667 258.963 351.785 258.963C352.907 258.963 353.968 259.204 354.963 259.684C355.957 260.164 356.789 260.861 357.458 261.772C357.52 261.866 357.542 261.952 357.52 262.026C357.498 262.099 357.458 262.162 357.392 262.217C357.33 262.273 357.256 262.293 357.172 262.288C357.084 262.283 357.009 262.238 356.947 262.154C356.362 261.328 355.618 260.696 354.699 260.258C353.783 259.82 352.815 259.6 351.785 259.6C350.76 259.6 349.796 259.82 348.898 260.258C347.996 260.696 347.252 261.328 346.658 262.154C346.596 262.249 346.521 262.301 346.438 262.314C346.35 262.328 346.275 262.304 346.213 262.251V262.249ZM353.581 270.072C352.48 269.797 351.583 269.249 350.883 268.43C350.183 267.612 349.835 266.608 349.835 265.422C349.835 264.893 350.025 264.449 350.408 264.09C350.786 263.731 351.248 263.55 351.785 263.55C352.326 263.55 352.788 263.731 353.167 264.09C353.55 264.449 353.739 264.895 353.739 265.422C353.739 265.771 353.871 266.065 354.135 266.304C354.399 266.542 354.712 266.66 355.073 266.66C355.433 266.66 355.742 266.542 355.992 266.304C356.248 266.065 356.375 265.771 356.375 265.422C356.375 264.195 355.926 263.164 355.024 262.328C354.126 261.491 353.053 261.074 351.803 261.074C350.553 261.074 349.479 261.491 348.581 262.328C347.679 263.164 347.23 264.19 347.23 265.407C347.23 265.661 347.256 265.978 347.3 266.358C347.349 266.739 347.463 267.185 347.644 267.691C347.674 267.785 347.67 267.872 347.635 267.945C347.6 268.019 347.538 268.071 347.45 268.105C347.366 268.139 347.283 268.134 347.204 268.098C347.124 268.061 347.072 268 347.036 267.914C346.878 267.502 346.763 267.09 346.697 266.684C346.627 266.277 346.592 265.855 346.592 265.422C346.592 264.014 347.107 262.836 348.128 261.884C349.149 260.932 350.368 260.455 351.785 260.455C353.207 260.455 354.448 260.932 355.473 261.884C356.499 262.836 357.013 264.016 357.013 265.422C357.013 265.952 356.824 266.393 356.45 266.747C356.072 267.101 355.614 267.279 355.077 267.279C354.536 267.279 354.074 267.101 353.686 266.747C353.303 266.393 353.105 265.949 353.105 265.422C353.105 265.073 352.978 264.78 352.718 264.541C352.458 264.302 352.15 264.184 351.789 264.184C351.429 264.184 351.12 264.302 350.861 264.541C350.601 264.78 350.474 265.073 350.474 265.422C350.474 266.448 350.777 267.305 351.385 267.992C351.996 268.68 352.78 269.162 353.743 269.438C353.84 269.469 353.906 269.522 353.937 269.598C353.968 269.674 353.972 269.75 353.95 269.836C353.933 269.91 353.889 269.973 353.827 270.028C353.766 270.083 353.686 270.096 353.589 270.075L353.581 270.072ZM348.277 258.931C348.194 258.984 348.106 258.997 348.022 258.97C347.939 258.944 347.877 258.889 347.833 258.802C347.789 258.716 347.78 258.64 347.802 258.572C347.82 258.503 347.873 258.443 347.956 258.391C347.956 258.391 347.961 258.388 347.965 258.386C348.555 258.068 349.175 257.827 349.818 257.656C350.465 257.486 351.12 257.402 351.785 257.402C352.454 257.402 353.127 257.483 353.77 257.649C354.417 257.814 355.042 258.047 355.645 258.354C355.742 258.407 355.794 258.47 355.812 258.546C355.83 258.622 355.821 258.693 355.79 258.769C355.759 258.845 355.706 258.9 355.627 258.944C355.552 258.989 355.464 258.981 355.359 258.929C354.795 258.643 354.219 258.422 353.62 258.27C353.022 258.118 352.41 258.039 351.785 258.039C351.16 258.039 350.566 258.11 349.972 258.254C349.382 258.396 348.814 258.622 348.277 258.929V258.931ZM350.152 269.849C349.527 269.194 349.048 268.525 348.713 267.843C348.379 267.161 348.211 266.353 348.211 265.422C348.211 264.491 348.563 263.647 349.259 262.986C349.959 262.325 350.799 261.995 351.785 261.995C352.766 261.995 353.616 262.325 354.324 262.986C355.033 263.647 355.389 264.46 355.389 265.422C355.389 265.517 355.359 265.595 355.301 265.653C355.244 265.711 355.169 265.74 355.068 265.74C354.985 265.74 354.91 265.711 354.848 265.653C354.782 265.595 354.751 265.519 354.751 265.422C354.751 264.628 354.461 263.964 353.871 263.432C353.281 262.897 352.586 262.629 351.781 262.629C350.975 262.629 350.284 262.897 349.708 263.432C349.131 263.967 348.841 264.63 348.841 265.422C348.841 266.28 348.99 267.006 349.285 267.604C349.584 268.202 350.016 268.803 350.588 269.406C350.65 269.469 350.68 269.543 350.68 269.629C350.68 269.716 350.65 269.789 350.588 269.852C350.526 269.915 350.452 269.947 350.364 269.947C350.28 269.947 350.205 269.915 350.143 269.852L350.152 269.849ZM354.945 268.771C354.003 268.771 353.185 268.454 352.494 267.82C351.798 267.185 351.455 266.385 351.455 265.422C351.455 265.339 351.481 265.262 351.539 265.2C351.6 265.136 351.675 265.105 351.772 265.105C351.869 265.105 351.943 265.136 352.001 265.2C352.058 265.262 352.089 265.336 352.089 265.422C352.089 266.217 352.375 266.867 352.947 267.374C353.519 267.88 354.188 268.134 354.945 268.134C355.011 268.134 355.099 268.129 355.218 268.119C355.337 268.108 355.456 268.092 355.583 268.071C355.676 268.05 355.759 268.063 355.83 268.111C355.896 268.158 355.94 268.229 355.962 268.326C355.984 268.409 355.966 268.485 355.913 268.549C355.865 268.612 355.794 268.653 355.706 268.675C355.517 268.727 355.35 268.756 355.205 268.761C355.064 268.766 354.976 268.769 354.945 268.769V268.771Z" fill="#28A8E8"></path><path opacity="0.25" d="M295.593 208.154C299.879 208.154 303.352 204.683 303.352 200.401C303.352 196.119 299.879 192.648 295.593 192.648C291.31 192.648 287.838 196.119 287.838 200.401C287.838 204.683 291.31 208.154 295.593 208.154Z" fill="#28A8E8"></path><path opacity="0.05" d="M295.597 210.367C301.102 210.367 305.57 205.905 305.57 200.4C305.57 194.896 301.102 190.434 295.597 190.434C290.087 190.434 285.624 194.896 285.624 200.4C285.624 205.905 290.087 210.367 295.597 210.367Z" fill="#28A8E8"></path><path opacity="0.25" d="M295.597 206.606C299.025 206.606 301.806 203.828 301.806 200.401C301.806 196.974 299.025 194.195 295.597 194.195C292.168 194.195 289.387 196.974 289.387 200.401C289.387 203.828 292.168 206.606 295.597 206.606Z" fill="#28A8E8"></path><path d="M292.147 199.478C292.103 199.446 292.072 199.404 292.063 199.354C292.05 199.304 292.067 199.255 292.107 199.202C292.512 198.646 293.018 198.216 293.63 197.909C294.241 197.602 294.893 197.45 295.588 197.45C296.279 197.45 296.93 197.599 297.547 197.896C298.158 198.192 298.673 198.623 299.083 199.184C299.122 199.241 299.135 199.294 299.122 199.341C299.109 199.388 299.083 199.425 299.043 199.459C299.008 199.493 298.959 199.506 298.907 199.503C298.858 199.501 298.81 199.472 298.77 199.42C298.414 198.911 297.952 198.52 297.388 198.25C296.82 197.98 296.222 197.844 295.588 197.844C294.954 197.844 294.36 197.98 293.806 198.25C293.247 198.52 292.789 198.911 292.424 199.42C292.384 199.478 292.34 199.511 292.287 199.517C292.235 199.522 292.191 199.511 292.151 199.478H292.147ZM296.693 204.306C296.011 204.135 295.456 203.797 295.025 203.293C294.594 202.79 294.378 202.168 294.378 201.436C294.378 201.111 294.497 200.836 294.73 200.613C294.963 200.39 295.249 200.28 295.584 200.28C295.918 200.28 296.2 200.39 296.438 200.613C296.671 200.836 296.79 201.109 296.79 201.436C296.79 201.652 296.869 201.833 297.032 201.98C297.195 202.127 297.388 202.2 297.608 202.2C297.828 202.2 298.022 202.127 298.18 201.98C298.334 201.833 298.414 201.652 298.414 201.436C298.414 200.679 298.136 200.044 297.582 199.527C297.027 199.01 296.367 198.754 295.593 198.754C294.822 198.754 294.162 199.01 293.603 199.527C293.049 200.044 292.771 200.676 292.771 201.426C292.771 201.583 292.789 201.778 292.815 202.013C292.846 202.25 292.917 202.522 293.027 202.837C293.044 202.895 293.044 202.947 293.022 202.994C293 203.042 292.961 203.073 292.908 203.091C292.855 203.11 292.807 203.11 292.758 203.086C292.705 203.062 292.675 203.026 292.653 202.974C292.556 202.719 292.485 202.465 292.446 202.215C292.402 201.966 292.38 201.704 292.38 201.436C292.38 200.568 292.697 199.839 293.326 199.252C293.955 198.664 294.708 198.37 295.588 198.37C296.464 198.37 297.225 198.664 297.859 199.252C298.493 199.839 298.81 200.568 298.81 201.436C298.81 201.762 298.695 202.035 298.458 202.255C298.224 202.475 297.947 202.583 297.613 202.583C297.278 202.583 296.992 202.473 296.754 202.255C296.517 202.037 296.398 201.765 296.398 201.436C296.398 201.221 296.319 201.041 296.16 200.894C295.997 200.747 295.808 200.673 295.588 200.673C295.364 200.673 295.174 200.747 295.016 200.894C294.853 201.041 294.774 201.221 294.774 201.436C294.774 202.068 294.963 202.598 295.337 203.023C295.716 203.448 296.2 203.745 296.794 203.915C296.851 203.933 296.891 203.968 296.913 204.012C296.93 204.057 296.935 204.107 296.922 204.159C296.908 204.203 296.882 204.243 296.842 204.277C296.803 204.311 296.754 204.319 296.697 204.306H296.693ZM293.418 197.432C293.366 197.463 293.313 197.474 293.26 197.455C293.207 197.437 293.168 197.406 293.141 197.353C293.115 197.3 293.11 197.253 293.124 197.212C293.137 197.169 293.168 197.133 293.22 197.101C293.22 197.101 293.22 197.101 293.225 197.099C293.59 196.905 293.969 196.752 294.369 196.65C294.765 196.548 295.17 196.493 295.584 196.493C295.997 196.493 296.411 196.543 296.807 196.645C297.208 196.747 297.595 196.891 297.965 197.08C298.022 197.112 298.057 197.151 298.07 197.198C298.079 197.245 298.075 197.29 298.053 197.335C298.031 197.379 298 197.416 297.956 197.442C297.912 197.468 297.855 197.466 297.789 197.432C297.445 197.256 297.089 197.12 296.719 197.025C296.345 196.931 295.971 196.883 295.588 196.883C295.201 196.883 294.836 196.928 294.466 197.015C294.101 197.101 293.753 197.24 293.418 197.432ZM294.576 204.169C294.189 203.766 293.894 203.351 293.687 202.931C293.48 202.512 293.379 202.013 293.379 201.439C293.379 200.865 293.594 200.343 294.026 199.936C294.453 199.527 294.976 199.325 295.584 199.325C296.191 199.325 296.715 199.53 297.151 199.936C297.586 200.346 297.806 200.847 297.806 201.439C297.806 201.497 297.789 201.544 297.749 201.581C297.714 201.618 297.665 201.636 297.608 201.636C297.555 201.636 297.511 201.618 297.472 201.581C297.432 201.544 297.415 201.497 297.415 201.439C297.415 200.949 297.234 200.54 296.873 200.209C296.508 199.879 296.081 199.713 295.584 199.713C295.086 199.713 294.66 199.879 294.307 200.209C293.947 200.54 293.77 200.949 293.77 201.439C293.77 201.969 293.863 202.418 294.048 202.784C294.233 203.154 294.501 203.524 294.853 203.897C294.888 203.936 294.91 203.981 294.91 204.033C294.91 204.085 294.888 204.13 294.853 204.169C294.814 204.209 294.765 204.227 294.717 204.227C294.664 204.227 294.616 204.209 294.58 204.169H294.576ZM297.538 203.503C296.952 203.503 296.451 203.307 296.019 202.916C295.593 202.525 295.377 202.032 295.377 201.436C295.377 201.384 295.399 201.34 295.434 201.3C295.469 201.261 295.518 201.242 295.575 201.242C295.632 201.242 295.681 201.261 295.716 201.3C295.755 201.34 295.773 201.384 295.773 201.436C295.773 201.927 295.949 202.328 296.301 202.64C296.658 202.952 297.067 203.11 297.538 203.11C297.577 203.11 297.63 203.107 297.701 203.099C297.771 203.091 297.85 203.084 297.925 203.07C297.987 203.058 298.035 203.065 298.079 203.094C298.123 203.123 298.15 203.168 298.163 203.225C298.176 203.278 298.167 203.322 298.136 203.362C298.101 203.401 298.057 203.427 298.004 203.44C297.886 203.472 297.784 203.49 297.696 203.495C297.608 203.5 297.555 203.5 297.533 203.5L297.538 203.503Z" fill="#28A8E8"></path><path d="M145.994 178.622H132.486C131.924 178.622 131.468 179.077 131.468 179.639V193.138C131.468 193.7 131.924 194.156 132.486 194.156H145.994C146.556 194.156 147.012 193.7 147.012 193.138V179.639C147.012 179.077 146.556 178.622 145.994 178.622Z" fill="#1678D1"></path><g opacity="0.75"><path d="M131.25 178.622H78.7474C78.2563 178.622 77.8584 179.077 77.8584 179.639V193.138C77.8584 193.7 78.2563 194.156 78.7474 194.156H131.25C131.74 194.156 131.25 193.7 131.25 193.138V179.639C131.25 179.077 131.74 178.622 131.25 178.622Z" fill="white"></path><path d="M131.25 178.622H78.7474C78.2563 178.622 77.8584 179.077 77.8584 179.639V193.138C77.8584 193.7 78.2563 194.156 78.7474 194.156H131.25C131.74 194.156 131.25 193.7 131.25 193.138V179.639C131.25 179.077 131.74 178.622 131.25 178.622Z" fill="url(#paint0_linear_1196_6134)"></path></g><g opacity="0.15"><path d="M181.93 97.667H73.4129C72.8505 97.667 72.3945 98.1226 72.3945 98.6847V106.755C72.3945 107.317 72.8505 107.773 73.4129 107.773H181.93C182.492 107.773 182.948 107.317 182.948 106.755V98.6847C182.948 98.1226 182.492 97.667 181.93 97.667Z" fill="white"></path><path d="M181.93 97.667H73.4129C72.8505 97.667 72.3945 98.1226 72.3945 98.6847V106.755C72.3945 107.317 72.8505 107.773 73.4129 107.773H181.93C182.492 107.773 182.948 107.317 182.948 106.755V98.6847C182.948 98.1226 182.492 97.667 181.93 97.667Z" fill="url(#paint1_linear_1196_6134)"></path></g><g opacity="0.15"><path d="M347.032 286.375V294.448C347.032 295.009 346.578 295.466 346.015 295.466H267.817V285.358H346.015C346.578 285.358 347.032 285.814 347.032 286.375Z" fill="white"></path><path d="M347.032 286.375V294.448C347.032 295.009 346.578 295.466 346.015 295.466H267.817V285.358H346.015C346.578 285.358 347.032 285.814 347.032 286.375Z" fill="url(#paint2_linear_1196_6134)"></path></g><g opacity="0.35"><path d="M207.005 317.213H98.4881C97.9257 317.213 97.4697 317.669 97.4697 318.231V326.301C97.4697 326.863 97.9257 327.319 98.4881 327.319H207.005C207.568 327.319 208.023 326.863 208.023 326.301V318.231C208.023 317.669 207.568 317.213 207.005 317.213Z" fill="white"></path><path d="M207.005 317.213H98.4881C97.9257 317.213 97.4697 317.669 97.4697 318.231V326.301C97.4697 326.863 97.9257 327.319 98.4881 327.319H207.005C207.568 327.319 208.023 326.863 208.023 326.301V318.231C208.023 317.669 207.568 317.213 207.005 317.213Z" fill="url(#paint3_linear_1196_6134)"></path></g><path d="M304.548 214.635H289.343C288.78 214.635 288.326 215.09 288.326 215.652V229.579C288.326 230.141 288.78 230.596 289.343 230.596H304.548C305.112 230.596 305.569 230.141 305.569 229.579V215.652C305.569 215.09 305.112 214.635 304.548 214.635Z" fill="#1678D1"></path><g opacity="0.75"><path d="M288.097 215.649V229.578C288.097 230.139 288.612 230.595 288.097 230.595H267.505V214.634H288.097C288.612 214.634 288.097 215.087 288.097 215.649Z" fill="white"></path><path d="M288.097 215.649V229.578C288.097 230.139 288.612 230.595 288.097 230.595H267.505V214.634H288.097C288.612 214.634 288.097 215.087 288.097 215.649Z" fill="url(#paint4_linear_1196_6134)"></path></g><path d="M134.827 265.423H114.535C113.973 265.423 113.517 265.878 113.517 266.44V286.719C113.517 287.281 113.973 287.737 114.535 287.737H134.827C135.389 287.737 135.845 287.281 135.845 286.719V266.44C135.845 265.878 135.389 265.423 134.827 265.423Z" fill="#1678D1"></path><path d="M139.677 260.579H132.021C131.459 260.579 131.003 261.035 131.003 261.596V269.247C131.003 269.809 131.459 270.264 132.021 270.264H139.677C140.239 270.264 140.695 269.809 140.695 269.247V261.596C140.695 261.035 140.239 260.579 139.677 260.579Z" fill="#1678D1"></path><path d="M188.084 260.579H172.923C172.36 260.579 171.904 261.035 171.904 261.596V276.748C171.904 277.31 172.36 277.765 172.923 277.765H188.084C188.646 277.765 189.102 277.31 189.102 276.748V261.596C189.102 261.035 188.646 260.579 188.084 260.579Z" fill="#1678D1"></path><path d="M289.242 256.83H274.081C273.517 256.83 273.06 257.286 273.06 257.848V272.999C273.06 273.561 273.517 274.017 274.081 274.017H289.242C289.806 274.017 290.259 273.561 290.259 272.999V257.848C290.259 257.286 289.806 256.83 289.242 256.83Z" fill="#1678D1"></path><path d="M144.218 290.412H140.029C139.467 290.412 139.011 290.868 139.011 291.43V295.616C139.011 296.177 139.467 296.633 140.029 296.633H144.218C144.78 296.633 145.236 296.177 145.236 295.616V291.43C145.236 290.868 144.78 290.412 144.218 290.412Z" fill="#1678D1"></path><path d="M154.843 196.313H150.654C150.092 196.313 149.636 196.768 149.636 197.33V201.516C149.636 202.078 150.092 202.533 150.654 202.533H154.843C155.405 202.533 155.861 202.078 155.861 201.516V197.33C155.861 196.768 155.405 196.313 154.843 196.313Z" fill="#1678D1"></path><path opacity="0.25" d="M73.8244 109.978H72.3915C71.829 109.978 71.373 110.434 71.373 110.996V112.428C71.373 112.99 71.829 113.445 72.3915 113.445H73.8244C74.3864 113.445 74.8424 112.99 74.8424 112.428V110.996C74.8424 110.434 74.3864 109.978 73.8244 109.978Z" fill="#1678D1"></path><path opacity="0.25" d="M68.4094 114.344H66.9764C66.4139 114.344 65.958 114.8 65.958 115.362V116.794C65.958 117.356 66.4139 117.812 66.9764 117.812H68.4094C68.9718 117.812 69.4278 117.356 69.4278 116.794V115.362C69.4278 114.8 68.9718 114.344 68.4094 114.344Z" fill="#1678D1"></path><path opacity="0.25" d="M339.441 138.393C339.441 137.832 338.987 137.377 338.424 137.377C337.861 137.377 337.407 137.832 337.407 138.393C337.407 138.955 337.861 139.41 338.424 139.41C338.987 139.41 339.441 138.955 339.441 138.393Z" fill="#1678D1"></path><path opacity="0.25" d="M342.138 135.118C342.138 134.557 341.68 134.102 341.121 134.102C340.558 134.102 340.104 134.557 340.104 135.118C340.104 135.679 340.558 136.134 341.121 136.134C341.68 136.134 342.138 135.679 342.138 135.118Z" fill="#1678D1"></path><path opacity="0.25" d="M101.636 332.311H100.203C99.6405 332.311 99.1846 332.767 99.1846 333.329V334.761C99.1846 335.323 99.6405 335.779 100.203 335.779H101.636C102.198 335.779 102.654 335.323 102.654 334.761V333.329C102.654 332.767 102.198 332.311 101.636 332.311Z" fill="#1678D1"></path><path opacity="0.25" d="M170.103 309.481H166.805C166.242 309.481 165.786 309.937 165.786 310.499V313.796C165.786 314.358 166.242 314.813 166.805 314.813H170.103C170.666 314.813 171.122 314.358 171.122 313.796V310.499C171.122 309.937 170.666 309.481 170.103 309.481Z" fill="#1678D1"></path><path opacity="0.25" d="M145.951 203.91H144.518C143.956 203.91 143.5 204.366 143.5 204.928V206.36C143.5 206.922 143.956 207.377 144.518 207.377H145.951C146.513 207.377 146.969 206.922 146.969 206.36V204.928C146.969 204.366 146.513 203.91 145.951 203.91Z" fill="#1678D1"></path><path d="M318.949 211.159V206.973C318.949 206.411 318.491 205.955 317.932 205.955H313.743C313.179 205.955 312.722 206.411 312.722 206.973V211.159C312.722 211.721 313.179 212.176 313.743 212.176H317.932C318.491 212.176 318.949 211.721 318.949 211.159Z" fill="#1678D1"></path><path opacity="0.25" d="M311.344 202.276V200.844C311.344 200.282 310.891 199.826 310.327 199.826H308.893C308.329 199.826 307.876 200.282 307.876 200.844V202.276C307.876 202.838 308.329 203.293 308.893 203.293H310.327C310.891 203.293 311.344 202.838 311.344 202.276Z" fill="#1678D1"></path><path opacity="0.25" d="M322.937 219.911V219.869C322.937 219.307 322.483 218.851 321.92 218.851H321.876C321.317 218.851 320.859 219.307 320.859 219.869V219.911C320.859 220.473 321.317 220.929 321.876 220.929H321.92C322.483 220.929 322.937 220.473 322.937 219.911Z" fill="#1678D1"></path><path opacity="0.25" d="M296.948 260.599V260.557C296.948 259.995 296.491 259.54 295.932 259.54H295.888C295.324 259.54 294.871 259.995 294.871 260.557V260.599C294.871 261.161 295.324 261.617 295.888 261.617H295.932C296.491 261.617 296.948 261.161 296.948 260.599Z" fill="#1678D1"></path><path opacity="0.25" d="M317.915 215.694V215.652C317.915 215.09 317.457 214.635 316.894 214.635H316.854C316.291 214.635 315.833 215.09 315.833 215.652V215.694C315.833 216.256 316.291 216.712 316.854 216.712H316.894C317.457 216.712 317.915 216.256 317.915 215.694Z" fill="#1678D1"></path><path d="M74.4901 199.422H70.3012C69.7392 199.422 69.2832 199.878 69.2832 200.44V204.626C69.2832 205.188 69.7392 205.643 70.3012 205.643H74.4901C75.0521 205.643 75.5081 205.188 75.5081 204.626V200.44C75.5081 199.878 75.0521 199.422 74.4901 199.422Z" fill="#1678D1"></path><path d="M349.122 133.522H344.937C344.374 133.522 343.916 133.977 343.916 134.539V138.725C343.916 139.287 344.374 139.743 344.937 139.743H349.122C349.686 139.743 350.144 139.287 350.144 138.725V134.539C350.144 133.977 349.686 133.522 349.122 133.522Z" fill="#1678D1"></path><path d="M361.683 143.884H357.493C356.93 143.884 356.477 144.339 356.477 144.901V149.087C356.477 149.649 356.93 150.105 357.493 150.105H361.683C362.242 150.105 362.7 149.649 362.7 149.087V144.901C362.7 144.339 362.242 143.884 361.683 143.884Z" fill="#1678D1"></path><path d="M296.961 249.327H292.772C292.213 249.327 291.755 249.783 291.755 250.344V254.531C291.755 255.092 292.213 255.548 292.772 255.548H296.961C297.525 255.548 297.978 255.092 297.978 254.531V250.344C297.978 249.783 297.525 249.327 296.961 249.327Z" fill="#1678D1"></path><path d="M38.1317 245.377H33.9428C33.3807 245.377 32.9248 245.833 32.9248 246.395V250.581C32.9248 251.143 33.3807 251.599 33.9428 251.599H38.1317C38.6941 251.599 39.1496 251.143 39.1496 250.581V246.395C39.1496 245.833 38.6941 245.377 38.1317 245.377Z" fill="#1678D1"></path><g opacity="0.75"><path d="M113.294 265.423H17.0286C16.5256 265.423 16.1172 265.878 16.1172 266.44V286.719C16.1172 287.281 16.5256 287.737 17.0286 287.737H113.294C113.797 287.737 113.294 287.281 113.294 286.719V266.44C113.294 265.878 113.797 265.423 113.294 265.423Z" fill="white"></path><path d="M113.294 265.423H17.0286C16.5256 265.423 16.1172 265.878 16.1172 266.44V286.719C16.1172 287.281 16.5256 287.737 17.0286 287.737H113.294C113.797 287.737 113.294 287.281 113.294 286.719V266.44C113.294 265.878 113.797 265.423 113.294 265.423Z" fill="url(#paint5_linear_1196_6134)"></path></g><path d="M386.94 102.288H366.647C366.084 102.288 365.626 102.744 365.626 103.306V123.584C365.626 124.146 366.084 124.602 366.647 124.602H386.94C387.499 124.602 387.957 124.146 387.957 123.584V103.306C387.957 102.744 387.499 102.288 386.94 102.288Z" fill="#1678D1"></path><g opacity="0.75"><path d="M365.406 102.288L268.913 102.289C268.411 102.289 268.002 102.744 268.002 103.306V123.585C268.002 124.147 268.411 124.602 268.913 124.602H365.406C365.908 124.602 365.406 124.147 365.406 123.585V103.306C365.406 102.744 365.908 102.288 365.406 102.288Z" fill="white"></path><path d="M365.406 102.288L268.913 102.289C268.411 102.289 268.002 102.744 268.002 103.306V123.585C268.002 124.147 268.411 124.602 268.913 124.602H365.406C365.908 124.602 365.406 124.147 365.406 123.585V103.306C365.406 102.744 365.908 102.288 365.406 102.288Z" fill="url(#paint6_linear_1196_6134)"></path></g><path d="M259.61 35.5721L183.652 75.5238C182.358 76.2028 181.55 77.5429 181.55 79.004V365.977C181.55 367.021 181.964 368.02 182.702 368.76L258.659 444.67C261.141 447.147 265.384 445.392 265.384 441.886V39.0525C265.384 36.0914 262.233 34.1926 259.61 35.5721ZM233.453 287.385C233.453 287.616 233.453 287.844 233.448 288.07C233.437 288.746 233.409 289.397 233.364 290.018C233.335 290.433 233.298 290.836 233.254 291.23C233.033 293.189 232.634 294.852 232.054 296.218C231.881 296.625 231.702 296.982 231.519 297.289C231.458 297.391 231.396 297.488 231.333 297.58C230.829 298.312 230.283 298.691 229.692 298.721C229.398 298.736 229.091 298.663 228.776 298.505L212.376 290.236L204.175 286.1C203.986 286.005 203.802 285.872 203.626 285.701C203.151 285.248 202.718 284.524 202.322 283.535C202.075 282.916 201.842 282.195 201.624 281.369C201.364 280.385 201.157 279.362 200.997 278.297C200.784 276.878 200.661 275.391 200.624 273.828C200.616 273.438 200.611 273.044 200.614 272.643L200.879 214.904C200.887 213.325 200.979 211.875 201.16 210.55C201.34 209.226 201.606 208.025 201.96 206.947C202.314 205.864 202.705 205.064 203.133 204.553C203.241 204.424 203.348 204.314 203.461 204.222C203.516 204.175 203.574 204.133 203.629 204.096C203.8 203.984 203.975 203.913 204.157 203.881C204.277 203.86 204.401 203.857 204.524 203.873C204.647 203.889 204.768 203.889 204.886 203.878C205.004 203.868 205.117 203.842 205.227 203.808C205.884 203.595 206.372 202.982 206.374 202.242L206.413 192.362C206.445 184.263 207.382 177.368 209.24 171.598C211.13 165.736 213.439 162.676 216.2 162.484C216.289 162.479 216.376 162.474 216.465 162.474C217.166 162.474 217.846 162.663 218.502 163.046C218.83 163.237 219.15 163.476 219.467 163.764C220.651 164.845 221.753 166.605 222.769 169.057C223.039 169.71 223.304 170.413 223.564 171.165C223.696 171.549 223.824 171.936 223.947 172.333C224.564 174.302 225.081 176.411 225.493 178.653C225.74 179.999 225.95 181.392 226.123 182.832C226.238 183.791 226.336 184.775 226.417 185.777C226.459 186.277 226.496 186.784 226.527 187.298C226.624 188.835 226.685 190.416 226.706 192.047C226.714 192.59 226.716 193.139 226.716 193.692L226.695 205.061C226.695 205.271 226.734 205.473 226.805 205.657C226.876 205.84 226.981 206.011 227.11 206.158C227.241 206.304 227.396 206.428 227.571 206.522C227.658 206.569 227.753 206.609 227.85 206.637C227.947 206.669 228.047 206.69 228.152 206.703L228.936 206.797C230.188 206.947 231.27 208.361 232.175 211.051C232.288 211.39 232.395 211.736 232.495 212.09C232.794 213.152 233.031 214.28 233.201 215.473C233.429 217.065 233.542 218.773 233.54 220.595L233.458 287.388L233.453 287.385Z" fill="#1678D1"></path><path d="M222.094 204.985C222.241 204.741 222.325 204.453 222.325 204.143L222.351 193.401C222.351 193.073 222.351 192.748 222.346 192.428C222.341 192.108 222.335 191.788 222.327 191.473C222.301 190.526 222.251 189.608 222.18 188.717C222.157 188.42 222.131 188.126 222.102 187.835C221.818 184.927 221.293 182.325 220.527 180.036C219.543 177.095 218.396 175.367 217.089 174.837C216.887 174.756 216.682 174.703 216.475 174.677C216.37 174.664 216.265 174.659 216.16 174.662C215.638 174.669 215.139 174.848 214.669 175.199C214.102 175.619 213.575 176.282 213.081 177.19C212.916 177.491 212.756 177.822 212.601 178.179C212.522 178.357 212.446 178.543 212.37 178.735C212.218 179.117 212.069 179.529 211.927 179.967C211.284 181.918 210.819 184.103 210.533 186.524C210.502 186.794 210.473 187.064 210.444 187.34C210.334 188.439 210.26 189.585 210.221 190.781C210.2 191.378 210.189 191.987 210.187 192.606L210.147 203.073C210.145 203.808 210.622 204.44 211.302 204.655C211.399 204.686 211.499 204.707 211.604 204.72L220.475 205.782C220.535 205.79 220.598 205.793 220.658 205.796C221.02 205.798 221.359 205.686 221.635 205.486C221.818 205.355 221.976 205.185 222.091 204.988L222.094 204.985Z" fill="#1678D1"></path><path d="M220.083 249.702C220.086 248.402 220.03 247.156 219.918 245.962C219.881 245.566 219.836 245.173 219.786 244.79C219.584 243.251 219.28 241.808 218.873 240.465C218.469 239.133 218.025 238.099 217.542 237.363C217.482 237.271 217.422 237.184 217.359 237.1C217.235 236.935 217.109 236.788 216.981 236.66C216.852 236.531 216.721 236.421 216.59 236.329C216.456 236.237 216.322 236.164 216.183 236.111C216.115 236.085 216.044 236.062 215.973 236.043C215.346 235.883 214.774 236.117 214.251 236.738C214.136 236.877 214.021 237.035 213.91 237.213C213.8 237.391 213.69 237.586 213.585 237.803C213.425 238.126 213.272 238.493 213.125 238.902C212.537 240.531 212.17 242.487 212.018 244.774C211.968 245.538 211.939 246.335 211.937 247.171C211.926 250.518 212.302 253.516 213.068 256.178C213.212 256.681 213.364 257.143 213.522 257.568C213.627 257.851 213.735 258.113 213.845 258.36C213.955 258.606 214.068 258.834 214.183 259.047C214.703 259.996 215.275 260.589 215.902 260.817C215.973 260.844 216.041 260.865 216.112 260.88C216.251 260.912 216.388 260.922 216.522 260.914C217.057 260.88 217.556 260.524 218.015 259.844C218.073 259.76 218.13 259.669 218.185 259.574C218.411 259.194 218.626 258.732 218.831 258.192C218.934 257.919 219.03 257.636 219.122 257.342C219.303 256.755 219.461 256.128 219.589 255.462C219.655 255.129 219.713 254.785 219.765 254.431C219.792 254.256 219.815 254.074 219.839 253.894C219.999 252.621 220.083 251.223 220.086 249.705L220.083 249.702Z" fill="#1678D1"></path><path d="M233.324 214.635C233.671 217.213 233.823 222.101 233.778 230.596H144.516C143.955 230.596 143.498 230.14 143.498 229.579V215.649C143.498 215.088 143.955 214.635 144.516 214.635H233.324Z" fill="white"></path><g opacity="0.75"><path d="M233.324 214.635C233.671 217.213 233.823 222.101 233.778 230.596H144.516C143.955 230.596 143.498 230.14 143.498 229.579V215.649C143.498 215.088 143.955 214.635 144.516 214.635H233.324Z" fill="white"></path><path d="M233.324 214.635C233.671 217.213 233.823 222.101 233.778 230.596H144.516C143.955 230.596 143.498 230.14 143.498 229.579V215.649C143.498 215.088 143.955 214.635 144.516 214.635H233.324Z" fill="url(#paint7_linear_1196_6134)"></path></g><path d="M405.548 153.394C405.015 153.394 404.558 153.203 404.175 152.824C403.792 152.444 403.603 151.985 403.603 151.45V141.729C403.603 141.195 403.796 140.738 404.175 140.355C404.553 139.973 405.015 139.785 405.548 139.785H406.525V137.841C406.525 136.497 407 135.35 407.946 134.401C408.893 133.454 410.041 132.979 411.388 132.979C412.735 132.979 413.879 133.454 414.83 134.401C415.78 135.347 416.251 136.494 416.251 137.841V139.785H417.228C417.761 139.785 418.218 139.976 418.601 140.355C418.984 140.735 419.173 141.195 419.173 141.729V151.45C419.173 151.985 418.98 152.441 418.601 152.824C418.223 153.206 417.761 153.394 417.228 153.394H405.557H405.548ZM411.384 148.532C411.921 148.532 412.378 148.341 412.761 147.962C413.144 147.582 413.329 147.122 413.329 146.588C413.329 146.053 413.14 145.597 412.761 145.214C412.378 144.832 411.921 144.644 411.384 144.644C410.851 144.644 410.393 144.835 410.01 145.214C409.632 145.594 409.438 146.053 409.438 146.588C409.438 147.122 409.632 147.579 410.01 147.962C410.389 148.344 410.851 148.532 411.384 148.532ZM408.466 139.782H414.301V137.838C414.301 137.029 414.02 136.339 413.452 135.771C412.884 135.204 412.193 134.92 411.384 134.92C410.569 134.92 409.883 135.204 409.315 135.771C408.747 136.339 408.461 137.026 408.461 137.838V139.782H408.466Z" fill="#1678D1"></path><path d="M360.75 279.895C360.416 279.895 360.134 279.776 359.896 279.54C359.659 279.305 359.54 279.019 359.54 278.687V272.653C359.54 272.321 359.659 272.037 359.896 271.8C360.134 271.562 360.416 271.445 360.75 271.445H361.353V270.238C361.353 269.404 361.648 268.692 362.238 268.103C362.828 267.515 363.541 267.22 364.377 267.22C365.213 267.22 365.922 267.515 366.511 268.103C367.101 268.69 367.396 269.402 367.396 270.238V271.445H367.999C368.333 271.445 368.615 271.564 368.853 271.8C369.09 272.035 369.209 272.321 369.209 272.653V278.687C369.209 279.019 369.09 279.303 368.853 279.54C368.619 279.778 368.333 279.895 367.999 279.895H360.755H360.75ZM364.372 276.876C364.707 276.876 364.989 276.757 365.226 276.522C365.464 276.286 365.583 276.001 365.583 275.669C365.583 275.337 365.464 275.054 365.226 274.816C364.993 274.579 364.707 274.462 364.372 274.462C364.042 274.462 363.756 274.581 363.519 274.816C363.285 275.052 363.166 275.337 363.166 275.669C363.166 276.001 363.285 276.285 363.519 276.522C363.756 276.759 364.042 276.876 364.372 276.876ZM362.559 271.444H366.186V270.237C366.186 269.734 366.01 269.306 365.657 268.954C365.301 268.601 364.874 268.425 364.372 268.425C363.866 268.425 363.439 268.601 363.087 268.954C362.735 269.306 362.559 269.732 362.559 270.237V271.444Z" fill="#1678D1"></path><defs><linearGradient id="paint0_linear_1196_6134" x1="77.8584" y1="194.156" x2="131.468" y2="194.156" gradientUnits="userSpaceOnUse"><stop offset="0.00520833" stop-color="#4080D8" stop-opacity="0.35"></stop><stop offset="0.494792" stop-color="#4080D8" stop-opacity="0.5"></stop><stop offset="1" stop-color="#4080D8" stop-opacity="0.9"></stop></linearGradient><linearGradient id="paint1_linear_1196_6134" x1="72.3945" y1="107.773" x2="182.948" y2="107.773" gradientUnits="userSpaceOnUse"><stop offset="0.00520833" stop-color="#4080D8" stop-opacity="0.35"></stop><stop offset="0.494792" stop-color="#4080D8" stop-opacity="0.5"></stop><stop offset="1" stop-color="#4080D8" stop-opacity="0.9"></stop></linearGradient><linearGradient id="paint2_linear_1196_6134" x1="267.817" y1="295.466" x2="347.032" y2="295.466" gradientUnits="userSpaceOnUse"><stop offset="0.00520833" stop-color="#4080D8" stop-opacity="0.35"></stop><stop offset="0.494792" stop-color="#4080D8" stop-opacity="0.5"></stop><stop offset="1" stop-color="#4080D8" stop-opacity="0.9"></stop></linearGradient><linearGradient id="paint3_linear_1196_6134" x1="97.4697" y1="327.319" x2="208.023" y2="327.319" gradientUnits="userSpaceOnUse"><stop offset="0.00520833" stop-color="#4080D8" stop-opacity="0.35"></stop><stop offset="0.494792" stop-color="#4080D8" stop-opacity="0.5"></stop><stop offset="1" stop-color="#4080D8" stop-opacity="0.9"></stop></linearGradient><linearGradient id="paint4_linear_1196_6134" x1="267.505" y1="230.595" x2="288.326" y2="230.595" gradientUnits="userSpaceOnUse"><stop offset="0.00520833" stop-color="#4080D8" stop-opacity="0.35"></stop><stop offset="0.494792" stop-color="#4080D8" stop-opacity="0.5"></stop><stop offset="1" stop-color="#4080D8" stop-opacity="0.9"></stop></linearGradient><linearGradient id="paint5_linear_1196_6134" x1="16.1172" y1="287.737" x2="113.517" y2="287.737" gradientUnits="userSpaceOnUse"><stop offset="0.00520833" stop-color="#4080D8" stop-opacity="0.35"></stop><stop offset="0.494792" stop-color="#4080D8" stop-opacity="0.5"></stop><stop offset="1" stop-color="#4080D8" stop-opacity="0.9"></stop></linearGradient><linearGradient id="paint6_linear_1196_6134" x1="268.002" y1="124.602" x2="365.63" y2="124.602" gradientUnits="userSpaceOnUse"><stop offset="0.00520833" stop-color="#4080D8" stop-opacity="0.35"></stop><stop offset="0.494792" stop-color="#4080D8" stop-opacity="0.5"></stop><stop offset="1" stop-color="#4080D8" stop-opacity="0.9"></stop></linearGradient><linearGradient id="paint7_linear_1196_6134" x1="143.498" y1="230.596" x2="233.786" y2="230.596" gradientUnits="userSpaceOnUse"><stop offset="0.00520833" stop-color="#4080D8" stop-opacity="0.35"></stop><stop offset="0.494792" stop-color="#4080D8" stop-opacity="0.5"></stop><stop offset="1" stop-color="#4080D8" stop-opacity="0.9"></stop></linearGradient></defs></svg>